<svg xmlns="http://www.w3.org/2000/svg" width="129" height="51" fill="none"><path fill="#FBF6EC" stroke="#EEDFC5" stroke-miterlimit="10" stroke-width="2.013" d="M127 50H2c.55-8.72 7.846-15.624 16.727-15.624 1.819 0 3.572.3 5.225.849a12.251 12.251 0 0 1 10.9-8.053c-.033-.55-.082-1.115-.082-1.68C34.77 11.964 45.77 1 59.358 1 70.26 1 79.507 8.104 82.712 17.92c.551-.066 1.118-.099 1.685-.099 7.58 0 13.923 5.225 15.659 12.246h.484v1.88a21.627 21.627 0 0 1 5.024-.598c10.97 0 20.018 8.119 21.436 18.651Z"/></svg>