<svg width="56" height="51" fill="none" xmlns="http://www.w3.org/2000/svg"><path d="m34.706 24.463-.002.027v.028c0 2.743-1.807 5.404-4.922 7.415-3.103 2.003-7.411 3.29-12.151 3.29-4.748 0-9.014-1.216-12.071-3.144-3.066-1.934-4.83-4.52-4.83-7.263v-.017l-.001-.017c-.17-3.449.237-5.755 1.018-7.298.762-1.508 1.91-2.347 3.392-2.81 1.518-.476 3.38-.555 5.53-.501.81.02 1.672.06 2.564.101 1.416.066 2.91.135 4.398.135v-.69.69c.25 0 .704-.068 1.22-.145l.184-.027a48.776 48.776 0 0 1 2.33-.298c1.813-.182 4.02-.262 6.12.114 2.099.376 4.024 1.197 5.359 2.762 1.325 1.555 2.155 3.946 1.862 7.648Z" fill="#DDC59C" stroke="#EEDFC5" stroke-width="1.381"/><path d="m10.014 29.524-.172 3.799s-1.183-.404-1.9-.691c-.863-.345-1.208-.654-1.208-.654v-3.663l3.28 1.209Z" fill="#fff"/><path d="M24.863 29.524v3.971s1.036-.345 2.59-1.035c1.553-.691 7.02-3.816 6.561-7.943-.173-1.553-9.15 4.49-9.15 5.007Z" fill="#9F8A65"/><path d="M34.532 20.719c0 2.516-1.739 4.918-4.818 6.73-3.063 1.802-7.34 2.939-12.103 2.939s-9.04-1.137-12.103-2.94c-3.08-1.81-4.817-4.213-4.817-6.73s1.738-4.918 4.817-6.73c3.064-1.801 7.341-2.938 12.103-2.938s9.04 1.137 12.103 2.939c3.08 1.811 4.818 4.214 4.818 6.73Z" fill="#DDC59C" stroke="#EEDFC5" stroke-width="1.381"/><path d="m34.706 19.284-.002.027v.027c0 2.743-1.807 5.404-4.922 7.416-3.103 2.003-7.411 3.289-12.151 3.289-4.748 0-9.014-1.216-12.071-3.144-3.066-1.934-4.83-4.52-4.83-7.263v-.017l-.001-.017c-.17-3.448.237-5.754 1.018-7.298.762-1.508 1.91-2.347 3.392-2.81 1.518-.476 3.38-.555 5.53-.5.81.02 1.672.06 2.564.1 1.416.066 2.91.135 4.398.135v-.69.69c.25 0 .704-.067 1.22-.144.06-.01.122-.018.184-.027a48.835 48.835 0 0 1 2.33-.3c1.813-.18 4.02-.261 6.12.115 2.099.376 4.024 1.197 5.359 2.763 1.325 1.554 2.155 3.945 1.862 7.648Z" fill="#DDC59C" stroke="#EEDFC5" stroke-width="1.381"/><path d="m10.014 24.345-.172 3.799s-1.183-.404-1.9-.69c-.863-.346-1.208-.655-1.208-.655v-3.662l3.28 1.208Z" fill="#fff"/><path d="M24.863 24.345v3.97s1.036-.345 2.59-1.035c1.553-.69 7.02-3.816 6.561-7.942-.173-1.554-9.15 4.489-9.15 5.007Z" fill="#9F8A65"/><path d="M34.532 15.54c0 2.515-1.739 4.918-4.818 6.73-3.063 1.801-7.34 2.938-12.103 2.938s-9.04-1.137-12.103-2.939C2.428 20.458.691 18.055.691 15.54s1.738-4.918 4.817-6.73C8.572 7.007 12.85 5.87 17.611 5.87s9.04 1.137 12.103 2.94c3.08 1.81 4.818 4.213 4.818 6.73Z" fill="#DDC59C" stroke="#EEDFC5" stroke-width="1.381"/><path d="m34.706 14.104-.002.027v.027c0 2.743-1.807 5.405-4.922 7.416-3.103 2.003-7.411 3.289-12.151 3.289-4.748 0-9.014-1.215-12.071-3.144C2.494 19.785.73 17.2.73 14.456v-.017l-.001-.017c-.17-3.448.237-5.754 1.018-7.298.762-1.508 1.91-2.346 3.392-2.81 1.518-.475 3.38-.554 5.53-.5.81.02 1.672.06 2.564.1 1.416.066 2.91.136 4.398.136v-.691.69c.25 0 .704-.067 1.22-.144l.184-.027a48.835 48.835 0 0 1 2.33-.299c1.813-.181 4.02-.262 6.12.114 2.099.377 4.024 1.197 5.359 2.763 1.325 1.554 2.155 3.946 1.862 7.648Z" fill="#DDC59C" stroke="#EEDFC5" stroke-width="1.381"/><path d="m10.014 19.165-.172 3.798s-1.183-.404-1.9-.69c-.863-.346-1.208-.655-1.208-.655v-3.662l3.28 1.209Z" fill="#fff"/><path d="M24.863 19.165v3.971s1.036-.345 2.59-1.036c1.553-.69 7.02-3.815 6.561-7.942-.173-1.554-9.15 4.49-9.15 5.007Z" fill="#9F8A65"/><path d="M34.532 10.36c0 2.516-1.739 4.918-4.818 6.73-3.063 1.802-7.34 2.938-12.103 2.938s-9.04-1.136-12.103-2.938C2.428 15.278.691 12.876.691 10.36S2.429 5.44 5.508 3.63C8.572 1.827 12.85.69 17.611.69s9.04 1.137 12.103 2.94c3.08 1.811 4.818 4.214 4.818 6.73Z" fill="#DDC59C" stroke="#EEDFC5" stroke-width="1.381"/><path d="m55.26 39.488-.002.027v.027c0 2.707-1.783 5.335-4.859 7.32-3.063 1.977-7.316 3.247-11.995 3.247-4.687 0-8.898-1.2-11.915-3.103-3.027-1.91-4.769-4.462-4.769-7.17v-.034c-.168-3.404.234-5.68 1.004-7.204.753-1.488 1.885-2.316 3.349-2.774 1.499-.47 3.337-.547 5.459-.494.8.02 1.65.06 2.53.1 1.399.065 2.873.133 4.342.133.247 0 .695-.067 1.205-.143l.181-.027c.623-.092 1.41-.205 2.3-.294 1.79-.18 3.97-.259 6.041.112 2.073.372 3.973 1.182 5.29 2.727 1.309 1.535 2.128 3.895 1.84 7.55Z" fill="#DDC59C" stroke="#EEDFC5" stroke-width="1.364"/><path d="m30.886 44.484-.17 3.75s-1.168-.399-1.876-.682c-.852-.34-1.193-.646-1.193-.646v-3.615l3.239 1.193Z" fill="#fff"/><path d="M45.544 44.484v3.92s1.022-.34 2.556-1.023c1.534-.681 6.93-3.766 6.477-7.84-.17-1.533-9.032 4.432-9.033 4.943Z" fill="#9F8A65"/><path d="M55.089 35.792c0 2.484-1.716 4.855-4.756 6.643-3.024 1.78-7.247 2.901-11.948 2.901s-8.923-1.122-11.947-2.9c-3.04-1.789-4.756-4.16-4.756-6.644s1.716-4.855 4.756-6.644c3.024-1.779 7.247-2.9 11.947-2.9s8.924 1.121 11.948 2.9c3.04 1.789 4.756 4.16 4.756 6.644Z" fill="#DDC59C" stroke="#EEDFC5" stroke-width="1.364"/><path d="m33.53 31.79.882.773c-.827 1.232-.92 2.637.11 3.564 1.11 1.004 2.349.489 3.36-.38l.087-.07 1.76 1.541c-.629.57-1.438.965-2.072 1.06l.324 1.233c.942-.149 1.95-.744 2.699-1.469l.905.793.78-.892-.923-.808c.806-1.227.924-2.642-.13-3.597-1.084-.99-2.362-.42-3.422.495l-1.765-1.545a4.553 4.553 0 0 1 1.776-.962l-.366-1.213a5.401 5.401 0 0 0-2.357 1.346l-.868-.76-.78.892Zm6.95 2.798c.448.408.4 1.056.007 1.718l-1.604-1.404c.677-.495 1.216-.656 1.598-.314Zm-5.096.499c-.428-.392-.418-1.024-.021-1.691l1.613 1.412c-.684.522-1.177.65-1.592.279Z" fill="#FBF6EC"/></svg>