<svg width="221" height="296" viewBox="0 0 221 296" fill="none" xmlns="http://www.w3.org/2000/svg">
<g filter="url(#filter0_d_2324_311)">
<rect x="10" y="7" width="203.889" height="278.483" fill="white"/>
</g>
<rect x="10" y="7" width="19.8916" height="278.483" fill="#E37645"/>
<path d="M68.8627 166.686V167.751H66.61V173.648H65.4861V167.751H63.2334V166.686H68.8627ZM71.0062 166.487V169.451C71.3891 168.904 71.9759 168.76 72.4583 168.76C73.5921 168.76 74.3928 169.541 74.3928 170.655V173.648H73.3485V170.998C73.3485 170.197 72.9357 169.75 72.2395 169.75C71.5682 169.75 71.0062 170.192 71.0062 171.008V173.648H69.9619V166.487H71.0062ZM78.1025 168.76C79.4352 168.76 80.3502 169.775 80.3552 171.261C80.3552 171.396 80.3453 171.53 80.3353 171.649H76.8145C76.9537 172.505 77.5555 172.863 78.2318 172.863C78.7092 172.863 79.2164 172.674 79.6093 172.36L80.1265 173.101C79.5446 173.599 78.8882 173.773 78.1671 173.773C76.7399 173.773 75.7304 172.778 75.7304 171.266C75.7304 169.775 76.7001 168.76 78.1025 168.76ZM78.0826 169.685C77.3416 169.685 76.9289 170.162 76.8195 170.859H79.291C79.1766 170.118 78.744 169.685 78.0826 169.685ZM89.6257 172.584V173.648H84.6478V166.686H85.7717V172.584H89.6257ZM95.3024 168.884V173.648H94.263V173.077C93.9348 173.499 93.4425 173.773 92.7662 173.773C91.4335 173.773 90.3842 172.723 90.3842 171.266C90.3842 169.809 91.4335 168.76 92.7662 168.76C93.4425 168.76 93.9348 169.039 94.263 169.461V168.884H95.3024ZM92.8905 169.74C91.9954 169.74 91.4533 170.431 91.4533 171.266C91.4533 172.102 91.9954 172.793 92.8905 172.793C93.7508 172.793 94.3277 172.137 94.3277 171.266C94.3277 170.396 93.7508 169.74 92.8905 169.74ZM100.723 169.267L100.276 170.078C99.9871 169.899 99.3953 169.67 98.8035 169.67C98.2366 169.67 97.9034 169.899 97.9034 170.237C97.9034 170.57 98.2516 170.665 98.6892 170.729L99.1815 170.804C100.221 170.953 100.837 171.396 100.837 172.211C100.837 173.126 100.042 173.768 98.6693 173.768C98.177 173.768 97.3216 173.673 96.6254 173.156L97.1078 172.375C97.4509 172.639 97.9034 172.863 98.6792 172.863C99.3903 172.863 99.7633 172.639 99.7633 172.281C99.7633 172.012 99.5047 171.833 98.9378 171.754L98.4405 171.689C97.3863 171.545 96.8243 171.058 96.8243 170.292C96.8243 169.347 97.5802 168.765 98.7936 168.765C99.5395 168.765 100.231 168.949 100.723 169.267ZM105.411 168.884V169.829H103.586V171.903C103.586 172.544 103.924 172.793 104.342 172.793C104.665 172.793 105.018 172.649 105.302 172.47L105.714 173.3C105.332 173.559 104.849 173.773 104.252 173.773C103.173 173.773 102.542 173.191 102.542 171.923V169.829H101.592V168.884H102.542V167.442H103.586V168.884H105.411ZM119.249 166.686L117.126 173.648H115.734L114.068 168.213L112.402 173.648H111.009L108.886 166.686H110.064L111.72 172.351L113.441 166.686H114.719L116.435 172.351L118.096 166.686H119.249ZM121.446 168.884V173.648H120.402V168.884H121.446ZM120.919 166.502C121.332 166.502 121.655 166.826 121.655 167.238C121.655 167.651 121.332 167.964 120.919 167.964C120.506 167.964 120.193 167.651 120.193 167.238C120.193 166.826 120.506 166.502 120.919 166.502ZM124.216 166.487V173.648H123.172V166.487H124.216ZM126.987 166.487V173.648H125.943V166.487H126.987ZM68.4351 181.884V186.648H67.3957V186.077C67.0675 186.499 66.5752 186.773 65.8989 186.773C64.5661 186.773 63.5169 185.723 63.5169 184.266C63.5169 182.809 64.5661 181.76 65.8989 181.76C66.5752 181.76 67.0675 182.039 67.3957 182.461V181.884H68.4351ZM66.0232 182.74C65.1281 182.74 64.586 183.431 64.586 184.266C64.586 185.102 65.1281 185.793 66.0232 185.793C66.8835 185.793 67.4604 185.137 67.4604 184.266C67.4604 183.396 66.8835 182.74 66.0232 182.74ZM72.6623 181.76C73.7961 181.76 74.5967 182.541 74.5967 183.655V186.648H73.5524V183.998C73.5524 183.197 73.1397 182.75 72.4435 182.75C71.7721 182.75 71.2102 183.192 71.2102 184.008V186.648H70.1659V181.884H71.2002V182.466C71.5832 181.904 72.1749 181.76 72.6623 181.76ZM78.3164 181.76C78.9927 181.76 79.485 182.039 79.8132 182.461V179.487H80.8526V186.648H79.8132V186.077C79.485 186.499 78.9927 186.773 78.3164 186.773C76.9837 186.773 75.9344 185.723 75.9344 184.266C75.9344 182.809 76.9837 181.76 78.3164 181.76ZM78.4407 182.74C77.5456 182.74 77.0035 183.431 77.0035 184.266C77.0035 185.102 77.5456 185.793 78.4407 185.793C79.301 185.793 79.8779 185.137 79.8779 184.266C79.8779 183.396 79.301 182.74 78.4407 182.74ZM90.2206 179.686V180.751H87.9679V186.648H86.844V180.751H84.5913V179.686H90.2206ZM92.6008 181.76C93.9336 181.76 94.8486 182.775 94.8536 184.261C94.8536 184.396 94.8436 184.53 94.8337 184.649H91.3129C91.4521 185.505 92.0538 185.863 92.7301 185.863C93.2075 185.863 93.7148 185.674 94.1076 185.36L94.6248 186.101C94.043 186.599 93.3866 186.773 92.6655 186.773C91.2383 186.773 90.2288 185.778 90.2288 184.266C90.2288 182.775 91.1985 181.76 92.6008 181.76ZM92.581 182.685C91.84 182.685 91.4272 183.162 91.3178 183.859H93.7894C93.675 183.118 93.2424 182.685 92.581 182.685ZM99.9266 182.267L99.4791 183.078C99.1907 182.899 98.5989 182.67 98.0071 182.67C97.4402 182.67 97.107 182.899 97.107 183.237C97.107 183.57 97.4551 183.665 97.8927 183.729L98.385 183.804C99.4244 183.953 100.041 184.396 100.041 185.211C100.041 186.126 99.2454 186.768 97.8728 186.768C97.3805 186.768 96.5252 186.673 95.829 186.156L96.3113 185.375C96.6545 185.639 97.107 185.863 97.8828 185.863C98.5939 185.863 98.9669 185.639 98.9669 185.281C98.9669 185.012 98.7083 184.833 98.1414 184.754L97.6441 184.689C96.5898 184.545 96.0279 184.058 96.0279 183.292C96.0279 182.347 96.7838 181.765 97.9972 181.765C98.7431 181.765 99.4343 181.949 99.9266 182.267ZM104.615 181.884V182.829H102.79V184.903C102.79 185.544 103.128 185.793 103.546 185.793C103.869 185.793 104.222 185.649 104.505 185.47L104.918 186.3C104.535 186.559 104.053 186.773 103.456 186.773C102.377 186.773 101.745 186.191 101.745 184.923V182.829H100.796V181.884H101.745V180.442H102.79V181.884H104.615ZM110.558 181.884V186.648H109.519V186.077C109.191 186.499 108.698 186.773 108.022 186.773C106.689 186.773 105.64 185.723 105.64 184.266C105.64 182.809 106.689 181.76 108.022 181.76C108.698 181.76 109.191 182.039 109.519 182.461V181.884H110.558ZM108.146 182.74C107.251 182.74 106.709 183.431 106.709 184.266C106.709 185.102 107.251 185.793 108.146 185.793C109.007 185.793 109.584 185.137 109.584 184.266C109.584 183.396 109.007 182.74 108.146 182.74ZM118.172 181.76C119.306 181.76 120.107 182.541 120.107 183.655V186.648H119.062V183.998C119.062 183.197 118.649 182.75 117.953 182.75C117.282 182.75 116.72 183.192 116.72 184.008V186.648H115.676V183.998C115.676 183.197 115.263 182.75 114.567 182.75C113.895 182.75 113.333 183.192 113.333 184.008V186.648H112.289V181.884H113.324V182.466C113.706 181.904 114.298 181.76 114.786 181.76C115.512 181.76 116.103 182.083 116.432 182.61C116.844 181.929 117.58 181.76 118.172 181.76ZM123.819 181.76C125.152 181.76 126.067 182.775 126.072 184.261C126.072 184.396 126.062 184.53 126.052 184.649H122.531C122.671 185.505 123.272 185.863 123.949 185.863C124.426 185.863 124.933 185.674 125.326 185.36L125.843 186.101C125.262 186.599 124.605 186.773 123.884 186.773C122.457 186.773 121.447 185.778 121.447 184.266C121.447 182.775 122.417 181.76 123.819 181.76ZM123.8 182.685C123.059 182.685 122.646 183.162 122.536 183.859H125.008C124.894 183.118 124.461 182.685 123.8 182.685ZM129.952 181.76C131.086 181.76 131.886 182.541 131.886 183.655V186.648H130.842V183.998C130.842 183.197 130.429 182.75 129.733 182.75C129.062 182.75 128.5 183.192 128.5 184.008V186.648H127.455V181.884H128.49V182.466C128.873 181.904 129.464 181.76 129.952 181.76ZM136.766 181.884V182.829H134.941V184.903C134.941 185.544 135.279 185.793 135.697 185.793C136.02 185.793 136.373 185.649 136.656 185.47L137.069 186.3C136.686 186.559 136.204 186.773 135.607 186.773C134.528 186.773 133.896 186.191 133.896 184.923V182.829H132.947V181.884H133.896V180.442H134.941V181.884H136.766Z" fill="black"/>
<path d="M64.7026 151.211H103.657" stroke="#E37645" stroke-width="0.828818"/>
<path d="M192.829 60.0361C192.829 60.0548 192.829 60.0921 192.81 60.1108C192.753 60.3161 192.714 60.5588 192.714 60.8015C192.714 62.295 194.114 63.3591 195.321 63.3591C196.874 63.3591 197.929 62.1457 197.929 60.7269C197.929 60.6522 197.929 60.5588 197.929 60.4842C197.929 60.4655 197.929 60.4468 197.929 60.4282C197.929 60.3535 197.929 60.2975 197.909 60.2415C197.909 60.2228 197.909 60.2041 197.909 60.1855C197.909 60.1108 197.89 60.0361 197.871 59.9614C197.814 59.6627 197.718 59.364 197.564 59.1027C197.564 59.084 197.43 58.8973 197.353 58.804C197.296 58.7293 197.181 58.7106 197.104 58.7666L196.644 59.084C196.548 59.1587 196.529 59.2707 196.606 59.364C196.855 59.7561 197.008 60.2228 197.008 60.6522C197.008 61.3056 196.702 61.903 195.973 62.1083C195.973 62.1083 195.973 62.1083 195.954 62.127C195.897 62.1457 195.82 62.1643 195.743 62.183C195.743 62.1083 195.743 62.0337 195.743 61.9403V58.6173C195.743 58.5053 195.667 58.4306 195.571 58.4306C195.494 58.4306 195.417 58.4119 195.341 58.4119C194.075 58.3933 193.136 59.0467 192.829 60.0361ZM193.884 61.5669C193.884 61.5483 193.884 61.5483 193.865 61.5483C193.845 61.5296 193.845 61.4923 193.826 61.4736C193.826 61.4549 193.807 61.4549 193.807 61.4363C193.807 61.4176 193.788 61.3803 193.788 61.3616C193.788 61.3429 193.788 61.3242 193.769 61.3242C193.769 61.3056 193.75 61.2682 193.75 61.2496C193.75 61.2309 193.75 61.2309 193.75 61.2122C193.75 61.1749 193.73 61.1562 193.73 61.1189C193.73 61.1002 193.73 61.1002 193.73 61.0816C193.711 60.9882 193.711 60.9135 193.711 60.8015C193.711 60.7829 193.711 60.7829 193.711 60.7642C193.711 60.7082 193.711 60.6522 193.73 60.5962C193.73 60.5775 193.73 60.5588 193.73 60.5402C193.73 60.4842 193.75 60.4282 193.769 60.3721C193.769 60.3535 193.769 60.3348 193.788 60.3161C193.807 60.2601 193.826 60.2228 193.845 60.1668C193.845 60.1481 193.865 60.1295 193.865 60.1108C193.884 60.0734 193.922 60.0174 193.941 59.9801C193.96 59.9614 193.98 59.9428 193.999 59.9241C194.018 59.9054 194.037 59.8868 194.056 59.8681C194.095 59.8308 194.152 59.7934 194.19 59.7561C194.382 59.6254 194.631 59.532 194.919 59.476C194.919 59.4947 194.919 59.5321 194.919 59.5507V62.015C194.919 62.0523 194.919 62.0897 194.919 62.1083C194.459 62.0897 194.095 61.903 193.884 61.5669Z" fill="#221C54"/>
<path d="M192.828 25.2019C192.828 25.2205 192.828 25.2579 192.809 25.2766C192.752 25.4819 192.713 25.7246 192.713 25.9673C192.713 27.4608 194.113 28.5249 195.32 28.5249C196.873 28.5249 197.928 27.3114 197.928 25.8926C197.928 25.818 197.928 25.7246 197.928 25.6499C197.928 25.6313 197.928 25.6126 197.928 25.5939C197.928 25.5192 197.928 25.4632 197.908 25.4072C197.908 25.3886 197.908 25.3699 197.908 25.3512C197.908 25.2766 197.889 25.2019 197.87 25.1272C197.813 24.8285 197.717 24.5298 197.563 24.2684C197.563 24.2498 197.563 24.2498 197.544 24.2498C197.487 24.1564 197.429 24.0631 197.352 23.9697C197.295 23.8951 197.18 23.8764 197.103 23.9324L196.643 24.2498C196.547 24.3245 196.528 24.4365 196.605 24.5298C196.854 24.9218 197.007 25.3886 197.007 25.8179C197.007 26.4714 196.701 27.0687 195.972 27.2741C195.972 27.2741 195.972 27.2741 195.953 27.2928C195.896 27.3114 195.819 27.3301 195.742 27.3488C195.742 27.2741 195.742 27.1994 195.742 27.1061V23.7831C195.742 23.6711 195.666 23.5964 195.57 23.5964C195.493 23.5964 195.416 23.5777 195.34 23.5777C194.074 23.559 193.135 24.2124 192.828 25.2019ZM193.883 26.7327C193.883 26.714 193.883 26.714 193.864 26.714C193.844 26.6954 193.844 26.658 193.825 26.6394C193.825 26.6207 193.806 26.6207 193.806 26.602C193.806 26.5834 193.787 26.546 193.787 26.5273C193.787 26.5087 193.787 26.49 193.768 26.49C193.768 26.4713 193.749 26.434 193.749 26.4153C193.749 26.3967 193.749 26.3967 193.749 26.378C193.749 26.3407 193.729 26.322 193.729 26.2847C193.729 26.266 193.729 26.266 193.729 26.2473C193.71 26.154 193.71 26.0793 193.71 25.9673C193.71 25.9486 193.71 25.9486 193.71 25.93C193.71 25.874 193.71 25.8179 193.729 25.7619C193.729 25.7433 193.729 25.7246 193.729 25.7059C193.729 25.6499 193.749 25.5939 193.768 25.5379C193.768 25.5193 193.768 25.5006 193.787 25.4819C193.806 25.4259 193.825 25.3886 193.844 25.3326C193.844 25.3139 193.864 25.2952 193.864 25.2766C193.883 25.2392 193.921 25.1832 193.94 25.1459C193.959 25.1272 193.979 25.1085 193.998 25.0899C194.017 25.0712 194.036 25.0525 194.055 25.0339C194.094 24.9965 194.151 24.9592 194.189 24.9218C194.381 24.7912 194.63 24.6978 194.918 24.6418C194.918 24.6605 194.918 24.6978 194.918 24.7165V27.1807C194.918 27.2181 194.918 27.2554 194.918 27.2741C194.458 27.2554 194.094 27.0501 193.883 26.7327Z" fill="#221C54"/>
<path d="M192.846 50.2416V50.9137C192.846 51.0257 192.942 51.1003 193.038 51.1003H197.639C197.754 51.1003 197.83 51.007 197.83 50.9137V50.2416C197.83 50.1296 197.735 50.0549 197.639 50.0549H193.038C192.942 50.0549 192.846 50.1296 192.846 50.2416Z" fill="#221C54"/>
<path d="M190.68 47.6451V48.3172C190.68 48.4292 190.776 48.5039 190.872 48.5039H197.639C197.754 48.5039 197.831 48.4106 197.831 48.3172V47.6451C197.831 47.5331 197.735 47.4585 197.639 47.4585H190.891C190.776 47.4585 190.68 47.5331 190.68 47.6451Z" fill="#221C54"/>
<path d="M192.887 29.6991V30.3712C192.887 30.4832 192.983 30.5579 193.079 30.5579H195.648C196.606 30.5579 196.97 31.0806 196.97 31.734C196.97 32.4061 196.606 32.9101 195.648 32.9101H193.079C192.964 32.9101 192.887 33.0035 192.887 33.0968V33.7689C192.887 33.8809 192.983 33.9556 193.079 33.9556H195.744C197.335 33.9556 197.986 32.8541 197.986 31.7153C197.986 30.5765 197.335 29.4751 195.744 29.4751H193.079C192.964 29.4937 192.887 29.5871 192.887 29.6991Z" fill="#221C54"/>
<path d="M192.731 43.725C192.731 45.2185 193.862 46.3386 195.357 46.3386C196.852 46.3386 197.984 45.2372 197.984 43.725C197.984 42.2315 196.852 41.1114 195.357 41.1114C193.862 41.1114 192.731 42.2315 192.731 43.725ZM196.948 43.725C196.948 44.5838 196.239 45.2745 195.357 45.2745C194.475 45.2745 193.766 44.5838 193.766 43.725C193.766 42.8663 194.475 42.1755 195.357 42.1755C196.239 42.1568 196.948 42.8476 196.948 43.725Z" fill="#221C54"/>
<path d="M190.699 50.558C190.699 50.9314 190.987 51.2114 191.37 51.2114C191.754 51.2114 192.041 50.9314 192.041 50.558C192.041 50.1846 191.754 49.9046 191.37 49.9046C191.006 49.9046 190.699 50.2033 190.699 50.558Z" fill="#221C54"/>
<path d="M192.866 35.3614V36.0894C192.866 36.1641 192.942 36.2388 193.019 36.2388H193.345C193.383 36.2388 193.421 36.2388 193.46 36.2388C193.345 36.3321 193.249 36.4255 193.153 36.5375C193.115 36.5935 193.076 36.6495 193.038 36.7055C193.019 36.7242 193.019 36.7428 193 36.7615C192.981 36.7988 192.961 36.8362 192.942 36.8735C192.923 36.8922 192.923 36.9295 192.904 36.9482C192.885 36.9669 192.885 37.0042 192.866 37.0415C192.846 37.1162 192.827 37.1909 192.789 37.2655C192.789 37.2842 192.789 37.3029 192.789 37.3029C192.789 37.3589 192.77 37.3962 192.77 37.4522C192.77 37.4709 192.77 37.4896 192.77 37.4896C192.75 37.6016 192.75 37.7323 192.75 37.8443C192.75 38.3297 192.942 38.815 193.268 39.2258C193.709 39.7485 194.399 40.1965 195.319 40.1965C196.93 40.1965 197.888 38.9457 197.888 37.8443C197.888 37.4336 197.792 37.0789 197.639 36.7802C197.62 36.7242 197.581 36.6868 197.543 36.6495C197.447 36.5001 197.313 36.3695 197.179 36.2575C197.255 36.2575 197.37 36.2388 197.562 36.2388C198.482 36.2388 199.057 36.7802 199.057 37.7696C199.057 38.2923 198.904 38.7777 198.655 39.2258C198.597 39.3378 198.636 39.4498 198.751 39.5058L199.326 39.7485C199.402 39.7858 199.498 39.7485 199.556 39.6738C199.632 39.5618 199.69 39.4311 199.747 39.2818C199.747 39.2818 199.747 39.2818 199.747 39.2631C199.882 38.9644 199.958 38.6097 199.997 38.2737C199.997 38.2737 199.997 38.2737 199.997 38.255C199.997 38.1803 200.016 38.1056 200.016 38.031C200.016 38.0123 200.016 38.0123 200.016 37.9936C200.016 37.9189 200.016 37.8443 200.016 37.7509C200.016 36.2761 199.211 35.3427 197.888 35.1747C197.754 35.156 197.62 35.156 197.485 35.156H193.057H193.038C192.942 35.1747 192.866 35.2493 192.866 35.3614ZM196.949 37.7136C196.949 38.5724 196.239 39.2631 195.358 39.2631C194.476 39.2631 193.766 38.5724 193.766 37.7136C193.766 36.8548 194.476 36.1641 195.358 36.1641C196.239 36.1641 196.949 36.8548 196.949 37.7136Z" fill="#221C54"/>
<path d="M195.338 52.2206C193.92 52.2206 192.884 53.1353 192.731 54.3488C192.731 54.4421 192.712 54.5355 192.712 54.6288C192.712 54.6662 192.712 54.6848 192.712 54.7222C192.712 54.7595 192.712 54.7969 192.712 54.8529C192.712 54.8902 192.712 54.9275 192.731 54.9649C192.731 55.0022 192.731 55.0395 192.75 55.0769C192.75 55.1142 192.75 55.1329 192.769 55.1702C192.789 55.2262 192.808 55.2822 192.827 55.3382C192.827 55.3569 192.846 55.3756 192.846 55.3943C192.865 55.4316 192.884 55.4876 192.904 55.5249C192.904 55.5436 192.923 55.5623 192.923 55.5809C192.942 55.6183 192.961 55.6743 192.999 55.7116C192.999 55.7116 193.019 55.7303 193.019 55.7489C193.057 55.7863 193.076 55.8423 193.114 55.8796C193.21 55.9916 193.306 56.085 193.421 56.1783H192.98C192.904 56.1783 192.827 56.253 192.827 56.3277V57.0557C192.827 57.1491 192.904 57.2238 192.98 57.2424H193.019H199.575H199.69C199.805 57.2424 199.881 57.1491 199.881 57.0557V56.3837C199.881 56.2717 199.786 56.197 199.69 56.197H199.575H197.217C197.351 56.085 197.485 55.9543 197.6 55.805C197.6 55.805 197.619 55.7863 197.619 55.7676C197.619 55.749 197.639 55.7489 197.639 55.7303C197.658 55.6929 197.696 55.6369 197.715 55.5996C197.715 55.5809 197.734 55.5809 197.734 55.5623C197.754 55.5063 197.773 55.4689 197.792 55.4129C197.792 55.3943 197.811 55.3756 197.811 55.3382C197.83 55.3009 197.83 55.2449 197.849 55.2076C197.849 55.1889 197.869 55.1516 197.869 55.1329C197.869 55.0769 197.888 55.0209 197.888 54.9835C197.888 54.9649 197.888 54.9275 197.888 54.9089C197.888 54.8528 197.888 54.7969 197.888 54.7409C197.888 54.7222 197.888 54.7222 197.888 54.7035C197.964 53.2847 196.872 52.2206 195.338 52.2206ZM196.948 54.7222C196.948 55.5809 196.239 56.2717 195.357 56.2717C194.476 56.2717 193.766 55.5809 193.766 54.7222C193.766 53.8634 194.476 53.1727 195.357 53.1727C196.239 53.1727 196.948 53.8634 196.948 54.7222Z" fill="#221C54"/>
<defs>
<filter id="filter0_d_2324_311" x="0.05418" y="0.369454" width="220.466" height="295.059" filterUnits="userSpaceOnUse" color-interpolation-filters="sRGB">
<feFlood flood-opacity="0" result="BackgroundImageFix"/>
<feColorMatrix in="SourceAlpha" type="matrix" values="0 0 0 0 0 0 0 0 0 0 0 0 0 0 0 0 0 0 127 0" result="hardAlpha"/>
<feOffset dx="-1.65764" dy="1.65764"/>
<feGaussianBlur stdDeviation="4.14409"/>
<feComposite in2="hardAlpha" operator="out"/>
<feColorMatrix type="matrix" values="0 0 0 0 0 0 0 0 0 0 0 0 0 0 0 0 0 0 0.25 0"/>
<feBlend mode="normal" in2="BackgroundImageFix" result="effect1_dropShadow_2324_311"/>
<feBlend mode="normal" in="SourceGraphic" in2="effect1_dropShadow_2324_311" result="shape"/>
</filter>
</defs>
</svg>
