<svg width="221" height="296" viewBox="0 0 221 296" fill="none" xmlns="http://www.w3.org/2000/svg">
<g filter="url(#filter0_d_2324_341)">
<rect x="10" y="7" width="203.889" height="278.483" fill="white"/>
</g>
<rect x="10" y="7" width="19.8916" height="278.483" fill="#C8C2E1"/>
<path d="M68.8627 173.319V174.383H66.61V180.281H65.4861V174.383H63.2334V173.319H68.8627ZM71.0062 173.12V176.084C71.3891 175.537 71.9759 175.392 72.4583 175.392C73.5921 175.392 74.3928 176.173 74.3928 177.287V180.281H73.3485V177.63C73.3485 176.83 72.9357 176.382 72.2395 176.382C71.5682 176.382 71.0062 176.825 71.0062 177.64V180.281H69.9619V173.12H71.0062ZM78.1025 175.392C79.4352 175.392 80.3502 176.407 80.3552 177.894C80.3552 178.028 80.3453 178.162 80.3353 178.282H76.8145C76.9537 179.137 77.5555 179.495 78.2318 179.495C78.7092 179.495 79.2164 179.306 79.6093 178.993L80.1265 179.734C79.5446 180.231 78.8882 180.405 78.1671 180.405C76.7399 180.405 75.7304 179.411 75.7304 177.899C75.7304 176.407 76.7001 175.392 78.1025 175.392ZM78.0826 176.317C77.3416 176.317 76.9289 176.795 76.8195 177.491H79.291C79.1766 176.75 78.744 176.317 78.0826 176.317ZM89.6257 179.217V180.281H84.6478V173.319H85.7717V179.217H89.6257ZM95.3024 175.517V180.281H94.263V179.709C93.9348 180.132 93.4425 180.405 92.7662 180.405C91.4335 180.405 90.3842 179.356 90.3842 177.899C90.3842 176.442 91.4335 175.392 92.7662 175.392C93.4425 175.392 93.9348 175.671 94.263 176.094V175.517H95.3024ZM92.8905 176.372C91.9954 176.372 91.4533 177.063 91.4533 177.899C91.4533 178.734 91.9954 179.425 92.8905 179.425C93.7508 179.425 94.3277 178.769 94.3277 177.899C94.3277 177.028 93.7508 176.372 92.8905 176.372ZM100.723 175.9L100.276 176.71C99.9871 176.531 99.3953 176.302 98.8035 176.302C98.2366 176.302 97.9034 176.531 97.9034 176.869C97.9034 177.203 98.2516 177.297 98.6892 177.362L99.1815 177.436C100.221 177.585 100.837 178.028 100.837 178.844C100.837 179.759 100.042 180.4 98.6693 180.4C98.177 180.4 97.3216 180.306 96.6254 179.788L97.1078 179.008C97.4509 179.271 97.9034 179.495 98.6792 179.495C99.3903 179.495 99.7633 179.271 99.7633 178.913C99.7633 178.645 99.5047 178.466 98.9378 178.386L98.4405 178.321C97.3863 178.177 96.8243 177.69 96.8243 176.924C96.8243 175.979 97.5802 175.397 98.7936 175.397C99.5395 175.397 100.231 175.581 100.723 175.9ZM105.411 175.517V176.462H103.586V178.535C103.586 179.177 103.924 179.425 104.342 179.425C104.665 179.425 105.018 179.281 105.302 179.102L105.714 179.933C105.332 180.191 104.849 180.405 104.252 180.405C103.173 180.405 102.542 179.823 102.542 178.555V176.462H101.592V175.517H102.542V174.075H103.586V175.517H105.411ZM119.249 173.319L117.126 180.281H115.734L114.068 174.845L112.402 180.281H111.009L108.886 173.319H110.064L111.72 178.983L113.441 173.319H114.719L116.435 178.983L118.096 173.319H119.249ZM121.446 175.517V180.281H120.402V175.517H121.446ZM120.919 173.135C121.332 173.135 121.655 173.458 121.655 173.871C121.655 174.283 121.332 174.597 120.919 174.597C120.506 174.597 120.193 174.283 120.193 173.871C120.193 173.458 120.506 173.135 120.919 173.135ZM124.216 173.12V180.281H123.172V173.12H124.216ZM126.987 173.12V180.281H125.943V173.12H126.987ZM68.4351 188.517V193.281H67.3957V192.709C67.0675 193.132 66.5752 193.405 65.8989 193.405C64.5661 193.405 63.5169 192.356 63.5169 190.899C63.5169 189.442 64.5661 188.392 65.8989 188.392C66.5752 188.392 67.0675 188.671 67.3957 189.094V188.517H68.4351ZM66.0232 189.372C65.1281 189.372 64.586 190.063 64.586 190.899C64.586 191.734 65.1281 192.425 66.0232 192.425C66.8835 192.425 67.4604 191.769 67.4604 190.899C67.4604 190.028 66.8835 189.372 66.0232 189.372ZM72.6623 188.392C73.7961 188.392 74.5967 189.173 74.5967 190.287V193.281H73.5524V190.63C73.5524 189.83 73.1397 189.382 72.4435 189.382C71.7721 189.382 71.2102 189.825 71.2102 190.64V193.281H70.1659V188.517H71.2002V189.099C71.5832 188.537 72.1749 188.392 72.6623 188.392ZM78.3164 188.392C78.9927 188.392 79.485 188.671 79.8132 189.094V186.12H80.8526V193.281H79.8132V192.709C79.485 193.132 78.9927 193.405 78.3164 193.405C76.9837 193.405 75.9344 192.356 75.9344 190.899C75.9344 189.442 76.9837 188.392 78.3164 188.392ZM78.4407 189.372C77.5456 189.372 77.0035 190.063 77.0035 190.899C77.0035 191.734 77.5456 192.425 78.4407 192.425C79.301 192.425 79.8779 191.769 79.8779 190.899C79.8779 190.028 79.301 189.372 78.4407 189.372ZM90.2206 186.319V187.383H87.9679V193.281H86.844V187.383H84.5913V186.319H90.2206ZM92.6008 188.392C93.9336 188.392 94.8486 189.407 94.8536 190.894C94.8536 191.028 94.8436 191.162 94.8337 191.282H91.3129C91.4521 192.137 92.0538 192.495 92.7301 192.495C93.2075 192.495 93.7148 192.306 94.1076 191.993L94.6248 192.734C94.043 193.231 93.3866 193.405 92.6655 193.405C91.2383 193.405 90.2288 192.411 90.2288 190.899C90.2288 189.407 91.1985 188.392 92.6008 188.392ZM92.581 189.317C91.84 189.317 91.4272 189.795 91.3178 190.491H93.7894C93.675 189.75 93.2424 189.317 92.581 189.317ZM99.9266 188.9L99.4791 189.71C99.1907 189.531 98.5989 189.302 98.0071 189.302C97.4402 189.302 97.107 189.531 97.107 189.869C97.107 190.203 97.4551 190.297 97.8927 190.362L98.385 190.436C99.4244 190.585 100.041 191.028 100.041 191.844C100.041 192.759 99.2454 193.4 97.8728 193.4C97.3805 193.4 96.5252 193.306 95.829 192.788L96.3113 192.008C96.6545 192.271 97.107 192.495 97.8828 192.495C98.5939 192.495 98.9669 192.271 98.9669 191.913C98.9669 191.645 98.7083 191.466 98.1414 191.386L97.6441 191.321C96.5898 191.177 96.0279 190.69 96.0279 189.924C96.0279 188.979 96.7838 188.397 97.9972 188.397C98.7431 188.397 99.4343 188.581 99.9266 188.9ZM104.615 188.517V189.462H102.79V191.535C102.79 192.177 103.128 192.425 103.546 192.425C103.869 192.425 104.222 192.281 104.505 192.102L104.918 192.933C104.535 193.191 104.053 193.405 103.456 193.405C102.377 193.405 101.745 192.823 101.745 191.555V189.462H100.796V188.517H101.745V187.075H102.79V188.517H104.615ZM110.558 188.517V193.281H109.519V192.709C109.191 193.132 108.698 193.405 108.022 193.405C106.689 193.405 105.64 192.356 105.64 190.899C105.64 189.442 106.689 188.392 108.022 188.392C108.698 188.392 109.191 188.671 109.519 189.094V188.517H110.558ZM108.146 189.372C107.251 189.372 106.709 190.063 106.709 190.899C106.709 191.734 107.251 192.425 108.146 192.425C109.007 192.425 109.584 191.769 109.584 190.899C109.584 190.028 109.007 189.372 108.146 189.372ZM118.172 188.392C119.306 188.392 120.107 189.173 120.107 190.287V193.281H119.062V190.63C119.062 189.83 118.649 189.382 117.953 189.382C117.282 189.382 116.72 189.825 116.72 190.64V193.281H115.676V190.63C115.676 189.83 115.263 189.382 114.567 189.382C113.895 189.382 113.333 189.825 113.333 190.64V193.281H112.289V188.517H113.324V189.099C113.706 188.537 114.298 188.392 114.786 188.392C115.512 188.392 116.103 188.716 116.432 189.243C116.844 188.561 117.58 188.392 118.172 188.392ZM123.819 188.392C125.152 188.392 126.067 189.407 126.072 190.894C126.072 191.028 126.062 191.162 126.052 191.282H122.531C122.671 192.137 123.272 192.495 123.949 192.495C124.426 192.495 124.933 192.306 125.326 191.993L125.843 192.734C125.262 193.231 124.605 193.405 123.884 193.405C122.457 193.405 121.447 192.411 121.447 190.899C121.447 189.407 122.417 188.392 123.819 188.392ZM123.8 189.317C123.059 189.317 122.646 189.795 122.536 190.491H125.008C124.894 189.75 124.461 189.317 123.8 189.317ZM129.952 188.392C131.086 188.392 131.886 189.173 131.886 190.287V193.281H130.842V190.63C130.842 189.83 130.429 189.382 129.733 189.382C129.062 189.382 128.5 189.825 128.5 190.64V193.281H127.455V188.517H128.49V189.099C128.873 188.537 129.464 188.392 129.952 188.392ZM136.766 188.517V189.462H134.941V191.535C134.941 192.177 135.279 192.425 135.697 192.425C136.02 192.425 136.373 192.281 136.656 192.102L137.069 192.933C136.686 193.191 136.204 193.405 135.607 193.405C134.528 193.405 133.896 192.823 133.896 191.555V189.462H132.947V188.517H133.896V187.075H134.941V188.517H136.766Z" fill="black"/>
<path d="M64.7021 157.842H103.657" stroke="#E37645" stroke-width="0.828818"/>
<path d="M192.83 65.0136C192.83 65.0323 192.83 65.0697 192.811 65.0883C192.753 65.2937 192.715 65.5364 192.715 65.7791C192.715 67.2726 194.114 68.3367 195.322 68.3367C196.875 68.3367 197.929 67.1232 197.929 65.7044C197.929 65.6297 197.929 65.5364 197.929 65.4617C197.929 65.443 197.929 65.4244 197.929 65.4057C197.929 65.331 197.929 65.275 197.91 65.219C197.91 65.2003 197.91 65.1817 197.91 65.163C197.91 65.0883 197.891 65.0137 197.872 64.939C197.814 64.6403 197.718 64.3416 197.565 64.0802C197.565 64.0615 197.431 63.8749 197.354 63.7815C197.296 63.7068 197.181 63.6882 197.105 63.7442L196.645 64.0615C196.549 64.1362 196.53 64.2482 196.606 64.3416C196.856 64.7336 197.009 65.2003 197.009 65.6297C197.009 66.2831 196.702 66.8805 195.974 67.0859C195.974 67.0859 195.974 67.0859 195.955 67.1045C195.897 67.1232 195.82 67.1419 195.744 67.1605C195.744 67.0859 195.744 67.0112 195.744 66.9179V63.5948C195.744 63.4828 195.667 63.4081 195.571 63.4081C195.494 63.4081 195.418 63.3895 195.341 63.3895C194.076 63.3708 193.137 64.0242 192.83 65.0136ZM193.884 66.5445C193.884 66.5258 193.884 66.5258 193.865 66.5258C193.846 66.5072 193.846 66.4698 193.827 66.4511C193.827 66.4325 193.808 66.4325 193.808 66.4138C193.808 66.3951 193.788 66.3578 193.788 66.3391C193.788 66.3205 193.788 66.3018 193.769 66.3018C193.769 66.2831 193.75 66.2458 193.75 66.2271C193.75 66.2084 193.75 66.2084 193.75 66.1898C193.75 66.1524 193.731 66.1338 193.731 66.0964C193.731 66.0778 193.731 66.0778 193.731 66.0591C193.712 65.9658 193.712 65.8911 193.712 65.7791C193.712 65.7604 193.712 65.7604 193.712 65.7417C193.712 65.6857 193.712 65.6297 193.731 65.5737C193.731 65.555 193.731 65.5364 193.731 65.5177C193.731 65.4617 193.75 65.4057 193.769 65.3497C193.769 65.331 193.769 65.3123 193.788 65.2937C193.808 65.2377 193.827 65.2003 193.846 65.1443C193.846 65.1257 193.865 65.107 193.865 65.0883C193.884 65.051 193.923 64.995 193.942 64.9577C193.961 64.939 193.98 64.9203 193.999 64.9016C194.018 64.883 194.038 64.8643 194.057 64.8456C194.095 64.8083 194.153 64.771 194.191 64.7336C194.383 64.6029 194.632 64.5096 194.919 64.4536C194.919 64.4723 194.919 64.5096 194.919 64.5283V66.9925C194.919 67.0299 194.919 67.0672 194.919 67.0859C194.459 67.0672 194.095 66.8805 193.884 66.5445Z" fill="#221C54"/>
<path d="M192.83 30.1789C192.83 30.1976 192.83 30.2349 192.811 30.2536C192.753 30.459 192.715 30.7016 192.715 30.9443C192.715 32.4378 194.114 33.502 195.322 33.502C196.875 33.502 197.929 32.2885 197.929 30.8697C197.929 30.795 197.929 30.7017 197.929 30.627C197.929 30.6083 197.929 30.5896 197.929 30.571C197.929 30.4963 197.929 30.4403 197.91 30.3843C197.91 30.3656 197.91 30.347 197.91 30.3283C197.91 30.2536 197.891 30.1789 197.872 30.1042C197.814 29.8055 197.718 29.5069 197.565 29.2455C197.565 29.2268 197.565 29.2268 197.546 29.2268C197.488 29.1335 197.431 29.0401 197.354 28.9468C197.296 28.8721 197.181 28.8535 197.105 28.9095L196.645 29.2268C196.549 29.3015 196.53 29.4135 196.606 29.5069C196.856 29.8989 197.009 30.3656 197.009 30.795C197.009 31.4484 196.702 32.0458 195.974 32.2511C195.974 32.2511 195.974 32.2512 195.955 32.2698C195.897 32.2885 195.82 32.3072 195.744 32.3258C195.744 32.2511 195.744 32.1765 195.744 32.0831V28.7601C195.744 28.6481 195.667 28.5734 195.571 28.5734C195.494 28.5734 195.418 28.5548 195.341 28.5548C194.076 28.5361 193.137 29.1895 192.83 30.1789ZM193.884 31.7098C193.884 31.6911 193.884 31.6911 193.865 31.6911C193.846 31.6724 193.846 31.6351 193.827 31.6164C193.827 31.5978 193.808 31.5977 193.808 31.5791C193.808 31.5604 193.788 31.5231 193.788 31.5044C193.788 31.4857 193.788 31.4671 193.769 31.4671C193.769 31.4484 193.75 31.4111 193.75 31.3924C193.75 31.3737 193.75 31.3737 193.75 31.3551C193.75 31.3177 193.731 31.2991 193.731 31.2617C193.731 31.243 193.731 31.243 193.731 31.2244C193.712 31.131 193.712 31.0563 193.712 30.9443C193.712 30.9257 193.712 30.9257 193.712 30.907C193.712 30.851 193.712 30.795 193.731 30.739C193.731 30.7203 193.731 30.7017 193.731 30.683C193.731 30.627 193.75 30.571 193.769 30.515C193.769 30.4963 193.769 30.4776 193.788 30.459C193.808 30.4029 193.827 30.3656 193.846 30.3096C193.846 30.291 193.865 30.2723 193.865 30.2536C193.884 30.2163 193.923 30.1603 193.942 30.1229C193.961 30.1043 193.98 30.0856 193.999 30.0669C194.018 30.0482 194.038 30.0296 194.057 30.0109C194.095 29.9736 194.153 29.9362 194.191 29.8989C194.383 29.7682 194.632 29.6749 194.919 29.6189C194.919 29.6375 194.919 29.6749 194.919 29.6935V32.1578C194.919 32.1951 194.919 32.2325 194.919 32.2511C194.459 32.2325 194.095 32.0271 193.884 31.7098Z" fill="#221C54"/>
<path d="M192.849 55.2118V55.8839C192.849 55.9959 192.944 56.0706 193.04 56.0706H197.641C197.756 56.0706 197.833 55.9772 197.833 55.8839V55.2118C197.833 55.0998 197.737 55.0251 197.641 55.0251H193.04C192.944 55.0251 192.849 55.0998 192.849 55.2118Z" fill="#221C54"/>
<path d="M190.683 52.6198V53.2918C190.683 53.4038 190.778 53.4785 190.874 53.4785H197.641C197.756 53.4785 197.833 53.3852 197.833 53.2918V52.6198C197.833 52.5077 197.737 52.4331 197.641 52.4331H190.893C190.778 52.4331 190.683 52.5077 190.683 52.6198Z" fill="#221C54"/>
<path d="M192.888 34.6727V35.3448C192.888 35.4568 192.984 35.5315 193.079 35.5315H195.648C196.607 35.5315 196.971 36.0542 196.971 36.7076C196.971 37.3797 196.607 37.8838 195.648 37.8838H193.079C192.964 37.8838 192.888 37.9771 192.888 38.0704V38.7425C192.888 38.8545 192.984 38.9292 193.079 38.9292H195.744C197.335 38.9292 197.987 37.8277 197.987 36.689C197.987 35.5502 197.335 34.4487 195.744 34.4487H193.079C192.964 34.4674 192.888 34.5607 192.888 34.6727Z" fill="#221C54"/>
<path d="M192.734 48.6999C192.734 50.1934 193.865 51.3135 195.36 51.3135C196.855 51.3135 197.986 50.212 197.986 48.6999C197.986 47.2064 196.855 46.0863 195.36 46.0863C193.865 46.0863 192.734 47.2064 192.734 48.6999ZM196.951 48.6999C196.951 49.5586 196.242 50.2494 195.36 50.2494C194.478 50.2494 193.769 49.5586 193.769 48.6999C193.769 47.8411 194.478 47.1504 195.36 47.1504C196.242 47.1317 196.951 47.8224 196.951 48.6999Z" fill="#221C54"/>
<path d="M190.702 55.5299C190.702 55.9033 190.99 56.1833 191.373 56.1833C191.756 56.1833 192.044 55.9033 192.044 55.5299C192.044 55.1566 191.756 54.8765 191.373 54.8765C191.009 54.8765 190.702 55.1752 190.702 55.5299Z" fill="#221C54"/>
<path d="M192.868 40.3316V41.0596C192.868 41.1343 192.945 41.209 193.021 41.209H193.347C193.386 41.209 193.424 41.209 193.462 41.209C193.347 41.3023 193.251 41.3957 193.155 41.5077C193.117 41.5637 193.079 41.6197 193.04 41.6757C193.021 41.6944 193.021 41.713 193.002 41.7317C192.983 41.7691 192.964 41.8064 192.945 41.8437C192.925 41.8624 192.925 41.8997 192.906 41.9184C192.887 41.9371 192.887 41.9744 192.868 42.0117C192.849 42.0864 192.83 42.1611 192.791 42.2358C192.791 42.2544 192.791 42.2731 192.791 42.2731C192.791 42.3291 192.772 42.3664 192.772 42.4224C192.772 42.4411 192.772 42.4598 192.772 42.4598C192.753 42.5718 192.753 42.7025 192.753 42.8145C192.753 43.2999 192.945 43.7853 193.271 44.196C193.711 44.7187 194.402 45.1667 195.322 45.1667C196.932 45.1667 197.89 43.916 197.89 42.8145C197.89 42.4038 197.795 42.0491 197.641 41.7504C197.622 41.6944 197.584 41.657 197.545 41.6197C197.45 41.4704 197.315 41.3397 197.181 41.2277C197.258 41.2277 197.373 41.209 197.565 41.209C198.485 41.209 199.06 41.7504 199.06 42.7398C199.06 43.2625 198.906 43.7479 198.657 44.196C198.6 44.308 198.638 44.42 198.753 44.476L199.328 44.7187C199.405 44.756 199.501 44.7187 199.558 44.644C199.635 44.532 199.692 44.4013 199.75 44.252C199.75 44.252 199.75 44.252 199.75 44.2333C199.884 43.9346 199.961 43.5799 199.999 43.2439C199.999 43.2439 199.999 43.2439 199.999 43.2252C199.999 43.1505 200.018 43.0759 200.018 43.0012C200.018 42.9825 200.018 42.9825 200.018 42.9638C200.018 42.8892 200.018 42.8145 200.018 42.7212C200.018 41.2463 199.213 40.3129 197.89 40.1449C197.756 40.1262 197.622 40.1262 197.488 40.1262H193.06H193.04C192.945 40.1449 192.868 40.2196 192.868 40.3316ZM196.951 42.6838C196.951 43.5426 196.242 44.2333 195.36 44.2333C194.478 44.2333 193.769 43.5426 193.769 42.6838C193.769 41.8251 194.478 41.1343 195.36 41.1343C196.242 41.1343 196.951 41.8251 196.951 42.6838Z" fill="#221C54"/>
<path d="M195.341 57.1923C193.922 57.1923 192.887 58.107 192.734 59.3205C192.734 59.4138 192.714 59.5072 192.714 59.6005C192.714 59.6378 192.714 59.6565 192.714 59.6938C192.714 59.7312 192.714 59.7685 192.714 59.8245C192.714 59.8619 192.714 59.8992 192.734 59.9365C192.734 59.9739 192.734 60.0112 192.753 60.0486C192.753 60.0859 192.753 60.1046 192.772 60.1419C192.791 60.1979 192.81 60.2539 192.829 60.3099C192.829 60.3286 192.849 60.3473 192.849 60.3659C192.868 60.4033 192.887 60.4593 192.906 60.4966C192.906 60.5153 192.925 60.534 192.925 60.5526C192.944 60.59 192.964 60.646 193.002 60.6833C193.002 60.6833 193.021 60.702 193.021 60.7206C193.059 60.758 193.079 60.814 193.117 60.8513C193.213 60.9633 193.309 61.0567 193.424 61.15H192.983C192.906 61.15 192.829 61.2247 192.829 61.2994V62.0274C192.829 62.1208 192.906 62.1954 192.983 62.2141H193.021H199.577H199.692C199.807 62.2141 199.884 62.1208 199.884 62.0274V61.3554C199.884 61.2433 199.788 61.1687 199.692 61.1687H199.577H197.219C197.353 61.0567 197.488 60.926 197.603 60.7766C197.603 60.7766 197.622 60.758 197.622 60.7393C197.622 60.7206 197.641 60.7206 197.641 60.702C197.66 60.6646 197.699 60.6086 197.718 60.5713C197.718 60.5526 197.737 60.5526 197.737 60.5339C197.756 60.4779 197.775 60.4406 197.794 60.3846C197.794 60.3659 197.814 60.3473 197.814 60.3099C197.833 60.2726 197.833 60.2166 197.852 60.1793C197.852 60.1606 197.871 60.1232 197.871 60.1046C197.871 60.0486 197.89 59.9926 197.89 59.9552C197.89 59.9365 197.89 59.8992 197.89 59.8805C197.89 59.8245 197.89 59.7685 197.89 59.7125C197.89 59.6939 197.89 59.6939 197.89 59.6752C197.967 58.2564 196.874 57.1923 195.341 57.1923ZM196.951 59.6938C196.951 60.5526 196.242 61.2434 195.36 61.2434C194.478 61.2434 193.769 60.5526 193.769 59.6938C193.769 58.8351 194.478 58.1444 195.36 58.1444C196.242 58.1444 196.951 58.8351 196.951 59.6938Z" fill="#221C54"/>
<defs>
<filter id="filter0_d_2324_341" x="0.05418" y="0.369454" width="220.466" height="295.059" filterUnits="userSpaceOnUse" color-interpolation-filters="sRGB">
<feFlood flood-opacity="0" result="BackgroundImageFix"/>
<feColorMatrix in="SourceAlpha" type="matrix" values="0 0 0 0 0 0 0 0 0 0 0 0 0 0 0 0 0 0 127 0" result="hardAlpha"/>
<feOffset dx="-1.65764" dy="1.65764"/>
<feGaussianBlur stdDeviation="4.14409"/>
<feComposite in2="hardAlpha" operator="out"/>
<feColorMatrix type="matrix" values="0 0 0 0 0 0 0 0 0 0 0 0 0 0 0 0 0 0 0.25 0"/>
<feBlend mode="normal" in2="BackgroundImageFix" result="effect1_dropShadow_2324_341"/>
<feBlend mode="normal" in="SourceGraphic" in2="effect1_dropShadow_2324_341" result="shape"/>
</filter>
</defs>
</svg>
