<svg width="221" height="296" viewBox="0 0 221 296" fill="none" xmlns="http://www.w3.org/2000/svg">
<g filter="url(#filter0_d_2324_356)">
<rect x="10" y="7" width="203.889" height="278.483" fill="white"/>
</g>
<rect x="10" y="7" width="19.8916" height="278.483" fill="#DDC59C"/>
<path d="M67.3993 176.411V177.475H62.4214V170.513H63.5453L63.5453 176.411H67.3993ZM73.076 172.711V177.475H72.0366V176.903C71.7084 177.326 71.2161 177.6 70.5398 177.6C69.207 177.6 68.1577 176.55 68.1577 175.093C68.1577 173.636 69.207 172.587 70.5398 172.587C71.2161 172.587 71.7084 172.865 72.0366 173.288V172.711H73.076ZM70.6641 173.567C69.769 173.567 69.2269 174.258 69.2269 175.093C69.2269 175.929 69.769 176.62 70.6641 176.62C71.5244 176.62 72.1013 175.964 72.1013 175.093C72.1013 174.223 71.5244 173.567 70.6641 173.567ZM78.4967 173.094L78.0491 173.905C77.7607 173.726 77.1689 173.497 76.5771 173.497C76.0102 173.497 75.677 173.726 75.677 174.064C75.677 174.397 76.0251 174.492 76.4627 174.556L76.9551 174.631C77.9944 174.78 78.611 175.223 78.611 176.038C78.611 176.953 77.8154 177.595 76.4428 177.595C75.9505 177.595 75.0952 177.5 74.399 176.983L74.8814 176.202C75.2245 176.466 75.677 176.69 76.4528 176.69C77.1639 176.69 77.5369 176.466 77.5369 176.108C77.5369 175.839 77.2783 175.66 76.7114 175.581L76.2141 175.516C75.1598 175.372 74.5979 174.884 74.5979 174.119C74.5979 173.174 75.3538 172.592 76.5672 172.592C77.3131 172.592 78.0043 172.776 78.4967 173.094ZM83.1847 172.711V173.656H81.3597V175.73C81.3597 176.371 81.6978 176.62 82.1155 176.62C82.4388 176.62 82.7919 176.476 83.0753 176.297L83.4881 177.127C83.1051 177.386 82.6228 177.6 82.026 177.6C80.9469 177.6 80.3153 177.018 80.3153 175.75V173.656H79.3655V172.711H80.3153V171.269H81.3597V172.711H83.1847ZM97.023 170.513L94.8996 177.475H93.5072L91.8412 172.04L90.1753 177.475H88.7829L86.6595 170.513H87.838L89.494 176.177L91.2146 170.513H92.4927L94.2083 176.177L95.8693 170.513H97.023ZM99.2195 172.711V177.475H98.1752V172.711H99.2195ZM98.6923 170.329C99.1051 170.329 99.4283 170.653 99.4283 171.065C99.4283 171.478 99.1051 171.791 98.6923 171.791C98.2796 171.791 97.9663 171.478 97.9663 171.065C97.9663 170.653 98.2796 170.329 98.6923 170.329ZM101.99 170.314V177.475H100.946V170.314H101.99ZM104.76 170.314V177.475H103.716V170.314H104.76ZM113.842 172.711V177.475H112.802V176.903C112.474 177.326 111.982 177.6 111.306 177.6C109.973 177.6 108.924 176.55 108.924 175.093C108.924 173.636 109.973 172.587 111.306 172.587C111.982 172.587 112.474 172.865 112.802 173.288V172.711H113.842ZM111.43 173.567C110.535 173.567 109.993 174.258 109.993 175.093C109.993 175.929 110.535 176.62 111.43 176.62C112.29 176.62 112.867 175.964 112.867 175.093C112.867 174.223 112.29 173.567 111.43 173.567ZM118.069 172.587C119.203 172.587 120.003 173.368 120.003 174.482V177.475H118.959V174.825C118.959 174.024 118.546 173.577 117.85 173.577C117.179 173.577 116.617 174.019 116.617 174.835V177.475H115.573V172.711H116.607V173.293C116.99 172.731 117.582 172.587 118.069 172.587ZM123.723 172.587C124.399 172.587 124.892 172.865 125.22 173.288V170.314H126.259V177.475H125.22V176.903C124.892 177.326 124.399 177.6 123.723 177.6C122.39 177.6 121.341 176.55 121.341 175.093C121.341 173.636 122.39 172.587 123.723 172.587ZM123.847 173.567C122.952 173.567 122.41 174.258 122.41 175.093C122.41 175.929 122.952 176.62 123.847 176.62C124.708 176.62 125.285 175.964 125.285 175.093C125.285 174.223 124.708 173.567 123.847 173.567ZM67.2949 183.513V184.577H65.0421V190.475H63.9183V184.577H61.6655V183.513H67.2949ZM69.6751 185.587C71.0078 185.587 71.9229 186.601 71.9278 188.088C71.9278 188.223 71.9179 188.357 71.9079 188.476H68.3871C68.5264 189.332 69.1281 189.69 69.8044 189.69C70.2818 189.69 70.789 189.501 71.1819 189.187L71.6991 189.928C71.1172 190.426 70.4608 190.6 69.7398 190.6C68.3125 190.6 67.303 189.605 67.303 188.093C67.303 186.601 68.2727 185.587 69.6751 185.587ZM69.6552 186.512C68.9142 186.512 68.5015 186.989 68.3921 187.686H70.8636C70.7493 186.945 70.3166 186.512 69.6552 186.512ZM77.0009 186.094L76.5533 186.905C76.2649 186.726 75.6731 186.497 75.0814 186.497C74.5144 186.497 74.1813 186.726 74.1813 187.064C74.1813 187.397 74.5294 187.492 74.967 187.556L75.4593 187.631C76.4986 187.78 77.1153 188.223 77.1153 189.038C77.1153 189.953 76.3196 190.595 74.9471 190.595C74.4548 190.595 73.5994 190.5 72.9032 189.983L73.3856 189.202C73.7287 189.466 74.1813 189.69 74.957 189.69C75.6682 189.69 76.0411 189.466 76.0411 189.108C76.0411 188.839 75.7825 188.66 75.2156 188.581L74.7183 188.516C73.6641 188.372 73.1021 187.884 73.1021 187.119C73.1021 186.174 73.858 185.592 75.0714 185.592C75.8173 185.592 76.5086 185.776 77.0009 186.094ZM81.689 185.711V186.656H79.8639V188.73C79.8639 189.371 80.2021 189.62 80.6198 189.62C80.943 189.62 81.2961 189.476 81.5796 189.297L81.9923 190.127C81.6094 190.386 81.127 190.6 80.5303 190.6C79.4511 190.6 78.8196 190.018 78.8196 188.75V186.656H77.8698V185.711H78.8196V184.269H79.8639V185.711H81.689ZM87.6326 185.711V190.475H86.5933V189.903C86.265 190.326 85.7727 190.6 85.0964 190.6C83.7637 190.6 82.7144 189.55 82.7144 188.093C82.7144 186.636 83.7637 185.587 85.0964 185.587C85.7727 185.587 86.265 185.865 86.5933 186.288V185.711H87.6326ZM85.2207 186.567C84.3256 186.567 83.7836 187.258 83.7836 188.093C83.7836 188.929 84.3256 189.62 85.2207 189.62C86.081 189.62 86.6579 188.964 86.6579 188.093C86.6579 187.223 86.081 186.567 85.2207 186.567ZM95.2464 185.587C96.3802 185.587 97.1808 186.368 97.1808 187.482V190.475H96.1365V187.825C96.1365 187.024 95.7238 186.577 95.0275 186.577C94.3562 186.577 93.7943 187.019 93.7943 187.835V190.475H92.75V187.825C92.75 187.024 92.3372 186.577 91.641 186.577C90.9696 186.577 90.4077 187.019 90.4077 187.835V190.475H89.3634V185.711H90.3978V186.293C90.7807 185.731 91.3725 185.587 91.8598 185.587C92.5858 185.587 93.1776 185.91 93.5058 186.437C93.9186 185.756 94.6546 185.587 95.2464 185.587ZM100.894 185.587C102.226 185.587 103.141 186.601 103.146 188.088C103.146 188.223 103.136 188.357 103.127 188.476H99.6057C99.745 189.332 100.347 189.69 101.023 189.69C101.5 189.69 102.008 189.501 102.401 189.187L102.918 189.928C102.336 190.426 101.679 190.6 100.958 190.6C99.5311 190.6 98.5216 189.605 98.5216 188.093C98.5216 186.601 99.4914 185.587 100.894 185.587ZM100.874 186.512C100.133 186.512 99.7201 186.989 99.6107 187.686H102.082C101.968 186.945 101.535 186.512 100.874 186.512ZM107.026 185.587C108.16 185.587 108.96 186.368 108.96 187.482V190.475H107.916V187.825C107.916 187.024 107.503 186.577 106.807 186.577C106.136 186.577 105.574 187.019 105.574 187.835V190.475H104.53V185.711H105.564V186.293C105.947 185.731 106.539 185.587 107.026 185.587ZM113.84 185.711V186.656H112.015V188.73C112.015 189.371 112.353 189.62 112.771 189.62C113.094 189.62 113.447 189.476 113.731 189.297L114.143 190.127C113.76 190.386 113.278 190.6 112.681 190.6C111.602 190.6 110.971 190.018 110.971 188.75V186.656H110.021V185.711H110.971V184.269H112.015V185.711H113.84Z" fill="#221C54"/>
<path d="M64.7031 157.846H103.658" stroke="#E37645" stroke-width="0.828818"/>
<path d="M192.827 61.6914C192.827 61.71 192.827 61.7474 192.808 61.7661C192.751 61.9714 192.712 62.2141 192.712 62.4568C192.712 63.9503 194.112 65.0144 195.32 65.0144C196.872 65.0144 197.927 63.8009 197.927 62.3821C197.927 62.3075 197.927 62.2141 197.927 62.1394C197.927 62.1208 197.927 62.1021 197.927 62.0834C197.927 62.0088 197.927 61.9528 197.907 61.8968C197.907 61.8781 197.907 61.8594 197.907 61.8407C197.907 61.7661 197.888 61.6914 197.869 61.6167C197.812 61.318 197.716 61.0193 197.562 60.7579C197.562 60.7393 197.428 60.5526 197.352 60.4593C197.294 60.3846 197.179 60.3659 197.102 60.4219L196.642 60.7393C196.546 60.814 196.527 60.926 196.604 61.0193C196.853 61.4114 197.006 61.8781 197.006 62.3075C197.006 62.9609 196.7 63.5583 195.971 63.7636C195.971 63.7636 195.971 63.7636 195.952 63.7823C195.895 63.8009 195.818 63.8196 195.741 63.8383C195.741 63.7636 195.741 63.6889 195.741 63.5956V60.2726C195.741 60.1606 195.665 60.0859 195.569 60.0859C195.492 60.0859 195.415 60.0672 195.339 60.0672C194.073 60.0485 193.134 60.7019 192.827 61.6914ZM193.882 63.2222C193.882 63.2036 193.882 63.2036 193.863 63.2036C193.843 63.1849 193.843 63.1475 193.824 63.1289C193.824 63.1102 193.805 63.1102 193.805 63.0915C193.805 63.0729 193.786 63.0355 193.786 63.0169C193.786 62.9982 193.786 62.9795 193.767 62.9795C193.767 62.9608 193.748 62.9235 193.748 62.9048C193.748 62.8862 193.748 62.8862 193.748 62.8675C193.748 62.8302 193.728 62.8115 193.728 62.7742C193.728 62.7555 193.728 62.7555 193.728 62.7368C193.709 62.6435 193.709 62.5688 193.709 62.4568C193.709 62.4381 193.709 62.4381 193.709 62.4195C193.709 62.3635 193.709 62.3074 193.728 62.2514C193.728 62.2328 193.728 62.2141 193.728 62.1954C193.728 62.1394 193.748 62.0834 193.767 62.0274C193.767 62.0088 193.767 61.9901 193.786 61.9714C193.805 61.9154 193.824 61.8781 193.843 61.8221C193.843 61.8034 193.863 61.7847 193.863 61.7661C193.882 61.7287 193.92 61.6727 193.939 61.6354C193.958 61.6167 193.978 61.598 193.997 61.5794C194.016 61.5607 194.035 61.542 194.054 61.5234C194.093 61.486 194.15 61.4487 194.188 61.4113C194.38 61.2807 194.629 61.1873 194.917 61.1313C194.917 61.15 194.917 61.1873 194.917 61.206V63.6703C194.917 63.7076 194.917 63.7449 194.917 63.7636C194.457 63.7449 194.093 63.5583 193.882 63.2222Z" fill="#221C54"/>
<path d="M192.829 26.8576C192.829 26.8763 192.829 26.9136 192.81 26.9323C192.752 27.1377 192.714 27.3804 192.714 27.623C192.714 29.1165 194.113 30.1807 195.321 30.1807C196.874 30.1807 197.928 28.9672 197.928 27.5484C197.928 27.4737 197.928 27.3804 197.928 27.3057C197.928 27.287 197.928 27.2683 197.928 27.2497C197.928 27.175 197.928 27.119 197.909 27.063C197.909 27.0443 197.909 27.0257 197.909 27.007C197.909 26.9323 197.89 26.8576 197.871 26.783C197.813 26.4843 197.717 26.1856 197.564 25.9242C197.564 25.9055 197.564 25.9055 197.545 25.9055C197.487 25.8122 197.43 25.7189 197.353 25.6255C197.295 25.5508 197.18 25.5322 197.104 25.5882L196.644 25.9055C196.548 25.9802 196.529 26.0922 196.605 26.1856C196.855 26.5776 197.008 27.0443 197.008 27.4737C197.008 28.1271 196.701 28.7245 195.973 28.9299C195.973 28.9299 195.973 28.9299 195.954 28.9485C195.896 28.9672 195.819 28.9859 195.743 29.0045C195.743 28.9299 195.743 28.8552 195.743 28.7619V25.4388C195.743 25.3268 195.666 25.2521 195.57 25.2521C195.493 25.2521 195.417 25.2335 195.34 25.2335C194.075 25.2148 193.136 25.8682 192.829 26.8576ZM193.883 28.3885C193.883 28.3698 193.883 28.3698 193.864 28.3698C193.845 28.3511 193.845 28.3138 193.826 28.2951C193.826 28.2765 193.807 28.2765 193.807 28.2578C193.807 28.2391 193.787 28.2018 193.787 28.1831C193.787 28.1644 193.787 28.1458 193.768 28.1458C193.768 28.1271 193.749 28.0898 193.749 28.0711C193.749 28.0524 193.749 28.0524 193.749 28.0338C193.749 27.9964 193.73 27.9778 193.73 27.9404C193.73 27.9218 193.73 27.9217 193.73 27.9031C193.711 27.8097 193.711 27.7351 193.711 27.623C193.711 27.6044 193.711 27.6044 193.711 27.5857C193.711 27.5297 193.711 27.4737 193.73 27.4177C193.73 27.399 193.73 27.3804 193.73 27.3617C193.73 27.3057 193.749 27.2497 193.768 27.1937C193.768 27.175 193.768 27.1563 193.787 27.1377C193.807 27.0817 193.826 27.0443 193.845 26.9883C193.845 26.9697 193.864 26.951 193.864 26.9323C193.883 26.895 193.922 26.839 193.941 26.8016C193.96 26.783 193.979 26.7643 193.998 26.7456C194.017 26.727 194.037 26.7083 194.056 26.6896C194.094 26.6523 194.152 26.6149 194.19 26.5776C194.382 26.4469 194.631 26.3536 194.918 26.2976C194.918 26.3162 194.918 26.3536 194.918 26.3723V28.8365C194.918 28.8738 194.918 28.9112 194.918 28.9299C194.458 28.9112 194.094 28.7058 193.883 28.3885Z" fill="#221C54"/>
<path d="M192.845 51.8886V52.5606C192.845 52.6726 192.941 52.7473 193.037 52.7473H197.638C197.753 52.7473 197.829 52.654 197.829 52.5606V51.8886C197.829 51.7765 197.734 51.7019 197.638 51.7019H193.037C192.941 51.7019 192.845 51.7765 192.845 51.8886Z" fill="#221C54"/>
<path d="M190.68 49.295V49.9671C190.68 50.0791 190.776 50.1538 190.872 50.1538H197.639C197.754 50.1538 197.831 50.0605 197.831 49.9671V49.295C197.831 49.183 197.735 49.1084 197.639 49.1084H190.891C190.776 49.1084 190.68 49.183 190.68 49.295Z" fill="#221C54"/>
<path d="M192.884 31.3524V32.0245C192.884 32.1365 192.98 32.2112 193.075 32.2112H195.644C196.603 32.2112 196.967 32.7339 196.967 33.3873C196.967 34.0594 196.603 34.5634 195.644 34.5634H193.075C192.96 34.5634 192.884 34.6568 192.884 34.7501V35.4222C192.884 35.5342 192.98 35.6089 193.075 35.6089H195.74C197.331 35.6089 197.983 34.5074 197.983 33.3686C197.983 32.2299 197.331 31.1284 195.74 31.1284H193.075C192.96 31.1471 192.884 31.2404 192.884 31.3524Z" fill="#221C54"/>
<path d="M192.73 45.3727C192.73 46.8662 193.861 47.9863 195.357 47.9863C196.852 47.9863 197.983 46.8849 197.983 45.3727C197.983 43.8792 196.852 42.7591 195.357 42.7591C193.861 42.7591 192.73 43.8792 192.73 45.3727ZM196.948 45.3727C196.948 46.2315 196.239 46.9222 195.357 46.9222C194.475 46.9222 193.766 46.2315 193.766 45.3727C193.766 44.514 194.475 43.8232 195.357 43.8232C196.239 43.8045 196.948 44.4953 196.948 45.3727Z" fill="#221C54"/>
<path d="M190.701 52.2101C190.701 52.5835 190.989 52.8635 191.372 52.8635C191.756 52.8635 192.043 52.5835 192.043 52.2101C192.043 51.8367 191.756 51.5567 191.372 51.5567C191.008 51.5567 190.701 51.8554 190.701 52.2101Z" fill="#221C54"/>
<path d="M192.864 37.0083V37.7364C192.864 37.8111 192.941 37.8857 193.017 37.8857H193.343C193.382 37.8857 193.42 37.8857 193.458 37.8857C193.343 37.9791 193.247 38.0724 193.152 38.1845C193.113 38.2405 193.075 38.2965 193.037 38.3525C193.017 38.3711 193.017 38.3898 192.998 38.4085C192.979 38.4458 192.96 38.4831 192.941 38.5205C192.922 38.5391 192.922 38.5765 192.902 38.5952C192.883 38.6138 192.883 38.6512 192.864 38.6885C192.845 38.7632 192.826 38.8378 192.787 38.9125C192.787 38.9312 192.787 38.9499 192.787 38.9499C192.787 39.0059 192.768 39.0432 192.768 39.0992C192.768 39.1179 192.768 39.1366 192.768 39.1366C192.749 39.2486 192.749 39.3792 192.749 39.4913C192.749 39.9766 192.941 40.462 193.267 40.8727C193.708 41.3954 194.398 41.8435 195.318 41.8435C196.928 41.8435 197.887 40.5927 197.887 39.4913C197.887 39.0806 197.791 38.7258 197.637 38.4271C197.618 38.3711 197.58 38.3338 197.541 38.2965C197.446 38.1471 197.311 38.0164 197.177 37.9044C197.254 37.9044 197.369 37.8857 197.561 37.8857C198.481 37.8857 199.056 38.4271 199.056 39.4166C199.056 39.9393 198.903 40.4247 198.653 40.8727C198.596 40.9847 198.634 41.0967 198.749 41.1528L199.324 41.3955C199.401 41.4328 199.497 41.3954 199.554 41.3208C199.631 41.2088 199.689 41.0781 199.746 40.9287C199.746 40.9287 199.746 40.9287 199.746 40.9101C199.88 40.6114 199.957 40.2567 199.995 39.9206C199.995 39.9206 199.995 39.9206 199.995 39.902C199.995 39.8273 200.014 39.7526 200.014 39.6779C200.014 39.6593 200.014 39.6593 200.014 39.6406C200.014 39.5659 200.014 39.4913 200.014 39.3979C200.014 37.9231 199.209 36.9897 197.887 36.8216C197.752 36.803 197.618 36.803 197.484 36.803H193.056H193.037C192.941 36.8216 192.864 36.8963 192.864 37.0083ZM196.947 39.3606C196.947 40.2193 196.238 40.9101 195.356 40.9101C194.474 40.9101 193.765 40.2193 193.765 39.3606C193.765 38.5018 194.474 37.8111 195.356 37.8111C196.238 37.8111 196.947 38.5018 196.947 39.3606Z" fill="#221C54"/>
<path d="M195.339 53.869C193.921 53.869 192.885 54.7838 192.732 55.9972C192.732 56.0906 192.713 56.1839 192.713 56.2773C192.713 56.3146 192.713 56.3333 192.713 56.3706C192.713 56.4079 192.713 56.4453 192.713 56.5013C192.713 56.5386 192.713 56.576 192.732 56.6133C192.732 56.6506 192.732 56.688 192.751 56.7253C192.751 56.7627 192.751 56.7813 192.77 56.8187C192.79 56.8747 192.809 56.9307 192.828 56.9867C192.828 57.0053 192.847 57.024 192.847 57.0427C192.866 57.08 192.885 57.136 192.905 57.1734C192.905 57.192 192.924 57.2107 192.924 57.2294C192.943 57.2667 192.962 57.3227 193 57.3601C193 57.3601 193.02 57.3787 193.02 57.3974C193.058 57.4347 193.077 57.4907 193.115 57.5281C193.211 57.6401 193.307 57.7334 193.422 57.8268H192.981C192.905 57.8268 192.828 57.9015 192.828 57.9761V58.7042C192.828 58.7975 192.905 58.8722 192.981 58.8909H193.02H199.576H199.691C199.806 58.8909 199.882 58.7975 199.882 58.7042V58.0321C199.882 57.9201 199.787 57.8454 199.691 57.8454H199.576H197.218C197.352 57.7334 197.486 57.6027 197.601 57.4534C197.601 57.4534 197.62 57.4347 197.62 57.4161C197.62 57.3974 197.64 57.3974 197.64 57.3787C197.659 57.3414 197.697 57.2854 197.716 57.248C197.716 57.2294 197.735 57.2294 197.735 57.2107C197.755 57.1547 197.774 57.1174 197.793 57.0614C197.793 57.0427 197.812 57.024 197.812 56.9867C197.831 56.9493 197.831 56.8933 197.85 56.856C197.85 56.8373 197.87 56.8 197.87 56.7813C197.87 56.7253 197.889 56.6693 197.889 56.632C197.889 56.6133 197.889 56.576 197.889 56.5573C197.889 56.5013 197.889 56.4453 197.889 56.3893C197.889 56.3706 197.889 56.3706 197.889 56.3519C197.965 54.9331 196.873 53.869 195.339 53.869ZM196.949 56.3706C196.949 57.2294 196.24 57.9201 195.358 57.9201C194.477 57.9201 193.767 57.2294 193.767 56.3706C193.767 55.5119 194.477 54.8211 195.358 54.8211C196.24 54.8211 196.949 55.5119 196.949 56.3706Z" fill="#221C54"/>
<defs>
<filter id="filter0_d_2324_356" x="0.05418" y="0.369454" width="220.466" height="295.059" filterUnits="userSpaceOnUse" color-interpolation-filters="sRGB">
<feFlood flood-opacity="0" result="BackgroundImageFix"/>
<feColorMatrix in="SourceAlpha" type="matrix" values="0 0 0 0 0 0 0 0 0 0 0 0 0 0 0 0 0 0 127 0" result="hardAlpha"/>
<feOffset dx="-1.65764" dy="1.65764"/>
<feGaussianBlur stdDeviation="4.14409"/>
<feComposite in2="hardAlpha" operator="out"/>
<feColorMatrix type="matrix" values="0 0 0 0 0 0 0 0 0 0 0 0 0 0 0 0 0 0 0.25 0"/>
<feBlend mode="normal" in2="BackgroundImageFix" result="effect1_dropShadow_2324_356"/>
<feBlend mode="normal" in="SourceGraphic" in2="effect1_dropShadow_2324_356" result="shape"/>
</filter>
</defs>
</svg>
