<svg width="221" height="296" viewBox="0 0 221 296" fill="none" xmlns="http://www.w3.org/2000/svg">
<g filter="url(#filter0_d_2324_326)">
<rect x="10" y="7" width="203.889" height="278.483" fill="white"/>
</g>
<rect x="10" y="7" width="19.8916" height="278.483" fill="#221C54"/>
<path d="M68.8623 166.686V167.75H66.6095V173.648H65.4856V167.75H63.2329V166.686H68.8623ZM71.0057 166.487V169.451C71.3886 168.904 71.9754 168.76 72.4578 168.76C73.5916 168.76 74.3923 169.54 74.3923 170.654V173.648H73.348V170.997C73.348 170.197 72.9352 169.749 72.239 169.749C71.5677 169.749 71.0057 170.192 71.0057 171.007V173.648H69.9614V166.487H71.0057ZM78.102 168.76C79.4347 168.76 80.3498 169.774 80.3547 171.261C80.3547 171.395 80.3448 171.529 80.3348 171.649H76.814C76.9533 172.504 77.555 172.862 78.2313 172.862C78.7087 172.862 79.2159 172.673 79.6088 172.36L80.126 173.101C79.5441 173.598 78.8877 173.772 78.1666 173.772C76.7394 173.772 75.7299 172.778 75.7299 171.266C75.7299 169.774 76.6996 168.76 78.102 168.76ZM78.0821 169.685C77.3411 169.685 76.9284 170.162 76.819 170.858H79.2905C79.1761 170.117 78.7435 169.685 78.0821 169.685ZM89.6252 172.584V173.648H84.6474V166.686H85.7712V172.584H89.6252ZM95.3019 168.884V173.648H94.2626V173.076C93.9343 173.499 93.442 173.772 92.7657 173.772C91.433 173.772 90.3837 172.723 90.3837 171.266C90.3837 169.809 91.433 168.76 92.7657 168.76C93.442 168.76 93.9343 169.038 94.2626 169.461V168.884H95.3019ZM92.89 169.739C91.9949 169.739 91.4529 170.43 91.4529 171.266C91.4529 172.101 91.9949 172.793 92.89 172.793C93.7503 172.793 94.3272 172.136 94.3272 171.266C94.3272 170.396 93.7503 169.739 92.89 169.739ZM100.723 169.267L100.275 170.077C99.9866 169.898 99.3948 169.67 98.8031 169.67C98.2361 169.67 97.903 169.898 97.903 170.237C97.903 170.57 98.2511 170.664 98.6887 170.729L99.181 170.803C100.22 170.953 100.837 171.395 100.837 172.211C100.837 173.126 100.041 173.767 98.6688 173.767C98.1765 173.767 97.3211 173.673 96.6249 173.156L97.1073 172.375C97.4504 172.638 97.903 172.862 98.6787 172.862C99.3899 172.862 99.7628 172.638 99.7628 172.28C99.7628 172.012 99.5042 171.833 98.9373 171.753L98.44 171.689C97.3858 171.544 96.8238 171.057 96.8238 170.291C96.8238 169.346 97.5797 168.765 98.7931 168.765C99.539 168.765 100.23 168.949 100.723 169.267ZM105.411 168.884V169.829H103.586V171.902C103.586 172.544 103.924 172.793 104.341 172.793C104.665 172.793 105.018 172.648 105.301 172.469L105.714 173.3C105.331 173.558 104.849 173.772 104.252 173.772C103.173 173.772 102.541 173.19 102.541 171.922V169.829H101.591V168.884H102.541V167.442H103.586V168.884H105.411ZM119.249 166.686L117.126 173.648H115.733L114.067 168.213L112.401 173.648H111.009L108.885 166.686H110.064L111.72 172.35L113.441 166.686H114.719L116.434 172.35L118.095 166.686H119.249ZM121.445 168.884V173.648H120.401V168.884H121.445ZM120.918 166.502C121.331 166.502 121.654 166.825 121.654 167.238C121.654 167.651 121.331 167.964 120.918 167.964C120.506 167.964 120.192 167.651 120.192 167.238C120.192 166.825 120.506 166.502 120.918 166.502ZM124.216 166.487V173.648H123.172V166.487H124.216ZM126.986 166.487V173.648H125.942V166.487H126.986ZM68.4346 181.884V186.648H67.3952V186.076C67.067 186.499 66.5747 186.772 65.8984 186.772C64.5657 186.772 63.5164 185.723 63.5164 184.266C63.5164 182.809 64.5657 181.76 65.8984 181.76C66.5747 181.76 67.067 182.038 67.3952 182.461V181.884H68.4346ZM66.0227 182.739C65.1276 182.739 64.5855 183.43 64.5855 184.266C64.5855 185.101 65.1276 185.793 66.0227 185.793C66.883 185.793 67.4599 185.136 67.4599 184.266C67.4599 183.396 66.883 182.739 66.0227 182.739ZM72.6618 181.76C73.7956 181.76 74.5962 182.54 74.5962 183.654V186.648H73.5519V183.997C73.5519 183.197 73.1392 182.749 72.443 182.749C71.7716 182.749 71.2097 183.192 71.2097 184.007V186.648H70.1654V181.884H71.1998V182.466C71.5827 181.904 72.1744 181.76 72.6618 181.76ZM78.3159 181.76C78.9922 181.76 79.4845 182.038 79.8128 182.461V179.487H80.8521V186.648H79.8128V186.076C79.4845 186.499 78.9922 186.772 78.3159 186.772C76.9832 186.772 75.9339 185.723 75.9339 184.266C75.9339 182.809 76.9832 181.76 78.3159 181.76ZM78.4402 182.739C77.5451 182.739 77.0031 183.43 77.0031 184.266C77.0031 185.101 77.5451 185.793 78.4402 185.793C79.3005 185.793 79.8774 185.136 79.8774 184.266C79.8774 183.396 79.3005 182.739 78.4402 182.739ZM90.2201 179.686V180.75H87.9674V186.648H86.8435V180.75H84.5908V179.686H90.2201ZM92.6004 181.76C93.9331 181.76 94.8481 182.774 94.8531 184.261C94.8531 184.395 94.8431 184.529 94.8332 184.649H91.3124C91.4516 185.504 92.0533 185.862 92.7297 185.862C93.2071 185.862 93.7143 185.673 94.1072 185.36L94.6243 186.101C94.0425 186.598 93.3861 186.772 92.665 186.772C91.2378 186.772 90.2283 185.778 90.2283 184.266C90.2283 182.774 91.198 181.76 92.6004 181.76ZM92.5805 182.685C91.8395 182.685 91.4268 183.162 91.3173 183.858H93.7889C93.6745 183.117 93.2419 182.685 92.5805 182.685ZM99.9262 182.267L99.4786 183.077C99.1902 182.898 98.5984 182.67 98.0066 182.67C97.4397 182.67 97.1065 182.898 97.1065 183.237C97.1065 183.57 97.4546 183.664 97.8922 183.729L98.3846 183.803C99.4239 183.953 100.041 184.395 100.041 185.211C100.041 186.126 99.2449 186.767 97.8723 186.767C97.38 186.767 96.5247 186.673 95.8285 186.156L96.3109 185.375C96.654 185.638 97.1065 185.862 97.8823 185.862C98.5934 185.862 98.9664 185.638 98.9664 185.28C98.9664 185.012 98.7078 184.833 98.1409 184.753L97.6436 184.689C96.5893 184.544 96.0274 184.057 96.0274 183.291C96.0274 182.346 96.7833 181.765 97.9967 181.765C98.7426 181.765 99.4338 181.949 99.9262 182.267ZM104.614 181.884V182.829H102.789V184.902C102.789 185.544 103.127 185.793 103.545 185.793C103.868 185.793 104.221 185.648 104.505 185.469L104.918 186.3C104.535 186.558 104.052 186.772 103.456 186.772C102.376 186.772 101.745 186.19 101.745 184.922V182.829H100.795V181.884H101.745V180.442H102.789V181.884H104.614ZM110.558 181.884V186.648H109.519V186.076C109.19 186.499 108.698 186.772 108.022 186.772C106.689 186.772 105.64 185.723 105.64 184.266C105.64 182.809 106.689 181.76 108.022 181.76C108.698 181.76 109.19 182.038 109.519 182.461V181.884H110.558ZM108.146 182.739C107.251 182.739 106.709 183.43 106.709 184.266C106.709 185.101 107.251 185.793 108.146 185.793C109.006 185.793 109.583 185.136 109.583 184.266C109.583 183.396 109.006 182.739 108.146 182.739ZM118.172 181.76C119.305 181.76 120.106 182.54 120.106 183.654V186.648H119.062V183.997C119.062 183.197 118.649 182.749 117.953 182.749C117.281 182.749 116.72 183.192 116.72 184.007V186.648H115.675V183.997C115.675 183.197 115.262 182.749 114.566 182.749C113.895 182.749 113.333 183.192 113.333 184.007V186.648H112.289V181.884H113.323V182.466C113.706 181.904 114.298 181.76 114.785 181.76C115.511 181.76 116.103 182.083 116.431 182.61C116.844 181.929 117.58 181.76 118.172 181.76ZM123.819 181.76C125.152 181.76 126.067 182.774 126.072 184.261C126.072 184.395 126.062 184.529 126.052 184.649H122.531C122.67 185.504 123.272 185.862 123.948 185.862C124.426 185.862 124.933 185.673 125.326 185.36L125.843 186.101C125.261 186.598 124.605 186.772 123.884 186.772C122.456 186.772 121.447 185.778 121.447 184.266C121.447 182.774 122.417 181.76 123.819 181.76ZM123.799 182.685C123.058 182.685 122.645 183.162 122.536 183.858H125.007C124.893 183.117 124.46 182.685 123.799 182.685ZM129.951 181.76C131.085 181.76 131.886 182.54 131.886 183.654V186.648H130.841V183.997C130.841 183.197 130.429 182.749 129.732 182.749C129.061 182.749 128.499 183.192 128.499 184.007V186.648H127.455V181.884H128.489V182.466C128.872 181.904 129.464 181.76 129.951 181.76ZM136.765 181.884V182.829H134.94V184.902C134.94 185.544 135.278 185.793 135.696 185.793C136.019 185.793 136.372 185.648 136.656 185.469L137.069 186.3C136.686 186.558 136.203 186.772 135.607 186.772C134.527 186.772 133.896 186.19 133.896 184.922V182.829H132.946V181.884H133.896V180.442H134.94V181.884H136.765Z" fill="black"/>
<path d="M64.7017 151.216H103.656" stroke="#E37645" stroke-width="0.828818"/>
<path d="M192.83 56.7214C192.83 56.7401 192.83 56.7774 192.811 56.7961C192.753 57.0014 192.715 57.2441 192.715 57.4868C192.715 58.9803 194.114 60.0444 195.322 60.0444C196.875 60.0444 197.929 58.831 197.929 57.4122C197.929 57.3375 197.929 57.2441 197.929 57.1695C197.929 57.1508 197.929 57.1321 197.929 57.1135C197.929 57.0388 197.929 56.9828 197.91 56.9268C197.91 56.9081 197.91 56.8894 197.91 56.8708C197.91 56.7961 197.891 56.7214 197.872 56.6467C197.814 56.3481 197.718 56.0493 197.565 55.788C197.565 55.7693 197.431 55.5826 197.354 55.4893C197.296 55.4146 197.181 55.3959 197.105 55.452L196.645 55.7693C196.549 55.844 196.53 55.956 196.606 56.0493C196.856 56.4414 197.009 56.9081 197.009 57.3375C197.009 57.9909 196.702 58.5883 195.974 58.7936C195.974 58.7936 195.974 58.7936 195.955 58.8123C195.897 58.831 195.82 58.8496 195.744 58.8683C195.744 58.7936 195.744 58.719 195.744 58.6256V55.3026C195.744 55.1906 195.667 55.1159 195.571 55.1159C195.494 55.1159 195.418 55.0972 195.341 55.0972C194.076 55.0786 193.137 55.732 192.83 56.7214ZM193.884 58.2522C193.884 58.2336 193.884 58.2336 193.865 58.2336C193.846 58.2149 193.846 58.1776 193.827 58.1589C193.827 58.1402 193.808 58.1402 193.808 58.1216C193.808 58.1029 193.788 58.0656 193.788 58.0469C193.788 58.0282 193.788 58.0095 193.769 58.0095C193.769 57.9909 193.75 57.9535 193.75 57.9349C193.75 57.9162 193.75 57.9162 193.75 57.8975C193.75 57.8602 193.731 57.8415 193.731 57.8042C193.731 57.7855 193.731 57.7855 193.731 57.7669C193.712 57.6735 193.712 57.5989 193.712 57.4868C193.712 57.4682 193.712 57.4682 193.712 57.4495C193.712 57.3935 193.712 57.3375 193.731 57.2815C193.731 57.2628 193.731 57.2441 193.731 57.2255C193.731 57.1695 193.75 57.1135 193.769 57.0575C193.769 57.0388 193.769 57.0201 193.788 57.0014C193.808 56.9454 193.827 56.9081 193.846 56.8521C193.846 56.8334 193.865 56.8148 193.865 56.7961C193.884 56.7587 193.923 56.7028 193.942 56.6654C193.961 56.6467 193.98 56.6281 193.999 56.6094C194.018 56.5907 194.038 56.5721 194.057 56.5534C194.095 56.5161 194.153 56.4787 194.191 56.4414C194.383 56.3107 194.632 56.2174 194.919 56.1613C194.919 56.18 194.919 56.2174 194.919 56.236V58.7003C194.919 58.7376 194.919 58.775 194.919 58.7936C194.459 58.775 194.095 58.5883 193.884 58.2522Z" fill="#221C54"/>
<path d="M192.829 21.8904C192.829 21.909 192.829 21.9464 192.81 21.965C192.753 22.1704 192.714 22.4131 192.714 22.6558C192.714 24.1493 194.114 25.2134 195.321 25.2134C196.874 25.2134 197.929 23.9999 197.929 22.5811C197.929 22.5064 197.929 22.4131 197.929 22.3384C197.929 22.3197 197.929 22.3011 197.929 22.2824C197.929 22.2077 197.929 22.1517 197.909 22.0957C197.909 22.077 197.909 22.0584 197.909 22.0397C197.909 21.965 197.89 21.8903 197.871 21.8157C197.814 21.517 197.718 21.2183 197.564 20.9569C197.564 20.9383 197.564 20.9383 197.545 20.9383C197.488 20.8449 197.43 20.7516 197.353 20.6582C197.296 20.5836 197.181 20.5649 197.104 20.6209L196.644 20.9383C196.548 21.0129 196.529 21.1249 196.606 21.2183C196.855 21.6103 197.008 22.077 197.008 22.5064C197.008 23.1598 196.702 23.7572 195.973 23.9626C195.973 23.9626 195.973 23.9626 195.954 23.9813C195.897 23.9999 195.82 24.0186 195.743 24.0372C195.743 23.9626 195.743 23.8879 195.743 23.7946V20.4715C195.743 20.3595 195.667 20.2849 195.571 20.2849C195.494 20.2849 195.417 20.2662 195.341 20.2662C194.075 20.2475 193.136 20.9009 192.829 21.8904ZM193.884 23.4212C193.884 23.4025 193.884 23.4025 193.865 23.4025C193.845 23.3838 193.845 23.3465 193.826 23.3279C193.826 23.3092 193.807 23.3092 193.807 23.2905C193.807 23.2718 193.788 23.2345 193.788 23.2158C193.788 23.1972 193.788 23.1785 193.769 23.1785C193.769 23.1598 193.75 23.1225 193.75 23.1038C193.75 23.0851 193.75 23.0852 193.75 23.0665C193.75 23.0291 193.73 23.0105 193.73 22.9731C193.73 22.9545 193.73 22.9545 193.73 22.9358C193.711 22.8424 193.711 22.7678 193.711 22.6558C193.711 22.6371 193.711 22.6371 193.711 22.6184C193.711 22.5624 193.711 22.5064 193.73 22.4504C193.73 22.4317 193.73 22.4131 193.73 22.3944C193.73 22.3384 193.75 22.2824 193.769 22.2264C193.769 22.2077 193.769 22.189 193.788 22.1704C193.807 22.1144 193.826 22.0771 193.845 22.021C193.845 22.0024 193.865 21.9837 193.865 21.965C193.884 21.9277 193.922 21.8717 193.941 21.8344C193.96 21.8157 193.98 21.797 193.999 21.7783C194.018 21.7597 194.037 21.741 194.056 21.7223C194.095 21.685 194.152 21.6477 194.19 21.6103C194.382 21.4796 194.631 21.3863 194.919 21.3303C194.919 21.349 194.919 21.3863 194.919 21.405V23.8692C194.919 23.9066 194.919 23.9439 194.919 23.9626C194.459 23.9439 194.095 23.7386 193.884 23.4212Z" fill="#221C54"/>
<path d="M192.848 46.9271V47.5992C192.848 47.7112 192.944 47.7859 193.039 47.7859H197.64C197.755 47.7859 197.832 47.6925 197.832 47.5992V46.9271C197.832 46.8151 197.736 46.7404 197.64 46.7404H193.039C192.944 46.7404 192.848 46.8151 192.848 46.9271Z" fill="#221C54"/>
<path d="M190.682 44.3285V45.0006C190.682 45.1126 190.778 45.1873 190.874 45.1873H197.641C197.756 45.1873 197.833 45.0939 197.833 45.0006V44.3285C197.833 44.2165 197.737 44.1418 197.641 44.1418H190.893C190.778 44.1418 190.682 44.2165 190.682 44.3285Z" fill="#221C54"/>
<path d="M192.887 26.3883V27.0604C192.887 27.1724 192.983 27.2471 193.078 27.2471H195.647C196.606 27.2471 196.97 27.7698 196.97 28.4232C196.97 29.0953 196.606 29.5993 195.647 29.5993H193.078C192.963 29.5993 192.887 29.6927 192.887 29.786V30.4581C192.887 30.5701 192.983 30.6448 193.078 30.6448H195.743C197.334 30.6448 197.986 29.5433 197.986 28.4045C197.986 27.2657 197.334 26.1643 195.743 26.1643H193.078C192.963 26.183 192.887 26.2763 192.887 26.3883Z" fill="#221C54"/>
<path d="M192.734 40.4057C192.734 41.8992 193.865 43.0193 195.36 43.0193C196.855 43.0193 197.986 41.9178 197.986 40.4057C197.986 38.9122 196.855 37.7921 195.36 37.7921C193.865 37.7921 192.734 38.9122 192.734 40.4057ZM196.951 40.4057C196.951 41.2644 196.242 41.9552 195.36 41.9552C194.478 41.9552 193.769 41.2644 193.769 40.4057C193.769 39.5469 194.478 38.8562 195.36 38.8562C196.242 38.8375 196.951 39.5283 196.951 40.4057Z" fill="#221C54"/>
<path d="M190.7 47.2453C190.7 47.6186 190.988 47.8987 191.371 47.8987C191.755 47.8987 192.042 47.6186 192.042 47.2453C192.042 46.8719 191.755 46.5919 191.371 46.5919C191.007 46.5919 190.7 46.8906 190.7 47.2453Z" fill="#221C54"/>
<path d="M192.868 32.0435V32.7716C192.868 32.8462 192.945 32.9209 193.021 32.9209H193.347C193.386 32.9209 193.424 32.9209 193.462 32.9209C193.347 33.0142 193.251 33.1076 193.155 33.2196C193.117 33.2756 193.079 33.3316 193.04 33.3876C193.021 33.4063 193.021 33.425 193.002 33.4436C192.983 33.481 192.964 33.5183 192.945 33.5556C192.925 33.5743 192.925 33.6116 192.906 33.6303C192.887 33.649 192.887 33.6863 192.868 33.7237C192.849 33.7983 192.83 33.873 192.791 33.9477C192.791 33.9663 192.791 33.985 192.791 33.985C192.791 34.041 192.772 34.0784 192.772 34.1344C192.772 34.153 192.772 34.1717 192.772 34.1717C192.753 34.2837 192.753 34.4144 192.753 34.5264C192.753 35.0118 192.945 35.4972 193.271 35.9079C193.711 36.4306 194.402 36.8787 195.322 36.8787C196.932 36.8787 197.89 35.6279 197.89 34.5264C197.89 34.1157 197.795 33.761 197.641 33.4623C197.622 33.4063 197.584 33.369 197.545 33.3316C197.45 33.1823 197.315 33.0516 197.181 32.9396C197.258 32.9396 197.373 32.9209 197.565 32.9209C198.485 32.9209 199.06 33.4623 199.06 34.4517C199.06 34.9745 198.906 35.4598 198.657 35.9079C198.6 36.0199 198.638 36.1319 198.753 36.1879L199.328 36.4306C199.405 36.4679 199.501 36.4306 199.558 36.3559C199.635 36.2439 199.692 36.1132 199.75 35.9639C199.75 35.9639 199.75 35.9639 199.75 35.9452C199.884 35.6465 199.961 35.2918 199.999 34.9558C199.999 34.9558 199.999 34.9558 199.999 34.9371C199.999 34.8624 200.018 34.7878 200.018 34.7131C200.018 34.6944 200.018 34.6944 200.018 34.6758C200.018 34.6011 200.018 34.5264 200.018 34.4331C200.018 32.9583 199.213 32.0248 197.89 31.8568C197.756 31.8381 197.622 31.8381 197.488 31.8381H193.06H193.04C192.945 31.8568 192.868 31.9315 192.868 32.0435ZM196.951 34.3957C196.951 35.2545 196.242 35.9452 195.36 35.9452C194.478 35.9452 193.769 35.2545 193.769 34.3957C193.769 33.537 194.478 32.8462 195.36 32.8462C196.242 32.8462 196.951 33.537 196.951 34.3957Z" fill="#221C54"/>
<path d="M195.341 48.9013C193.922 48.9013 192.887 49.816 192.734 51.0295C192.734 51.1228 192.714 51.2161 192.714 51.3095C192.714 51.3468 192.714 51.3655 192.714 51.4028C192.714 51.4402 192.714 51.4775 192.714 51.5335C192.714 51.5709 192.714 51.6082 192.734 51.6455C192.734 51.6829 192.734 51.7202 192.753 51.7575C192.753 51.7949 192.753 51.8135 192.772 51.8509C192.791 51.9069 192.81 51.9629 192.829 52.0189C192.829 52.0376 192.849 52.0563 192.849 52.0749C192.868 52.1123 192.887 52.1683 192.906 52.2056C192.906 52.2243 192.925 52.2429 192.925 52.2616C192.944 52.2989 192.964 52.3549 193.002 52.3923C193.002 52.3923 193.021 52.4109 193.021 52.4296C193.059 52.4669 193.079 52.523 193.117 52.5603C193.213 52.6723 193.309 52.7657 193.424 52.859H192.983C192.906 52.859 192.829 52.9337 192.829 53.0084V53.7364C192.829 53.8298 192.906 53.9044 192.983 53.9231H193.021H199.577H199.692C199.807 53.9231 199.884 53.8298 199.884 53.7364V53.0643C199.884 52.9523 199.788 52.8777 199.692 52.8777H199.577H197.219C197.353 52.7656 197.488 52.635 197.603 52.4856C197.603 52.4856 197.622 52.467 197.622 52.4483C197.622 52.4296 197.641 52.4296 197.641 52.4109C197.66 52.3736 197.699 52.3176 197.718 52.2803C197.718 52.2616 197.737 52.2616 197.737 52.2429C197.756 52.1869 197.775 52.1496 197.794 52.0936C197.794 52.0749 197.814 52.0562 197.814 52.0189C197.833 51.9816 197.833 51.9256 197.852 51.8882C197.852 51.8696 197.871 51.8322 197.871 51.8136C197.871 51.7576 197.89 51.7015 197.89 51.6642C197.89 51.6455 197.89 51.6082 197.89 51.5895C197.89 51.5335 197.89 51.4775 197.89 51.4215C197.89 51.4029 197.89 51.4028 197.89 51.3842C197.967 49.9654 196.874 48.9013 195.341 48.9013ZM196.951 51.4028C196.951 52.2616 196.242 52.9523 195.36 52.9523C194.478 52.9523 193.769 52.2616 193.769 51.4028C193.769 50.5441 194.478 49.8534 195.36 49.8534C196.242 49.8534 196.951 50.5441 196.951 51.4028Z" fill="#221C54"/>
<defs>
<filter id="filter0_d_2324_326" x="0.05418" y="0.369454" width="220.466" height="295.059" filterUnits="userSpaceOnUse" color-interpolation-filters="sRGB">
<feFlood flood-opacity="0" result="BackgroundImageFix"/>
<feColorMatrix in="SourceAlpha" type="matrix" values="0 0 0 0 0 0 0 0 0 0 0 0 0 0 0 0 0 0 127 0" result="hardAlpha"/>
<feOffset dx="-1.65764" dy="1.65764"/>
<feGaussianBlur stdDeviation="4.14409"/>
<feComposite in2="hardAlpha" operator="out"/>
<feColorMatrix type="matrix" values="0 0 0 0 0 0 0 0 0 0 0 0 0 0 0 0 0 0 0.25 0"/>
<feBlend mode="normal" in2="BackgroundImageFix" result="effect1_dropShadow_2324_326"/>
<feBlend mode="normal" in="SourceGraphic" in2="effect1_dropShadow_2324_326" result="shape"/>
</filter>
</defs>
</svg>
