<svg xmlns="http://www.w3.org/2000/svg" xmlns:xlink="http://www.w3.org/1999/xlink" xml:space="preserve" viewBox="3.67 1.67 390.76 354.11"><path fill="#C8C2E1" stroke="#FFF" stroke-miterlimit="10" stroke-width=".567" d="M394.143 191.658h-58.82c.259-4.116 3.692-7.376 7.871-7.376.856 0 1.681.142 2.459.4a5.768 5.768 0 0 1 5.13-3.802c-.016-.259-.039-.526-.039-.793 0-6.387 5.177-11.563 11.571-11.563 5.129 0 9.481 3.354 10.99 7.989a6.7 6.7 0 0 1 .793-.047c3.566 0 6.551 2.467 7.368 5.782h.228v.888a10.133 10.133 0 0 1 2.364-.283 10.172 10.172 0 0 1 10.085 8.805z" opacity=".3"/><path fill="#FFF" stroke="#C8C2E1" stroke-miterlimit="10" stroke-width=".567" d="M62.772 191.286H3.952c.259-4.116 3.692-7.376 7.871-7.376.856 0 1.681.142 2.459.4a5.768 5.768 0 0 1 5.13-3.802c-.016-.259-.039-.526-.039-.793 0-6.387 5.177-11.563 11.571-11.563 5.129 0 9.481 3.354 10.99 7.989a6.7 6.7 0 0 1 .793-.047c3.566 0 6.551 2.467 7.368 5.782h.228v.888a10.133 10.133 0 0 1 2.364-.283c5.16-.001 9.417 3.833 10.085 8.805z"/><path fill="#FFF" stroke="#3429A1" stroke-miterlimit="10" stroke-width=".897" d="M371.536 213.19h-93.132c.41-6.518 5.846-11.679 12.462-11.679 1.356 0 2.662.224 3.893.634 1.219-3.383 4.378-5.833 8.122-6.02-.025-.411-.062-.833-.062-1.256 0-10.112 8.196-18.308 18.32-18.308 8.122 0 15.012 5.311 17.4 12.649.41-.05.833-.075 1.256-.075 5.647 0 10.373 3.906 11.666 9.154h.361v1.405a16.072 16.072 0 0 1 3.744-.448c8.172.001 14.913 6.071 15.97 13.944z"/><ellipse cx="184.342" cy="348.522" fill="#3429A1" opacity=".12" rx="150.98" ry="7.259"/><path fill="#221B6C" d="M203.855 340.187v-34.842a2.092 2.092 0 0 0-2.092-2.092h-34.842a2.092 2.092 0 0 0-2.092 2.092v34.842a2.092 2.092 0 0 1-2.092 2.092h-8.424a2.092 2.092 0 1 0 0 4.184h60.056a2.092 2.092 0 1 0 0-4.184h-8.424a2.092 2.092 0 0 1-2.09-2.092z"/><path fill="#3429A1" d="M299.277 324.857H69.407c-5.815 0-10.529-4.714-10.529-10.529V159.744c0-5.815 4.714-10.529 10.529-10.529h229.87c5.815 0 10.529 4.714 10.529 10.529v154.584c0 5.815-4.714 10.529-10.529 10.529z"/><path fill="#FFF" d="M70.844 159.816H297.84v137.132H70.844z"/><circle cx="184.342" cy="310.358" r="5.444" fill="#0A0922"/><defs><path id="a" d="M70.844 159.816H297.84v137.132H70.844z"/></defs><clipPath id="b"><use xlink:href="#a" overflow="visible"/></clipPath><path fill="#3429A1" d="M127.518 248.813c18.721-3.327 36.726-10.014 55.473-13.19 31.863-5.398 65.426-.219 94.18 14.531 6.225 3.193 12.54 7.143 15.705 13.382 5.236 10.321-.371 23.513-9.618 30.473-9.247 6.959-21.133 9.153-32.574 10.897-57.971 8.839-117.878 11.203-174.7-3.29-1.323-.337-2.674-.698-3.796-1.476-1.816-1.261-2.758-3.415-3.551-5.479-3.826-9.96-16.712-48.235.573-52.228 7.053-1.629 18.648 6.283 26.155 7.404 10.645 1.591 21.598.852 32.153-1.024z" clip-path="url(#b)" opacity=".12"/><path fill="#C8C2E1" d="M186.328 144.052c-12.982-13.481-26.612-28.233-29.339-46.749-.984-6.679-.07-14.354 5.113-18.68 6.442-5.376 16.345-2.932 24.085-6.17 27.499-11.504 32.955-43.923 32.955-43.923 5.531-12.254 16.831-21.752 29.853-25.093s18.659-2.226 29.408 5.85"/><path fill="#C8C2E1" d="M277.95 9.142c11.461 7.029 19.461 19.434 21.138 32.773s-3.005 27.338-12.37 36.985c-6.224 6.411-14.194 10.822-21.025 16.582-6.831 5.76-12.798 13.701-12.61 22.635.177 8.388 5.744 16.701 3.111 24.668-2.119 6.41-8.921 10.08-15.494 11.619-18.223 4.267-36.951-2.989-54.259-10.11"/><path fill="none" stroke="#231E53" stroke-miterlimit="10" stroke-width="1.16" d="m188.19 135.06 46.232-4.608M188.798 135.06l-11.975-24.307M198.416 106.716l-11.975-24.307M237.002 42.779l-9.318-18.914M244.624 35.09l-9.318-18.914M254.798 25.571 245.48 6.657M215.021 71.828l-7.123-14.458M210.217 80.59l-7.123-14.457M194.406 115.361l46.232-4.608M203.094 96.867l34.508-3.44M207.898 84.713l46.232-4.608M227.023 54.364l46.232-4.608M222.349 60.319l46.231-4.608M246.348 32.096l29.496-2.94M256.707 23.865l21.697-2.162"/><path fill="none" stroke="#231E53" stroke-miterlimit="10" stroke-width="2.652" d="M278.404 9.287c-99.653 55.502-99.653 193.087-99.653 193.087"/><path fill="#3429A1" d="M186.619 208.073a8.588 8.588 0 0 0 1.142-4.281v-5.184h-18.917v5.184c0 1.565.422 3.029 1.15 4.295-16.5 3.891-28.579 19.146-28.579 36.759 0 9.701 7.865 17.566 17.566 17.566h38.606c9.472 0 17.238-7.51 17.556-16.976l.048-1.42c-.002-17.512-12.206-32.171-28.572-35.943z"/><defs><path id="c" d="M186.619 208.073a8.588 8.588 0 0 0 1.142-4.281v-5.184h-18.917v5.184c0 1.565.422 3.029 1.15 4.295-16.5 3.891-28.579 19.146-28.579 36.759 0 9.701 7.865 17.566 17.566 17.566h38.606c9.472 0 17.238-7.51 17.556-16.976l.048-1.42c-.002-17.512-12.206-32.171-28.572-35.943z"/></defs><clipPath id="d"><use xlink:href="#c" overflow="visible"/></clipPath><g fill="none" stroke="#E37645" stroke-miterlimit="10" stroke-width="1.16" clip-path="url(#d)"><path d="M148.33 191.876v89.178M157.955 191.876v89.178M169.491 208.754v72.3M182.391 191.876v89.178M192.972 191.876v89.178M204.712 191.876v89.178M212.973 191.876v89.178M136.642 265.887h89.178M136.642 252.383h89.178M136.642 241.199h89.178M136.642 230.87h89.178M136.642 219.587h89.178M136.642 208.754h89.178M136.642 201.244h89.178"/></g><ellipse cx="178.302" cy="198.609" fill="#231E53" rx="9.439" ry="1.322"/><defs><path id="e" d="M215.639 244.016c0-20.696-17.044-37.411-37.861-36.875-20.128.519-35.914 17.571-35.914 37.706 0 9.701 7.864 17.566 17.566 17.566h38.606c9.472 0 17.238-7.51 17.556-16.976l.047-1.421z"/></defs><clipPath id="f"><use xlink:href="#e" overflow="visible"/></clipPath><path fill="#231E53" d="M181.703 208.649c14.947 5.268 28.391 36.859 28.433 53.639a.202.202 0 0 1-.205.201h-7.199a.198.198 0 0 1-.203-.194c-.048-3.114-9.035-42.825-21.037-53.309-.169-.148-.002-.412.211-.337z" clip-path="url(#f)"/><path fill="#231E54" d="M209.753 254.844c-.26 4.66.506 8.247 6.293 8.247 4.083 0 11.528.961 18.012.961s13.129 0 13.129 3.522-6.404 1.041-8.326 1.201c-1.921.16-2.242.601-4.563.701s-.4.66 1.121.66 3.522 2.081 2.081 3.122c-1.441 1.041-4.323 2.402-8.646 2.722-4.323.32-8.089-.926-13.849-.72-8.966.32-16.411.24-20.494.32-4.083.08-8.246-.32-9.206-1.201-.961-.881 1.761-.801 1.521-1.361-.24-.56-5.284.64-10.007.08s-3.282-3.602-3.282-3.602.72-1.761 6.805-2.081c5.259-.277 14.982-.255 17.123-.243a.521.521 0 0 0 .09-1.036c-.445-.077-2.618-.229-3.124-.482-.801-.4 0-1.601 2.242-1.521 2.242.08 4.963.24 6.164-.881s-2.131-1.577.03-1.657c2.161-.08 1.041-3.442.881-3.843-.16-.401 6.005-2.908 6.005-2.908z"/><path fill="#231E54" d="M248.228 274.138h-5.284a1.36 1.36 0 1 1 0-2.722h5.284a1.361 1.361 0 0 1 0 2.722z"/><path fill="#231E53" d="M181.475 208.711c-.053.085.011.197.11.189 2.325-.186 6.213-2.988 6.213-6.427v-3.741a.122.122 0 0 0-.122-.122h-3.975a.122.122 0 0 0-.122.122v3.741c.001 2.702-1.629 5.484-2.104 6.238z"/><path fill="#0A0922" d="m164.83 324.857 39.025 12.807v-12.807z" opacity=".12"/></svg>