<?xml version="1.0" encoding="UTF-8"?> <!-- Generator: Adobe Illustrator 24.0.3, SVG Export Plug-In . SVG Version: 6.00 Build 0) --> <svg xmlns="http://www.w3.org/2000/svg" xmlns:xlink="http://www.w3.org/1999/xlink" version="1.1" id="Layer_1" x="0px" y="0px" viewBox="0 0 229.306 433.942" xml:space="preserve"> <g> <g> <g> <path fill="#C8C2E1" d="M226.855,61.445c-2.226-17.713-12.764-34.187-27.877-43.681l0.097-0.141 c-14.436-10.847-22.007-12.345-39.497-7.857c-17.49,4.488-32.667,17.245-40.096,33.703c0,0-7.329,43.541-44.262,58.992 c-10.396,4.349-23.697,1.067-32.348,8.287c-6.962,5.81-8.188,16.118-6.868,25.088c3.662,24.869,21.968,44.682,39.404,62.788 l0.153,0.324c23.246,9.564,48.399,19.31,72.874,13.579c8.828-2.067,17.965-6.996,20.81-15.605 c3.536-10.7-3.94-21.864-4.178-33.131c-0.253-11.998,7.761-22.664,16.936-30.4s19.879-13.659,28.238-22.27 C222.819,98.163,229.107,79.361,226.855,61.445z"></path> </g> <line fill="none" stroke="#231E53" stroke-width="1.5578" stroke-miterlimit="10" x1="77.911" y1="186.545" x2="140.003" y2="180.357"></line> <line fill="none" stroke="#231E53" stroke-width="1.5578" stroke-miterlimit="10" x1="78.727" y1="186.545" x2="62.643" y2="153.899"></line> <line fill="none" stroke="#231E53" stroke-width="1.5578" stroke-miterlimit="10" x1="91.645" y1="148.477" x2="75.562" y2="115.831"></line> <line fill="none" stroke="#231E53" stroke-width="1.5578" stroke-miterlimit="10" x1="143.468" y1="62.605" x2="130.953" y2="37.202"></line> <line fill="none" stroke="#231E53" stroke-width="1.5578" stroke-miterlimit="10" x1="153.705" y1="52.278" x2="141.191" y2="26.875"></line> <line fill="none" stroke="#231E53" stroke-width="1.5578" stroke-miterlimit="10" x1="167.37" y1="39.492" x2="154.855" y2="14.089"></line> <line fill="none" stroke="#231E53" stroke-width="1.5578" stroke-miterlimit="10" x1="113.946" y1="101.619" x2="104.38" y2="82.202"></line> <line fill="none" stroke="#231E53" stroke-width="1.5578" stroke-miterlimit="10" x1="107.494" y1="113.388" x2="97.928" y2="93.97"></line> <line fill="none" stroke="#231E53" stroke-width="1.5578" stroke-miterlimit="10" x1="86.259" y1="160.088" x2="148.352" y2="153.899"></line> <line fill="none" stroke="#231E53" stroke-width="1.5578" stroke-miterlimit="10" x1="97.928" y1="135.249" x2="144.275" y2="130.629"></line> <line fill="none" stroke="#231E53" stroke-width="1.5578" stroke-miterlimit="10" x1="104.38" y1="118.925" x2="166.473" y2="112.736"></line> <line fill="none" stroke="#231E53" stroke-width="1.5578" stroke-miterlimit="10" x1="130.066" y1="78.164" x2="192.159" y2="71.975"></line> <line fill="none" stroke="#231E53" stroke-width="1.5578" stroke-miterlimit="10" x1="123.788" y1="86.162" x2="185.881" y2="79.973"></line> <line fill="none" stroke="#231E53" stroke-width="1.5578" stroke-miterlimit="10" x1="156.022" y1="48.256" x2="195.636" y2="44.307"></line> <line fill="none" stroke="#231E53" stroke-width="1.5578" stroke-miterlimit="10" x1="169.934" y1="37.202" x2="199.075" y2="34.297"></line> </g> <path fill="#0A0922" d="M83.59,399.886c-8.168,1.254-16.702,0.75-24.458,3.602c-3.185,1.171-6.574,3.555-6.514,6.948 c0.045,2.547,2.185,4.698,4.612,5.468c2.428,0.77,5.066,0.42,7.543-0.176c6.076-1.462,12.107-4.377,18.276-3.381 c4.653,0.751,8.627,3.631,12.77,5.879c4.143,2.248,9.151,3.918,13.497,2.095c3.703-1.553,6.055-5.296,9.583-7.214 c7.655-4.161,16.869,1.589,25.582,1.539c1.626-0.009,3.349-0.269,4.594-1.314c1.672-1.403,2.042-3.882,1.616-6.023 c-1.287-6.465-8.089-10.171-14.399-12.081c-1.488-0.45-3.108-0.93-4.018-2.191c-1.186-1.643-0.679-3.985,0.361-5.724 c1.04-1.739,2.544-3.184,3.443-5c2.661-5.37-1.357-12.355-7.072-14.156c-5.716-1.801-12.089,0.603-16.554,4.6 c-5.886,5.269-7.174,12.022-11.24,18.101C97.515,396.386,89.82,398.93,83.59,399.886z"></path> <g> <path fill="#3429A1" d="M133.967,363.785c-0.001,0.192-0.004,0.384-0.009,0.576c-0.006,0.193-0.031,0.386-0.041,0.579 c-0.018,0.329-0.038,0.659-0.071,0.988c-0.029,0.287-0.068,0.574-0.108,0.861c-0.046,0.327-0.094,0.655-0.154,0.982 c-0.022,0.116-0.032,0.234-0.055,0.35c-0.035,0.173-0.087,0.345-0.126,0.518c-0.071,0.318-0.147,0.636-0.232,0.953 c-0.078,0.29-0.164,0.58-0.254,0.869c-0.098,0.316-0.201,0.632-0.313,0.946c-0.048,0.134-0.083,0.27-0.134,0.404 c-0.056,0.148-0.128,0.295-0.187,0.443c-0.132,0.332-0.271,0.663-0.419,0.994c-0.123,0.276-0.251,0.551-0.385,0.826 c-0.161,0.33-0.332,0.659-0.509,0.987c-0.085,0.158-0.157,0.319-0.246,0.476c-0.06,0.106-0.133,0.209-0.194,0.315 c-0.227,0.39-0.47,0.777-0.72,1.164c-0.151,0.234-0.297,0.468-0.456,0.7c-0.294,0.429-0.61,0.853-0.931,1.276 c-0.116,0.153-0.216,0.308-0.335,0.46c-0.022,0.027-0.048,0.054-0.07,0.082c-0.53,0.669-1.1,1.33-1.701,1.985 c-0.154,0.168-0.321,0.332-0.48,0.499c-0.474,0.497-0.968,0.989-1.483,1.476c-0.114,0.108-0.212,0.22-0.328,0.327 c-0.124,0.114-0.262,0.225-0.388,0.338c-0.307,0.276-0.622,0.55-0.943,0.823c-0.296,0.253-0.596,0.504-0.904,0.753 c-0.333,0.269-0.677,0.535-1.023,0.801c-0.321,0.246-0.644,0.491-0.977,0.732c-0.359,0.261-0.73,0.519-1.103,0.776 c-0.345,0.238-0.691,0.475-1.048,0.709c-0.387,0.254-0.786,0.503-1.187,0.752c-0.243,0.151-0.471,0.307-0.719,0.455 c-0.263,0.158-0.53,0.316-0.799,0.472c-0.979,0.569-1.99,1.108-3.015,1.634c-0.295,0.151-0.594,0.298-0.892,0.445 c-0.799,0.395-1.61,0.777-2.433,1.146c-0.275,0.124-0.547,0.251-0.824,0.371c-1.073,0.465-2.162,0.912-3.272,1.334 c-0.192,0.073-0.388,0.139-0.581,0.211c-0.939,0.349-1.891,0.683-2.853,1.001c-0.164,0.054-0.322,0.118-0.487,0.171 c-0.23,0.075-0.466,0.14-0.697,0.213c-0.528,0.166-1.06,0.328-1.595,0.485c-0.452,0.133-0.905,0.264-1.361,0.39 c-0.54,0.15-1.083,0.294-1.629,0.434c-0.459,0.118-0.917,0.236-1.38,0.348c-0.554,0.134-1.113,0.261-1.672,0.386 c-0.46,0.103-0.92,0.206-1.383,0.303c-0.572,0.119-1.147,0.23-1.724,0.339c-0.323,0.062-0.642,0.132-0.967,0.191 c-0.114,0.021-0.231,0.035-0.345,0.055c-1.229,0.217-2.465,0.418-3.71,0.592c-0.176,0.025-0.353,0.043-0.529,0.067 c-1.082,0.146-2.17,0.275-3.261,0.389c-0.173,0.018-0.343,0.044-0.515,0.062c-0.246,0.024-0.494,0.038-0.74,0.061 c-0.701,0.065-1.403,0.123-2.107,0.175c-0.442,0.033-0.883,0.065-1.326,0.092c-0.736,0.046-1.473,0.08-2.21,0.111 c-0.296,0.012-0.59,0.035-0.886,0.045c-0.117,0.004-0.234,0.003-0.35,0.007c-0.64,0.02-1.28,0.028-1.921,0.037 c-0.445,0.006-0.89,0.017-1.335,0.019c-0.685,0.002-1.369-0.01-2.054-0.021c-0.351-0.006-0.702-0.002-1.053-0.011 c-0.032-0.001-0.064-0.004-0.096-0.005c-2.092-0.054-4.18-0.165-6.257-0.334c-0.034-0.003-0.068-0.003-0.102-0.006 c-0.013-0.001-0.025-0.003-0.038-0.004c-2.118-0.176-4.225-0.41-6.312-0.706c-0.007-0.001-0.014-0.001-0.021-0.002 c-0.189-0.027-0.375-0.061-0.563-0.089c-0.861-0.127-1.721-0.259-2.575-0.406c-0.375-0.065-0.746-0.14-1.12-0.209 c-0.672-0.124-1.343-0.246-2.009-0.382c-0.076-0.016-0.153-0.028-0.229-0.044c-0.28-0.058-0.553-0.128-0.832-0.188 c-0.733-0.158-1.464-0.32-2.189-0.495c-0.412-0.099-0.819-0.204-1.228-0.308c-0.661-0.168-1.319-0.341-1.973-0.522 c-0.202-0.056-0.409-0.104-0.611-0.162c-0.175-0.05-0.343-0.11-0.517-0.161c-1.042-0.304-2.074-0.623-3.093-0.961 c-0.181-0.06-0.366-0.115-0.546-0.176c-1.172-0.397-2.323-0.821-3.459-1.264c-0.111-0.044-0.227-0.08-0.337-0.124 c-0.131-0.052-0.253-0.115-0.384-0.167c-1.478-0.592-2.928-1.218-4.337-1.888c-0.143-0.068-0.28-0.141-0.422-0.209 c-1.474-0.714-2.915-1.463-4.301-2.263c-12.918-7.458-19.369-17.249-19.342-27.026v-19.665c0,0,5.214-49.507,64.95-49.507 c61.64,0,66.081,45.705,66.081,45.705V363.785z"></path> <g> <defs> <path id="SVGID_1_" d="M133.967,363.785c-0.001,0.192-0.004,0.384-0.009,0.576c-0.006,0.193-0.031,0.386-0.041,0.579 c-0.018,0.329-0.038,0.659-0.071,0.988c-0.029,0.287-0.068,0.574-0.108,0.861c-0.046,0.327-0.094,0.655-0.154,0.982 c-0.022,0.116-0.032,0.234-0.055,0.35c-0.035,0.173-0.087,0.345-0.126,0.518c-0.071,0.318-0.147,0.636-0.232,0.953 c-0.078,0.29-0.164,0.58-0.254,0.869c-0.098,0.316-0.201,0.632-0.313,0.946c-0.048,0.134-0.083,0.27-0.134,0.404 c-0.056,0.148-0.128,0.295-0.187,0.443c-0.132,0.332-0.271,0.663-0.419,0.994c-0.123,0.276-0.251,0.551-0.385,0.826 c-0.161,0.33-0.332,0.659-0.509,0.987c-0.085,0.158-0.157,0.319-0.246,0.476c-0.06,0.106-0.133,0.209-0.194,0.315 c-0.227,0.39-0.47,0.777-0.72,1.164c-0.151,0.234-0.297,0.468-0.456,0.7c-0.294,0.429-0.61,0.853-0.931,1.276 c-0.116,0.153-0.216,0.308-0.335,0.46c-0.022,0.027-0.048,0.054-0.07,0.082c-0.53,0.669-1.1,1.33-1.701,1.985 c-0.154,0.168-0.321,0.332-0.48,0.499c-0.474,0.497-0.968,0.989-1.483,1.476c-0.114,0.108-0.212,0.22-0.328,0.327 c-0.124,0.114-0.262,0.225-0.388,0.338c-0.307,0.276-0.622,0.55-0.943,0.823c-0.296,0.253-0.596,0.504-0.904,0.753 c-0.333,0.269-0.677,0.535-1.023,0.801c-0.321,0.246-0.644,0.491-0.977,0.732c-0.359,0.261-0.73,0.519-1.103,0.776 c-0.345,0.238-0.691,0.475-1.048,0.709c-0.387,0.254-0.786,0.503-1.187,0.752c-0.243,0.151-0.471,0.307-0.719,0.455 c-0.263,0.158-0.53,0.316-0.799,0.472c-0.979,0.569-1.99,1.108-3.015,1.634c-0.295,0.151-0.594,0.298-0.892,0.445 c-0.799,0.395-1.61,0.777-2.433,1.146c-0.275,0.124-0.547,0.251-0.824,0.371c-1.073,0.465-2.162,0.912-3.272,1.334 c-0.192,0.073-0.388,0.139-0.581,0.211c-0.939,0.349-1.891,0.683-2.853,1.001c-0.164,0.054-0.322,0.118-0.487,0.171 c-0.23,0.075-0.466,0.14-0.697,0.213c-0.528,0.166-1.06,0.328-1.595,0.485c-0.452,0.133-0.905,0.264-1.361,0.39 c-0.54,0.15-1.083,0.294-1.629,0.434c-0.459,0.118-0.917,0.236-1.38,0.348c-0.554,0.134-1.113,0.261-1.672,0.386 c-0.46,0.103-0.92,0.206-1.383,0.303c-0.572,0.119-1.147,0.23-1.724,0.339c-0.323,0.062-0.642,0.132-0.967,0.191 c-0.114,0.021-0.231,0.035-0.345,0.055c-1.229,0.217-2.465,0.418-3.71,0.592c-0.176,0.025-0.353,0.043-0.529,0.067 c-1.082,0.146-2.17,0.275-3.261,0.389c-0.173,0.018-0.343,0.044-0.515,0.062c-0.246,0.024-0.494,0.038-0.74,0.061 c-0.701,0.065-1.403,0.123-2.107,0.175c-0.442,0.033-0.883,0.065-1.326,0.092c-0.736,0.046-1.473,0.08-2.21,0.111 c-0.296,0.012-0.59,0.035-0.886,0.045c-0.117,0.004-0.234,0.003-0.35,0.007c-0.64,0.02-1.28,0.028-1.921,0.037 c-0.445,0.006-0.89,0.017-1.335,0.019c-0.685,0.002-1.369-0.01-2.054-0.021c-0.351-0.006-0.702-0.002-1.053-0.011 c-0.032-0.001-0.064-0.004-0.096-0.005c-2.092-0.054-4.18-0.165-6.257-0.334c-0.034-0.003-0.068-0.003-0.102-0.006 c-0.013-0.001-0.025-0.003-0.038-0.004c-2.118-0.176-4.225-0.41-6.312-0.706c-0.007-0.001-0.014-0.001-0.021-0.002 c-0.189-0.027-0.375-0.061-0.563-0.089c-0.861-0.127-1.721-0.259-2.575-0.406c-0.375-0.065-0.746-0.14-1.12-0.209 c-0.672-0.124-1.343-0.246-2.009-0.382c-0.076-0.016-0.153-0.028-0.229-0.044c-0.28-0.058-0.553-0.128-0.832-0.188 c-0.733-0.158-1.464-0.32-2.189-0.495c-0.412-0.099-0.819-0.204-1.228-0.308c-0.661-0.168-1.319-0.341-1.973-0.522 c-0.202-0.056-0.409-0.104-0.611-0.162c-0.175-0.05-0.343-0.11-0.517-0.161c-1.042-0.304-2.074-0.623-3.093-0.961 c-0.181-0.06-0.366-0.115-0.546-0.176c-1.172-0.397-2.323-0.821-3.459-1.264c-0.111-0.044-0.227-0.08-0.337-0.124 c-0.131-0.052-0.253-0.115-0.384-0.167c-1.478-0.592-2.928-1.218-4.337-1.888c-0.143-0.068-0.28-0.141-0.422-0.209 c-1.474-0.714-2.915-1.463-4.301-2.263c-12.918-7.458-19.369-17.249-19.342-27.026v-19.665c0,0,5.214-49.507,64.95-49.507 c61.64,0,66.081,45.705,66.081,45.705V363.785z"></path> </defs> <clipPath id="SVGID_2_"> <use xlink:href="#SVGID_1_" overflow="visible"></use> </clipPath> <g clip-path="url(#SVGID_2_)"> <path fill="none" stroke="#E37645" stroke-width="1.0959" stroke-miterlimit="10" d="M82.577,283.327 c0,12.312-2.182,20.806-5.14,26.664c0,0,18.89,7.633,27.459,19.534s6.909,47.486,7.025,62.539"></path> <path fill="none" stroke="#E37645" stroke-width="1.0959" stroke-miterlimit="10" d="M51.368,276.853 c-3.603,8.251-3.158,18.161,1.17,26.056c-11.177,6.474-19.199,17.552-23.821,29.613c-4.622,12.061-6.094,25.109-6.415,38.022 c-0.209,8.387,0.105,17.039,3.502,24.711"></path> <path fill="none" stroke="#E37645" stroke-width="1.0959" stroke-miterlimit="10" d="M67.623,283.928 c0.37,5.068,0.731,10.25-0.591,15.156c-0.839,3.111-2.343,6.062-2.693,9.265c-0.507,4.64,1.455,9.146,3.203,13.475 c10.073,24.943,14.277,52.234,12.179,79.053"></path> <path fill="none" stroke="#E37645" stroke-width="1.0959" stroke-miterlimit="10" d="M47.182,404.349 c-3.366-16.459-5.503-33.291-4.387-50.053s5.609-33.518,14.698-47.646"></path> <path fill="none" stroke="#E37645" stroke-width="1.0959" stroke-miterlimit="10" d="M98.051,278.634 c1.837,7.755-0.676,16.394-6.385,21.955c16.948,7.124,31.93,20.771,36.707,38.524c1.884,7.003,2.136,14.327,2.377,21.575 c0.272,8.176,0.544,16.351,0.815,24.527"></path> <path fill="none" stroke="#E37645" stroke-width="1.0959" stroke-miterlimit="10" d="M6.623,380.693 c1.043-1.242,0.747-3.084,0.42-4.672c-3.185-15.455-3.761-31.917,1.86-46.661s18.328-27.417,33.92-29.836"></path> <path fill="none" stroke="#E37645" stroke-width="1.0959" stroke-miterlimit="10" d="M-3.236,359.603 c1.655,3.863,4.932,6.767,8.228,9.373c16.893,13.357,37.639,18.346,59.171,18.686c21.903,0.346,42.869-4.089,62.644-13.512 c5.694-2.713,11.614-12.8,15.132-18.034"></path> <path fill="none" stroke="#E37645" stroke-width="1.0959" stroke-miterlimit="10" d="M-4.633,343.207 c22.423,11.751,47.956,17.121,73.27,16.8c5.062-0.064,10.127-0.35,15.138-1.072c8.788-1.265,17.324-3.854,25.82-6.434 c5.488-1.667,10.976-3.333,16.464-5c6.032-1.832,12.306-3.802,16.851-8.171"></path> <path fill="none" stroke="#E37645" stroke-width="1.0959" stroke-miterlimit="10" d="M9.262,313.887 c0.242,3.807,2.688,7.212,5.78,9.447c3.092,2.234,6.786,3.46,10.457,4.497c24.467,6.912,50.896,6.722,75.26-0.541 c8.795-2.622,18.12-6.882,21.847-15.268"></path> <path fill="none" stroke="#E37645" stroke-width="1.0959" stroke-miterlimit="10" d="M36.745,296.764 c1.218,4.564,4.457,8.405,8.343,11.091s8.401,4.318,12.949,5.593c8.739,2.448,19.871,0.315,28.532-2.394 s14.606-6.738,15.46-15.773"></path> </g> </g> <linearGradient id="SVGID_3_" gradientUnits="userSpaceOnUse" x1="68.2349" y1="287.9653" x2="68.5607" y2="305.8838"> <stop offset="0" style="stop-color:#3429A1"></stop> <stop offset="0.4176" style="stop-color:#33289F"></stop> <stop offset="0.6301" style="stop-color:#312697"></stop> <stop offset="0.7963" style="stop-color:#2C238A"></stop> <stop offset="0.9377" style="stop-color:#261E77"></stop> <stop offset="1" style="stop-color:#221B6C"></stop> </linearGradient> <path fill="url(#SVGID_3_)" d="M42.877,266.885c-4.79,1.631-7.872,6.326-7.424,11.366c2.917,32.801,22.564,32.801,22.564,32.801 h20.568c1,0,1.991-0.129,2.953-0.401c5.249-1.481,19.025-8.315,19.025-39.25C100.563,249.591,60.228,260.978,42.877,266.885z"></path> <g> <g> <path fill="#763D24" d="M100.678,269.899c-0.001,0.193-0.015,0.385-0.025,0.578c-0.009,0.165-0.019,0.33-0.035,0.495 c-0.014,0.144-0.034,0.287-0.054,0.431c-0.023,0.164-0.047,0.328-0.077,0.492c-0.027,0.145-0.058,0.289-0.09,0.433 c-0.036,0.16-0.074,0.32-0.117,0.479c-0.039,0.145-0.082,0.289-0.127,0.433c-0.049,0.159-0.101,0.317-0.157,0.475 c-0.05,0.141-0.104,0.282-0.16,0.423c-0.066,0.166-0.136,0.332-0.21,0.498c-0.062,0.138-0.126,0.276-0.193,0.413 c-0.081,0.165-0.166,0.329-0.255,0.493c-0.072,0.132-0.144,0.265-0.221,0.397c-0.113,0.195-0.235,0.389-0.36,0.582 c-0.076,0.117-0.149,0.234-0.228,0.351c-0.147,0.214-0.304,0.426-0.465,0.637c-0.069,0.091-0.133,0.183-0.204,0.273 c-0.265,0.335-0.55,0.665-0.851,0.993c-0.077,0.084-0.161,0.167-0.241,0.251c-0.237,0.249-0.484,0.495-0.742,0.739 c-0.118,0.111-0.235,0.222-0.357,0.332c-0.154,0.138-0.312,0.276-0.472,0.412c-0.149,0.127-0.298,0.253-0.453,0.377 c-0.166,0.134-0.338,0.268-0.511,0.4c-0.161,0.123-0.323,0.246-0.489,0.367c-0.18,0.131-0.365,0.26-0.552,0.388 c-0.173,0.119-0.346,0.238-0.525,0.355c-0.193,0.127-0.393,0.251-0.593,0.376c-0.251,0.156-0.499,0.313-0.76,0.465 c-0.49,0.285-0.996,0.555-1.509,0.818c-0.148,0.076-0.298,0.149-0.447,0.223c-0.399,0.197-0.804,0.388-1.215,0.572 c-0.139,0.062-0.276,0.126-0.416,0.187c-0.536,0.232-1.08,0.456-1.635,0.667c-0.098,0.038-0.199,0.071-0.298,0.108 c-0.468,0.174-0.942,0.34-1.421,0.499c-0.198,0.066-0.397,0.13-0.597,0.193c-0.264,0.083-0.529,0.164-0.795,0.242 c-0.227,0.067-0.454,0.132-0.682,0.196c-0.27,0.075-0.541,0.147-0.814,0.217c-0.23,0.059-0.46,0.118-0.692,0.174 c-0.276,0.067-0.554,0.13-0.833,0.193c-0.232,0.052-0.465,0.104-0.698,0.153c-0.283,0.059-0.569,0.114-0.854,0.168 c-0.221,0.042-0.442,0.085-0.664,0.124c-0.614,0.109-1.232,0.209-1.855,0.296c-0.087,0.012-0.176,0.022-0.263,0.033 c-0.543,0.073-1.088,0.138-1.636,0.195c-0.208,0.022-0.417,0.042-0.626,0.061c-0.35,0.032-0.701,0.061-1.052,0.087 c-0.223,0.017-0.446,0.033-0.669,0.047c-0.366,0.023-0.732,0.04-1.098,0.055c-0.209,0.009-0.417,0.02-0.627,0.026 c-0.318,0.01-0.636,0.014-0.955,0.019c-0.224,0.003-0.449,0.009-0.673,0.009c-0.34,0.001-0.68-0.005-1.02-0.01 c-0.195-0.003-0.389-0.003-0.584-0.008c-1.048-0.027-2.093-0.083-3.134-0.168c-0.022-0.002-0.044-0.003-0.066-0.005 c-1.061-0.088-2.117-0.205-3.162-0.353c-0.089-0.013-0.177-0.028-0.265-0.041c-0.44-0.065-0.878-0.132-1.314-0.207 c-0.189-0.032-0.375-0.07-0.563-0.105c-0.335-0.062-0.671-0.123-1.004-0.191c-0.178-0.036-0.353-0.077-0.529-0.116 c-0.368-0.08-0.735-0.161-1.099-0.248c-0.204-0.049-0.407-0.101-0.609-0.153c-0.333-0.085-0.664-0.172-0.993-0.263 c-0.188-0.052-0.375-0.106-0.561-0.16c-0.523-0.152-1.041-0.313-1.553-0.482c-0.089-0.029-0.181-0.057-0.27-0.087 c-0.587-0.199-1.164-0.412-1.734-0.634c-0.12-0.047-0.239-0.096-0.358-0.144c-0.74-0.297-1.467-0.61-2.172-0.946 c-0.071-0.034-0.14-0.07-0.211-0.105c-0.738-0.357-1.459-0.732-2.153-1.133c-6.466-3.733-9.695-8.634-9.681-13.527"></path> <g> <path fill="#211D55" d="M91.001,256.375c12.844,7.415,12.911,19.445,0.151,26.861c-12.765,7.418-33.534,7.419-46.378,0.003 c-12.849-7.418-12.917-19.448-0.151-26.867C57.383,248.956,78.152,248.956,91.001,256.375z"></path> </g> <g> <path fill="#0A0922" d="M87.189,259.215c10.726,5.847,10.782,15.333,0.126,21.18c-10.661,5.849-28.005,5.849-38.731,0.003 c-10.73-5.849-10.787-15.335-0.126-21.184C59.115,253.366,76.459,253.366,87.189,259.215z"></path> </g> </g> </g> <g> <defs> <path id="SVGID_4_" d="M100.542,271.824c-0.022,0.175-0.055,0.35-0.099,0.515c-0.033,0.143-0.066,0.296-0.11,0.427 c-0.033,0.154-0.077,0.307-0.132,0.46c-0.044,0.142-0.098,0.307-0.153,0.449c-0.153,0.449-0.34,0.899-0.559,1.337 c-0.066,0.153-0.153,0.296-0.23,0.449c-0.241,0.46-0.515,0.921-0.833,1.37c-0.066,0.11-0.154,0.219-0.23,0.318 c-0.154,0.23-0.329,0.46-0.515,0.68c-0.208,0.263-0.427,0.526-0.668,0.789c-0.121,0.143-0.252,0.285-0.384,0.417 c-0.219,0.219-0.46,0.46-0.712,0.69c-0.11,0.12-0.23,0.23-0.351,0.329c-0.131,0.12-0.274,0.241-0.405,0.361 c-0.165,0.143-0.34,0.296-0.526,0.428c-0.143,0.132-0.296,0.241-0.449,0.362c-0.175,0.142-0.362,0.274-0.548,0.405 c-0.142,0.11-0.307,0.219-0.46,0.329c-0.197,0.142-0.405,0.285-0.614,0.416c-0.197,0.132-0.394,0.252-0.592,0.373 c-0.252,0.165-0.504,0.318-0.767,0.471c-0.241,0.143-0.493,0.285-0.745,0.417c-0.252,0.142-0.504,0.274-0.756,0.394 c-0.143,0.066-0.263,0.143-0.406,0.208c-0.022,0.022-0.055,0.033-0.088,0.044c-0.186,0.087-0.373,0.175-0.559,0.263 c-0.329,0.165-0.679,0.329-1.03,0.471c-0.263,0.12-0.537,0.23-0.811,0.34c-0.405,0.175-0.822,0.329-1.249,0.482 c-0.428,0.164-0.855,0.307-1.293,0.449l-0.592,0.197c-0.274,0.088-0.537,0.165-0.8,0.241c-0.723,0.219-1.468,0.416-2.224,0.603 c-0.263,0.055-0.526,0.121-0.8,0.176c-0.23,0.066-0.46,0.109-0.69,0.153c-0.285,0.066-0.559,0.121-0.844,0.175 c-0.23,0.044-0.449,0.088-0.679,0.121c-0.57,0.099-1.151,0.197-1.732,0.274c-0.405,0.066-0.8,0.109-1.205,0.153 c-0.252,0.033-0.493,0.055-0.745,0.088c-0.23,0.033-0.471,0.055-0.701,0.066c-0.351,0.033-0.701,0.066-1.052,0.088 c-0.219,0.022-0.438,0.033-0.668,0.044c-0.34,0.033-0.69,0.044-1.03,0.066c-0.241,0.011-0.471,0.022-0.691,0.022 c-0.307,0.011-0.614,0.011-0.92,0.022h-0.712c-0.307,0-0.614,0.011-0.92,0c-0.756-0.011-1.501-0.033-2.246-0.077 c-0.526-0.033-1.041-0.066-1.567-0.109h-0.066c-1.151-0.088-2.301-0.219-3.43-0.395c-0.438-0.066-0.877-0.132-1.315-0.208 c-0.186-0.033-0.373-0.066-0.559-0.099c-0.34-0.066-0.668-0.131-1.008-0.197c-0.186-0.033-0.373-0.077-0.548-0.11 c-0.362-0.087-0.723-0.164-1.074-0.252c-0.219-0.044-0.438-0.098-0.647-0.164c-0.318-0.088-0.636-0.164-0.953-0.252 c-0.197-0.044-0.384-0.099-0.57-0.164c-0.263-0.077-0.515-0.154-0.778-0.23c-0.252-0.087-0.515-0.164-0.767-0.252 c-0.088-0.022-0.186-0.055-0.274-0.087c-0.23-0.077-0.449-0.154-0.668-0.23c-0.482-0.164-0.954-0.351-1.425-0.548 c-0.362-0.153-0.734-0.296-1.096-0.46c-0.482-0.197-0.954-0.417-1.414-0.647c-0.329-0.164-0.647-0.318-0.964-0.493 c-0.362-0.186-0.712-0.383-1.063-0.581c-0.811-0.471-1.567-0.953-2.268-1.446c-0.701-0.504-1.359-1.019-1.962-1.545 c-1.217-1.063-2.225-2.17-3.025-3.32c-0.811-1.151-1.414-2.334-1.819-3.54c-0.394-1.183-0.592-2.389-0.603-3.594 c0.033,41.259,22.925,41.259,22.925,41.259H79.6c0,0,21.008-1.436,21.019-39.615 C100.597,271.539,100.575,271.682,100.542,271.824z"></path> </defs> <clipPath id="SVGID_5_"> <use xlink:href="#SVGID_4_" overflow="visible"></use> </clipPath> <g clip-path="url(#SVGID_5_)"> <defs> <path id="SVGID_6_" d="M35.093,269.712c0,41.342,22.924,41.342,22.924,41.342H79.54c0,0,21.024-1.435,21.024-39.651 C100.563,243.614,35.093,269.712,35.093,269.712z"></path> </defs> <clipPath id="SVGID_7_"> <use xlink:href="#SVGID_6_" overflow="visible"></use> </clipPath> <g clip-path="url(#SVGID_7_)"> <path fill="none" stroke="#E37645" stroke-width="1.0959" stroke-miterlimit="10" d="M45.539,280.489 c-0.21,11.802,6.852,25.689,17.05,31.632"></path> <path fill="none" stroke="#E37645" stroke-width="1.0959" stroke-miterlimit="10" d="M71.134,315.461 c2.72-0.288,4.92-2.523,5.956-5.054s1.12-5.337,1.159-8.071c0.081-5.704,0.024-11.409-0.17-17.11"></path> <path fill="none" stroke="#E37645" stroke-width="1.0959" stroke-miterlimit="10" d="M88.718,309.072 c1.99-1.193,2.364-3.868,2.527-6.182c0.203-2.872,0.406-5.744,0.609-8.617c0.356-5.047,0.607-10.518-2.209-14.721"></path> <path fill="none" stroke="#E37645" stroke-width="1.0959" stroke-miterlimit="10" d="M64.277,282.876 c-0.013,2.326-0.026,4.652-0.038,6.977c-0.026,4.702,1.456,9.741,2.933,14.205c1.477,4.464,5.977,8.662,10.5,9.946"></path> <path fill="none" stroke="#E37645" stroke-width="1.0959" stroke-miterlimit="10" d="M40.523,273.801 c-0.593,7.042-1.17,14.263,0.741,21.067c1.911,6.803,5.152,14.577,12.043,16.144"></path> </g> </g> <path clip-path="url(#SVGID_5_)" fill="none" stroke="#E37645" stroke-width="1.0959" stroke-miterlimit="10" d="M33.348,273.829 c0.124,4.091,1.622,10.438,4.26,13.568c2.288,2.715,4.523,4.519,7.287,5.366c13.658,4.184,28.618,3.999,42.168-0.522 c7.134-2.38,14.594-6.812,16.273-14.142"></path> <path clip-path="url(#SVGID_5_)" fill="none" stroke="#E37645" stroke-width="1.0959" stroke-miterlimit="10" d="M41.422,298.747 c5.637,7.829,16.435,9.853,26.077,9.547c6.354-0.202,12.785-1.168,18.537-3.875c5.752-2.708,10.791-7.313,13.068-13.248"></path> </g> <g> <g> <path fill="#763D24" d="M109.217,276.199c0.603,0.526,1.26,1.041,1.962,1.545C110.477,277.251,109.82,276.736,109.217,276.199z"></path> <path fill="#763D24" d="M169.358,265.854c0,0.098,0,0.186-0.011,0.296c-0.011,0.098-0.022,0.186-0.022,0.285 c-0.011,0.164-0.011,0.329-0.033,0.493c-0.011,0.142-0.033,0.285-0.055,0.428c0-0.515-0.022-1.019-0.066-1.501H169.358z"></path> <g> <path fill="#211D55" d="M169.171,265.854c0.044,0.482,0.066,0.986,0.066,1.501c0.022-0.143,0.044-0.285,0.055-0.428 c0.022-0.164,0.022-0.329,0.033-0.493c0-0.099,0.011-0.186,0.022-0.285c0.011-0.11,0.011-0.197,0.011-0.296H169.171z"></path> </g> </g> </g> </g> <path fill="#0A0922" d="M84.386,286.298c0.809,12.305-4.257,24.868-4.257,24.868s26.933,20.234,26.933,83.302h9.401 c0-63.068-34.016-83.302-34.016-83.302s9.225-14.708,8.132-27.883l-3.265-2.888l-6.451,0.719L84.386,286.298z"></path> <path fill="none" stroke="#0A0922" stroke-width="3.5618" stroke-miterlimit="10" d="M199.075,17.622 C65.233,92.166,65.233,276.954,65.233,276.954"></path> <path fill="#0A0922" d="M96.701,423.727c1.831-0.303,2.933,1.995,2.832,3.777c-0.086,1.517-0.797,3.069-2.113,3.827 c-1.317,0.757-3.248,0.457-4.018-0.852c-0.65-1.104-0.333-2.572,0.428-3.603S97.238,425.45,96.701,423.727L96.701,423.727z"></path> <path fill="#0A0922" d="M102.563,427.082c0.438,0.27,0.938,0.423,1.437,0.549c1.128,0.285,2.286,0.447,3.449,0.482 c0.643,0.019,1.365-0.034,1.795-0.513c0.382-0.426,0.409-1.054,0.399-1.626c-0.012-0.627-0.06-1.298-0.445-1.792 c-0.534-0.686-1.512-0.796-2.38-0.851c-1.4-0.088-2.8-0.177-4.2-0.265C100.408,422.926,101.366,426.345,102.563,427.082z"></path> </g> </svg> 