<svg xmlns="http://www.w3.org/2000/svg" width="421" height="337" fill="none"><path fill="#17124C" d="M113.387 311.522c33.785 0 61.173-4.199 61.173-9.38 0-5.18-27.388-9.38-61.173-9.38s-61.173 4.2-61.173 9.38c0 5.181 27.388 9.38 61.173 9.38Z" opacity=".1"/><g clip-path="url(#a)"><path fill="#C7C1E0" fill-opacity=".5" d="M86.636 54.05c-1.691.843-3.372 1.712-4.734 3.05-1.282 1.259-2.382 2.677-3.413 4.15-1.4 2.003-2.588 4.142-3.964 6.16a28.76 28.76 0 0 1-5.206 5.785c-1.843 1.559-3.904 2.695-6.128 3.582-.675.27-1.36.526-1.996.883-.178.099-.34.218-.498.355.568-.023 1.098-.195 1.608-.397.787-.31 1.59-.575 2.382-.872 1.099-.411 2.067-1.054 3.02-1.722a9.486 9.486 0 0 1 3.15-1.436c.093-.023.195-.096.283-.03-1.17 1.169-2.034 2.56-2.863 3.979-1.215 2.08-2.864 3.724-4.969 4.907-.841.473-1.78.531-2.704.666-.728.107-1.464.193-2.14.51-.694.327-1.19.874-1.615 1.495-.049.071-.144.145-.062.243.065.078.167.067.261.062.952-.055 1.873-.268 2.785-.532 1.68-.487 3.303-1.102 4.796-2.05a7.082 7.082 0 0 1-1.019 1.623c-.826.993-1.65 1.986-2.833 2.591-1.127.578-2.326.974-3.52 1.379-1.607.544-3.067 1.302-4.189 2.613-.03.036-.066.065-.102.096-.064.054-.135.105-.216.046-.11-.08 0-.144.033-.202.308-.537.6-1.085.935-1.605 1.213-1.888 2.12-3.925 2.985-5.985.784-1.87 1.502-3.769 2.353-5.606a62.94 62.94 0 0 1 2.82-5.419l.07-.137c.099-.173.196-.347.294-.521l.114-.185c.03-.053.088-.1.023-.164l-.078.102-.116.172-.309.528-.066.138c-1.496 2.377-2.802 4.857-4.075 7.358-.73 1.434-1.614 2.787-2.283 4.256-.59 1.299-1.092 2.637-1.724 3.92-.488.988-.992 1.971-1.411 2.993-.07.172-.145.245-.314.088-.24-.222-.484-.438-.743-.637-.187-.144-.176-.289-.1-.485.415-1.049.75-2.12.928-3.236.404-2.544.116-4.96-1.292-7.183-.34-.538-.63-1.109-1.071-1.652.293.03.457.182.622.32.62.522 1.086 1.176 1.573 1.814.146.192.283.392.454.568.088.09.157.128.27.071.127-.065.088-.157.06-.266-.216-.803-.576-1.54-1.027-2.233a.27.27 0 0 1-.053-.156c.87.639 1.266 1.616 1.819 2.601.008-.45.023-.809.018-1.168-.007-.37-.02-.741-.052-1.109a20.737 20.737 0 0 0-.94-4.64c-.87-2.688-1.343-5.441-1.227-8.275.06-1.44.323-2.842.81-4.2.031-.084.083-.162.14-.273.096.601-.062 1.15-.12 1.699-.227 2.17.063 4.269.724 6.333.424 1.322 1 2.57 1.73 3.749.265.428.655.735 1.107 1.105-.092-.668-.17-1.248-.253-1.83-.222-1.54-.222-3.091-.235-4.643-.011-1.543.067-3.084.137-4.624.054-1.172.113-2.347.326-3.505.01-.045.015-.092.025-.137.022-.102.032-.226.172-.222.153.004.129.13.133.233.026.53.065 1.059.079 1.59.077 2.69.3 5.368.7 8.03.002.016.03.03.045.044l-.01.187c.041-.064.119-.127.02-.193.05-.856-.028-1.71-.046-2.565a165.681 165.681 0 0 1-.044-4.823 28.47 28.47 0 0 1 .185-3.262c.015-.123-.025-.355.127-.348.19.009.074.224.09.348.122.91.199 1.823.235 2.738.103 2.644.79 5.175 1.487 7.702.026.093.035.207.182.305-.09-.678-.188-1.312-.259-1.951-.258-2.342-.523-4.684-.588-7.042-.084-3.032.957-5.58 3.225-7.62 1.808-1.628 3.629-3.24 5.378-4.929 1.582-1.525 3.216-2.997 4.76-4.563.419-.423.71-.933.955-1.47.024-.053.027-.114.164-.14a103.075 103.075 0 0 1-.548 6.744c.344-.909.65-1.828.916-2.763.264-.926.519-1.856.829-2.767.357-1.051 1.113-1.772 2.065-2.309.464-.262.98-.394 1.528-.67a22.743 22.743 0 0 0-1.514 3.314c-.352.97-.623 1.964-.8 2.983-.016.094-.11.25.078.284.16.028.17-.118.204-.228a29.786 29.786 0 0 1 3.303-7.284c.939-1.496 2.25-2.642 3.579-3.779 2.417-2.07 5.187-3.529 8.087-4.773 3.467-1.487 6.997-2.793 10.715-3.49 1.329-.25 2.692-.324 4.127-.488-.636.507-1.205.955-1.652 1.532-.057.034-.136.055-.077.149-.016-.006-.031-.01-.047-.014 0 .014 0 .028.002.044l.041-.039c.041-.02.082-.042.122-.063.671-.303 1.266-.734 1.881-1.13.077-.05.142-.193.25-.094.078.072.049.187.004.293-.485 1.133-1 2.247-1.63 3.313-1.568 2.656-3.402 5.105-5.586 7.285-2.163 2.159-4.382 4.255-6.799 6.164.478-.263.947-.543 1.435-.785.517-.256 1.052-.479 1.578-.716a8.725 8.725 0 0 1 1.618-.556c-.044.207-.173.34-.272.485-.99 1.47-2.205 2.748-3.42 4.028-1.26 1.326-2.469 2.701-3.823 3.935-1.838 1.675-3.86 3.043-6.235 3.869-1.201.417-2.437.68-3.654 1.029-1.627.466-3.103 1.22-4.405 2.307-.031.02-.09.03-.06.084.03.053.07.008.106-.003 1.643-.939 3.329-1.776 5.188-2.21 1.88-.44 3.773-.766 5.714-.682.389.016.784-.075 1.162.077h.005ZM88.349 38c-.355.282-.713.56-1.065.847-1.396 1.144-2.612 2.48-3.91 3.726-2.64 2.535-4.986 5.327-7.221 8.22-1.82 2.355-3.661 4.69-5.362 7.135-.43.617-.833 1.253-1.275 1.922.168-.03.209-.127.267-.206 2.13-2.944 4.453-5.735 6.751-8.546 1.758-2.151 3.577-4.25 5.534-6.218 2.065-2.079 4.06-4.22 5.99-6.422.118-.134.318-.236.288-.467l.04.032.018-.044-.055.02ZM62.507 71.218l-.026-.058c-.014.016-.033.029-.041.048-.014.03-.012.063.031.061.012-.002.023-.034.036-.051ZM51.061 90.622c.066.043.15.085.218.144.35.304.737.552 1.133.786.237.14.307.284.128.521-.997 1.317-1.947 2.668-3.01 3.935-.13.156-.233.195-.433.056-.678-.468-.695-.46-.342-1.181.66-1.348 1.332-2.69 1.987-4.04.07-.145.141-.228.32-.22Z"/><path fill="#C7C1E0" fill-opacity=".5" d="m86.632 54.053-.003-.016.007.013-.004.003Z"/><path fill="#221C54" d="M84.358 53.678c-1.692.844-3.373 1.713-4.735 3.05-1.282 1.26-2.381 2.677-3.412 4.15-1.4 2.004-2.588 4.143-3.964 6.16a28.763 28.763 0 0 1-5.206 5.786c-1.843 1.558-3.904 2.695-6.128 3.581-.675.27-1.36.527-1.997.884-.177.098-.34.217-.497.354.568-.022 1.097-.195 1.608-.397.787-.31 1.59-.575 2.381-.871 1.1-.412 2.067-1.055 3.021-1.723a9.485 9.485 0 0 1 3.15-1.435c.093-.024.195-.097.283-.03-1.17 1.168-2.035 2.56-2.863 3.978-1.215 2.08-2.865 3.725-4.97 4.908-.84.472-1.78.53-2.703.666-.728.106-1.464.192-2.14.51-.695.327-1.191.874-1.615 1.495-.05.07-.144.145-.063.243.066.078.167.067.262.062.951-.056 1.873-.269 2.785-.533 1.68-.486 3.303-1.101 4.795-2.049a7.08 7.08 0 0 1-1.018 1.622c-.826.994-1.65 1.986-2.833 2.592-1.127.577-2.327.974-3.52 1.378-1.607.545-3.068 1.302-4.19 2.614-.03.035-.065.064-.102.095-.063.055-.135.105-.215.047-.11-.08 0-.144.033-.203.308-.537.6-1.084.935-1.604 1.212-1.888 2.12-3.925 2.985-5.986.783-1.869 1.502-3.768 2.352-5.606a62.884 62.884 0 0 1 2.82-5.418l.071-.137c.098-.174.195-.348.294-.521l.114-.186c.03-.052.088-.1.023-.164l-.078.102-.116.172-.309.528-.066.139c-1.496 2.377-2.803 4.856-4.075 7.358-.73 1.434-1.614 2.787-2.283 4.255-.591 1.3-1.092 2.638-1.725 3.92-.487.988-.992 1.972-1.41 2.993-.071.172-.145.246-.315.088-.24-.222-.483-.438-.742-.637-.187-.143-.177-.288-.1-.485.414-1.048.75-2.12.927-3.235.404-2.544.117-4.96-1.291-7.184-.34-.538-.63-1.108-1.072-1.651.293.029.458.182.623.32.62.521 1.086 1.176 1.572 1.813.147.193.283.393.455.569.088.09.157.128.269.07.127-.065.09-.156.06-.265-.215-.804-.575-1.54-1.027-2.234a.269.269 0 0 1-.052-.155c.87.638 1.265 1.615 1.819 2.6.008-.45.023-.808.018-1.168-.007-.37-.02-.74-.052-1.108a20.738 20.738 0 0 0-.94-4.64c-.87-2.689-1.343-5.442-1.227-8.275.06-1.44.323-2.843.81-4.2.03-.085.082-.162.14-.273.095.6-.063 1.15-.12 1.698-.227 2.17.063 4.269.724 6.333.423 1.322.999 2.571 1.729 3.75.266.428.656.734 1.108 1.105-.092-.669-.17-1.249-.253-1.83-.222-1.54-.223-3.092-.235-4.643-.011-1.543.067-3.084.137-4.625.053-1.172.113-2.346.326-3.504.009-.046.015-.093.025-.138.022-.101.031-.226.172-.221.153.004.129.13.133.233.025.53.064 1.059.078 1.59.078 2.69.301 5.368.7 8.03.003.016.03.03.046.044l-.01.186c.04-.063.118-.126.02-.193.05-.855-.028-1.71-.047-2.564a165.335 165.335 0 0 1-.043-4.823c.008-1.091.053-2.179.185-3.262.015-.124-.026-.355.127-.349.19.01.074.224.09.349.122.909.198 1.823.234 2.738.104 2.644.791 5.175 1.488 7.702.025.092.034.207.182.305-.09-.678-.189-1.313-.26-1.951-.258-2.342-.523-4.684-.587-7.043-.085-3.032.957-5.58 3.225-7.62 1.808-1.627 3.629-3.24 5.377-4.928 1.583-1.526 3.217-2.998 4.762-4.563.417-.423.708-.933.953-1.47.025-.054.028-.114.165-.141a103.003 103.003 0 0 1-.549 6.745c.345-.91.65-1.829.917-2.763.264-.927.519-1.857.829-2.768.357-1.05 1.112-1.771 2.064-2.308.465-.263.981-.395 1.528-.67a22.738 22.738 0 0 0-1.513 3.314c-.352.97-.623 1.964-.8 2.982-.017.095-.11.25.077.284.16.029.171-.118.205-.228a29.781 29.781 0 0 1 3.303-7.283c.938-1.496 2.25-2.642 3.578-3.78 2.417-2.069 5.188-3.528 8.088-4.773 3.467-1.486 6.997-2.793 10.715-3.49 1.329-.249 2.691-.323 4.127-.488-.637.507-1.205.956-1.652 1.533-.057.033-.136.054-.077.148l-.047-.014.001.044.042-.038c.041-.02.082-.043.122-.064.671-.303 1.265-.734 1.88-1.13.077-.05.143-.193.25-.093.078.072.049.187.005.293-.485 1.133-1 2.247-1.63 3.312-1.568 2.657-3.402 5.105-5.587 7.285-2.162 2.16-4.381 4.256-6.798 6.164.477-.263.946-.543 1.435-.784.517-.257 1.051-.48 1.578-.716a8.723 8.723 0 0 1 1.618-.556c-.044.207-.174.34-.273.484-.99 1.47-2.204 2.748-3.42 4.028-1.26 1.326-2.468 2.702-3.823 3.936-1.837 1.675-3.859 3.042-6.234 3.868-1.202.417-2.438.68-3.654 1.03-1.627.465-3.103 1.22-4.405 2.307-.032.02-.09.03-.06.083.029.053.07.01.105-.002 1.643-.94 3.33-1.776 5.188-2.21 1.88-.44 3.774-.766 5.715-.683.388.016.783-.074 1.161.078h.006Zm1.712-16.05c-.355.283-.713.56-1.064.847-1.396 1.144-2.612 2.48-3.91 3.727-2.641 2.535-4.987 5.326-7.222 8.22-1.819 2.355-3.66 4.69-5.362 7.135-.43.617-.833 1.253-1.275 1.922.169-.03.21-.128.267-.206 2.13-2.944 4.454-5.735 6.752-8.546 1.758-2.152 3.577-4.25 5.533-6.218 2.066-2.08 4.06-4.22 5.991-6.423.118-.134.318-.235.288-.466l.04.031.017-.044-.055.021ZM60.23 70.846l-.026-.057c-.015.016-.034.028-.042.048-.014.029-.011.063.032.06.012-.001.022-.033.035-.05ZM48.784 90.249c.066.043.15.085.218.144.35.304.737.552 1.132.786.238.14.308.284.13.521-.999 1.316-1.949 2.668-3.011 3.935-.13.155-.233.194-.434.055-.677-.468-.694-.459-.34-1.18.658-1.349 1.33-2.69 1.986-4.04.069-.145.14-.228.319-.221Z"/><path fill="#221C54" d="m84.353 53.681-.002-.016.007.013-.005.003Z"/></g><path fill="#EEDFC5" d="M296.647 19.521c38.976 0 56.123 4.533 58.413 7.44-10.836-3.964-20.616-1.586-29.338 8.987-7.93 9.61-11.63 27.489-6.609 48.858 4.174 17.762 35.418 75.594 35.683 83.259.264 7.665-8.45 9.602-7.93 12.463.529 2.907 7.049 5.951 11.101 8.154 2.52 33.072 8.088 86.975-37.532 89.339-21.145 1.096-34.185-21.9-38.59-34.322.529-.529-2.843 0-7.665 0-5.022 0-80.087 1.85-119.205 1.85 5.462-6.784 17.339-15.739 21.145-36.25 4.758-25.638-14.802-55.771-24.582-77.18-16.081-35.206-3.307-69.433 21.892-97.92 11.242-12.707 73.806-14.678 123.217-14.678Z"/><path fill="#D6BD93" d="m329.95 52.56 43.348-1.058c0-13.402-12.877-25.429-25.903-26.43-16.271-1.252-26.167 13.518-29.339 27.487.529 0 2.643.303 5.287 0 1.657-.19 2.643-4.19 3.436-3.925.793.264 2.555 2.34 3.171 3.926ZM288.188 282.778c14.135 0 30.044-3.838 37.533-5.248-18.093 0-39.577-16.369-43.612-34.096-52.07 1.586-154.624 2.076-154.624 2.076 9.689 14.526 20.352 27.263 34.89 33.077 14.537 5.815 75.858 4.191 125.813 4.191Z"/><path stroke="#D2B583" stroke-linecap="round" stroke-opacity=".5" stroke-width="5.356" d="M182.17 136.776c7.6-3.425 10.554-6.535 19.158-6.535 6.431 0 8.603 3.979 13.374 7.086 5.453 3.55 11.542 2.692 17.532.633 1.777-.611 10.137-4.796 12.186-2.918 2.045 1.875 4.457 3.968 7.328 4.707 9.624 2.474 20.3-2.073 29.449-4.707 4.914-1.414 12.888-.137 16.296 2.918M203.105 167.45c7.601-3.425 10.555-6.535 19.159-6.535 6.431 0 8.603 3.979 13.374 7.086 5.452 3.55 11.542 2.692 17.532.633 1.776-.611 10.137-4.796 12.186-2.918 2.045 1.875 4.456 3.969 7.327 4.707 9.624 2.475 20.301-2.073 29.45-4.707 4.914-1.414 12.888-.137 16.296 2.918M192.882 192.771c7.6-3.425 10.554-6.535 19.158-6.535 6.431 0 8.603 3.979 13.374 7.086 5.452 3.55 11.542 2.692 17.532.633 1.777-.611 10.137-4.796 12.186-2.918 2.045 1.875 4.457 3.968 7.328 4.707 9.624 2.474 20.3-2.073 29.449-4.707 4.914-1.414 12.888-.137 16.296 2.918M199.698 218.086c7.6-3.425 10.555-6.535 19.159-6.535 6.431 0 8.602 3.979 13.373 7.086 5.453 3.55 11.543 2.692 17.532.633 1.777-.611 10.137-4.796 12.186-2.918 2.046 1.875 4.457 3.968 7.328 4.707 9.624 2.474 20.301-2.073 29.45-4.707 4.913-1.414 12.887-.137 16.296 2.918M166.587 71.528c7.6-3.426 10.554-6.536 19.158-6.536 6.431 0 8.603 3.98 13.374 7.086 5.453 3.55 11.542 2.692 17.532.633 1.777-.61 10.137-4.795 12.186-2.917 2.045 1.875 4.457 3.968 7.328 4.706 9.624 2.475 20.3-2.072 29.449-4.706 4.914-1.415 12.888-.138 16.296 2.917M192.882 104.152c7.6-3.425 10.554-6.535 19.158-6.535 6.431 0 8.603 3.979 13.374 7.086 5.452 3.55 11.542 2.692 17.532.633 1.777-.611 10.137-4.796 12.186-2.918 2.045 1.875 4.457 3.968 7.328 4.707 9.624 2.474 20.3-2.073 29.449-4.707 4.914-1.414 12.888-.138 16.296 2.918"/><path fill="#17124C" d="M327.884 321.111c20.516 0 37.147-6.784 37.147-15.152 0-8.369-16.631-15.152-37.147-15.152-20.515 0-37.147 6.783-37.147 15.152 0 8.368 16.632 15.152 37.147 15.152Z" opacity=".1"/><path fill="#D7CBB4" d="m140.82 205.429-7.123-7.123h12.21l-5.087 7.123Z"/><path fill="#DDC59C" d="M52.732 97.021c-.073-.078-.227-.192-.412-.354-2.054-1.758-9.548-8.49-7.224-11.34.079-.095 1.859-2.256 3.484-2.287 1.624-.03 5.413 5.305 7.364 6.645 1.088.754-1.092 3.495-.113 4.17 4.107 2.796 4.43 4.873 6.895 6.514l1.018 10.463 9.402 7.618 4.334-1.777h4.973l1.37 1.312.528.509 1.167-.044.221.238.031.034.636.611-.334-.218-.03-.034-.145-.088-1.546-1.008c-2.196-1.433 2.098 5.671-2.292 2.734-2.711-1.808-.438.578-3.417-1.474-3.928-2.686-7.902-5.46-11.414-8.018-.189-.136-.368-.262-.554-.395-3.265-2.391-6.1-4.57-8.08-6.286a17.683 17.683 0 0 1-2.65-2.663c-3.058-4.374-3.287-4.883-3.212-4.862Z"/><path fill="#fff" d="m93.375 302.618-1.22-1.735a1179.34 1179.34 0 0 0 5.189-3.744l1.256 1.724a1230.842 1230.842 0 0 1-5.225 3.755Z"/><path fill="#2F2E41" d="M109.056 293.194v10.74H86.162a8.41 8.41 0 0 1 8.41-8.405h3.734v-2.335h10.75ZM146.404 303.934H123.51v-10.74h10.734v2.335h3.735a8.42 8.42 0 0 1 5.956 2.455 8.422 8.422 0 0 1 2.469 5.95Z"/><path fill="#9E616A" d="M113.655 89.629c6.705 0 12.139-5.435 12.139-12.14 0-6.703-5.434-12.138-12.139-12.138-6.704 0-12.138 5.435-12.138 12.139s5.434 12.139 12.138 12.139Z"/><path fill="#DDC59C" d="M112.673 83.485s-2.768 15.222-4.747 16.438c-1.979 1.216 19.613.819 19.613.819s-6.441-11.829-4.717-15.42c1.725-3.593-10.149-1.837-10.149-1.837Z"/><path fill="#E0E0E4" d="M99.944 75.305c-.275-8.502 6.044-19.17 14.545-19.44 11.254-.361 17.09 8.328 17.359 16.83l-.336 17.964c-.254 1.7-14.087 1.297-19.841 1.663-8.461.545-10.969-.701-10.969-.701l-.758-16.316Z"/><path stroke="#3E3695" stroke-miterlimit="10" stroke-width=".509" d="M110.036 88.732c-.788-3.862.748-26.965 3.689-30.454M121.186 87.606c-.509-3.49-.402-28.45-7.458-29.334"/><path stroke="#3E3695" stroke-miterlimit="10" stroke-width=".509" d="M116.326 86.747c1.15-11.727-2.6-28.49-2.6-28.49-7.702 2.762-10.979 9.086-8.491 31.37M127.554 88.165c.631-20.095-2.218-24.115-3.333-26.043a9.237 9.237 0 0 0-5.55-4.253"/><path fill="#DDC59C" d="M147.736 177.637c0 .107.036.295.061.539.31 2.686 1.226 12.719-2.416 13.228a1.502 1.502 0 0 1-.367 0c-.081-4.182-.361-7.57-.88-9.88-.285-1.292-.565-2.514-.824-3.673a1098.46 1098.46 0 0 0-2.686-11.483l-.601-10.435-.106-1.892v-.448l-.606-10.577-.112-1.893-.041-.732-1.144-19.994v-.372l-.051-.88.097.387v.046l.045.162.448 1.791c.636 2.544 1.72 6.909 2.941 12.048a684.223 684.223 0 0 1 2.36 10.144c1.053 4.64 2.081 9.377 2.915 13.64.046.229.092.443.138.666.768 3.974 1.363 7.499 1.648 10.104a17.6 17.6 0 0 1 .132 3.755c-.732 5.286-.91 5.815-.951 5.749Z"/><path fill="#3E3695" d="M148.907 168.045c-.056 2.595-.142 4.508-.254 5.48-.59 5.199-.59 4.665-.59 4.665h-.265l-4.487-.305a1124.838 1124.838 0 0 0-2.686-11.483c-.046-.168-.082-.331-.123-.509l-.574-10.007-.087-1.572-.025-.448-.123-2.137-.315-5.464-.188-3.261-.138-2.467-.04-.738-.031-.402-1.038-18.524v-.091l.056-.677v-.147l.031-.392 1.338-17.125.071-.936a.31.31 0 0 1 0-.061l.092-1.201s6.41 1.069 7.738 5.134c.509 1.526.905 7.946 1.195 16.28.504 14.922.672 36.05.443 46.388Z"/><path fill="#221C54" d="M108.522 293.194v1.526c-2.844.285-7.881-.239-10.206-.59l-.396-.066a.238.238 0 0 1-.138-.076v-.794h10.74ZM133.736 293.194v.621c-2.737 1.18-7.916 1.18-10.145 1.18h-.061c-.178-.102-.361-.6-.509-1.445v-.341l10.715-.015Z"/><path fill="#3E3695" d="M139.917 153.526v.086c0 .031-.041.117-.051.173-.01.056 0 .061-.025.087-.138.442-.28.88-.413 1.287-.178.57-.361 1.083-.508 1.526a23.86 23.86 0 0 0-.173.483l-.183.509c-.051.148-.087.229-.087.229-.829.463-2.915.509-3.805.168-8.944-3.409-18.784-5.373-28.104-3.21a13.15 13.15 0 0 1-2.859.508c-.363 0-.725-.041-1.079-.122a4.296 4.296 0 0 1-.671-.224 4.026 4.026 0 0 1-.397-.218 3.276 3.276 0 0 1-.509-.423 4.487 4.487 0 0 1-.951-2.426c0-.112-.036-.229-.051-.341a22.206 22.206 0 0 1-.188-3.389c0-.702.045-1.409.096-2.111h-.173c0-.178.041-.356.066-.539.056-.372.112-.748.184-1.145.071-.397.173-.956.279-1.46l.107-.509c.046-.193.087-.386.138-.58a47.37 47.37 0 0 0 .508-2.437c.031-.178.056-.351.082-.508.117-.692.203-1.374.274-2.035 0-.163.031-.326.041-.484a28.103 28.103 0 0 0-.183-6.659 26.702 26.702 0 0 0-1.16-4.655c-.168-.509-.34-.947-.509-1.41-.06-.137-.112-.274-.178-.412a50.764 50.764 0 0 0-2.386-4.858v-.036l-.936-1.725a9.321 9.321 0 0 1-.748-1.877 12.491 12.491 0 0 1-.3-1.389c-.86-5.383 1.42-11.986 1.898-13.299l.091-.234c.27-.178.55-.34.83-.509.814-.478 1.653-.91 2.503-1.302a30.819 30.819 0 0 1 6.156-2.035c.361-.081.712-.148 1.068-.219l.722-.127a31.472 31.472 0 0 1 1.527-.224h.168a45.732 45.732 0 0 1 7.982-.27h.091c2.378.123 4.746.385 7.093.784l.259.05c1.562.26 3.053.57 4.406.891.788.188 1.526.382 2.243.57l.789.214a60.182 60.182 0 0 1 6.548 2.187h.03v.509c0 .153 0 .341-.025.555a.208.208 0 0 0 0 .061c0 .397-.041.9-.071 1.47-.204 3.989-.647 11.727-1.277 16.789 0 .122 0 .244-.046.361-.046.117 0 .193-.036.285-.035.092 0 .036 0 .061a.349.349 0 0 1 0 .102c0 .102 0 .198-.046.3a.97.97 0 0 1 0 .132l-.045.336a20.272 20.272 0 0 1-.479 2.381c-.91 3.139.351 10.511 1.608 16.514v.097c.01.068.024.136.041.203 0 .133.051.27.081.397 0 .066 0 .133.041.199.147.686.295 1.353.437 1.984l.122.57c.586 2.599 1.048 4.578 1.135 5.23.086 1.048-.422 3.154-.992 5.113Z"/><path fill="#000" d="M135.268 292.659a2.685 2.685 0 0 1-1.018.9v-.366h-11.253v.341c-2.585-12.312-5.006-98.455-5.006-98.455s-6.538 97.58-7.469 98.984c-.193.29-.717.478-1.465.59v-1.46H97.783v.793c-2.788-2.721-6.385-74.507-5.464-94.704.926-20.544 9.285-43.519 9.285-43.519s-2.768-1.979-1.842-9.667h.066c-.025.183-.046.362-.066.54h.091a20.972 20.972 0 0 0 .184 5.494c0 .112.035.229.051.341.07.885.401 1.73.951 2.427.155.157.325.299.509.422.128.08.26.153.397.219.189.152.428.232.671.224.354.081.716.122 1.079.122a13.162 13.162 0 0 0 2.859-.509c9.32-2.162 19.16-.198 28.103 3.21.891.336 2.977.295 3.806-.168 0 0 .036-.081.086-.229.214.753.825 2.982 1.969 7.693.041.158.077.32.122.509.692 2.879 1.578 6.639 2.687 11.482.259 1.16.539 2.381.824 3.673.509 2.31.799 5.698.88 9.88.585 29.691-8.532 99.187-9.763 101.233Z"/><path fill="#221C54" d="M101.928 155.536a4.253 4.253 0 0 1-.397-.219 3.317 3.317 0 0 1-.509-.422 4.49 4.49 0 0 1-.951-2.427c0-.112-.036-.229-.051-.341a20.998 20.998 0 0 1-.183-5.494h-.05c0-.178.04-.356.065-.54h.117c0 .173 0 .357-.035.509a26.57 26.57 0 0 0-.061 2.111 21.02 21.02 0 0 0 .239 3.195c.07.886.401 1.73.951 2.427.392.478.55.931.865 1.201ZM109.056 293.194v1.46c-.163 0-.346.046-.535.066v-1.526h.535ZM134.264 293.194v.366c-.162.087-.34.173-.508.255v-.621h.508ZM138.533 158.201c-.051.147-.087.229-.087.229-.829.463-2.915.508-3.805.167-8.944-3.408-18.783-5.372-28.104-3.21-.931.275-1.89.446-2.859.509-.363 0-.725-.041-1.078-.122h.071c.966 0 2.92-.687 3.866-.906 9.321-2.162 19.16-.198 28.104 3.211.89.335 2.976.295 3.805-.168.006.01.031.076.087.29Z"/><path fill="#EEDFC5" d="M107.876 95.817a15.133 15.133 0 0 0-4.971 7.972c-.921 3.663-.27 7.677.402 11.335.727 3.948 1.786 7.82 2.671 11.737a107.696 107.696 0 0 1 2.106 12.719c.499 4.801.681 9.629.544 14.454 0 .244.372.244.382 0a109.83 109.83 0 0 0-2.101-24.639c-.784-3.887-1.832-7.718-2.676-11.595-.824-3.785-1.659-7.84-1.333-11.732a14.753 14.753 0 0 1 5.24-9.981c.188-.153-.081-.423-.27-.27h.006ZM117.974 95.368c-2.106 7.214-1.46 14.876-1.017 22.269.291 3.791.379 7.595.264 11.396-.188 4.07-1.129 7.977-1.898 11.966-.819 4.222-1.236 8.715.438 12.79.092.224.458.127.366-.102-1.526-3.739-1.292-7.85-.595-11.747.697-3.897 1.715-7.677 1.994-11.615.54-7.479-.564-14.952-.62-22.426-.031-4.182.259-8.4 1.434-12.429a.19.19 0 0 0-.366-.102ZM133.594 97.89c-3.236 1.114-5.088 4.243-6.242 7.291a32.67 32.67 0 0 0-1.883 9.702c-.178 3.648.509 7.336 1.018 10.928.3 2.035.62 4.034.859 6.059.209 1.786.128 3.561.326 5.368.687 6.105 4.07 12.413.987 18.416-.112.219.214.413.326.194 2.543-4.915.839-10.262-.326-15.304a25.88 25.88 0 0 1-.687-4.222c-.051-.855 0-1.71-.061-2.569-.112-1.669-.361-3.333-.6-4.986-.58-3.999-1.358-8.028-1.491-12.078a31.485 31.485 0 0 1 1.175-9.132c.987-3.648 2.824-7.967 6.701-9.3.229-.082.132-.448-.102-.372v.005ZM139.353 100.131a21.251 21.251 0 0 0-3.195 9.392 21.61 21.61 0 0 0 .32 5.398c.305 2.081.748 4.141 1.252 6.181a.192.192 0 0 0 .344.036.19.19 0 0 0 .027-.137 63.681 63.681 0 0 1-1.201-5.826 22.44 22.44 0 0 1-.381-5.469 20.862 20.862 0 0 1 3.164-9.386c.133-.204-.198-.397-.33-.189Z"/><path fill="#EEDFC5" d="M148.5 121.423c-3.215 1.399-7.245 1.425-10.353-.275a.193.193 0 0 0-.145-.018.19.19 0 0 0-.044.349c3.236 1.77 7.388 1.73 10.735.27.224-.097.031-.428-.193-.326ZM148.485 134.097a9.49 9.49 0 0 1-9.666-2.762c-.163-.189-.432.086-.27.269a9.865 9.865 0 0 0 4.606 2.862 9.864 9.864 0 0 0 5.422-.002.19.19 0 0 0-.102-.367h.01ZM148.499 142.78c-1.399.778-3.134.844-4.69.778a18.803 18.803 0 0 1-4.778-.798c-.234-.072-.335.3-.101.371 1.628.491 3.315.765 5.016.814 1.587.056 3.327-.046 4.747-.834.213-.123 0-.448-.194-.331ZM148.763 156.609a9.337 9.337 0 0 1-8.756-.89c-.203-.138-.397.193-.193.33a9.665 9.665 0 0 0 9.051.926c.218-.091.122-.463-.102-.366ZM148.917 167.842a10.55 10.55 0 0 1-7.794-.428c-.219-.106-.412.224-.188.326a10.9 10.9 0 0 0 8.084.468c.229-.076.132-.443-.102-.366Z"/><path fill="#EEDFC5" d="M140.228 100.849c.799 10.099 3.475 19.903 5.087 29.874 1.613 9.972 1.751 20.06 1.221 30.118-.295 5.597-.788 11.224-1.353 16.789 0 .245.361.245.382 0 1.017-9.941 1.796-19.933 1.618-29.93-.071-4.919-.448-9.83-1.13-14.703-.722-5.016-1.77-9.981-2.773-14.947-1.144-5.703-2.228-11.427-2.686-17.226 0-.245-.402-.25-.381 0l.015.025ZM102.721 155.58c-1.648-.397-2.319-2.035-2.615-3.561a19.494 19.494 0 0 1-.137-5.439c.346-3.866 1.262-7.662 1.526-11.544.255-3.775-.081-7.631-1.979-11.004-.117-.214-.447 0-.325.193 1.862 3.287 2.172 7.123 1.923 10.811a74.318 74.318 0 0 1-1.053 8.13c-.545 2.961-.926 6.187-.29 9.158.341 1.592 1.134 3.236 2.849 3.648.239.056.341-.311.101-.367v-.025ZM138.544 158.065c.422-.26.458-.484.559-.942.168-.788.433-1.526.56-2.35a23.98 23.98 0 0 0 .168-4.981c-.183-3.531-.656-7.041-.656-10.582a.198.198 0 0 0-.066-.116.191.191 0 0 0-.25 0 .193.193 0 0 0-.066.116c0 3.226.382 6.426.6 9.636.133 1.582.143 3.173.031 4.757a14.61 14.61 0 0 1-.382 2.35c-.091.361-.229.707-.31 1.069-.081.361-.046.508-.382.712-.208.127 0 .458.194.331Z"/><path fill="#EEDFC5" d="M99.388 124.023c4.386-2.997 9.575-3.902 14.754-3.103 5.052.778 9.87 2.686 14.978 3.139a17.979 17.979 0 0 0 8.14-.987c.229-.087.127-.458-.102-.367-4.955 1.949-10.348.855-15.323-.417-4.976-1.272-10.094-2.701-15.263-1.704a19.925 19.925 0 0 0-7.413 3.108c-.198.138 0 .468.194.331h.035ZM101.242 137.001c3.419 3.999 9.158 3.562 13.859 3.266a36.333 36.333 0 0 1 4.39-.076c1.527.087 3.089.326 4.62.56 2.595.397 5.23.799 7.855.468 2.447-.31 4.833-1.226 6.522-3.083.163-.178-.107-.448-.269-.27-3.455 3.806-9.066 3.271-13.65 2.574a41.02 41.02 0 0 0-7.993-.635c-2.691.117-5.403.508-8.099.183-2.605-.29-5.215-1.216-6.955-3.256-.163-.184-.427.086-.27.269h-.01ZM106.848 97.185c3.139 2.274 7.153 1.811 10.821 1.944 4.197.157 8.491-.087 12.332-1.944.219-.107.026-.438-.193-.33-3.775 1.826-8.013 2.034-12.139 1.892-3.597-.132-7.55.34-10.633-1.893-.198-.142-.386.189-.188.331Z"/><path fill="#3E3695" d="M71.971 125.35c-2.206-.123-17.294-19.227-23.234-31.339.295-1.155 2.285-3.63 4.632-5.802 2.347-2.172 3.41-.568 4.336.224 3.502 6.514 11.61 19.53 14.748 23.027s17.662-6.79 25.378-12.107l2.123 16.012c-6.598 4.877-25.777 10.107-27.983 9.985Z"/><path fill="#EEDFC5" d="M95.898 100.703c1.77 2.45 2.852 5.232 3.158 8.119a16.371 16.371 0 0 1-.317 4.666c-.302 1.799-.74 3.58-1.237 5.344a.177.177 0 0 1-.092.09.21.21 0 0 1-.137.012.19.19 0 0 1-.111-.071.151.151 0 0 1-.027-.119c.478-1.663.89-3.343 1.187-5.036a17.02 17.02 0 0 0 .377-4.728c-.283-2.885-1.355-5.668-3.127-8.114-.131-.176.196-.343.326-.163ZM58.613 90.718a15.045 15.045 0 0 1-3.02 4.939c-1.325 1.448-2.897 2.604-4.575 3.364-.269.121-.16.52.108.399 1.735-.787 3.36-1.981 4.73-3.478a15.59 15.59 0 0 0 3.126-5.102c.1-.277-.27-.408-.369-.122ZM63.718 99.362a12.127 12.127 0 0 1-2.648 4.46 11.728 11.728 0 0 1-4.221 2.91c-.252.099-.127.477.125.378a12.146 12.146 0 0 0 4.363-3.008 12.558 12.558 0 0 0 2.741-4.607c.082-.255-.279-.395-.36-.133ZM70.844 109.533a11.761 11.761 0 0 1-2.598 4.396 11.417 11.417 0 0 1-4.174 2.849c-.25.096-.122.472.127.375a11.812 11.812 0 0 0 4.315-2.945 12.177 12.177 0 0 0 2.69-4.541c.079-.251-.281-.393-.36-.134ZM74.61 112.212a17.897 17.897 0 0 1 1.13 6.219c.008 2.145-.364 4.232-1.083 6.075-.115.295.235.54.35.245.743-1.906 1.127-4.063 1.12-6.279a18.543 18.543 0 0 0-1.163-6.43c-.115-.298-.475-.135-.354.17ZM80.744 110.478a17.887 17.887 0 0 1 2.938 5.596c.65 2.044.92 4.146.785 6.121-.022.315.386.444.408.129.138-2.041-.141-4.214-.811-6.327a18.542 18.542 0 0 0-3.033-5.787c-.199-.251-.493.012-.287.268ZM89.404 105.417c1.347 1.799 2.43 3.904 3.151 6.129.722 2.225 1.06 4.5.987 6.626-.013.339.404.491.416.151.076-2.197-.274-4.549-1.02-6.848-.744-2.3-1.861-4.477-3.252-6.338-.209-.276-.499-.001-.282.28Z"/><path stroke="#EDDEC5" stroke-width=".509" d="M98.848 108.003S87.514 119.912 75.7 118.432c-14.263-1.786-23.912-27.981-23.912-27.981"/><g clip-path="url(#b)"><path fill="#0A0922" d="M333.241 312.266c-3.293.505-6.735.302-9.862 1.452-1.284.472-2.651 1.434-2.627 2.802.018 1.027.881 1.894 1.86 2.205.979.31 2.043.169 3.042-.071 2.45-.59 4.882-1.765 7.369-1.364 1.876.303 3.479 1.465 5.15 2.371 1.67.906 3.69 1.58 5.442.845 1.493-.626 2.442-2.136 3.864-2.909 3.087-1.678 6.803.641 10.316.62.656-.003 1.35-.108 1.852-.529.675-.566.824-1.566.652-2.429-.519-2.607-3.262-4.101-5.806-4.872-.6-.181-1.253-.375-1.62-.883-.479-.663-.274-1.607.145-2.308.42-.702 1.026-1.284 1.389-2.017 1.073-2.165-.548-4.982-2.852-5.708-2.305-.726-4.875.243-6.675 1.855-2.374 2.125-2.893 4.848-4.533 7.299-1.491 2.229-4.593 3.255-7.106 3.641Z"/><path fill="#3429A1" d="m353.556 297.708-.004.232c-.002.078-.012.156-.016.234-.008.132-.016.265-.029.398a10.267 10.267 0 0 1-.106.743c-.008.047-.012.095-.022.141-.014.07-.035.139-.051.209a8.578 8.578 0 0 1-.322 1.116c-.019.054-.033.109-.054.163-.022.06-.051.119-.075.179a9.786 9.786 0 0 1-.324.734 10.77 10.77 0 0 1-.206.398c-.034.063-.063.128-.099.192-.024.042-.053.084-.078.127-.092.157-.19.313-.29.469-.061.094-.12.189-.184.282a13.47 13.47 0 0 1-.376.515c-.046.062-.087.124-.135.185l-.028.033c-.214.27-.444.537-.686.801-.062.068-.129.134-.193.201-.192.2-.391.399-.598.595-.046.044-.086.089-.133.132-.05.046-.105.091-.156.136a17.698 17.698 0 0 1-.745.636c-.134.108-.273.216-.412.323-.13.099-.26.198-.394.295a26.706 26.706 0 0 1-.868.599c-.156.102-.317.203-.478.303-.098.061-.19.124-.29.184l-.323.19c-.394.229-.802.447-1.215.659-.119.061-.24.12-.36.179-.322.16-.649.314-.981.462-.111.05-.221.102-.332.15-.433.187-.872.368-1.32.538l-.234.085c-.379.141-.763.275-1.15.404-.067.021-.13.047-.197.069-.093.03-.188.056-.281.085a32.042 32.042 0 0 1-1.192.353 50.206 50.206 0 0 1-1.213.316c-.224.054-.449.105-.674.155a34.586 34.586 0 0 1-1.253.259c-.131.025-.259.053-.39.077-.046.009-.093.014-.139.022-.496.088-.994.169-1.496.239-.071.01-.143.017-.214.027-.436.059-.875.111-1.315.157-.069.007-.138.018-.207.025-.099.01-.199.015-.299.025-.282.026-.565.049-.849.07-.179.013-.356.026-.535.037-.297.019-.594.032-.891.045-.12.005-.238.014-.357.018-.048.002-.095.001-.142.003-.258.008-.516.011-.774.015-.18.002-.359.007-.538.008-.277 0-.553-.005-.829-.009-.141-.002-.283-.001-.424-.004a45.96 45.96 0 0 1-2.562-.137c-.014-.001-.028-.001-.041-.003l-.016-.001a43.704 43.704 0 0 1-2.545-.285l-.008-.001c-.077-.011-.152-.024-.227-.036a44.06 44.06 0 0 1-1.039-.163c-.151-.026-.3-.057-.451-.085-.271-.05-.542-.099-.81-.154l-.093-.017c-.113-.024-.223-.052-.335-.076a35.437 35.437 0 0 1-.883-.2c-.166-.04-.33-.082-.495-.124a40.342 40.342 0 0 1-.796-.21c-.081-.023-.165-.042-.246-.066-.071-.02-.138-.044-.209-.065-.42-.122-.836-.251-1.247-.387l-.22-.071c-.473-.16-.937-.331-1.395-.51-.044-.018-.091-.032-.136-.05-.052-.021-.102-.046-.154-.067a30.633 30.633 0 0 1-1.749-.761l-.17-.085a27.346 27.346 0 0 1-1.735-.912c-5.209-3.008-7.81-6.956-7.799-10.898v-7.93s2.102-19.963 26.19-19.963c24.856 0 26.646 18.43 26.646 18.43l.001 9.613Z"/><path stroke="#E37645" stroke-miterlimit="10" stroke-width=".442" d="M332.833 265.265c0 4.965-.879 8.39-2.072 10.752 0 0 7.617 3.078 11.072 7.877 3.456 4.799 2.786 19.148 2.833 25.218M320.248 262.653c-1.453 3.327-1.274 7.323.471 10.507-4.507 2.611-7.741 7.078-9.605 11.941-1.864 4.864-2.458 10.125-2.587 15.332-.084 3.382.042 6.871 1.412 9.964M326.802 265.505c.15 2.044.295 4.133-.238 6.112-.338 1.254-.945 2.444-1.086 3.736-.204 1.871.587 3.688 1.292 5.433a70.774 70.774 0 0 1 4.911 31.878M318.56 314.065c-1.357-6.637-2.219-13.425-1.769-20.184.45-6.759 2.262-13.515 5.927-19.212"/><path stroke="#E37645" stroke-miterlimit="10" stroke-width=".442" d="M339.073 263.371c.74 3.127-.273 6.611-2.575 8.853 6.834 2.873 12.875 8.376 14.802 15.534.759 2.824.861 5.778.958 8.7l.329 9.89M302.205 304.527c.42-.501.301-1.244.169-1.884-1.284-6.232-1.517-12.871.75-18.816 2.267-5.945 7.39-11.055 13.678-12.031"/><path stroke="#E37645" stroke-miterlimit="10" stroke-width=".442" d="M300.928 297.769c.667 1.558-.709.98.62 2.031 6.812 5.386 15.177 7.398 23.86 7.535 9.116.144 22.458-.917 27.796-8.86M300.574 289.292c9.042 4.738 16.43 7.021 26.638 6.892 2.041-.026 4.083-.142 6.104-.433 3.544-.51 6.986-1.554 10.411-2.594 4.25-1.291 6.784-1.997 9.83-4.925M306.933 277.334c.09 1.547 1.005 2.931 2.161 3.839 1.156.908 2.538 1.407 3.911 1.828a46.912 46.912 0 0 0 28.144-.22c3.289-1.065 6.776-2.797 8.17-6.205"/><path stroke="#E37645" stroke-miterlimit="10" stroke-width=".442" d="M316.116 270.817c.409 1.843 1.495 3.394 2.799 4.479 1.303 1.085 2.818 1.744 4.344 2.258 2.931.989 6.665.128 9.571-.966 2.905-1.094 4.899-2.721 5.186-6.37"/><path fill="url(#c)" d="M316.824 258.636a4.436 4.436 0 0 0-2.994 4.583c1.176 13.227 9.099 13.227 9.099 13.227h8.293c.404 0 .803-.052 1.191-.162 2.117-.597 7.672-3.353 7.672-15.827 0-8.795-16.265-4.203-23.261-1.821Z"/><path fill="#763D24" d="M340.132 259.85c0 .078-.006.155-.01.233a6.716 6.716 0 0 1-.014.2c-.006.058-.014.115-.022.173a4.337 4.337 0 0 1-.229.933c-.02.057-.042.113-.064.17a5.746 5.746 0 0 1-.355.727 5.944 5.944 0 0 1-.145.234c-.031.047-.06.095-.092.142a7.271 7.271 0 0 1-.187.257l-.083.11a7.358 7.358 0 0 1-.343.4c-.031.034-.065.068-.097.101-.096.101-.195.2-.299.298-.048.045-.095.09-.144.134a6.139 6.139 0 0 1-.191.166c-.06.052-.12.102-.182.152-.067.054-.137.108-.206.162l-.197.148a11.193 11.193 0 0 1-.674.451c-.101.063-.201.126-.306.187a13.11 13.11 0 0 1-.609.33c-.059.031-.12.06-.18.09-.161.08-.324.157-.49.231-.056.025-.111.051-.168.075-.216.094-.435.184-.659.269-.04.016-.08.029-.12.044-.189.07-.38.137-.573.201-.08.027-.16.052-.241.078a15.036 15.036 0 0 1-.596.176 22.732 22.732 0 0 1-.607.158c-.111.027-.223.052-.336.078l-.281.062c-.114.023-.23.046-.345.067-.089.017-.178.035-.267.05-.248.044-.497.085-.748.12l-.106.013a23.775 23.775 0 0 1-.912.103c-.142.013-.283.025-.425.035-.09.007-.18.014-.269.019-.148.01-.296.016-.443.022-.084.004-.168.009-.253.011-.128.004-.256.006-.385.008l-.271.003c-.138.001-.275-.002-.412-.004-.078-.001-.157-.001-.235-.003a23.098 23.098 0 0 1-1.264-.068l-.027-.002a21.603 21.603 0 0 1-1.275-.142l-.107-.017a22.428 22.428 0 0 1-.529-.083c-.077-.013-.152-.028-.227-.042-.136-.025-.271-.05-.405-.078-.072-.014-.143-.031-.214-.046-.148-.033-.296-.065-.443-.1l-.245-.062a16.81 16.81 0 0 1-1.253-.365l-.109-.035a15.66 15.66 0 0 1-.844-.314 14.99 14.99 0 0 1-.961-.424 13.445 13.445 0 0 1-.868-.456c-2.607-1.506-3.909-3.482-3.903-5.455"/><path fill="#211D55" d="M336.229 254.397c5.179 2.99 5.206 7.841.061 10.831-5.148 2.992-13.522 2.992-18.702.002-5.181-2.992-5.208-7.843-.06-10.834 5.145-2.991 13.52-2.991 18.701.001Z"/><path fill="#0A0922" d="M334.692 255.543c4.325 2.358 4.348 6.183.051 8.541-4.299 2.359-11.293 2.359-15.618.001-4.326-2.358-4.349-6.183-.05-8.542 4.297-2.358 11.291-2.358 15.617 0Z"/><path stroke="#E37645" stroke-miterlimit="10" stroke-width=".442" d="M317.897 264.122c-.084 4.759 2.763 10.359 6.876 12.755M328.218 278.224c1.097-.116 1.984-1.017 2.401-2.038.418-1.021.452-2.152.468-3.255.032-2.3.009-4.6-.069-6.899M335.309 275.648c.802-.481.953-1.56 1.019-2.493l.245-3.474c.144-2.036.245-4.242-.891-5.936"/><path stroke="#E37645" stroke-miterlimit="10" stroke-width=".442" d="m325.452 265.084-.015 2.814c-.011 1.896.587 3.928 1.182 5.728.596 1.8 2.411 3.493 4.234 4.01M315.875 261.424c-.239 2.84-.472 5.751.299 8.495.771 2.743 2.077 5.878 4.856 6.51"/><path stroke="#E37645" stroke-miterlimit="10" stroke-width=".442" d="M312.981 261.436c.05 1.649.654 4.209 1.718 5.471.923 1.095 1.824 1.822 2.939 2.164a28.115 28.115 0 0 0 17.003-.211c2.877-.96 5.885-2.747 6.562-5.702"/><path stroke="#E37645" stroke-miterlimit="10" stroke-width=".442" d="M316.237 271.482c2.273 3.157 6.628 3.973 10.516 3.849 2.562-.081 5.155-.471 7.474-1.562 2.32-1.092 4.352-2.949 5.27-5.342"/><path fill="#763D24" d="M343.575 262.39ZM367.826 258.22c0 .039 0 .075-.004.119-.004.04-.009.075-.009.115-.004.066-.004.133-.013.199-.005.057-.014.115-.022.173a6.61 6.61 0 0 0-.027-.606h.075Z"/><path fill="#211D55" d="M367.75 258.219c.018.194.027.398.027.605.008-.057.017-.115.022-.172.009-.067.009-.133.013-.199 0-.04.005-.075.009-.115.004-.044.004-.08.004-.119h-.075Z"/><path fill="#0A0922" d="M333.563 266.465c.326 4.962-1.716 10.028-1.716 10.028s10.86 8.159 10.86 33.59h3.791c0-25.431-13.717-33.59-13.717-33.59s3.72-5.931 3.28-11.244l-1.317-1.164-2.601.29 1.42 2.09ZM338.528 321.88c.739-.122 1.183.805 1.142 1.523-.034.612-.321 1.238-.852 1.543-.531.306-1.309.185-1.62-.343-.262-.445-.134-1.037.173-1.453.307-.416 1.374-.575 1.157-1.27ZM340.893 323.234c.176.109.378.17.579.221.455.115.922.18 1.391.194.259.008.55-.013.724-.206.154-.172.165-.425.161-.656-.005-.253-.025-.523-.18-.723-.215-.276-.609-.321-.96-.343l-1.693-.107c-.891-.056-.505 1.323-.022 1.62Z"/></g><defs><clipPath id="a"><path fill="#fff" d="m32.03 10.249 86.622 14.03-14.03 86.622L18 96.87z"/></clipPath><clipPath id="b"><path fill="#fff" d="M299.535 151.018H392V326h-92.465z"/></clipPath><linearGradient id="c" x1="327.049" x2="327.18" y1="267.136" y2="274.362" gradientUnits="userSpaceOnUse"><stop stop-color="#3429A1"/><stop offset=".418" stop-color="#33289F"/><stop offset=".63" stop-color="#312697"/><stop offset=".796" stop-color="#2C238A"/><stop offset=".938" stop-color="#261E77"/><stop offset="1" stop-color="#221B6C"/></linearGradient></defs></svg>