<svg width="833" height="404" fill="none" xmlns="http://www.w3.org/2000/svg"><path d="M402.758 357.784a47.942 47.942 0 0 0-4.094-5.542c-5.956-7.012-13.831-12.467-22.423-16.332h-.011a80.242 80.242 0 0 0-11.475-4.116c-12.597-3.527-25.89-4.366-39.037-4.289a292.798 292.798 0 0 0-40.831 3.124c-11.016 1.633-21.907 3.887-32.778 6.26-4.621 1.002-9.242 2.025-13.864 3.027a1622.62 1622.62 0 0 1-192.87 29.887" stroke="#fff" stroke-width="1.105" stroke-miterlimit="10"/><path opacity=".3" d="m398.679 312.048-67.969-32.017-220.786 36.018-35.768 22.525 324.523-26.526Z" fill="#DDC59C"/><path d="m765.567 352.052-77.173-65.028s-74.219-9.563-126.106-37.614c-51.888-28.051-118.473 1.366-132.266 25.593-52.545-41.439-158.043-20.493-196.794-8.38-38.752 12.113-80.788 20.401-80.788 20.401l-82.323 56.189 49.46-6.439c25.271-3.29 50.254-8.696 74.751-16.138 43.455-13.203 133.566-29.355 226.089 22.172 46.702 26.009 349.892 15.446 349.892 15.446l-4.742-6.202Z" fill="#fff" stroke="#EEDFC5" stroke-width="1.105" stroke-miterlimit="10"/><path d="M429.832 267.371c-52.544-41.439-158.042-20.492-196.794-8.38-38.751 12.113-80.788 20.402-80.788 20.402l-85.547 47.59 52.684-1.065c44.439 0 115.823-20.52 140.319-27.962 43.455-13.203 127.412-16.288 160.521 37.221" fill="#fff"/><path d="M429.832 267.371c-52.544-41.439-158.042-20.492-196.794-8.38-38.751 12.113-80.788 20.402-80.788 20.402l-85.547 47.59 52.684-1.065c44.439 0 115.823-20.52 140.319-27.962 43.455-13.203 127.412-16.288 160.521 37.221" stroke="#DCC39A" stroke-width="1.105" stroke-miterlimit="10"/><path opacity=".3" d="M419.297 329.332s28.9-79.372 91.626-81.922c62.725-2.549 176.353 26.139 176.353 26.139s31.059 39.674 65.132 68.92l-333.111-13.137ZM398.672 312.053s-45.627-18.408-11.555 10.839L61.734 375.149" fill="#DDC59C"/><path d="M796.967 372.045h-2.299l-5.911-9.244h-2.956l-10.509-14.344h-3.284l-7.553-9.881s-72.577-2.551-126.107-18.808c-53.53-16.256-161.573-55.782-219.044 9.564-57.471-65.346-165.515-25.82-219.044-9.564-53.531 16.257-126.109 18.808-126.109 18.808l-7.553 9.881h-3.283l-10.51 14.344H49.85l-5.91 9.244h-2.3l-8.21 11.156s164.202-6.694 175.697-8.925c11.494-2.232 102.134-15.62 130.376-16.576 28.243-.957 33.169 7.004 33.169 7.004l46.445-22.263 46.82 22.263s4.926-7.961 33.168-7.004c28.243.956 118.883 14.344 130.377 16.576 11.493 2.231 175.696 8.925 175.696 8.925l-8.21-11.156Z" fill="#DCC39A"/><path d="M735.882 361.525s-74.876-7.012-91.296-6.375c-16.42.638 91.296 6.375 91.296 6.375Z" fill="#5F6060"/><path d="M559.207 355.113s-63.71-17.892-96.551 0c0 0 26.275-19.168 96.551 0Z" fill="#241E52"/><path d="m673.243 234.172 107.731 96.886c-28.698 0-65.458-5.411-94.248-9.658-36.238-5.346-76.671-22.568-102.684-27.121-146.764-25.691-164.683 35.792-164.683 35.792l9.545-68.54c31.104-46.046 107.47-51.475 244.339-27.359Z" fill="#fff" stroke="#DCC39A" stroke-width="1.105" stroke-miterlimit="10"/><path d="M766.389 341.114c-64.645-.359-129.806-2.721-191.198-21.744-9.344-2.895-18.587-6.173-28.133-8.361-24.723-5.661-51.24-3.723-74.796 5.476-9.546 3.724-18.52 8.559-27.146 13.991a165.609 165.609 0 0 0-3.231 2.057c-6.024 3.909-11.88 8.09-17.667 12.337-3.052 2.254-6.08 4.519-9.109 6.773" stroke="#fff" stroke-width="1.105" stroke-miterlimit="10"/><path d="M769.371 345.019c-48.211.828-96.569.261-143.94-6.587-15.413-2.221-30.713-5.107-45.879-8.83-13.135-3.223-26.148-7.066-39.563-8.862-27.033-3.637-54.673 1.186-80.506 9.755-.539.174-1.077.359-1.627.545a173.728 173.728 0 0 0-7.426 2.711c-8.244 3.233-16.176 7.274-22.782 12.761-2.737 2.265-5.239 4.791-7.437 7.599" stroke="#fff" stroke-width="1.105" stroke-miterlimit="10"/><path d="M778.335 352.625a4466.32 4466.32 0 0 1-127.844-2.744c-11.98-.435-23.993-.915-35.827-2.798-14.303-2.286-28.167-6.587-42.279-9.799a257.578 257.578 0 0 0-7.088-1.503c-23.927-4.736-48.852-6.109-73.003-3.223-7.549.894-15.02 2.2-22.356 3.953-12.518 2.983-24.656 7.24-36.154 12.913a153.06 153.06 0 0 0-9.972 5.347" stroke="#fff" stroke-width="1.105" stroke-miterlimit="10"/><path d="M789.856 364.526c-41.348 1.459-82.873 2.233-123.985-.24-34.37-2.057-68.449-6.369-101.91-14.448-.359-.076-.706-.163-1.065-.25-8.087-1.971-16.131-4.159-24.352-5.498-8.593-1.405-17.229-1.851-25.845-1.514-21.469.817-42.839 6.478-63.254 14.296-6.966 2.668-13.83 5.585-20.539 8.656" stroke="#fff" stroke-width="1.105" stroke-miterlimit="10"/><path d="M764.384 338.525c-8.896-.578-17.803-1.144-26.697-1.699a.954.954 0 0 0-.169-.011c-12.866-.827-25.733-1.644-38.599-2.46-11.407-.719-22.827-1.448-34.168-2.929-30.993-4.039-60.888-13.621-91.32-20.655-30.421-7.045-62.289-11.519-92.879-5.194-18.362 3.8-36.254 12.108-50.085 24.247-.359.317-.706.633-1.054.947-4.049 3.659-7.718 7.655-10.926 11.977-3.735 4.997-6.843 10.42-9.198 16.244M414.166 346.815a5.742 5.742 0 0 0 1.11-2.526c.527-2.929-.976-6.304-2.815-8.906a43.787 43.787 0 0 0-3.601-4.454 30.538 30.538 0 0 0-1.009-1.067c-11.632-11.889-29.333-17.454-46.271-20.371a235.09 235.09 0 0 0-57.657-2.766c-48.638 3.67-94.584 16.924-141.82 28.868-7.134 1.807-14.291 2.377-21.504 3.803-7.751 1.535-15.57 2.809-23.444 3.724-2.198.25-4.398.479-6.596.664-16.31 1.502-32.699 5.834-49.098 5.051" stroke="#fff" stroke-width="1.105" stroke-miterlimit="10"/><path d="M403.196 350.517c-.067-.108-.123-.228-.202-.337-3.578-6.26-8.458-11.672-14.156-16.191a65.138 65.138 0 0 0-4.218-3.082c-6.315-4.268-13.393-7.556-20.696-9.831-16.141-5.031-33.405-5.553-50.332-4.672-40.169 2.091-79.429 11.825-118.824 19.729a1263.79 1263.79 0 0 1-22.917 4.388 1249.847 1249.847 0 0 1-31.24 5.324h-.011a1251.71 1251.71 0 0 1-29.95 4.377c-.023.011-.056.021-.089.011a1291.159 1291.159 0 0 1-52.99 6.064" stroke="#fff" stroke-width="1.105" stroke-miterlimit="10"/><path d="M394.172 358.214c-.168-4.519-1.783-8.743-4.364-12.456-4.005-5.771-10.342-10.278-17.162-12.695-9.266-3.267-19.272-3.441-29.177-2.896-2.075.109-4.15.261-6.214.414-101.157 7.644-200.665 34.7-301.677 38.968" stroke="#fff" stroke-width="1.105" stroke-miterlimit="10"/><path d="m805.518 362.656-.672 13.049-336.67-16.14c-27.267 21.007-52.871 19.678-69.709 14.736-13.986-4.106-24.156-11.242-28.516-14.69L30.384 381.259l-.884-13.034 343.091-21.872a42.161 42.161 0 0 0-1.838 2.284l4.56 3.166c.035-.045.684-.911 1.897-2.299a61.825 61.825 0 0 1-3.877-2.703c.154-.179.306-.343.46-.522l.966-.06 2.133 1.956c.106.104.401.358.848.732 1.085.91 3.123 2.523 5.974 4.375 12.915 8.375 42.561 21.648 75.778-3.703.377-.284.743-.568 1.119-.867.342-.268.672-.537 1.014-.806l1.638-1.343c.071.074.142.164.211.238a61.509 61.509 0 0 1-2.792 2.001 93.316 93.316 0 0 1 3.193 3.254l4.136-3.672a82.506 82.506 0 0 0-1.932-2.001l339.439 16.273Z" fill="#2A2769"/><path d="M550.039 333.663c-17.488-3.594-39.445-1.894-39.445-1.894s24.872 17.107 23.665 54.852l18.985-25.768 26.173 18.51c.001.001-8.226-37.576-29.378-45.7Z" fill="#3E3695"/><path d="M463.47 346.797a62.087 62.087 0 0 1-2.793 2c-.389.269-.789 1.613-1.19 1.851-11.453 7.45-24.601 15.094-40.013 15.094-12.668 0-26.659-5.136-36.84-10.317-2.25-1.15-3.355-4.553-5.429-5.927a61.811 61.811 0 0 1-3.877-2.702c.154-.18.306-.343.46-.523 10.888-12.332 26.83-20.125 44.612-20.125 17.899 0 33.948 7.914 44.859 20.409.07.075.14.165.211.24Z" fill="#241E52"/><path d="M377.207 349.498c-1.214 1.389-1.862 2.254-1.897 2.299l-4.56-3.165c.118-.165.755-1.015 1.838-2.284l1.202-.075c-.154.18-.307.343-.46.523a61.811 61.811 0 0 0 3.877 2.702ZM468.009 348.377l-4.136 3.673a93.316 93.316 0 0 0-3.193-3.254 61.509 61.509 0 0 0 2.792-2.001c-.071-.074-.142-.164-.212-.238l.378-.299 2.439.119a84.315 84.315 0 0 1 1.932 2Z" fill="#3E3695"/><path d="m463.635 346.261-.378.299c.071.074.142.164.212.239a61.745 61.745 0 0 1-2.793 2l-.07-.089c-14.588-14.318-29.482-21.156-44.364-20.305-18.948 1.075-33.087 14.482-38.507 20.498-.188.209-.366.418-.53.598a61.811 61.811 0 0 1-3.877-2.702c.153-.18.306-.343.46-.523l-1.202.074c5.196-6.076 20.939-22.081 43.292-23.379 17.097-.971 33.959 6.882 50.197 23.409l-2.44-.119Z" fill="#EACDA9"/><path d="m577.246 89.549-6.517-.412a7.957 7.957 0 0 0-6.986 3.33l-3.889 5.467.412-6.517a7.962 7.962 0 0 0-3.329-6.987l-5.468-3.889 6.517.412a7.958 7.958 0 0 0 6.986-3.329l3.889-5.468-.411 6.517a7.957 7.957 0 0 0 3.329 6.987l5.467 3.889ZM224.678 160.843l-2.023-3.591a5.022 5.022 0 0 0-4.165-2.553l-4.232-.178 3.591-2.022a5.026 5.026 0 0 0 2.553-4.166l.178-4.231 2.023 3.591a5.026 5.026 0 0 0 4.165 2.553l4.232.178-3.591 2.023a5.02 5.02 0 0 0-2.553 4.165l-.178 4.231ZM555.305 50.001l-1.473-1.574a2.624 2.624 0 0 0-2.432-.782l-2.173.433 1.574-1.472c.665-.621.96-1.541.782-2.433L551.15 42l1.472 1.575c.621.664 1.541.96 2.433.781l2.173-.433-1.575 1.472a2.624 2.624 0 0 0-.781 2.433l.433 2.173ZM586.981 72.956l-2.261-2.239a3.88 3.88 0 0 0-3.633-1.014l-3.181.763 2.239-2.262a3.879 3.879 0 0 0 1.015-3.633l-.763-3.18 2.261 2.239a3.88 3.88 0 0 0 3.633 1.014l3.181-.763-2.239 2.262a3.879 3.879 0 0 0-1.015 3.633l.763 3.18ZM247.33 202.808l-5.256-4.118a8.138 8.138 0 0 0-7.818-1.235l-6.444 2.36 4.118-5.257a8.134 8.134 0 0 0 1.235-7.817l-2.359-6.444 5.256 4.118a8.139 8.139 0 0 0 7.818 1.235l6.444-2.36-4.118 5.257a8.134 8.134 0 0 0-1.235 7.817l2.359 6.444Z" fill="#C8C2E1"/><path d="M579.597 142.954H468c.491-7.81 7.005-13.995 14.933-13.995 1.624 0 3.189.269 4.665.76 1.461-4.053 5.247-6.99 9.732-7.213-.03-.493-.074-.999-.074-1.505 0-12.117 9.821-21.939 21.952-21.939 9.732 0 17.988 6.364 20.85 15.157.492-.06.998-.089 1.504-.089 6.767 0 12.43 4.68 13.98 10.969h.432v1.685a19.246 19.246 0 0 1 4.486-.537c9.793 0 17.871 7.273 19.137 16.707Z" fill="#fff" stroke="#F1E7D5" stroke-width="1.075" stroke-miterlimit="10"/><path d="M356.277 151H280c.336-5.338 4.788-9.566 10.207-9.566 1.11 0 2.18.184 3.188.52a7.48 7.48 0 0 1 6.652-4.931c-.02-.336-.05-.682-.05-1.028 0-8.282 6.712-14.995 15.004-14.995 6.652 0 12.295 4.349 14.251 10.36a8.521 8.521 0 0 1 1.028-.061c4.625 0 8.496 3.199 9.555 7.497h.296v1.151a13.172 13.172 0 0 1 3.066-.366c6.693 0 12.214 4.971 13.08 11.419Z" fill="#fff" stroke="#F1E7D5" stroke-width=".735" stroke-miterlimit="10"/><path d="M635.393 164.899H523.797c.491-7.81 7.005-13.995 14.933-13.995 1.624 0 3.189.269 4.665.76 1.461-4.053 5.247-6.99 9.732-7.213-.03-.492-.074-.999-.074-1.505 0-12.117 9.821-21.938 21.952-21.938 9.732 0 17.988 6.363 20.85 15.157.492-.061.998-.09 1.504-.09 6.767 0 12.43 4.68 13.98 10.97h.432v1.684a19.246 19.246 0 0 1 4.486-.536c9.792.001 17.87 7.273 19.136 16.706ZM237.859 168.94h83.748c-.368-5.862-5.256-10.503-11.206-10.503-1.219 0-2.394.201-3.501.57-1.097-3.042-3.937-5.246-7.304-5.413.023-.369.056-.75.056-1.13 0-9.094-7.37-16.464-16.475-16.464-7.303 0-13.499 4.776-15.647 11.374a9.353 9.353 0 0 0-1.129-.066c-5.078 0-9.328 3.511-10.491 8.232h-.325v1.264a14.462 14.462 0 0 0-3.366-.402c-7.347 0-13.409 5.458-14.36 12.538Z" fill="#D9D5EF"/><path d="m207.629 219.324-1.921-.98a2.627 2.627 0 0 0-2.554.092l-1.896 1.146.98-1.921a2.627 2.627 0 0 0-.092-2.554L201 213.211l1.921.98a2.627 2.627 0 0 0 2.554-.092l1.896-1.146-.98 1.921a2.627 2.627 0 0 0 .092 2.554l1.146 1.896Z" fill="#C8C2E1"/><path opacity=".12" d="M706.276 271.141a2.822 2.822 0 0 0-3.418-2.045c-6.2 1.56-66.584 22.945-97.684 33.999-7.645 2.717-15.954 3.002-23.734.708-8.55-2.522-17.142-3.671-25.773-5.852l-83.132-18.163c-1.295-.283-1.429-2.074-.193-2.55l10.759-4.121c18.075-6.406 109.827-38.891 117.112-40.724a2.817 2.817 0 0 0-1.373-5.465c-8.219 2.068-126.447 43.999-130.667 45.5 0 0-16.386 3.534-5.413 9.453 14.139 6.429 30.966 10.392 45.532 15.144 14.578 4.701 29.284 8.898 44.101 12.659 9.149 2.325 14.773 3.444 24.04 5.265 17.082 3.357 25.634-4.773 25.634-4.773 28.947-10.297 95.912-34.047 102.165-35.618a2.814 2.814 0 0 0 2.044-3.417Z" fill="#17124C"/><path d="m565.812 266.43 24.962 24.817" stroke="#fff" stroke-width="2.695" stroke-miterlimit="10"/><path d="m461.275 248.139-5.056-1.459" stroke="#17124C" stroke-width="5.389" stroke-miterlimit="10" stroke-linecap="round"/><path d="M507.211 259.641s24.52 3.8 30.228 3.54l.452 6.216s-16.058-4.436-28.998-4.879l-1.682-4.877Z" fill="#3429A1"/><path d="M514.125 264.884a79.603 79.603 0 0 0-5.232-.364l-1.682-4.879s3.019.468 7.186 1.065" fill="#221B6C"/><path d="M593.594 278.973h11.378l58.816-27.614c28.189-10.816 39.941 5.119 39.941 16.377" stroke="#221B6C" stroke-width="5.389" stroke-miterlimit="10" stroke-linecap="round"/><path d="M454.844 246.682s103.19-36.685 111.374-38.743c23.671-5.952 32.546 18.109 32.546 18.109" stroke="#17124C" stroke-width="5.389" stroke-miterlimit="10" stroke-linecap="round"/><path d="m563.125 256.609 24.961 24.818M471.031 236.922l34.996 34.792M473.25 231.961l24.961 24.817" stroke="#fff" stroke-width="2.695" stroke-miterlimit="10"/><path d="M569.612 248.141c-22.27-6.362-32.2 9.343-34.015 22.269-1.958 13.95 10.768 36.463 28.876 40.133 18.109 3.671 28.142-7.341 31.079-20.406 2.938-13.065-3.67-35.632-25.94-41.996Zm21.211 40.221c-2.297 11.026-10.907 20.251-26.139 17.163-15.23-3.088-25.934-22.024-24.286-33.755 1.526-10.873 10.114-24.841 28.608-18.729 14.799 4.889 24.588 22.019 21.817 35.321ZM487.279 228.52c-18.534-6.211-26.799 9.121-28.309 21.738-1.629 13.618 8.961 35.595 24.033 39.178 15.072 3.582 23.42-7.167 25.866-19.922 2.441-12.754-3.058-34.783-21.59-40.994Zm17.089 39.261c-.279 10.928-8.516 19.205-21.191 16.191-12.676-3.014-20.458-20.372-19.086-31.825 1.269-10.613 7.176-23.949 22.682-18.283 11.137 4.069 17.966 19.413 17.595 33.917Z" fill="#3429A1"/></svg>