<svg xmlns="http://www.w3.org/2000/svg" fill="none" viewBox="1.84 52.31 444.38 276.82"><path fill="#fff" stroke="#D9D5EF" stroke-miterlimit="10" stroke-width="2.327" d="M210.898 201.301H3c.915-14.502 13.05-25.985 27.82-25.985 3.025 0 5.94.499 8.69 1.411 2.722-7.527 9.774-12.979 18.13-13.394-.056-.914-.138-1.854-.138-2.794 0-22.499 18.296-40.734 40.896-40.734 18.13 0 33.51 11.815 38.841 28.142.917-.111 1.86-.165 2.803-.165 12.605 0 23.156 8.689 26.044 20.367h.805v3.127a35.941 35.941 0 0 1 8.356-.996c18.244 0 33.292 13.504 35.651 31.021Z"/><path fill="#fff" stroke="#D9D5EF" stroke-miterlimit="10" stroke-width="1.839" d="M445.294 328.208H281c.723-11.46 10.313-20.535 21.985-20.535 2.391 0 4.695.394 6.868 1.115 2.15-5.948 7.724-10.257 14.327-10.585-.044-.722-.109-1.465-.109-2.208 0-17.779 14.459-32.19 32.318-32.19 14.328 0 26.482 9.337 30.695 22.24.725-.089 1.47-.131 2.215-.131 9.962 0 18.3 6.867 20.581 16.095h.637v2.472a28.368 28.368 0 0 1 6.603-.787c14.418 0 26.31 10.671 28.174 24.514Z"/><g filter="url(#a)"><rect width="196.297" height="131.048" x="107" y="200.617" fill="#EA9771" rx="18.746" transform="rotate(-14.067 107 200.617)"/><rect width="195.125" height="129.877" x="107.711" y="201.043" stroke="#D55820" stroke-width="1.172" rx="18.16" transform="rotate(-14.067 107.711 201.043)"/></g><g filter="url(#b)"><path fill="#E37645" d="M137.08 200.462a2.366 2.366 0 0 1-2.839-1.759l-14.701-62.43c-8.63-36.644 14.164-73.487 50.819-82.117 17.75-4.185 36.068-1.197 51.581 8.401 15.512 9.599 26.352 24.666 30.536 42.417l14.701 62.429a2.365 2.365 0 0 1-1.76 2.839l-14.533 3.42a2.367 2.367 0 0 1-2.839-1.76l-14.701-62.43c-2.976-12.643-10.703-23.372-21.746-30.204-10.45-6.471-22.691-8.717-34.683-6.42-27.418 5.242-44.428 32.684-38.033 59.851l14.481 61.506a2.367 2.367 0 0 1-1.76 2.839l-14.533 3.419.01-.001Z"/><path stroke="#D55820" stroke-width="1.172" d="M136.936 199.895v-.002l14.532-3.419-14.532 3.421Zm0 0a1.781 1.781 0 0 1-2.125-1.327l-14.7-62.429-.571.134.571-.134c-8.556-36.33 14.042-72.857 50.382-81.413 17.599-4.149 35.758-1.188 51.138 8.33 15.38 9.516 26.126 24.452 30.275 42.052l14.701 62.429v.001a1.78 1.78 0 0 1-1.324 2.134l-14.533 3.419a1.78 1.78 0 0 1-2.135-1.323v-.001l-14.701-62.429c-3.012-12.795-10.832-23.654-22.008-30.568-10.574-6.549-22.965-8.822-35.101-6.498m-39.869 127.623 14.533-3.421a1.78 1.78 0 0 0 1.323-2.135l-14.48-61.506c-6.468-27.477 10.733-55.253 38.493-60.56m0 0 .11.575-.11-.576Z"/></g><g filter="url(#c)"><path fill="#221C54" d="M363.001 205.83v51.552c0 23.692-43.051 43.068-43.051 43.068s-43.067-19.392-43.067-43.068V205.83c2.85-.033 5.75-.313 8.65-.857 12.126-2.307 22.341-8.93 29.359-17.975 2.554-3.279 7.563-3.279 10.1 0 7.018 9.045 17.217 15.668 29.343 17.975a50.25 50.25 0 0 0 8.65.857h.016Z"/></g><path fill="#FDFEFE" d="m316.053 253.589-12.225-12.208 2.735-2.735 9.49 9.49 17.893-17.909 2.735 2.718-20.628 20.644Z"/><defs><filter id="a" width="228.12" height="179.515" x="107" y="152.906" color-interpolation-filters="sRGB" filterUnits="userSpaceOnUse"><feFlood flood-opacity="0" result="BackgroundImageFix"/><feColorMatrix in="SourceAlpha" result="hardAlpha" values="0 0 0 0 0 0 0 0 0 0 0 0 0 0 0 0 0 0 127 0"/><feOffset dx="5.858" dy="4.686"/><feComposite in2="hardAlpha" operator="out"/><feColorMatrix values="0 0 0 0 0.917647 0 0 0 0 0.584314 0 0 0 0 0.435294 0 0 0 0.2 0"/><feBlend in2="BackgroundImageFix" result="effect1_dropShadow_2881_3976"/><feBlend in="SourceGraphic" in2="effect1_dropShadow_2881_3976" result="shape"/></filter><filter id="b" width="154.21" height="148.211" x="117.715" y="52.313" color-interpolation-filters="sRGB" filterUnits="userSpaceOnUse"><feFlood flood-opacity="0" result="BackgroundImageFix"/><feColorMatrix in="SourceAlpha" result="hardAlpha" values="0 0 0 0 0 0 0 0 0 0 0 0 0 0 0 0 0 0 127 0"/><feOffset dx="4.686"/><feComposite in2="hardAlpha" operator="out"/><feColorMatrix values="0 0 0 0 0.917647 0 0 0 0 0.584314 0 0 0 0 0.435294 0 0 0 0.2 0"/><feBlend in2="BackgroundImageFix" result="effect1_dropShadow_2881_3976"/><feBlend in="SourceGraphic" in2="effect1_dropShadow_2881_3976" result="shape"/></filter><filter id="c" width="89.632" height="118.257" x="276.883" y="184.539" color-interpolation-filters="sRGB" filterUnits="userSpaceOnUse"><feFlood flood-opacity="0" result="BackgroundImageFix"/><feColorMatrix in="SourceAlpha" result="hardAlpha" values="0 0 0 0 0 0 0 0 0 0 0 0 0 0 0 0 0 0 127 0"/><feOffset dx="3.515" dy="2.343"/><feComposite in2="hardAlpha" operator="out"/><feColorMatrix values="0 0 0 0 0.593518 0 0 0 0 0.572849 0 0 0 0 0.807096 0 0 0 0.3 0"/><feBlend in2="BackgroundImageFix" result="effect1_dropShadow_2881_3976"/><feBlend in="SourceGraphic" in2="effect1_dropShadow_2881_3976" result="shape"/></filter></defs></svg>