<svg xmlns="http://www.w3.org/2000/svg" fill="none" viewBox="58 184.07 1945 1374.93"><path fill="#EFE2CB" d="M87.576 604.35c-4.436 2.958-4.313-29.579-3.697-46.217 14.174 6.778 43.261 20.705 46.219 22.184 3.697 1.849-36.976 20.336-42.522 24.033Z"/><g filter="url(#a)"><path fill="url(#b)" d="m253.96 223.52 28.044-37.942c1.591-2.152 4.883-1.966 6.294.309 11.242 18.124 28.518 39.231 28.518 59.817 0 3.698-36.974 68.402-38.823 73.948-1.849 5.546 18.487 18.487 25.882 24.033 7.394 5.546-5.546 25.882-7.395 31.428-1.849 5.546 1.849 11.092 7.395 22.184 5.546 11.092-7.395 20.336-11.092 25.882-3.698 5.546-1.849 27.73-1.849 31.427 0 3.698 9.243 35.125 9.243 42.52 0 7.395-7.394 62.856-9.243 72.099-1.849 9.244 16.638 27.731 16.638 31.428v46.217c0 7.395 20.336 12.941 33.277 18.487 10.352 4.437 6.778 21.568 3.697 29.579L96.093 546.579a11.092 11.092 0 0 1-4.411-14.113l2.575-5.664a7.395 7.395 0 0 0-2.543-9.154l-18.437-12.675a7.395 7.395 0 0 1-1.945-10.224L253.96 223.52Z"/></g><g filter="url(#c)"><path fill="url(#d)" d="M320.514 251.252c2.958-5.916 8.628-2.465 11.093 0v-11.093c0-7.395 20.334-7.396 27.729-7.396s7.395 12.941 7.395 16.638c0 3.698 36.974-7.393 53.612-9.242 13.311-1.479 22.8 4.313 25.882 7.395.616 3.081 3.327 9.243 9.243 9.243 7.395 0 20.336-1.849 24.033 3.697 3.697 5.547 3.697 35.126 3.697 38.823 0 3.697 24.033-16.638 27.731-16.638 3.697 0 0 12.941-1.849 24.033-1.479 8.873 3.081 8.627 5.546 7.394 8.627-2.464 28.84-4.067 40.671 9.244 14.79 16.638-11.092 66.553-11.092 73.948 0 5.915 65.321 94.899 97.981 138.651l33.276 5.546 20.336 33.277c33.893 17.254 102.048 52.503 103.527 55.461 1.848 3.697-12.941 175.625-12.941 183.02 0 7.395-203.356-40.671-219.994-44.368-13.311-2.958-148.512-50.531-214.449-73.948v-35.125c-6.778-2.465-22.553-8.504-31.427-12.941-11.092-5.546 1.794-22.405 0-29.579-1.849-7.396-16.639-35.125-22.185-53.612-5.546-18.487 11.092-36.231 11.092-57.31 0-22.185-5.546-40.671-11.092-57.309-5.546-16.638 1.849-24.033 11.092-35.125 9.244-11.092-3.697-27.731-5.546-33.277-1.848-5.546 9.244-27.73 11.093-35.125 1.848-7.395-20.335-20.335-25.881-25.881-5.546-5.547 27.73-61.007 31.427-68.401Z"/></g><g filter="url(#e)"><path fill="#C7C4E6" d="M58 885.352c0-2.958 2.465-35.742 3.697-51.764.284-3.697 11.093 0 16.639 1.849 5.546 1.849 9.243 11.092 9.243 12.941 0 1.849-18.487 20.336-20.335 31.428-1.85 11.092 0 24.033-3.698 25.881C59.85 907.536 58 889.049 58 885.352Z"/></g><g filter="url(#f)"><path fill="#C7C4E6" d="M183.709 1144.17c-7.395 16.27-56.077-78.26-79.494-127.56-2.65-5.55 3.697-11.09 9.243-11.09s44.369 46.21 49.915 53.61c5.546 7.39 5.546 20.33 9.243 27.73 3.698 7.39 20.336 36.97 11.093 57.31Z"/></g><g filter="url(#g)"><path fill="#C7C4E6" d="M420.342 733.758c-2.465-1.232-85.408-40.301-101.677-46.217-34.752-12.637-173.777-109.07-170.08-94.282 3.009 12.031 5.546 120.164 5.546 134.953 0 14.79 0 18.487 14.79 49.915 14.791 31.428-38.824 64.704-42.521 68.401-3.698 3.698 1.848 57.31 0 61.007-1.849 3.698 7.395 24.033 11.092 29.579 3.698 5.546 0 25.882-3.697 31.428-3.697 5.546 0 42.518 3.697 46.218 3.698 3.7 14.79 18.49 16.639 20.33 1.848 1.85 22.184 33.28 22.184 38.83 0 4.43 17.254 35.12 25.881 49.91 57.926 21.57 178.584 66.19 197.81 72.1 12.942 3.98 14.183-42.8 11.094-53.61-3.698-12.94-72.1-149.745-73.949-158.988-1.479-7.395 54.844-169.464 83.191-249.574Z"/></g><g filter="url(#h)"><path fill="#C7C4E6" d="M344.546 988.878c-2.958-1.479 55.46-168.231 85.04-251.422l190.415 57.309-7.395 22.185c-7.395 6.162-22.184 19.966-22.184 25.881 0 5.916 12.324 4.93 18.487 3.698l-92.435 380.831c-27.114-7.4-83.93-22.92-94.283-25.88-12.941-3.7-1.849-48.07 0-53.61 1.849-5.55-64.704-136.81-66.553-140.51-1.849-3.69-7.395-16.633-11.092-18.482Z"/></g><g filter="url(#i)"><path fill="#C7C4E6" d="m780.838 828.041-155.29-29.579v11.867c12.415 3.175 66.553 12.123 66.553 28.805 0 3.697-11.092-1.849-14.79-3.698-2.958-1.479-40.671-3.081-59.158-3.697l-70.25 303.181c-8.011 28.35-23.663 86.89-22.184 94.29 1.479 7.39 143.582 27.73 214.448 36.97l20.336-305.033c-1.849 0-6.656.37-11.092 1.849-4.437 1.479 1.848-8.011 5.546-12.941l-1.849-25.882 18.487-16.638 9.243-79.494Z"/></g><g filter="url(#j)"><path fill="#C7C4E6" d="M775.292 937.114c0-3.696 5.772-18.152 6.489-22.218 3.582-20.328 5.373-66.527 7.166-88.703l143.484 12.941-3.698 35.125 7.395 7.395 17.682 1.826 7.168 16.632 7.167 51.744 5.376 11.088c1.434 4.435 25.686-.616 37.629-3.696l34.05 14.784C1001 1027.01 911.519 1134.07 907.218 1138.5c-5.376 5.55-8.064 142.47-8.064 144.32 0 1.48-101.958-10.48-149.744-14.79 7.765-112.11 25.882-327.959 25.882-330.916Z"/></g><g filter="url(#k)"><path fill="#FAF5EC" d="m527.567 447.211-79.494-3.698c-3.697-.172 0 7.395 0 11.092 0 3.698 25.882 9.244 33.276 9.244 7.395 0-18.487 24.033-25.881 31.427-7.395 7.395 1.848 12.941 5.546 16.639 3.697 3.697 11.092-3.698 22.184-7.395 11.092-3.697 1.849 5.546 0 7.395-1.849 1.848-5.546 11.092 1.849 11.092 5.916 0 22.184-18.487 29.579-27.731 3.697 1.233 12.571 4.437 18.487 7.395 7.395 3.698 22.184-12.941 24.033-16.638 1.848-3.697-27.731-14.789-35.125-16.638-7.395-1.849-1.849-5.546 3.697-11.092 4.437-4.437 3.081-9.244 1.849-11.092Z"/></g><g filter="url(#l)"><path fill="#FAF5EC" d="M538.654 639.474c-5.916-2.958 8.011 31.429 14.789 48.067-19.354 8.296-36.971 12.94-57.308 12.94-7.622 0 14.79 20.336 31.428 25.882 16.638 5.546 79.494-20.336 96.132-27.73 16.638-7.395 22.6-25.471 18.487-25.882-18.487-1.848-43.32 14.06-48.065 14.79-24.033 3.697-48.069-44.37-55.463-48.067Z"/></g><path fill="#FAF5EC" d="M779.558 1111.29c3.698 0 1.849-18.48 7.395-22.18 4.089-2.73 13.727 9 19.072 16.64 4.118-5.55 13.464-16.64 17.901-16.64 5.546 0 18.486 0 22.184 5.55 3.697 5.54 29.579 88.73 31.428 107.22 1.848 18.49-16.639 20.34-20.336 22.18-3.697 1.85 5.546-36.97 5.546-40.67 0-3.69-5.546 1.85-7.395 3.7-1.848 1.85 0-16.64 0-24.03 0-7.4-18.487-5.55-20.335-7.4-1.849-1.85-16.639-29.58-16.639-35.12 0-4.44-9.859-4.32-14.789-3.7v38.82c0 7.4 7.395 12.54 11.092 16.24 3.697 3.7 12.941 50.32 12.941 59.56 0 9.24-12.941-9.24-12.941-14.79 0-5.55-9.814-37.38-15.36-39.23-5.546-1.84-16.068-10.69-12.369-19.93 3.699-9.24 0-25.88-7.395-35.12-7.394-9.25-3.697-11.1 0-11.1Z"/><g filter="url(#m)"><path fill="#C7C4E6" d="M912.093 1149.71c0-5.91 93.047-121.39 142.347-171.924 1.85-1.849 12.94 1.848 25.88 9.243 5.45 3.114 36.36 19.101 51.77 25.881l20.33 16.64 64.71 7.39c.61 4.32 1.84 17.01 1.84 33.28 0 20.34 12.95 49.92 12.95 53.61 0 3.7 36.97 48.07 40.67 53.61 2.95 4.44 14.79 5.55 20.33 5.55 3.7 28.96 9.25 88 9.25 92.43 0 5.55 7.39 46.22 14.79 72.1 7.39 25.89 44.36 29.58 51.76 31.43 7.39 1.85 31.43 20.34 36.97 22.19 5.55 1.84 42.52-11.1 48.07-12.94 5.54-1.85 1.85 11.09 0 16.63-1.85 5.55-49.92 51.77-55.46 57.31-5.55 5.55-42.52 11.1-59.16 18.49-16.64 7.39 0 18.49 7.39 22.18 7.4 3.7-12.94 11.1-24.03 14.79-11.09 3.7-7.39 7.4-7.39 11.1 0 3.69-18.49 1.84-25.88 1.84-7.4 0-25.89 20.34-29.58 24.04-3.7 3.69-18.49 5.54-20.34 3.69-1.85-1.84 1.85-3.69 11.09-9.24 9.25-5.54 7.4-14.79 7.4-20.33 0-5.55 5.54-14.79 12.94-27.73 7.39-12.95 0-22.19 0-31.43 0-9.25 7.39-12.94 9.24-22.19 1.85-9.24-1.85-11.09 1.85-11.09s24.03 14.79 33.28 5.55c9.24-9.25-12.94-24.04-20.34-33.28-7.39-9.24-55.46-16.64-86.89-18.49-31.43-1.84-33.27-38.82-33.27-46.21 0-7.4-27.73-20.34-36.98-24.04-9.24-3.69-5.54-16.63-11.09-22.18-5.55-5.55-20.34-1.85-29.58-3.7-9.24-1.85-16.64 1.85-16.64 5.55 0 3.7-22.18 18.49-36.97 24.03-14.79 5.55-70.251-14.79-75.797-16.64-5.546-1.85-31.428-7.39-38.823-7.39-7.394 0-9.243-12.94-9.243-18.49 0-5.54-12.941-11.09-14.789-14.79-1.849-3.7 7.395-109.07 7.395-116.47Z"/></g><g filter="url(#n)"><path fill="#EFE2CB" d="M1274.44 755.943c0-8.874-8.63-24.649-12.94-31.428-1.85-3.024 12.94-12.94 14.79-14.789 1.85-1.849 29.58 0 36.97 1.849 5.92 1.479 28.35-6.779 38.83-11.093 4.31 1.849 14.78 6.286 22.18 9.244 7.39 2.958 20.34 20.952 25.88 29.579l48.07 9.243c0 4.314.37 15.529 1.85 25.882 1.84 12.941 18.48 51.763 29.57 51.763 8.88 0 24.65 11.093 31.43 16.639 4.93-5.546 15.9-17.748 20.34-22.185 4.44-4.437 9.24-44.984 11.09-64.704 2.47 4.314 7.76 13.68 9.24 16.638 1.48 2.958 9.25 19.72 12.94 27.731l12.95 1.848c0 7.395.74 24.403 3.69 33.277 3.7 11.092 12.94 9.243 14.79 11.092 1.85 1.849 7.4 33.276 9.25 46.217 1.84 12.941 25.88 48.066 25.88 53.612 0 5.546-5.55 14.79-12.94 12.941-7.4-1.848-22.19 3.698-25.88 7.395-2.96 2.958-16.03-2.465-22.19-5.546-4.31 3.081-14.79 14.42-22.18 35.125-7.4 20.707 12.94 35.737 24.03 40.667.62 2.47 1.85 9.62 1.85 18.49s14.79 7.4 22.18 5.55l7.4 16.64h18.48c4.44 0 26.5 4.93 36.98 7.39l3.7-24.03H1683c5.92 0 94.9-33.28 138.65-49.92 3.7 5.55 10.36 17.01 7.4 18.49-3.7 1.85-31.43 33.28-40.67 57.31-9.25 24.03-158.99 73.95-164.54 73.95-4.43 0-11.71 24.65-14.79 36.97-1.85 1.23-6.65 4.07-11.09 5.55-4.44 1.48-31.43 56.07-44.37 83.19l-53.61 62.85c17.87-16.02 54.35-49.17 57.31-53.61 3.7-5.55 20.34-40.67 35.13-61.01 14.78-20.33 73.94-48.06 85.03-49.91 11.1-1.85 20.57 11.09 18.49 27.73-1.85 14.79-90.58 40.67-94.28 40.67-2.96 0-2.47 18.49-1.85 27.73-4.93.62-16.27 2.22-22.18 3.7-7.4 1.85-12.95 38.82-20.34 75.8-7.39 36.97-81.34 40.67-85.04 40.67-3.7 0-9.24-14.79-12.94-16.64-3.7-1.85-27.73 5.54-35.13 7.39-7.39 1.85-24.03-1.85-27.73-5.54-3.69-3.7-49.91-18.49-68.4-29.58-14.79-8.88-27.11-126.95-31.43-184.87l7.4-5.55v-11.09c1.23 0 4.44-2.59 7.39-12.94 2.96-10.35-23.41-69.63-36.97-97.98 14.79-14.79 46.22-49.546 53.61-70.251 9.25-25.882-5.54-53.612-25.88-77.645-20.34-24.033-27.73-20.336-20.34-42.52 7.4-22.184 7.4-40.671 3.7-51.764-3.7-11.092-11.09-35.125-11.09-46.217Z"/></g><g filter="url(#o)"><path fill="#C7C4E6" d="M1620.14 815.101c-2.96 0-45.6-45.601-66.55-68.402l-3.7 3.698c-1.85 1.848 3.7 14.789 7.4 16.638 3.69 1.849 7.39 16.638 9.24 25.882 1.48 7.394 11.71 5.546 16.64 3.697v24.033c0 11.092 3.69 9.243 5.54 12.941 1.85 3.697 16.64 12.941 14.79 18.487-1.85 5.546 9.25 46.217 9.25 48.066 0 1.848 24.03 40.671 25.88 46.217 1.85 5.546-7.4 24.033-7.4 27.73 0 3.698 18.49 0 20.34 0 1.48 0-1.85 13.557-3.7 20.336-6.78.616-20.7 1.849-22.18 1.849-1.85 0-20.34 7.397-25.88 3.697-5.55-3.697 22.18-25.882 22.18-29.579 0-3.698-3.7-3.698-7.4-5.546-3.69-1.849-11.09 3.697-20.33 7.395-9.24 3.697-14.79-1.849-20.34-3.698-5.54-1.849-5.54 1.849-16.63 20.336-11.1 18.482 7.39 33.272 12.94 36.972 5.54 3.7 9.24 16.64 9.24 22.19 0 5.54 11.09 3.69 17.76 1.84 6.66-1.84 6.27 16.64 8.12 20.34 1.85 3.7 38.82 7.39 42.52 7.39 2.96 0 6.16-18.48 7.4-27.73l18.48 3.7c9.25 1.85 149.75-48.06 151.6-48.06 1.84 0 11.09 9.24 12.94 11.09 1.85 1.85 16.63-24.035 16.63-27.732 0-3.698-11.09-18.487-16.63-24.033-5.55-5.546 0-11.092 0-12.941 0-1.849-9.25-9.243-12.94-12.941-3.7-3.697-16.64-3.697-22.19-3.697-5.54 0-11.09-5.546-16.64-7.395-5.54-1.849-18.48 11.092-22.18 14.79-3.7 3.697-29.58 31.427-31.43 27.73-1.48-2.958 32.66-40.671 49.92-59.158l-22.19-7.395c-5.54-1.849-9.24 3.697-12.94 5.546-3.7 1.849-27.73-3.697-31.43-3.697-3.69 0-20.33-14.79-24.03-14.79-3.7 0-31.43-12.941-35.13-18.487-2.95-4.437-2.46-17.87-1.84-24.033-3.09-1.848-10.36-6.285-14.79-9.243-5.55-3.698-5.55-11.092-7.4-16.638-1.85-5.547-9.24-7.395-12.94-7.395Z"/></g><g filter="url(#p)"><path fill="#C7C4E6" d="M1668.21 1244c7.4 0 21.57-7.4 27.73-11.1.62 3.7 2.22 14.79 3.7 29.58 1.85 18.49 31.43 29.58 35.13 29.58 3.69 0-31.43 33.28-48.07 55.46-16.64 22.19-33.28-1.85-36.97-5.54-3.7-3.7-18.49-42.52-22.19-53.61-2.96-8.88-14.79-11.1-20.33-11.1-.62-6.78-1.48-20.33 0-20.33 1.85 0 22.18-3.7 35.12-9.25 12.94-5.54 16.64-3.69 25.88-3.69Z"/></g><g filter="url(#q)"><path fill="#C7C4E6" d="M1719.97 1277.27c1.85 3.7 46.22 7.4 51.76 9.25 7.29 2.43 3.01-16.64-1.84-16.64-3.7 0-27.73 3.7-33.28 3.7-5.55 0-9.24-7.4-12.94-9.25-3.7-1.85-5.55 9.25-3.7 12.94Z"/></g><g filter="url(#r)"><path fill="#C7C4E6" d="M1725.52 1325.34c-5.92 1.48 7.39-14.79 18.48-24.03 14.8-5.55 42.16-11.47 55.47-12.94 16.63-1.85 14.79 11.09 14.79 14.78 0 2.96-40.68 36.98-61.01 53.62-3.08 5.54-11.46 20.7-20.34 36.97-11.09 20.34-25.88 5.55-35.12-12.94-9.25-18.49 42.52-55.46 46.21-59.16 3.7-3.7-11.09 1.85-18.48 3.7Z"/></g><g filter="url(#s)"><path fill="#C7C4E6" d="M1819.8 1232.9c-1.48-4.43-8.01 9.25-11.09 16.64-1.23 4.93-3.7 16.64-3.7 24.04 0 9.24 14.79 12.94 16.64 14.79 1.85 1.84 18.49-18.49 20.34-22.19 1.84-3.7-9.25-9.24-14.79-12.94-5.55-3.7-5.55-14.79-7.4-20.34Z"/></g><g filter="url(#t)"><path fill="#EFE2CB" d="M1742.16 1151.56c14.79 3.7 11.09 9.25-5.55 12.94-13.31 2.96-37.59-4.93-48.06-9.24-5.55-2.13 0-7.39 5.54-9.24 5.55-1.85 33.28 1.85 48.07 5.54Z"/></g><g filter="url(#u)"><path fill="#C7C4E6" d="M1860.47 1007.37c7.4-2.96 6.78 40.67 5.55 62.85l9.24-5.55c9.25-5.54 11.1 3.7 14.79 12.95 3.7 9.24 33.28-7.4 49.92-9.25 16.64-1.85 11.09 9.25 12.94 20.34 1.48 8.87 15.4 8.62 22.18 7.39-2.46 5.55-10.35 20.34-7.39 27.73 3.7 9.25 11.09-3.7 12.94-7.39 1.85-3.7 5.54 1.85 5.54 7.39 0 5.55 5.55 0 11.1 0 5.54 0 3.69 11.09 5.54 25.88s-11.09 12.94-16.64 12.94c-5.54 0-3.69-3.69-11.09 0-7.39 3.7 1.85-18.48-7.39-27.73-9.25-9.24-24.04 40.68-33.28 48.07-9.24 7.4-9.24-1.85-3.7-18.49 5.55-16.63-73.94 22.19-90.58 25.89-16.64 3.69-11.09-18.49-9.25-22.19 1.85-3.7 3.7-12.94 0-18.49-2.95-4.43 1.24-11.7 3.7-14.79 2.47-33.27 7.4-100.56 7.4-103.52 0-3.7 9.24-20.34 18.48-24.03Z"/></g><g filter="url(#v)"><path fill="url(#w)" d="m549.75 395.448 18.487-49.914c2.958-4.437 6.162-1.849 7.395 0 8.627 11.092 27.36 33.646 33.276 35.125 7.395 1.848 18.487 0 29.579 12.941 11.092 12.94 11.092 22.184-3.697 27.73-14.79 5.546-11.092 12.941 1.848 22.184 10.353 7.395 48.683 5.546 66.553 3.698 8.628 14.789 26.622 45.108 29.579 48.066 2.958 2.957 1.233-18.487 0-29.579 8.628-4.93 26.622-15.899 29.579-20.336 3.698-5.546-5.546-1.849-12.94 0-7.395 1.849-18.487-1.849-20.336-11.092-1.849-9.244 31.428-12.941 42.52-12.941 11.092 0 20.336 36.974 25.882 36.974 5.546 0 12.94 7.395 24.033 18.487 11.092 11.092 55.46 11.092 62.855 12.94 7.395 1.849 5.546-25.881 9.244-29.579 2.957-2.957 25.881 9.86 36.973 16.639-.616 6.778-1.848 21.814-1.848 27.73 0 7.395 7.394 12.941 9.243 14.79 1.479 1.479-.616-24.033-1.849-36.974 6.779-2.465 21.815-8.504 27.731-12.941 7.395-5.546 0-25.882 0-33.277 0-7.394-3.698-22.184-18.487-25.881-11.832-2.958-13.557-14.79-12.941-20.336 0-8.011-.739-26.251-3.697-35.125-3.698-11.092 5.546-18.487 11.092-27.73 5.546-9.244 14.789-24.033 18.487-24.033 3.697 0 31.427 22.184 31.427 36.973 0 14.79 18.492 46.218 7.395 49.915-11.092 3.698 3.697 24.033 11.097 24.033 7.39 0 22.18 5.546 24.03 7.395 1.85 1.849-12.94 5.546-14.79 12.941-1.85 7.395 9.24 25.881 11.09 27.73 1.85 1.849 11.09-31.428 16.64-31.428 5.55 0 22.18 27.731 22.18 44.369 0 16.638-1.85 9.243 5.55 31.428 7.39 22.184 20.34-20.336 24.03-29.579 3.7-9.244 12.94-38.823 7.4-57.31-5.55-18.487 1.85-20.335 16.64-20.335 14.79 0 46.21 25.881 51.76 27.73 5.54 1.849 0 3.697 1.85 12.941 1.85 9.243-5.55 20.335-11.09 25.882-5.55 5.546 14.78 22.184 16.63 36.973 1.48 11.832-14.17 39.439-22.18 51.764l-16.64-7.395v14.789l-20.33-1.848c-6.17-1.849-19.97-5.546-25.89-5.546-7.39 0 7.4 7.394 7.4 14.789 0 5.916-13.56 24.649-20.34 33.277.62 3.081 2.59 10.722 5.55 16.638 3.7 7.395-9.24 18.487-12.94 29.579-2.96 8.874-27.12 17.254-38.82 20.336l-7.4 12.94-22.18 3.698c1.23 1.232 5.17 5.916 11.09 14.789 5.91 8.874-13.56 17.255-24.034 20.336-1.849 3.081-6.286 9.983-9.244 12.941s-34.508 66.553-49.914 97.98L791.929 816.95c4.929-60.391 14.789-183.021 14.789-190.415 0-7.395-69.018-40.055-103.527-55.461-6.162-9.86-19.226-30.319-22.184-33.277-2.958-2.957-25.882-6.162-36.974-7.394L549.75 395.448Z"/><path fill="url(#x)" d="M1152.42 735.607c-16.27 0-3.08-16.022 5.55-24.033 1.23-1.848 5.55-5.915 12.94-7.394 9.24-1.849 12.94 1.848 16.64 3.697 3.7 1.849-14.79 27.73-35.13 27.73Z"/><path fill="url(#y)" d="M1095.11 661.66c4.44-7.395 8.01-52.38 9.25-73.948.61-1.232 2.96-4.437 7.39-7.395 5.55-3.697 11.09 9.244 12.94 12.941 1.85 3.698 11.1 12.941 31.43 24.033 16.27 8.874 30.2 28.347 35.13 36.974 6.77 0 21.44 2.588 25.88 12.941 5.54 12.941-33.28 7.395-36.98 7.395-3.69 0-12.94-14.79-22.18-18.487-9.24-3.698-16.64 22.184-24.03 38.822-7.4 16.638-24.04-1.848-22.19-7.395 1.85-5.546-9.24-7.394-18.48-7.394-9.25 0-3.7-9.244 1.84-18.487Z"/></g><g filter="url(#z)"><path fill="#EFE2CB" d="M891.758 447.211c-17.748-11.831.001-36.974 16.642-42.52 7.396 1.849 12.199 2.958 16.636 7.395 5.546 5.546 12.941 25.882 16.638 38.823 3.697 12.941-27.732 11.092-49.916-3.698Z"/></g><g filter="url(#A)"><path fill="url(#B)" d="m712.928 357.448-98.471-26.704v9.243c0 5.546 7.395 20.336 20.336 29.579 12.94 9.243 24.033 16.638 25.881 38.823 1.849 22.184 36.974 9.243 72.099 11.092 28.1 1.479 37.59-10.476 38.823-16.638 1.232 3.081 9.613 12.94 33.276 27.73 29.579 18.487 40.671-3.697 36.974-18.487-3.697-14.79 0-16.638 3.697-16.638 3.698 0 18.487 7.395 18.487 0s-12.94-29.579-29.579-42.52c-16.638-12.941-12.941-25.882-9.243-40.671 3.697-14.79-7.395-53.612-7.395-68.402 0-14.789 7.395-9.243 16.638-22.184 9.244-12.941-7.394-20.336-16.638-25.882-9.243-5.546-12.941 9.244-12.941 16.639s-1.848 3.697-14.789 0c-12.941-3.697-11.092 48.066-11.092 64.704 0 16.638-7.395 1.849-7.395-14.789 0-13.311-7.395-27.731-11.092-33.277L726.508 349.75c-1.649 5.856-7.708 9.291-13.58 7.698Z"/></g><path fill="url(#C)" d="m716.227 350.118-72.674-19.38c-1.844-.492-1.78-2.926.11-3.198 2.003-.287 4.095-.495 5.916-.495 5.546 0 35.125 5.546 44.369 5.546 9.243 0-14.79-18.487-33.277-20.335-18.487-1.849-42.521-18.487-46.219-31.428-3.697-12.941 31.428-12.941 31.428-14.79 0-1.848-12.063-3.697-16.638-3.697-4.575 0-1.849-9.243-9.243-16.638-7.395-7.395 7.395-25.882 13.818-33.277s52.735-25.881 63.827-25.881c11.092 0 7.395-3.698 5.546 20.335-1.848 24.033 7.395 5.546 12.941 5.546 5.546 0 20.336 14.79 18.487 22.185-1.479 5.915 9.243 3.697 14.79 1.848l-28.648 111.01a3.698 3.698 0 0 1-4.533 2.649Z"/><g filter="url(#D)"><path fill="url(#E)" d="M1089.57 255.22c-10.35 22.184-4.31 42.52 0 49.915 3.7-3.081 9.61-12.201 3.7-24.033-7.4-14.789 12.94-42.52 27.73-55.461 14.79-12.94 24.03 0 33.27 5.547 9.25 5.546 9.25 33.276 24.04 48.066 14.79 14.789 9.24-22.185 42.52-22.185 33.27 0 31.42 20.336 42.52 38.823 11.09 18.487 18.48 5.546 27.73 0 9.24-5.546 14.79 3.697 22.18 22.184 7.39 18.487 11.09 7.395 20.34 9.244 9.24 1.848 22.18 3.697 22.18 16.638 0 12.941 1.85 7.395 9.24 0 7.4-7.395 24.04 27.73 27.73 33.276 3.7 5.546 12.94 16.638 0 22.184-12.94 5.547-9.24 16.639-3.69 25.882 5.54 9.244 53.61 18.487 61 18.487 7.4 0 7.4 0 11.1 11.092 3.69 11.092 20.33 1.849 20.33 7.395 0 5.546 3.7 1.849 20.34 1.849 13.31 0 16.63 12.324 16.63 18.487-2.46 2.465-6.65 9.613-3.69 18.486 3.69 11.093-3.7 24.033-9.25 27.731-5.54 3.697 0 14.789 1.85 18.487 1.85 3.697-3.69 9.243-11.09 11.092-7.39 1.849-57.31-42.52-62.86-42.52-5.54 0-25.88 7.395-12.94 12.941 12.94 5.546 3.7 11.092 0 14.789-3.69 3.698 0 7.395 9.25 7.395 9.24 0 9.24 9.244 12.94 14.79 2.96 4.437 20.95 8.011 29.58 9.243l38.82 44.369c-.62 9.859-1.85 32.167-1.85 42.52 0 12.941-44.37-18.487-72.1-25.882-27.73-7.395 33.28 35.125 49.92 38.823 16.64 3.697 9.24 16.638 9.24 24.032 0 7.395-3.7 0-22.18 0-18.49 0-38.83-7.394-48.07-11.092-9.24-3.697-14.79-3.697-35.13-5.546-20.33-1.848-14.78-18.487-14.78-25.881 0-7.395-18.49-12.941-42.52-27.731-24.04-14.789-40.68 9.244-55.47 12.941-14.78 3.697-27.73-5.546-31.42-18.487-3.7-12.941 7.39-16.638 7.39-20.335 0-3.698 0-9.244 7.4-9.244 7.39 0 55.46-16.638 62.85-18.487 7.4-1.849-16.64-16.638-18.48-27.73-1.85-11.092 18.48-31.428 20.33-49.915 1.85-18.487-38.82-57.309-46.22-66.553-7.39-9.243-14.79 7.395-24.03 12.941-9.24 5.546 0-14.789 1.85-20.336 1.85-5.546-3.7-1.848-11.09 1.849-7.4 3.698-7.4-7.395-7.4-16.638 0-9.244-12.94-14.79-25.88-20.336-10.35-4.437-4.31 5.546 0 11.092-14.17 0-50.65.37-83.19 1.849-40.67 1.849-42.52-3.697-46.22-11.092-3.7-7.395-12.94-1.849-24.03-1.849-11.09 0-16.64-11.092-22.19-24.033-5.54-12.94 12.95-9.243 22.19-11.092 9.24-1.848-16.64-7.395-22.19-7.395-5.54 0-7.39-14.789-7.39-27.73s7.39-55.461 20.34-83.192c10.35-22.184 36.35-17.87 48.06-12.94 1.23 1.848 1.11 11.092-9.24 33.276Z"/></g><g filter="url(#F)"><path fill="#EFE2CB" d="M1255.95 500.823c-10.35 1.479-9.25-20.335-7.4-31.427 1.15-11.093 7.4-18.487 16.64-18.487s12.94 3.697 14.79 22.184c1.85 18.487-11.09 25.882-24.03 27.73Z"/></g><path fill="#221C54" d="M220.067 895.685v34.718h14.26c7.91 0 12.994-3.001 12.994-9.92 0-3.992-2.852-6.993-6.15-7.96 3.05-.843 5.357-3.819 5.357-7.39 0-6.894-5.58-9.448-12.995-9.448h-13.466Zm14.012 19.839c4.414 0 7.365.843 7.365 4.761 0 4.017-2.951 4.86-7.365 4.86h-8.407v-9.621h8.407Zm-.769-14.582c3.893 0 7.34.62 7.34 4.612 0 4.142-3.397 4.737-7.291 4.737h-7.687v-9.349h7.638Zm37.826-5.902c-10.663 0-18.177 7.638-18.177 18.004 0 10.366 7.514 18.004 18.177 18.004 6.076 0 11.284-2.679 14.235-7.018l-4.563-3.348c-2.158 3.124-5.555 4.984-9.672 4.984-7.092 0-12.3-5.133-12.3-12.622 0-7.49 5.208-12.623 12.3-12.623 4.142 0 7.589 1.934 9.697 5.009l4.687-3.124c-2.728-4.514-8.209-7.266-14.384-7.266Zm181.416 62.641h-6.993l-13.713 34.718h5.827l3.422-8.853h15.723l3.422 8.853h6.026l-13.714-34.718Zm-3.595 5.58 5.803 14.978h-11.606l5.803-14.978Zm22.747-5.58v34.718h14.259c7.911 0 12.995-3 12.995-9.919 0-3.993-2.852-6.993-6.151-7.96 3.051-.844 5.357-3.82 5.357-7.391 0-6.894-5.58-9.448-12.995-9.448h-13.465Zm14.011 19.839c4.414 0 7.365.843 7.365 4.762 0 4.017-2.951 4.86-7.365 4.86h-8.407v-9.622h8.407Zm-.769-14.582c3.894 0 7.341.62 7.341 4.613 0 4.141-3.398 4.737-7.291 4.737h-7.688v-9.35h7.638Zm153.772 77.252c-3.496-2.33-7.489-3.75-12.548-3.75-7.514 0-13.689 3.87-13.689 10.84 0 6.45 5.133 8.88 10.292 9.6l2.703.37c5.083.69 7.811 1.96 7.811 4.69 0 3.19-3.571 5.13-8.109 5.13-4.017 0-8.506-1.64-10.887-3.82l-3.05 4.46c3.596 3.1 9.25 4.67 13.962 4.67 7.514 0 13.912-3.87 13.912-10.94 0-6.45-5.555-8.78-11.184-9.55l-2.406-.32c-4.513-.65-7.216-1.76-7.216-4.64 0-3.17 3.174-5.18 7.811-5.18 3.522 0 6.795 1.09 9.746 2.97l2.852-4.53Zm30.69 31.57h7.613l-16.689-17.79 15.623-16.93h-7.241l-13.044 14.6h-3.423v-14.6h-5.604v34.72h5.604v-14.81h3.348l13.813 14.81Zm208.021-79.36h-8.606l-10.093 24.8-10.093-24.8h-8.605v34.72h5.605v-28.297l10.142 24.897h5.902l10.143-25.17v28.57h5.605V992.4Zm9.44 0v34.72h14.259c7.911 0 12.995-3 12.995-9.92 0-3.99-2.852-6.99-6.15-7.96 3.05-.84 5.356-3.82 5.356-7.39 0-6.896-5.58-9.45-12.994-9.45h-13.466Zm14.011 19.84c4.414 0 7.365.84 7.365 4.76 0 4.02-2.951 4.86-7.365 4.86h-8.407v-9.62h8.407Zm-.769-14.583c3.894 0 7.341.62 7.341 4.613 0 4.14-3.398 4.74-7.291 4.74h-7.688v-9.353h7.638Zm165.769 156.533c-10.67 0-18.18 7.63-18.18 18 0 10.37 7.51 18 18.18 18 10.66 0 18.17-7.63 18.17-18 0-10.37-7.51-18-18.17-18Zm0 5.38c7.09 0 12.3 5.13 12.3 12.62 0 7.49-5.21 12.62-12.3 12.62-7.1 0-12.3-5.13-12.3-12.62 0-7.49 5.2-12.62 12.3-12.62Zm55.75-4.74h-5.6v25.12l-19.39-25.12h-5.06v34.72h5.6l.03-25.12 19.36 25.12h5.06v-34.72Zm586.66-189.709h-5.6v25.121l-19.4-25.121h-5.05v34.718h5.6l.02-25.121 19.37 25.121h5.06v-34.718Zm34.24 29.411h-19.22v-29.411h-5.6v34.718h24.82v-5.307Zm-108.64 326.448h-5.6v25.12l-19.39-25.12h-5.06v34.72h5.6l.03-25.12 19.36 25.12h5.06v-34.72Zm9.42 0v34.72h14.26c7.91 0 13-3 13-9.92 0-3.99-2.86-6.99-6.15-7.96 3.05-.84 5.35-3.82 5.35-7.39 0-6.89-5.58-9.45-12.99-9.45h-13.47Zm14.01 19.84c4.42 0 7.37.85 7.37 4.76 0 4.02-2.95 4.86-7.37 4.86h-8.4v-9.62h8.4Zm-.77-14.58c3.9 0 7.34.62 7.34 4.61 0 4.14-3.39 4.74-7.29 4.74h-7.68v-9.35h7.63Zm83.5-87.09c8.01 0 12.3-4.04 12.3-10.54 0-6.5-4.29-10.54-12.3-10.54h-13.46v34.72h5.6v-13.64h7.86Zm-.15-15.8c4.54 0 6.62 1.69 6.62 5.26s-2.08 5.26-6.62 5.26h-7.71v-10.52h7.71Zm44.85 24.18h-19.72v-9.6h18.72v-5.25h-18.72v-9.35h19.39v-5.26h-24.99v34.72h25.32v-5.26Zm14.09-29.46h-5.61v34.72h5.61v-34.72Zm-8.72 121.51h-5.6v25.12l-19.39-25.12h-5.06v34.72h5.6l.03-25.12 19.36 25.12h5.06v-34.72Zm35.01 3.15c-3.49-2.33-7.49-3.74-12.54-3.74-7.52 0-13.69 3.87-13.69 10.83 0 6.45 5.13 8.88 10.29 9.6l2.7.37c5.09.7 7.81 1.96 7.81 4.69 0 3.2-3.57 5.13-8.11 5.13-4.01 0-8.5-1.63-10.88-3.82l-3.05 4.47c3.59 3.1 9.25 4.66 13.96 4.66 7.51 0 13.91-3.87 13.91-10.94 0-6.44-5.55-8.77-11.18-9.54l-2.41-.33c-4.51-.64-7.22-1.76-7.22-4.63 0-3.18 3.18-5.19 7.82-5.19 3.52 0 6.79 1.1 9.74 2.98l2.85-4.54Z"/><defs><filter id="a" width="314.638" height="547.843" x="51.583" y="165.58" color-interpolation-filters="sRGB" filterUnits="userSpaceOnUse"><feFlood flood-opacity="0" result="BackgroundImageFix"/><feBlend in="SourceGraphic" in2="BackgroundImageFix" result="shape"/><feGaussianBlur result="effect1_foregroundBlur_1851_10241" stdDeviation="9.243"/></filter><filter id="c" width="547.993" height="618.236" x="269.978" y="214.276" color-interpolation-filters="sRGB" filterUnits="userSpaceOnUse"><feFlood flood-opacity="0" result="BackgroundImageFix"/><feBlend in="SourceGraphic" in2="BackgroundImageFix" result="shape"/><feGaussianBlur result="effect1_foregroundBlur_1851_10241" stdDeviation="9.243"/></filter><filter id="e" width="51.762" height="95.995" x="46.908" y="828.309" color-interpolation-filters="sRGB" filterUnits="userSpaceOnUse"><feFlood flood-opacity="0" result="BackgroundImageFix"/><feColorMatrix in="SourceAlpha" result="hardAlpha" values="0 0 0 0 0 0 0 0 0 0 0 0 0 0 0 0 0 0 127 0"/><feOffset dy="7.395"/><feGaussianBlur stdDeviation="5.546"/><feComposite in2="hardAlpha" operator="out"/><feColorMatrix values="0 0 0 0 0.276261 0 0 0 0 0.250174 0 0 0 0 0.545833 0 0 0 0.6 0"/><feBlend in2="BackgroundImageFix" result="effect1_dropShadow_1851_10241"/><feBlend in="SourceGraphic" in2="effect1_dropShadow_1851_10241" result="shape"/></filter><filter id="f" width="105.059" height="162.695" x="92.502" y="1001.82" color-interpolation-filters="sRGB" filterUnits="userSpaceOnUse"><feFlood flood-opacity="0" result="BackgroundImageFix"/><feColorMatrix in="SourceAlpha" result="hardAlpha" values="0 0 0 0 0 0 0 0 0 0 0 0 0 0 0 0 0 0 127 0"/><feOffset dy="7.395"/><feGaussianBlur stdDeviation="5.546"/><feComposite in2="hardAlpha" operator="out"/><feColorMatrix values="0 0 0 0 0.276261 0 0 0 0 0.250174 0 0 0 0 0.545833 0 0 0 0.6 0"/><feBlend in2="BackgroundImageFix" result="effect1_dropShadow_1851_10241"/><feBlend in="SourceGraphic" in2="effect1_dropShadow_1851_10241" result="shape"/></filter><filter id="g" width="317.43" height="626.634" x="114.006" y="588.024" color-interpolation-filters="sRGB" filterUnits="userSpaceOnUse"><feFlood flood-opacity="0" result="BackgroundImageFix"/><feColorMatrix in="SourceAlpha" result="hardAlpha" values="0 0 0 0 0 0 0 0 0 0 0 0 0 0 0 0 0 0 127 0"/><feOffset dy="7.395"/><feGaussianBlur stdDeviation="5.546"/><feComposite in2="hardAlpha" operator="out"/><feColorMatrix values="0 0 0 0 0.276261 0 0 0 0 0.250174 0 0 0 0 0.545833 0 0 0 0.6 0"/><feBlend in2="BackgroundImageFix" result="effect1_dropShadow_1851_10241"/><feBlend in="SourceGraphic" in2="effect1_dropShadow_1851_10241" result="shape"/></filter><filter id="h" width="297.747" height="512.087" x="333.345" y="733.759" color-interpolation-filters="sRGB" filterUnits="userSpaceOnUse"><feFlood flood-opacity="0" result="BackgroundImageFix"/><feColorMatrix in="SourceAlpha" result="hardAlpha" values="0 0 0 0 0 0 0 0 0 0 0 0 0 0 0 0 0 0 127 0"/><feOffset dy="7.395"/><feGaussianBlur stdDeviation="5.546"/><feComposite in2="hardAlpha" operator="out"/><feColorMatrix values="0 0 0 0 0.276261 0 0 0 0 0.250174 0 0 0 0 0.545833 0 0 0 0.6 0"/><feBlend in2="BackgroundImageFix" result="effect1_dropShadow_1851_10241"/><feBlend in="SourceGraphic" in2="effect1_dropShadow_1851_10241" result="shape"/></filter><filter id="i" width="277.403" height="489.903" x="514.529" y="794.765" color-interpolation-filters="sRGB" filterUnits="userSpaceOnUse"><feFlood flood-opacity="0" result="BackgroundImageFix"/><feColorMatrix in="SourceAlpha" result="hardAlpha" values="0 0 0 0 0 0 0 0 0 0 0 0 0 0 0 0 0 0 127 0"/><feOffset dy="7.395"/><feGaussianBlur stdDeviation="5.546"/><feComposite in2="hardAlpha" operator="out"/><feColorMatrix values="0 0 0 0 0.276261 0 0 0 0 0.250174 0 0 0 0 0.545833 0 0 0 0.6 0"/><feBlend in2="BackgroundImageFix" result="effect1_dropShadow_1851_10241"/><feBlend in="SourceGraphic" in2="effect1_dropShadow_1851_10241" result="shape"/></filter><filter id="j" width="317.973" height="478.937" x="738.318" y="822.495" color-interpolation-filters="sRGB" filterUnits="userSpaceOnUse"><feFlood flood-opacity="0" result="BackgroundImageFix"/><feColorMatrix in="SourceAlpha" result="hardAlpha" values="0 0 0 0 0 0 0 0 0 0 0 0 0 0 0 0 0 0 127 0"/><feOffset dy="7.395"/><feGaussianBlur stdDeviation="5.546"/><feComposite in2="hardAlpha" operator="out"/><feColorMatrix values="0 0 0 0 0.276261 0 0 0 0 0.250174 0 0 0 0 0.545833 0 0 0 0.6 0"/><feBlend in2="BackgroundImageFix" result="effect1_dropShadow_1851_10241"/><feBlend in="SourceGraphic" in2="effect1_dropShadow_1851_10241" result="shape"/></filter><filter id="k" width="140.38" height="109.076" x="431.64" y="428.721" color-interpolation-filters="sRGB" filterUnits="userSpaceOnUse"><feFlood flood-opacity="0" result="BackgroundImageFix"/><feBlend in="SourceGraphic" in2="BackgroundImageFix" result="shape"/><feGaussianBlur result="effect1_foregroundBlur_1851_10241" stdDeviation="7.395"/></filter><filter id="l" width="178.415" height="117.42" x="479.812" y="624.505" color-interpolation-filters="sRGB" filterUnits="userSpaceOnUse"><feFlood flood-opacity="0" result="BackgroundImageFix"/><feBlend in="SourceGraphic" in2="BackgroundImageFix" result="shape"/><feGaussianBlur result="effect1_foregroundBlur_1851_10241" stdDeviation="7.395"/></filter><filter id="m" width="574.419" height="603.87" x="893.361" y="973.617" color-interpolation-filters="sRGB" filterUnits="userSpaceOnUse"><feFlood flood-opacity="0" result="BackgroundImageFix"/><feColorMatrix in="SourceAlpha" result="hardAlpha" values="0 0 0 0 0 0 0 0 0 0 0 0 0 0 0 0 0 0 127 0"/><feOffset dy="7.395"/><feGaussianBlur stdDeviation="5.546"/><feComposite in2="hardAlpha" operator="out"/><feColorMatrix values="0 0 0 0 0.276261 0 0 0 0 0.250174 0 0 0 0 0.545833 0 0 0 0.6 0"/><feBlend in2="BackgroundImageFix" result="effect1_dropShadow_1851_10241"/><feBlend in="SourceGraphic" in2="effect1_dropShadow_1851_10241" result="shape"/></filter><filter id="n" width="605.419" height="737.628" x="1242.85" y="681.996" color-interpolation-filters="sRGB" filterUnits="userSpaceOnUse"><feFlood flood-opacity="0" result="BackgroundImageFix"/><feBlend in="SourceGraphic" in2="BackgroundImageFix" result="shape"/><feGaussianBlur result="effect1_foregroundBlur_1851_10241" stdDeviation="9.243"/></filter><filter id="o" width="327.587" height="353.1" x="1538.43" y="743.002" color-interpolation-filters="sRGB" filterUnits="userSpaceOnUse"><feFlood flood-opacity="0" result="BackgroundImageFix"/><feColorMatrix in="SourceAlpha" result="hardAlpha" values="0 0 0 0 0 0 0 0 0 0 0 0 0 0 0 0 0 0 127 0"/><feOffset dy="7.395"/><feGaussianBlur stdDeviation="5.546"/><feComposite in2="hardAlpha" operator="out"/><feColorMatrix values="0 0 0 0 0.276261 0 0 0 0 0.250174 0 0 0 0 0.545833 0 0 0 0.6 0"/><feBlend in2="BackgroundImageFix" result="effect1_dropShadow_1851_10241"/><feBlend in="SourceGraphic" in2="effect1_dropShadow_1851_10241" result="shape"/></filter><filter id="p" width="150.829" height="146.093" x="1595.3" y="1229.21" color-interpolation-filters="sRGB" filterUnits="userSpaceOnUse"><feFlood flood-opacity="0" result="BackgroundImageFix"/><feColorMatrix in="SourceAlpha" result="hardAlpha" values="0 0 0 0 0 0 0 0 0 0 0 0 0 0 0 0 0 0 127 0"/><feOffset dy="7.395"/><feGaussianBlur stdDeviation="5.546"/><feComposite in2="hardAlpha" operator="out"/><feColorMatrix values="0 0 0 0 0.276261 0 0 0 0 0.250174 0 0 0 0 0.545833 0 0 0 0.6 0"/><feBlend in2="BackgroundImageFix" result="effect1_dropShadow_1851_10241"/><feBlend in="SourceGraphic" in2="effect1_dropShadow_1851_10241" result="shape"/></filter><filter id="q" width="78.571" height="44.788" x="1708.15" y="1260.43" color-interpolation-filters="sRGB" filterUnits="userSpaceOnUse"><feFlood flood-opacity="0" result="BackgroundImageFix"/><feColorMatrix in="SourceAlpha" result="hardAlpha" values="0 0 0 0 0 0 0 0 0 0 0 0 0 0 0 0 0 0 127 0"/><feOffset dy="7.395"/><feGaussianBlur stdDeviation="5.546"/><feComposite in2="hardAlpha" operator="out"/><feColorMatrix values="0 0 0 0 0.276261 0 0 0 0 0.250174 0 0 0 0 0.545833 0 0 0 0.6 0"/><feBlend in2="BackgroundImageFix" result="effect1_dropShadow_1851_10241"/><feBlend in="SourceGraphic" in2="effect1_dropShadow_1851_10241" result="shape"/></filter><filter id="r" width="139.817" height="137.536" x="1685.59" y="1284.49" color-interpolation-filters="sRGB" filterUnits="userSpaceOnUse"><feFlood flood-opacity="0" result="BackgroundImageFix"/><feColorMatrix in="SourceAlpha" result="hardAlpha" values="0 0 0 0 0 0 0 0 0 0 0 0 0 0 0 0 0 0 127 0"/><feOffset dy="7.395"/><feGaussianBlur stdDeviation="5.546"/><feComposite in2="hardAlpha" operator="out"/><feColorMatrix values="0 0 0 0 0.276261 0 0 0 0 0.250174 0 0 0 0 0.545833 0 0 0 0.6 0"/><feBlend in2="BackgroundImageFix" result="effect1_dropShadow_1851_10241"/><feBlend in="SourceGraphic" in2="effect1_dropShadow_1851_10241" result="shape"/></filter><filter id="s" width="59.364" height="78.63" x="1793.92" y="1228.34" color-interpolation-filters="sRGB" filterUnits="userSpaceOnUse"><feFlood flood-opacity="0" result="BackgroundImageFix"/><feColorMatrix in="SourceAlpha" result="hardAlpha" values="0 0 0 0 0 0 0 0 0 0 0 0 0 0 0 0 0 0 127 0"/><feOffset dy="7.395"/><feGaussianBlur stdDeviation="5.546"/><feComposite in2="hardAlpha" operator="out"/><feColorMatrix values="0 0 0 0 0.276261 0 0 0 0 0.250174 0 0 0 0 0.545833 0 0 0 0.6 0"/><feBlend in2="BackgroundImageFix" result="effect1_dropShadow_1851_10241"/><feBlend in="SourceGraphic" in2="effect1_dropShadow_1851_10241" result="shape"/></filter><filter id="t" width="102.15" height="56.6" x="1667.76" y="1127.04" color-interpolation-filters="sRGB" filterUnits="userSpaceOnUse"><feFlood flood-opacity="0" result="BackgroundImageFix"/><feBlend in="SourceGraphic" in2="BackgroundImageFix" result="shape"/><feGaussianBlur result="effect1_foregroundBlur_1851_10241" stdDeviation="9.243"/></filter><filter id="u" width="196.676" height="205.761" x="1817.42" y="1003.52" color-interpolation-filters="sRGB" filterUnits="userSpaceOnUse"><feFlood flood-opacity="0" result="BackgroundImageFix"/><feColorMatrix in="SourceAlpha" result="hardAlpha" values="0 0 0 0 0 0 0 0 0 0 0 0 0 0 0 0 0 0 127 0"/><feOffset dy="7.395"/><feGaussianBlur stdDeviation="5.546"/><feComposite in2="hardAlpha" operator="out"/><feColorMatrix values="0 0 0 0 0.276261 0 0 0 0 0.250174 0 0 0 0 0.545833 0 0 0 0.6 0"/><feBlend in2="BackgroundImageFix" result="effect1_dropShadow_1851_10241"/><feBlend in="SourceGraphic" in2="effect1_dropShadow_1851_10241" result="shape"/></filter><filter id="v" width="704.892" height="565.7" x="531.263" y="284.527" color-interpolation-filters="sRGB" filterUnits="userSpaceOnUse"><feFlood flood-opacity="0" result="BackgroundImageFix"/><feBlend in="SourceGraphic" in2="BackgroundImageFix" result="shape"/><feGaussianBlur result="effect1_foregroundBlur_1851_10241" stdDeviation="9.243"/></filter><filter id="z" width="94.568" height="91.845" x="865.892" y="386.204" color-interpolation-filters="sRGB" filterUnits="userSpaceOnUse"><feFlood flood-opacity="0" result="BackgroundImageFix"/><feBlend in="SourceGraphic" in2="BackgroundImageFix" result="shape"/><feGaussianBlur result="effect1_foregroundBlur_1851_10241" stdDeviation="9.243"/></filter><filter id="A" width="286.548" height="280" x="595.97" y="176.085" color-interpolation-filters="sRGB" filterUnits="userSpaceOnUse"><feFlood flood-opacity="0" result="BackgroundImageFix"/><feBlend in="SourceGraphic" in2="BackgroundImageFix" result="shape"/><feGaussianBlur result="effect1_foregroundBlur_1851_10241" stdDeviation="9.243"/></filter><filter id="D" width="525.029" height="521.193" x="1011.92" y="199.487" color-interpolation-filters="sRGB" filterUnits="userSpaceOnUse"><feFlood flood-opacity="0" result="BackgroundImageFix"/><feBlend in="SourceGraphic" in2="BackgroundImageFix" result="shape"/><feGaussianBlur result="effect1_foregroundBlur_1851_10241" stdDeviation="9.243"/></filter><filter id="F" width="69.786" height="86.96" x="1228.86" y="432.422" color-interpolation-filters="sRGB" filterUnits="userSpaceOnUse"><feFlood flood-opacity="0" result="BackgroundImageFix"/><feBlend in="SourceGraphic" in2="BackgroundImageFix" result="shape"/><feGaussianBlur result="effect1_foregroundBlur_1851_10241" stdDeviation="9.243"/></filter><linearGradient id="b" x1="207.489" x2="205.894" y1="181" y2="308.56" gradientUnits="userSpaceOnUse"><stop stop-color="#D8C8AE" stop-opacity="0"/><stop offset="1" stop-color="#EFE2CB"/></linearGradient><linearGradient id="d" x1="543.975" x2="542.357" y1="232.763" y2="328.895" gradientUnits="userSpaceOnUse"><stop stop-color="#D8C8AE" stop-opacity="0"/><stop offset=".927" stop-color="#EFE2CB" stop-opacity=".927"/></linearGradient><linearGradient id="w" x1="883.709" x2="883.709" y1="303.014" y2="831.739" gradientUnits="userSpaceOnUse"><stop stop-color="#D8C8AE" stop-opacity="0"/><stop offset=".219" stop-color="#EFE2CB"/></linearGradient><linearGradient id="x" x1="883.709" x2="883.709" y1="303.014" y2="831.739" gradientUnits="userSpaceOnUse"><stop stop-color="#D8C8AE" stop-opacity="0"/><stop offset=".219" stop-color="#EFE2CB"/></linearGradient><linearGradient id="y" x1="883.709" x2="883.709" y1="303.014" y2="831.739" gradientUnits="userSpaceOnUse"><stop stop-color="#D8C8AE" stop-opacity="0"/><stop offset=".219" stop-color="#EFE2CB"/></linearGradient><linearGradient id="B" x1="739.244" x2="717.984" y1="194.572" y2="665.357" gradientUnits="userSpaceOnUse"><stop stop-color="#fff" stop-opacity="0"/><stop offset=".552" stop-color="#EFE2CB"/></linearGradient><linearGradient id="C" x1="681.794" x2="695.797" y1="186.34" y2="537.797" gradientUnits="userSpaceOnUse"><stop stop-color="#fff" stop-opacity="0"/><stop offset="1" stop-color="#EFE2CB"/></linearGradient><linearGradient id="E" x1="1211.58" x2="1218.98" y1="245.704" y2="428.725" gradientUnits="userSpaceOnUse"><stop stop-color="#D8D8D8" stop-opacity="0"/><stop offset="1" stop-color="#EFE2CB"/></linearGradient></defs></svg>