<svg xmlns="http://www.w3.org/2000/svg" width="367" height="427" fill="none"><g filter="url(#a)"><g clip-path="url(#b)"><path fill="#C8C2E1" d="M320.954 36.708 18.262 57.874l21.166 302.693 302.693-21.166-21.167-302.693Z"/><g opacity=".8"><path fill="#231E53" d="M4.08 40.841c.927-1.13.948-2.882.048-4.069-.497-.655-1.213-1.119-1.934-1.534a25.797 25.797 0 0 0-3.113-1.52c-.613-.25-1.436-.43-1.83.073-.537.685.365 1.549.943 2.225.743.868 1 2.011 1.378 3.073.378 1.061.996 2.17 2.077 2.577 1.082.408 1.982-.267 2.43-.825ZM37.014 57.219c-.214-.045-.436.01-.648.069-1.372.377-2.715.86-4.011 1.448-.49.221-.984.465-1.36.85-.907.923-.909 2.376-.854 3.669l.245 5.7c.03.704.065 1.426.346 2.072.28.645.868 1.207 1.572 1.247.766.043 1.416-.51 2.053-.94 1.118-.753 2.42-1.197 3.549-1.936 1.477-.969 2.627-2.472 3.035-4.191.583-2.462-.963-7.369-3.927-7.988ZM45.146 93.673a10.587 10.587 0 0 1-3.05 6.974c-.294.294-.613.583-.77.967-.159.384-.094.899.263 1.111.208.124.465.121.707.115 2.768-.073 5.623-.165 8.146-1.307 1.549-.701 2.908-1.776 4.087-3 .647-.672 1.25-1.4 1.67-2.234 1.709-3.399-.3-8.11-4.08-8.966-1.508-.34-4.273-.283-5.529.647-1.763 1.306-1.366 3.777-1.444 5.693ZM97.414 63.109c-.517.529-1.013 1.091-1.356 1.746-.682 1.297-.712 2.833-.624 4.296.086 1.423.268 2.84.546 4.239.054.274.135.58.377.719.189.108.423.083.64.053 3.9-.524 8.082-1.179 10.929-3.897.542-.517 1.041-1.144 1.141-1.887.048-.362-.001-.73-.051-1.091l-1.137-8.246c-.416-3.008-2.273-1.285-3.973-.503a21.887 21.887 0 0 0-6.492 4.57ZM48.65 37.626c.543.874.555 2.172-.255 2.807-.353.276-.803.39-1.239.496-2.29.554-4.61 1.075-6.965 1.091-2.356.017-4.777-.507-6.692-1.876 2.125-2.22 3.834-5.14 6.752-6.102 3.029-1 6.767.962 8.398 3.584ZM52.885 66.694a11.504 11.504 0 0 1 3.248 7.274c.068 1.082-.124 2.352-1.064 2.894-1.048-1.825-2.116-3.675-3.613-5.155-2.19-2.164-5.184-3.4-7.147-5.81-2.843-3.489 2.678-2.557 4.533-1.843a11.46 11.46 0 0 1 4.043 2.64ZM58.639 35.79c1.022-.49 2.078-.99 3.211-1.051 1.374-.074 2.694.507 3.91 1.153a32.22 32.22 0 0 1 5.103 3.371c.37.298.747.625.912 1.069.429 1.155-.74 2.236-1.765 2.92l-3.686 2.459c-.547.365-1.108.736-1.747.897-1.148.288-2.344-.147-3.417-.644a27.686 27.686 0 0 1-6.333-4.056c-.72-.615-1.45-1.343-1.581-2.28-.283-2.035 4.037-3.187 5.393-3.837ZM60.87 50.325c-1.237.555-2.223 1.704-2.453 3.04-.11.63-.055 1.276.02 1.911.294 2.48.9 4.922 1.8 7.25.27.695.769 1.508 1.508 1.413.379-.048.678-.334.946-.605l3.129-3.15c1.02-1.026 2.078-2.12 2.45-3.517.353-1.323.022-2.77-.698-3.935-1.453-2.348-4.043-3.6-6.702-2.407ZM66.994 131.658c2.061.859 4.35 1.73 6.466 1.018 1.295-.435 2.344-1.427 3.1-2.565.756-1.137 1.252-2.425 1.741-3.7.213-.555.42-1.208.11-1.716-.43-.709-1.46-.593-2.288-.654-1.533-.115-2.907-1.136-4.444-1.151-.76-.007-1.502.236-2.195.548-3.387 1.527-7.879 5.974-2.49 8.22Z" opacity=".8"/><path fill="#3429A1" d="M85.28 92.065c2.83.982 4.815 3.984 4.613 6.972-.112 1.648-.81 3.196-1.57 4.664a49.49 49.49 0 0 1-3.576 5.87c-.76 1.071-1.953 2.239-3.183 1.781-1.672-.622-1.105-3.053-.879-4.822.29-2.272-.546-4.514-1.087-6.74-.54-2.225-.728-4.781.648-6.612 1.377-1.832 3.654-1.607 5.035-1.113ZM65.052 50.78c-.019-.03-.025-.04-.02-.096.007-.365.176-1.066 1.111-.766.017.006.089.04.112.065.466.68.862 1.402 1.258 2.124 2.156 4.214 3.081 9.094 2.365 13.803-.066.456-.132.911-.244 1.358l-.108.365c-.07.228-.157.55-.307.904-.144.355-.29.761-.477 1.154-.196.39-.398.779-.588 1.124-1.394 2.28-1.208 1.138-.718-.354-.06.065.266-.828.471-1.768.108-.47.223-.939.266-1.302l.095-.601c.092-.358.128-.725.187-1.089.67-4.394-.199-8.978-2.223-12.931-.372-.676-.743-1.353-1.18-1.99ZM49.204 108.162a42.778 42.778 0 0 0 1.043 7.387c.07.304.167.639.438.794.283.162.638.058.945-.052a44.437 44.437 0 0 0 8.132-3.892c1.107-.676 2.274-1.528 2.54-2.796.647-3.088-1.973-8.728-5.479-8.915-4.21-.225-7.831 3.466-7.62 7.474Z" opacity=".8"/><path fill="#3429A1" d="M53.921 84.314c-.037-.006-.05-.009-.093-.052-.32-.269-.601-.865.222-1.331a.362.362 0 0 1 .114-.039c.733.127 1.521.174 2.343.276 1.01.109 2.12.38 3.073.92a7.957 7.957 0 0 1 2.439 2.112c1.306 1.703 2.012 3.771 2.163 5.859.17 2.11-.322 4.208-1.092 6.092-.387.951-.857 1.858-1.367 2.731l-.228.383-.189.306-.388.607s-.335.451-.82 1.029a27.968 27.968 0 0 1-1.673 1.827c-1.842 1.885-1.45.858-.603-.524-.065.057.469-.75.987-1.581.525-.828 1.007-1.692 1.007-1.692l.36-.572c.128-.208.187-.298.473-.801a19.8 19.8 0 0 0 1.213-2.526c.683-1.734 1.054-3.554.867-5.357-.161-1.8-.797-3.585-1.902-4.968a6.502 6.502 0 0 0-1.978-1.68c-.76-.418-1.588-.632-2.519-.736-.761-.094-1.569-.14-2.409-.282ZM5.885 54.573c-.035.019-.048.026-.11.02-.445.005-.982-.297-.653-1.182a.344.344 0 0 1 .058-.098 4.592 4.592 0 0 0 1.546-1.374c2.07-2.745 1.528-7.478-1.629-9.11-1.5-.92-3.367-1.117-5.194-.997-.92.076-1.842.23-2.76.434l-.74.183-.663.18-1.242.269-2.38.541c-2.56.596-1.687-.057-.222-.767-.086.016.799-.385 1.73-.762.927-.384 1.908-.715 1.908-.715.226-.065.454-.128.685-.182.25-.056.358-.101.947-.222.957-.213 1.94-.352 2.936-.409 1.978-.133 4.117.201 5.91 1.309.871.549 1.688 1.305 2.249 2.21.576.898.908 1.922 1.05 2.951.285 2.056-.155 4.23-1.426 5.946a6.03 6.03 0 0 1-2 1.775ZM101.479 69.82c-2.044.974-2.417 4.031-1.061 5.843 1.357 1.813 3.866 2.446 6.11 2.146 2.244-.3 4.299-1.376 6.3-2.435 1.28-.677 2.595-1.382 3.507-2.505.913-1.123 2.435-2.702 1.711-3.955-.533-.923-2.667-1.529-3.677-1.87-4.501-1.529-9.591-.646-12.89 2.776ZM68.38 68.269c-.215-.045-.437.01-.648.07-1.373.376-2.716.86-4.012 1.447-.49.222-.984.465-1.36.85-.907.924-.909 2.377-.853 3.67l.245 5.7c.03.703.064 1.425.345 2.071.281.646.868 1.208 1.572 1.247.767.043 1.416-.51 2.053-.939 1.118-.754 2.42-1.197 3.549-1.937 1.477-.968 2.627-2.472 3.034-4.19.585-2.463-.961-7.37-3.926-7.989ZM67.724 149.472a10.589 10.589 0 0 1-3.051 6.974c-.294.293-.613.582-.77.967-.158.383-.094.898.263 1.111.208.124.465.121.707.114 2.768-.072 5.623-.164 8.146-1.306 1.55-.702 2.908-1.776 4.087-3 .647-.672 1.25-1.401 1.67-2.235 1.71-3.398-.3-8.11-4.08-8.965-1.508-.341-4.273-.283-5.529.647-1.764 1.305-1.366 3.776-1.444 5.693ZM32.947 76.364c-.878 1.193-.46 2.85-.131 4.295.693 3.05.805 6.23.329 9.32a36.352 36.352 0 0 0 5.714-3.204c1.69-1.16 3.314-2.5 4.367-4.258 1.052-1.757 1.458-4.004.638-5.881-1.614-3.693-8.734-3.238-10.917-.272Z" opacity=".8"/><path fill="#3429A1" d="M34.521 55.539c-.026-.021-.035-.03-.048-.084-.102-.347-.18-1.08.8-1.089.019 0 .097.01.128.028l.975.787.883.888c1.18 1.27 2.22 2.688 2.961 4.255.763 1.55 1.352 3.194 1.658 4.894.336 1.692.465 3.43.32 5.154-.023.866-.211 1.716-.342 2.571l-.39 1.477s-.031.14-.14.356l-.407.873-.264.548-.344.552c-.242.367-.464.744-.715 1.053-1.711 2.07-1.36.942-.662-.445l.68-1.682.384-1.264a2.7 2.7 0 0 0 .106-.423l.032-.164.17-.64c.047-.23.122-.356.188-.819l.19-1.162c.06-.388.06-.783.095-1.174.035-.392.052-.785.029-1.178-.014-.393-.01-.787-.036-1.18-.096-.78-.15-1.569-.34-2.334-.129-.779-.389-1.524-.61-2.279-.13-.37-.29-.73-.434-1.096a7.667 7.667 0 0 0-.495-1.067c-.678-1.418-1.618-2.695-2.68-3.834l-.804-.81-.888-.712Z" opacity=".8"/><g opacity=".8"><path fill="#3429A1" d="M47.725 138.292c-1.405.5-2.725 1.4-3.424 2.717-.63 1.187-.7 2.58-.757 3.923l-.257 6.03c-.031.731.047 1.644.726 1.917l3.02-1.234c2.646-1.08 5.374-2.216 7.356-4.276.74-.769 1.382-1.72 1.428-2.787.066-1.552-.993-4.511-1.898-5.832-1.367-1.998-4.124-1.194-6.194-.458ZM41.69 129.668c-4.481-.606-8.182-3.69-11.523-6.738-.163-.148-.333-.308-.396-.519-.185-.614.683-1.082 1.291-.875.608.206 1.02.759 1.538 1.139.948.695 2.205.778 3.38.757 4.268-.076 11.08-2.074 14.785.899 5.23 4.195-6.7 5.658-9.075 5.337Z" opacity=".8"/><g opacity=".8"><path fill="#3429A1" d="M65.39 107.317c-.02-.025-.026-.035-.024-.09-.003-.339.085-1.082 1.06-.835a.473.473 0 0 1 .121.061 9.946 9.946 0 0 1 1.258 2.241c1.199 3.009 1.058 6.333.129 9.314-.952 2.992-2.643 5.624-4.454 8.048-1.834 2.42-3.73 4.722-5.592 7.081l-3.785 4.747s-1.484 1.625-2.615 2.691c-1.868 1.851-1.467.836-.592-.537-.13.113 2.2-3.198 2.2-3.198l3.949-4.954c1.824-2.313 3.715-4.601 5.46-6.932 1.73-2.332 3.268-4.812 4.098-7.517.81-2.677.89-5.648-.134-8.201a8.563 8.563 0 0 0-1.079-1.919Z" opacity=".8"/><path fill="#3429A1" d="M62.241 124.809c.03-.015.04-.021.097-.011.359.043 1.041.276.65 1.183a.428.428 0 0 1-.076.107 21.4 21.4 0 0 1-2.257 1.02 21.933 21.933 0 0 1-5.788 1.322c-.459.028-.917.071-1.377.072 0 0-.57-.015-1.33-.109-.76-.092-1.708-.27-2.461-.51-1.286-.373-1.616-.648-1.453-.742.168-.115.831-.066 1.627-.037-.08-.029.866.064 1.829.052.963.005 1.936-.095 1.936-.095.368-.003.735-.044 1.103-.064a20.435 20.435 0 0 0 5.4-1.237c.715-.285 1.424-.586 2.1-.951Z" opacity=".8"/></g></g><path fill="#3429A1" d="M25.101 47.935c-.028-.02-.038-.027-.056-.083-.137-.35-.218-1.051.756-1.118a.386.386 0 0 1 .126.018l1.815 1.301.726.56c.733.57 1.493 1.134 2.224 1.76.741.614 1.498 1.232 2.229 1.903a53.98 53.98 0 0 1 2.218 2.044c2.941 2.822 5.838 6.008 8.497 9.556a80.343 80.343 0 0 1 7.233 11.554c1.036 2.076 2.031 4.198 2.901 6.373.877 2.17 1.683 4.366 2.503 6.544 1.644 4.344 3.37 8.656 5.846 12.412 2.446 3.769 5.69 6.912 8.51 10.292 2.839 3.376 5.205 6.998 6.821 10.748 1.601 3.748 2.443 7.624 2.344 11.222a23.2 23.2 0 0 1-.665 5.101c-.091.399-.199.789-.325 1.169-.112.384-.234.759-.379 1.12-.136.365-.267.725-.43 1.068l-.077.172c-.112.243-.199.458-.288.628l-.28.532s-.286.496-.755 1.107c-.454.622-1.1 1.346-1.696 1.87-.998.9-1.4 1.037-1.394.847-.013-.208.385-.739.818-1.402-.063.054.497-.705.977-1.534.23-.419.456-.846.618-1.169l.247-.554.25-.488a31.072 31.072 0 0 0 .186-.414l.035-.08.155-.346c.072-.148.122-.308.183-.464.98-2.496 1.546-5.561 1.356-8.887-.192-3.316-1.161-6.885-2.855-10.346-1.684-3.475-4.054-6.844-6.86-10.042-2.785-3.217-5.99-6.432-8.369-10.419-2.402-3.941-4.071-8.3-5.685-12.602-1.601-4.316-3.233-8.573-5.363-12.537-2.097-3.973-4.489-7.717-7.102-11.12a79.172 79.172 0 0 0-8.294-9.193 76.718 76.718 0 0 0-4.326-3.798c-.712-.6-1.456-1.137-2.162-1.694l-.458-.351a949.21 949.21 0 0 0-1.755-1.26ZM16.743 51.087c-.033.013-.045.018-.1.003-.38-.064-.961-.39-.486-1.258a.393.393 0 0 1 .081-.097l1.991-.819c.037-.013.07-.035.107-.053l.708-.38c.834-.446 1.697-.878 2.49-1.458l1.232-.824c.395-.302.777-.629 1.171-.945.385-.328.805-.622 1.17-.984l1.107-1.085c.778-.696 1.4-1.559 2.114-2.35.669-.832 1.28-1.728 1.905-2.62 1.136-1.862 2.24-3.815 3.003-5.952.852-2.101 1.38-4.355 1.752-6.645.103-1.156.302-2.315.263-3.49-.002-.586.034-1.175.001-1.762l-.153-1.762c-.025-.593-.147-1.172-.261-1.753-.119-.58-.203-1.168-.349-1.745l-.51-1.719c-.165-.575-.332-1.15-.577-1.7-.446-1.114-.868-2.242-1.448-3.305-.276-.536-.528-1.085-.824-1.612l-.929-1.56c-2.507-4.153-5.684-7.887-8.876-11.496-3.198-3.61-6.448-7.104-9.346-10.724-.727-.903-1.406-1.835-2.101-2.738l-1.929-2.793-1.717-2.851a71.004 71.004 0 0 1-1.497-2.866c-1.87-3.783-3.564-7.361-5.905-10.05a15.192 15.192 0 0 0-3.843-3.209c-.693-.39-1.387-.744-2.094-.99-.347-.148-.705-.23-1.05-.34l-.126-.037-.044-.01-.61-.128a2.644 2.644 0 0 0-.394-.068l-.14-.017s-.5-.125-1.193-.189c-.347-.053-.739-.034-1.143-.055-.394.037-.812.02-1.174.093-.629.081-1.028.206-1.283.224-.255.023-.346-.012-.315-.104.07-.159.625-.613 1.435-.904-.094.011.877-.36 1.933-.453 1.051-.127 2.132-.013 2.132-.013s.22.026.597.112l.313.067.178.037.093.023.975.294c1.467.51 2.927 1.294 4.303 2.334 1.385 1.028 2.632 2.393 3.722 3.892 2.213 3.017 3.79 6.69 5.677 10.335 1.91 3.626 4.385 7.186 7.264 10.654 2.862 3.48 6.064 6.898 9.222 10.492 3.146 3.599 6.253 7.412 8.732 11.68 2.496 4.24 4.248 9.02 4.612 13.938.438 4.905-.543 9.764-2.28 14.084-1.724 4.348-4.393 8.118-7.456 11.126-.39.37-.756.762-1.158 1.107l-1.227 1c-.786.695-1.678 1.226-2.515 1.8l-.633.42-.663.357-1.311.703-.438.234a.768.768 0 0 1-.111.052c-1.208.494-2.03.833-2.074.852ZM84.743 36.753a13.12 13.12 0 0 1 6.404 6.443c.51 1.127.819 2.559.036 3.516-1.857-1.523-3.742-3.064-5.937-4.035-3.21-1.422-6.9-1.529-9.968-3.305-4.441-2.571 1.823-3.81 4.089-3.798 1.847.009 3.696.406 5.376 1.18ZM36.01 45.965c-.035.008-.048.011-.1-.012-.362-.124-.909-.532-.313-1.313a.418.418 0 0 1 .096-.083c.762-.193 1.537-.341 2.29-.57 5.084-1.373 9.933-3.569 14.402-6.35a55.58 55.58 0 0 0 6.347-4.695c1.01-.845 1.96-1.758 2.906-2.672l1.062-1.094s.412-.354.938-.866l1.783-1.66c1.874-1.825 1.482-.836.584.546.067-.055-.489.752-1.118 1.532-.31.394-.617.799-.862 1.092l-.416.483-1.296 1.32-1.45 1.37-1.504 1.308a57.683 57.683 0 0 1-6.439 4.694c-4.517 2.799-9.423 4.987-14.558 6.383-.773.236-1.569.39-2.352.587Z" opacity=".8"/><path fill="#3429A1" d="M50.468 40.411c-.029.018-.04.024-.097.02-.369-.013-1.065-.197-.751-1.123a.388.388 0 0 1 .067-.11c.694-.432 1.384-.874 2.123-1.233 3.486-1.887 7.45-2.81 11.37-2.99 1.965-.078 3.926.009 5.869.202.967.12 1.937.226 2.895.388l.781.122.7.125 1.26.333c.718.214 1.622.482 2.35.758 2.49.865 1.392.949-.218.769.08.029-.878-.104-1.855-.235-.98-.12-1.972-.244-1.972-.244l-.676-.115-.922-.143c-.923-.153-1.851-.248-2.777-.352a37.817 37.817 0 0 0-5.56-.156 25.73 25.73 0 0 0-5.451.826c-.897.209-1.756.536-2.625.833-.84.37-1.698.704-2.5 1.157-.698.337-1.351.759-2.01 1.168ZM82.576 48.368c1.022-.491 2.079-.991 3.212-1.052 1.374-.074 2.694.507 3.909 1.153A32.214 32.214 0 0 1 94.8 51.84c.369.298.746.625.911 1.069.43 1.155-.739 2.236-1.764 2.92l-3.686 2.459c-.547.365-1.109.736-1.748.897-1.147.288-2.343-.147-3.417-.644a27.682 27.682 0 0 1-6.333-4.056c-.72-.614-1.45-1.343-1.58-2.28-.284-2.035 4.037-3.186 5.392-3.837ZM73.431 64.703c-1.236.555-2.222 1.704-2.453 3.04-.109.63-.055 1.276.02 1.911.294 2.48.9 4.922 1.8 7.25.27.695.77 1.507 1.509 1.413.378-.048.677-.335.946-.605l3.129-3.15c1.02-1.026 2.078-2.12 2.45-3.517.353-1.323.021-2.77-.699-3.935-1.453-2.348-4.043-3.6-6.702-2.407ZM71.28 88.755c-1.034.283-1.867 1.081-2.422 1.999-.555.918-.868 1.959-1.175 2.987l-1.224 4.09c-.239.798-.44 1.77.13 2.378.617.653 1.686.427 2.54.153l1.998-.642c1.386-.446 2.8-.905 3.972-1.771.6-.444 1.123-.985 1.616-1.546.453-.514.895-1.07 1.076-1.73.862-3.14-3.621-6.71-6.51-5.918ZM97.544 91.319c2.06.858 4.35 1.73 6.466 1.018 1.295-.435 2.344-1.428 3.1-2.565.756-1.137 1.252-2.425 1.741-3.7.213-.555.42-1.208.11-1.716-.431-.71-1.461-.593-2.289-.654-1.532-.115-2.906-1.136-4.443-1.151-.76-.007-1.502.236-2.196.548-3.386 1.527-7.878 5.974-2.49 8.22Z" opacity=".8"/><path fill="#3429A1" d="M84.158 73.91c.009-.033.011-.045.056-.08.273-.252.898-.59 1.318.297a.397.397 0 0 1 .029.125c-.186.79-.413 1.569-.64 2.348-1.407 4.566-3.546 8.907-6.349 12.778a24.68 24.68 0 0 1-.81 1.087s-1.485 1.677-2.71 2.659c-2.04 1.693-1.524.695-.554-.578-.073.047.534-.697 1.106-1.49.586-.782 1.133-1.614 1.133-1.614.139-.179.28-.358.409-.544l.455-.632c.38-.52.724-1.065 1.084-1.6.683-1.092 1.347-2.197 1.933-3.345 1.198-2.282 2.16-4.684 2.925-7.142.217-.753.436-1.505.615-2.269Z" opacity=".8"/><path fill="#3429A1" d="M81.57 81.947c-.026-.025-.035-.034-.045-.091-.102-.376-.059-1.052.915-.992.019 0 .093.014.121.033a25.795 25.795 0 0 0 1.76 1.529 29.226 29.226 0 0 0 8.531 4.715c.407.152.822.276 1.237.404 0 0 .5.195 1.188.435.687.244 1.564.522 2.297.754 2.513.665 1.481.853-.182.778.082.028-.9-.06-1.898-.23-.499-.082-.999-.193-1.378-.266l-.626-.152a18.2 18.2 0 0 1-1.114-.366 30.652 30.652 0 0 1-8.954-4.944 27.343 27.343 0 0 1-1.852-1.607ZM80.206 66.202c-.022-.029-.03-.039-.034-.097-.054-.387.085-1.041 1.047-.852.017.004.09.027.115.048l.736.892.803.833a22.907 22.907 0 0 0 8.028 5.192 22.41 22.41 0 0 0 4.642 1.273c.788.16 1.592.201 2.39.29l1.42.036s.132.024.355.026l.898.032c.725.057 1.637-.006 2.405.007 2.581-.211 1.686.297.082.797.09.013-.88.205-1.884.38l-1.404.154c-.386.045-.647.037-.647.037l-.714-.018c-.251-.016-.405.01-.9-.045-.837-.073-1.67-.158-2.494-.32A23.9 23.9 0 0 1 90.22 73.5a23.676 23.676 0 0 1-4.464-2.294c-1.42-.893-2.716-1.98-3.908-3.16l-.857-.89-.786-.954Z" opacity=".8"/><path fill="#3429A1" d="M-38.593 97.22c-.02.029-.028.039-.082.057-.349.146-1.042.226-1.123-.75a.402.402 0 0 1 .017-.126l1.259-1.82 3.462-4.962c1.832-2.579 3.732-5.237 5.762-7.912 4.052-5.352 8.511-10.872 13.71-16.041 2.558-2.622 2.577-1.866 5.506-4.24 1.512-1.129 1.126-.183 2.734-1.214.8-.52 1.566-1.096 2.398-1.575l2.478-1.47c6.688-3.88 14.195-6.293 21.644-8.34 7.45-1.997 14.948-4.209 22.662-4.728 7.702-.597 15.417 1.1 21.948 4.436 6.548 3.34 12.004 8.19 15.857 13.709 3.868 5.527 6.113 11.628 7.158 17.38.517 2.883.779 5.69.759 8.36.017.667-.035 1.325-.05 1.975-.01.65-.061 1.29-.124 1.918-.066.629-.087 1.253-.19 1.86l-.035.245-.096.668-.084.583s-.108.548-.33 1.271c-.212.724-.468 1.636-.788 2.356-.952 2.47-.992 1.346-.762-.24-.037.076.152-.864.26-1.838l.177-1.341.05-.619s.028-.202.08-.556l.041-.293.024-.166.013-.088.09-.629.074-.842c.243-2.26.266-4.688.108-7.232a43.076 43.076 0 0 0-1.228-7.924c-1.354-5.418-3.864-11.089-7.881-16.095-3.998-5.002-9.45-9.327-15.86-12.162-6.407-2.855-13.766-3.998-21.114-3.127-7.359.792-14.684 2.983-22.018 4.968-3.653 1.035-7.274 2.162-10.784 3.53a65.555 65.555 0 0 0-10.072 4.917c-6.427 3.761-7.377 3.254-12.383 8.316-4.995 5.094-9.334 10.505-13.293 15.762a333.69 333.69 0 0 0-5.636 7.781l-3.096 4.445c-.724 1.043-1.215 1.754-1.242 1.793Z" opacity=".8"/><path fill="#3429A1" d="M75.622 59.884c-.01-.033-.015-.044.004-.097.093-.346.422-.986 1.267-.464a.41.41 0 0 1 .094.092c.27.784.486 1.585.652 2.397.038.175.068.352.096.529.082.454.145.911.191 1.37 0 0 .031.572-.01 1.34a13.937 13.937 0 0 1-.341 2.495c-.294 1.308-.558 1.65-.66 1.494-.116-.16-.114-.826-.129-1.62-.022.081.006-.866-.07-1.823a19.23 19.23 0 0 0-.239-1.917 16.367 16.367 0 0 0-.158-1.09 17.832 17.832 0 0 0-.697-2.706ZM69.953 59.378c-.017.03-.022.042-.075.066-.33.188-1.005.348-1.203-.61a.414.414 0 0 1 0-.127c.37-.706.746-1.42 1.146-2.127.632-1.097 1.306-2.195 2.17-3.194.846-.999 1.91-1.908 3.217-2.437.474-.17.955-.32 1.44-.382 0 0 .609-.07 1.398.002.792.064 1.742.283 2.487.535 2.518.839 1.396.92-.195.776.08.035-.872-.094-1.81-.082a8.66 8.66 0 0 0-1.27.102 6.544 6.544 0 0 0-.556.116c-.341.057-.652.166-.966.272-1.006.41-1.898 1.144-2.652 2.038-.766.883-1.403 1.913-2.008 2.967-.385.68-.752 1.378-1.123 2.085Z" opacity=".8"/><path fill="#231E53" d="M53.18 132.047c-1.405.499-2.725 1.4-3.424 2.717-.63 1.187-.7 2.58-.757 3.922l-.257 6.031c-.031.731.047 1.643.726 1.917l3.02-1.234c2.646-1.081 5.375-2.216 7.356-4.276.74-.769 1.383-1.72 1.428-2.787.066-1.552-.993-4.511-1.897-5.833-1.368-1.997-4.126-1.193-6.195-.457Z" opacity=".8"/></g><path fill="#fff" stroke="#C8C2E1" stroke-miterlimit="10" stroke-width=".875" d="m210.277 101.891 114.114-7.98c-1.061-7.95-8.163-13.81-16.27-13.243a15.1 15.1 0 0 0-4.716 1.11c-1.783-4.04-5.864-6.771-10.467-6.679-.005-.505.004-1.026-.032-1.544-.866-12.39-11.612-21.731-24.017-20.864-9.951.696-17.939 7.794-20.236 16.99a12.929 12.929 0 0 0-1.546.016c-6.919.484-12.376 5.674-13.511 12.216l-.442.031.12 1.722a19.729 19.729 0 0 0-4.625-.228c-10.011.7-17.751 8.715-18.372 18.453Z"/><path fill="#FBF6EC" d="m262.673 130.256-2.419-3.67a5.355 5.355 0 0 0-4.621-2.406l-4.516.126 3.67-2.419a5.355 5.355 0 0 0 2.406-4.621l-.125-4.516 2.42 3.67a5.353 5.353 0 0 0 4.621 2.406l4.516-.125-3.671 2.419a5.36 5.36 0 0 0-2.406 4.622l.125 4.514ZM186.217 75.05l-2.474-1.11a3.3 3.3 0 0 0-3.2.276l-2.309 1.558 1.111-2.473a3.304 3.304 0 0 0-.277-3.2l-1.557-2.31 2.473 1.111a3.3 3.3 0 0 0 3.2-.276l2.309-1.558-1.11 2.473a3.301 3.301 0 0 0 .276 3.2l1.558 2.31ZM250.968 138.456l-2.117-.9a2.804 2.804 0 0 0-2.71.288l-1.932 1.36.9-2.116a2.806 2.806 0 0 0-.288-2.711l-1.36-1.932 2.116.9c.892.379 1.918.27 2.711-.288l1.932-1.36-.9 2.117a2.804 2.804 0 0 0 .288 2.71l1.36 1.932Z"/><path fill="#fff" stroke="#C8C2E1" stroke-miterlimit="10" stroke-width=".875" d="m24.07 195.24 49.764-3.48c-1.133-4.708-5.559-7.968-10.432-7.627-.765.053-1.54.202-2.3.439l-.347.108-.068-.973-.167.012-.069-.214a7.38 7.38 0 0 0-7.553-5.115c-.285.02-.534.052-.762.099l-.233.047-.09-.221a11.382 11.382 0 0 0-11.37-7.11c-6.283.439-11.038 5.904-10.599 12.182.016.222.046.44.076.655l.057.414-.29.035a5.52 5.52 0 0 0-4.667 3.991l-.076.268-.27-.068a8.206 8.206 0 0 0-1.077-.196l.472 6.754h.001Z"/></g><path stroke="#fff" stroke-width="17.593" d="m9.388 49.273 312.969-21.885 25.464 364.156-312.969 21.885z"/><path fill="#fff" d="M22 351.112 352.519 328l4.871 69.666a2 2 0 0 1-1.855 2.135L29.006 422.634a2 2 0 0 1-2.134-1.856L22 351.112Z"/><g clip-path="url(#c)"><path fill="#D2B687" d="M211.637 288.367c-1.39-2.628-2.46-5.511-4.553-7.622-1.768-1.784-4.116-2.857-6.129-4.36-1.786-1.356-7.441-6.298-7.259-8.789.176-2.408 7.26-4.328 9.248-5.234 1.141-.52 2.718-.942 3.458.072.51.698.269 1.684.529 2.509.594 1.89 3.16 1.97 5.049 2.569 2.094.663 3.702 2.312 5.218 3.902l9.366 9.82c.839.88 1.692 1.781 2.2 2.886 1.351 2.938 2.454 6.016 2.989 9.206.108.645.195 1.331-.06 1.933-.255.602-.979 1.054-1.575.784-.397-.181-.613-.606-.795-1.003a75.493 75.493 0 0 1-2.593-6.379c-.404-1.14-.789-2.306-1.473-3.303a6.429 6.429 0 0 0-3.195-2.426c.657 1.363 1.669 2.525 2.416 3.841.6 1.057 1.024 2.202 1.445 3.342l3.105 8.401c.361.976.722 1.953 1.004 2.956.164.584.301 1.194.21 1.794-.092.6-.459 1.193-1.033 1.391-.861.297-2.066-.19-2.338-1.06-1.602-5.14-3.892-11.771-6.889-16.957-.095-.165-.242-.348-.451-.111a74.904 74.904 0 0 1 5.902 17.303c.242 1.157.423 2.48-.292 3.422-.258.339-.706.611-1.1.448-.188-.077-.326-.24-.452-.399-4.35-5.493-3.89-13.655-7.318-19.526-.218-.373-.562-.724-.991-.767.991.767 1.332 1.678 1.975 2.741 2.146 3.551 2.711 8.354 2.733 12.504.003.616-.023 1.254-.288 1.811-.264.557-.826 1.015-1.441.978-.384-.023-.731-.229-1.039-.459a6.036 6.036 0 0 1-2.346-4.06c-.137-1.139.057-2.29.093-3.437.101-3.2-1.178-6.351-3.33-8.721Z"/><path fill="#F2EADB" d="m179.83 253.9-12.337-12.887c-.783.219-.851-.115-1.528-.564-2.338-1.551-3.319-.232-4.066-3.893.019 2.859-1.641-.498-2.838 2.098-3.187-2.344-4.656-6.309-5.96-10.043-1.602-4.588-3.225-9.298-3.114-14.155.137-6.056 2.94-11.689 5.682-17.089 9.628 1.748 16.588 9.944 22.451 17.779a483.963 483.963 0 0 1 30.815 46.56c-1.072-.724-15.799 7.808-15.054 8.7-5.056-5.045-9.436-11.033-14.051-16.506Z"/><path stroke="#AD997E" stroke-miterlimit="10" stroke-width=".458" d="M195.66 269.116a289.543 289.543 0 0 0-7.491-9.81M197.317 268.389l-7.481-11.102M199.894 268.427l-9.743-13.771M208.682 266.401c-3.247-4.591-6.083-10.399-9.33-14.989M201.649 267.12a662.551 662.551 0 0 0-9.73-14.873c.127.194.253.389.381.583M204.65 266.371a619.566 619.566 0 0 0-10.611-16.24M194.297 269.91c-.309-.351-.644-.677-.975-1.007a60.258 60.258 0 0 1-6.577-7.758"/><path fill="#AB592F" d="m119.535 140.074 20.494 23.615c2.157 2.245 6.365 2.974 8.611.816 2.246-2.157 1.679-6.383-.478-8.629l-19.307-24.253-9.32 8.451Z"/><path stroke="#3A1E10" stroke-miterlimit="10" stroke-width=".458" d="M127.839 132.541a39.212 39.212 0 0 1 3.029 3.887M126.221 133.994c.883 1.28 1.775 2.552 2.68 3.817M121.505 138.244l2.187 3.192M124.166 135.845l2.873 2.952M122.443 137.402c.838.947 1.66 1.909 2.381 2.946"/><path fill="#0A0823" d="M116.249 498.245 102.7 304.479l84.559-8.912 18.666 196.408-33.684 2.355-22.931-109.934.624 111.494-33.685 2.355Z"/><path fill="#221C54" d="m201.699 399.468-7.312-104.573 84.655-7.538s1.388 31.372 6.519 51.55c5.371 21.12 20.76 53.245 20.76 53.245l-48.63 3.4-14.054.983-8.253.577-33.685 2.356Z"/><path fill="#FAF5EB" d="m250.527 176.922-41.366 9.22a22.115 22.115 0 0 0-17.303 21.62l1.301 88.794 87.543-6.881-3.257-91.779c-.384-13.899-13.347-24-26.918-20.974Z"/><path stroke="#AD997E" stroke-miterlimit="10" stroke-width=".517" d="M277.013 191.627c-28.04 15.305-55.507 20.387-86.223 17.037M283.813 205.418c-24.49 17.461-53.853 23.23-81.816 16.076M288.499 227.506c-28.527 16.562-61.632 20.839-92.862 11.996M277.826 247.98c-25.673 14.111-54.413 11.809-82.288 9.332M279.542 272.517c-25.673 14.111-54.413 11.809-82.288 9.332"/><path stroke="#AD997E" stroke-miterlimit="10" stroke-width=".517" d="M211.661 173.391c-11.541 20.461-10.11 45.468-8.323 68.892 1.177 15.427 2.367 30.853 3.568 46.279M223.29 173.207c1.355 13.939-.861 27.946-1.473 41.937-1.141 26.071 3.288 52.029 7.702 77.75M245.126 163.744a1052.16 1052.16 0 0 0 4.522 126.805M261.95 179.6c7.278 37.312 9.616 70.991 7.526 108.953"/><path fill="#F1E7D5" d="M191.093 331.165a4.025 4.025 0 0 1-3.734 4.296l-93.69 6.552a4.025 4.025 0 0 1-4.297-3.735l-5.906-84.459c-2.234-31.956 13.984-59.123 36.226-60.678l21.177-1.481c22.242-1.555 42.084 23.089 44.319 55.046l3.691 52.782 2.214 31.677Z"/><path stroke="#AD997E" stroke-miterlimit="10" stroke-width=".52" d="M131.033 211.348a41.566 41.566 0 0 0 4.858 7.409 51.743 51.743 0 0 0 3.064-7.703"/><path stroke="#AD997E" stroke-miterlimit="10" stroke-width=".52" d="M133.922 215.742a5.562 5.562 0 0 1-.598 2.372M129.971 217.776l1.538-4.942M137.263 215.724l1.63 2.206M138.381 212.907a38.759 38.759 0 0 1 3.37 4.451M139.933 210.734a33.932 33.932 0 0 1 5.25 5.919M141.609 209.851c.945.578 1.972 1.011 2.923 1.579a12.017 12.017 0 0 1 3.084 2.639c.025.03.05.075.024.104-.026.03-.068-.045-.03-.037M143.928 208.776c.518.198 1.018.439 1.518.678l1.306.628c.916.44 1.854.896 2.56 1.629M145.409 207.462c1.797.906 3.585 1.828 5.363 2.769M146.812 205.475c1.469 1.084 3.237 1.712 4.696 2.81M147.632 204.005c1.066.478 2.276.56 3.341 1.039.493.221.948.526 1.34.897M148.213 202.584c1.644.267 3.273.628 4.875 1.082M148.422 200.573c1.465-.012 2.867.655 4.333.68M148.483 198.816a22.23 22.23 0 0 1 4.221-.201M148.276 197.307a26.754 26.754 0 0 1 4.01-.742M148.413 195.263c1.243-.276 2.5-.486 3.764-.63l-.113.014M148.288 193.541l3.203-.584M130.396 211.132c-.702 1.156-1.605 2.173-2.42 3.253-.814 1.079-1.554 2.255-1.854 3.573M124.431 216.123c.331-.855.869-1.611 1.401-2.357l2.479-3.471M122.392 213.948a12.697 12.697 0 0 1 2.364-3.345c.594-.604 1.267-1.175 1.59-1.958M120.259 211.763a29.792 29.792 0 0 1 5.343-4.453M118.398 209.381a27.789 27.789 0 0 1 4.296-3.074c.523-.304 1.067-.599 1.472-1.048M117.738 205.689c2.03-.645 4.044-1.34 6.041-2.084M116.225 202.735a66.568 66.568 0 0 1 6.101-1.019M116.047 200.196a31.64 31.64 0 0 0 5.675-.051M116.23 198.254a36.759 36.759 0 0 1 6.236-.402M118.079 195.641c1.824.096 3.642.298 5.443.604M119.261 193.92c.494-.044.956.214 1.421.387.91.338 1.917.369 2.806.757"/><path fill="#DDC599" d="M136.406 211.605c-7.238.506-13.515-4.951-14.021-12.189l-.624-8.923 26.209-1.832.624 8.923c.506 7.237-4.951 13.515-12.188 14.021Z"/><path fill="#AD997E" d="M135.832 203.388c-7.238.506-13.515-4.951-14.022-12.188l-.623-8.923 26.209-1.833.624 8.923c.506 7.238-4.951 13.515-12.188 14.021Z"/><path fill="#170F4D" d="M186.274 175.566s4.232 3.809 21.108 7.38c11.478 2.428 24.956 1.479 32.405.624a9.907 9.907 0 0 0 7.917-5.796l9.952-22.23c4.122-16.801-2.552-37.015-24.787-42.47-16.8-4.122-35.019 13.317-39.141 30.118l-7.454 32.374Z"/><path stroke="#3322A3" stroke-miterlimit="10" stroke-width=".574" d="M208.587 182.706a185.655 185.655 0 0 1 4.29-11.77c-1.841 4.918-2.78 6.741-4.29 11.77ZM209.881 164.567a138.102 138.102 0 0 0-6.25 18.468M211.412 167.233a52.252 52.252 0 0 0-5.006 15.448M209.312 163.122c-2.074 4.706-5.142 9.007-9.004 12.624-1.296 1.213-2.777 2.394-4.659 2.706M235.518 173.306c-.015 3.034-1.342 5.847-3.823 8.105M241.073 167.752c.265 5.131-1.445 10.279-4.738 14.265M245.304 163.468c1.008 3.711.498 7.487-.987 10.861-1.485 3.374-3.912 6.369-6.72 9.06M237.799 171.204c-.183 2.415-.37 4.848-1.157 7.129-.786 2.281-2.22 4.426-4.558 5.832M208.117 120.789c-5.738 3.774-8.495 10.676-10.356 17.287-4.099 14.566-2.321 24.347-9.271 37.788M214.315 118.894c-4.943 6.837-6.396 10.491-8.323 18.705-1.928 8.214-3.395 16.6-6.626 24.394-3.231 7.794-1.476 10.861-9.045 14.587"/><path stroke="#3322A3" stroke-miterlimit="10" stroke-width=".574" d="M211.371 118.97c-1.995 1.805-3.32 1.918-4.851 4.13-3.755 5.421-5.609 11.919-6.989 18.368-1.38 6.449-2.36 13.023-4.628 19.216a48.59 48.59 0 0 1-7.103 12.892c-1.818 2.362 1.608.779-1.181 1.83M232.036 114.015l-1.858 1.154c-.995-1.593-2.834-2.624-4.713-2.642M238.734 116.915c6.76 2.667 11.989 8.535 14.728 15.267 2.738 6.731 3.143 14.254 2.084 21.444-1.684 11.438-4.851 22.258-14.404 28.772"/><path stroke="#FAF5EB" stroke-miterlimit="10" stroke-width=".476" d="M205.414 169.023c-2.196-.539-3.402-3.317-2.694-6.206.709-2.888 3.064-4.793 5.261-4.254 2.196.539 3.403 3.317 2.694 6.206-.709 2.888-3.064 4.793-5.261 4.254Z"/><path fill="#DDC599" d="M227.806 196.554a8.761 8.761 0 0 0 8.129-9.35l-1.2-17.152-17.478 1.223 1.2 17.151a8.76 8.76 0 0 0 9.349 8.128Z"/><path fill="#AD997E" d="M227.132 186.897a8.762 8.762 0 0 0 8.128-9.351l-1.199-17.151-17.479 1.222 1.2 17.152a8.76 8.76 0 0 0 9.35 8.128Z"/><path fill="#C9AA7A" d="M222.562 179.781c-5.967.173-7.527-2.658-10.47-7.854a99.379 99.379 0 0 1-5.532-11.422 87.223 87.223 0 0 1-1.243-3.181c-.404-1.089.391-1.903.038-3.018-1.857-5.738-1.168-11.222.852-16.867 5.414-15.127 13.641-22.632 28.388-15.743 14.286 6.676 18.812 15.955 14.875 32.078-3.624 14.842-14.504 25.647-26.908 26.007ZM123.968 194.12c-6.559.19-8.274-2.922-11.509-8.634a109.23 109.23 0 0 1-6.081-12.555 98.498 98.498 0 0 1-1.367-3.498c-.444-1.197.431-2.092.043-3.317-2.042-6.308-1.285-12.335.936-18.541 5.951-16.628 14.995-24.878 31.205-17.305 15.704 7.338 20.68 17.538 16.352 35.262-3.984 16.314-15.944 28.192-29.579 28.588Z"/><path fill="#231C54" d="M207.615 156.927a1.353 1.353 0 1 1 .645-2.629 1.353 1.353 0 0 1-.645 2.629ZM107.543 168.998a1.488 1.488 0 1 1 .71-2.891 1.488 1.488 0 0 1-.71 2.891ZM229.272 154.975a1.353 1.353 0 1 1 .643-2.628 1.353 1.353 0 0 1-.643 2.628ZM131.345 166.853a1.487 1.487 0 1 1 .707-2.89 1.487 1.487 0 0 1-.707 2.89Z"/><path fill="#E4763E" d="m234.791 163.344 3.598-.686a3.026 3.026 0 1 0-1.134-5.946l-3.599.686a3.028 3.028 0 0 0-2.406 3.541 3.028 3.028 0 0 0 3.541 2.405ZM205.47 157.808c.335 1.058.953 2.352 1.337 3.386.375 1.015.87 1.894 1.285 2.894l.883.163a2.873 2.873 0 0 0 3.348-2.302 2.863 2.863 0 0 0-2.296-3.347l-3.418-.636c-.263-.047-.884-.179-1.139-.158Z" opacity=".3"/><path stroke="#231C54" stroke-miterlimit="10" stroke-width=".574" d="M214.073 153.151c.01.976.049 1.831.103 2.629.151 2.276.418 4.085.446 6.866.004.372.012.76.193 1.085.36.651 1.225.779 1.967.824.943.056 1.886.1 2.83.128"/><path stroke="#231C54" stroke-miterlimit="10" stroke-width=".631" d="M114.638 164.847c.01 1.073.054 2.013.112 2.89.167 2.502.46 4.49.491 7.547.004.409.013.836.212 1.194.396.714 1.346.855 2.162.904 1.036.063 2.073.11 3.111.141"/><path fill="#231C54" d="M236.634 152.243c-2.274-3.07-6.236-4.781-10.028-4.406a.948.948 0 0 0-.858.974l.002.059a.94.94 0 0 0 .715.878l10.169 2.495ZM139.442 163.848c-2.5-3.375-6.855-5.256-11.023-4.844a1.042 1.042 0 0 0-.943 1.071l.002.065c.017.461.337.855.786.966l11.178 2.742ZM202.268 153.983c1.764-3.042 5.5-5.038 8.901-4.259a.717.717 0 0 1 .522.516l.079.287a.726.726 0 0 1-.687.919c-1.186.017-3.254.156-4.767.838-2.243 1.011-4.048 1.699-4.048 1.699ZM101.657 165.763c1.94-3.345 6.047-5.538 9.785-4.682a.79.79 0 0 1 .574.567l.086.316a.796.796 0 0 1-.754 1.009c-1.305.019-3.578.172-5.241.921-2.466 1.112-4.45 1.869-4.45 1.869Z"/><path fill="#170F4D" d="m219.353 172.757 3.682.017c2.445.012 4.97-3.433 5.236-4.471.043-.17-.464-.076-.463-.255l-13.866.053.332-.001c-.012 2.492 2.585 4.644 5.079 4.657Z"/><path fill="#fff" d="m223.623 169.568-7.562-.036c-.457-.115-1.237-.638-1.149-.989l.028-.217 10.692.115s-1.045 1.132-2.009 1.127Z"/><path fill="#DDB389" d="M227.801 169.588s-5.635.072-7.541.433c-1.907.362-2.951 1.692-2.952 1.914-.001.222 4.6.837 4.6.837l5.893-3.184Z"/><path fill="#C08E76" d="M228.614 168.155c.096-.028.092-.167-.005-.192-1.146-.297-5.074-1.243-8.689-1.261-4.291-.02-7.324.457-5.829 1.879 0 0 10.544.739 14.523-.426Z"/><path fill="#C08E76" d="M228.669 168.142c.045-.086-.064-.17-.132-.101-1.024 1.052-3.901 3.598-7.641 3.507-4.984-.123-6.552-2.905-6.552-2.905s1.014 4.479 3.047 4.977c1.735.426 7.335 2.005 11.278-5.478Z"/><path fill="#170F4D" d="M200.198 145.03s15.944-2.287 27.34-2.227c14.814.381 25.757 7.521 25.757 7.521l.023-3.696c.082-13.695-14.456-29.861-28.151-29.943-13.695-.083-24.865 10.953-24.947 24.648l-.022 3.697Z"/><path fill="#C9AA7A" d="M213.521 131.684c-1.017 5.426-1.71 6.767-1.757 12.288-.002.291-.419.973-.631.946-.992-.123-.781-.328-.729-1.332.094-1.796.473-3.625.849-5.38.762-3.562.931-3.137 2.268-6.522ZM114.031 141.249c-1.118 5.965-1.88 7.439-1.931 13.508-.002.32-.461 1.069-.694 1.04-1.09-.135-.859-.36-.801-1.465.103-1.974.52-3.985.933-5.914.837-3.915 1.023-3.448 2.493-7.169ZM237.232 131.627c.396 5.506.568 7.566-.011 13.057-.03.289.887.731 1.102.729.999-.01.813-.237.874-1.241.11-1.795-.06-3.656-.235-5.442-.353-3.625-.784-3.589-1.73-7.103Z"/><path fill="#DDC599" d="M247.583 157.714a2.57 2.57 0 0 0 3.11-1.884l.546-2.225a2.57 2.57 0 0 0-1.885-3.11M151.477 169.862a2.826 2.826 0 0 0 3.418-2.072l.6-2.446a2.826 2.826 0 0 0-2.071-3.418"/><path fill="#170F4D" d="m239.116 166.154 3.126-2.252c1.483-1.068 2.987-2.157 4.106-3.602.869-1.123 1.474-2.422 2.121-3.686.973-1.902 2.059-3.753 2.844-5.74.785-1.988 1.262-4.152.951-6.265-.289-1.971-1.433-4.228-3.324-5.11-2.658-1.24-1.748 3.135-1.792 4.552a38.017 38.017 0 0 1-3.541 14.811 36.722 36.722 0 0 1-4.491 7.292Z"/><path stroke="#3322A3" stroke-miterlimit="10" stroke-width=".574" d="M230.061 117.367c-7.669 5.193-11.987 17.479-12.555 25.473M230.062 117.365c2.255 6.813 3.378 18.399 2.474 25.519"/><path stroke="#3322A3" stroke-miterlimit="10" stroke-width=".574" d="M208.381 144.197c.092-9.545 5.075-25.63 21.68-26.83 0 0-7.333 11.218-7.927 24.787M239.965 119.288c4.188 2.475 7.332 6.659 8.543 11.371 1.127 4.383.621 9.002.067 13.494-1.011 8.206-2.635 17.263-9.191 22.3"/><path stroke="#FAF5EB" stroke-miterlimit="10" stroke-width=".476" d="M252.642 157.889c.927 1.199 1.289 3.051.823 4.951-.709 2.889-3.063 4.793-5.26 4.254-2.197-.539-3.403-3.317-2.694-6.206.572-2.331 2.217-4.022 3.985-4.304"/><path fill="#C9AA7A" d="M215.109 244.261a7.23 7.23 0 0 0 .171 3.905c.143.433.355.89 1.001.871.451-.013.853-.277 1.124-.638 4.176-5.566 11.662-7.173 18.552-7.565 3.635-.207 9.357 3.774 12.552 3.11.527-4.348-1.348-9.777-1.038-14.153.024-.331.044-.679-.096-.979-.152-.328-.469-.544-.771-.743l-9.451-3.285c-2.228-1.47-4.663-2.626-7.253-3.272-.722-.181-1.461-.283-2.199-.218-.793.07-1.555.33-2.307.589l-9.369 3.873c-4.676 2.362-7.311 8.495-4.492 10.382l.094 1.343c.02.917.533 1.752 1.343 2.183l.605.322.599 3.928c.002.001.351.874.935.347Z"/><path stroke="#978265" stroke-miterlimit="10" stroke-width=".517" d="M220.956 228.548c-6.066.931-8.602 5.464-8.602 5.464l-.823 2.127M223.216 233.186c-3.13-.169-6.296 1.424-8.027 4.037-1.61 2.432-2.014 4.325-.953 6.844a.672.672 0 0 0 .833.381.661.661 0 0 0 .349-.282c1.98-3.249 5.366-5.669 9.142-6.236"/><path fill="#FAF5EB" d="M257.938 194.444c-2.137 5.133-.874 11.178 1.953 15.966 2.827 4.789 7.045 8.571 11.196 12.271l-19.975 1.484c-2.241.166-7.118.862-6.822 3.104 2.14 4.671 3.351 8.95 2.965 13.804-.124 1.56-1.709 2.648-3.178 2.11a5.14 5.14 0 0 1-.757-.35c1.499 2.311 4.753 2.493 7.507 2.426l32.601-.784c2.112-.051 4.31-.123 6.18-1.107 3.068-1.615 4.481-5.317 4.645-8.78.283-6.022-2.381-11.746-4.985-17.184-4.277-8.934-6.682-16.895-10.958-25.829-2.169-4.531-6.585-10.405-11.22-12.344-.792-.331-1.689-.563-2.502-.287-1.041.354-1.642 1.419-2.12 2.409a62.673 62.673 0 0 0-5.957 21.48"/><path stroke="#AD997E" stroke-miterlimit="10" stroke-width=".517" d="M247.486 219.856c4.606 2.705 6.433 8.389 7.379 13.646 1.052 5.846 1.348 12.344-2.02 17.236M254.509 219.701c2.74 3.035 5.524 6.136 7.202 9.865 1.299 2.886 1.884 6.046 2.167 9.197.416 4.621.021 9.756-3.192 13.104M291.53 241.583c-5.924-9.984-18.982-16.961-29.185-19.858 4.092 1.924 7.595 5.498 9.733 9.932.755 1.566 1.343 3.23 1.826 4.926a43.344 43.344 0 0 1 1.641 12.015M266.046 221.364c-.457-.371.147-1.103.673-1.304 4.039-1.537 8.325-2.078 12.574-2.609 2.318-.29 4.935-.483 6.731 1.242.856.822 1.593 2.097 2.706 2.084M256.879 214.036c5.778-3.149 11.852-5.562 18.088-7.182 1.469-.381 2.973-.721 4.481-.546 2.317.269 4.531 1.82 5.872 4.111M278.052 194.829c-10.302 5.995-21.826 6.655-33.018 10.173 11.128-2.651 21.023-10.951 26.455-22.191"/><path stroke="#AD997E" stroke-miterlimit="10" stroke-width=".517" d="M260.907 177.757c7.285 5.545 9.761 13.795 12.696 22.522 4.616 13.728 12.691 26.149 16.499 40.128M256.879 189.059a102.686 102.686 0 0 1 13.397 32.441"/><path stroke="#AD997E" stroke-miterlimit="10" stroke-width=".517" d="M284.799 228.853a759.404 759.404 0 0 0-36.477.914M290.441 239.366c-14.22-.256-28.442-.807-42.657-1.653"/><path fill="#AD997E" d="M246.933 238.789c.342-4.301-.731-8.092-2.627-12.23-.262-1.987 4.059-2.603 6.044-2.75l17.696-1.315c-3.677-3.278-7.414-6.629-9.919-10.871-2.504-4.241-3.623-9.597-1.729-14.145 0 0 2.091-3.307 6.49 6.89 4.4 10.198 4.078 16.324 10.061 19.984 5.983 3.659 1.931 3.747 1.596 3.754-.335.008-5.166-2.359-10.149-2.168-4.983.192-12.51-.199-13.724 3.633-1.214 3.832-3.739 9.218-3.739 9.218Z" opacity=".12"/><path stroke="#231C54" stroke-miterlimit="10" stroke-width=".488" d="M113.917 182.785s3.55 3.448 10.09 3.121c6.541-.327 9.85-1.7 11.711-4.211"/><path fill="#231C54" d="M102.385 149.399c-.338-7.331 3.699-14.047 10.161-18.343 1.033-.687 3.776-2.12 2.845-2.179-1.306-.083 2.783-.73 4.031-1.14a30.863 30.863 0 0 1 7.98-1.484c14.371-.765 26.469 8.358 27.022 20.375.354 7.683-2.067 7.254-2.067 7.254l-2.684-2.507c-1.415-1.321-3.075-2.741-5.22-2.774-2.701-.042-4.686 2.073-6.967 3.336-2.869 1.589-6.474 1.868-9.862 1.687-4.135-.221-8.204-1.055-11.961-2.454-.853-.317-1.717-.67-2.656-.711-.94-.041-1.91.349-2.362 1.051-2.562 3.98-7.843 6.946-7.843 6.946l-.417-9.057Z"/><path stroke="#fff" stroke-miterlimit="10" stroke-width=".488" d="m110.48 173.245-2.719.136a6.723 6.723 0 0 1-.671-13.429l2.719-.136a6.723 6.723 0 0 1 .671 13.429ZM136.717 171.933l-2.72.136a6.724 6.724 0 0 1-.671-13.429l2.719-.136a6.723 6.723 0 0 1 .672 13.429Z"/><path stroke="#fff" stroke-miterlimit="10" stroke-width=".548" d="M116.425 167.362c1.086-1.512 3.529-1.951 5.683-2.171.564-.058 1.131-.111 1.696-.088 1.225.05 2.409.476 3.254 1.17"/><path stroke="#fff" stroke-width=".487" d="M143.398 165.257c2.722-1.684 8.508-4.63 9.882-2.932"/><path fill="#E4763E" d="m141.158 175.6-3.439.172a2.845 2.845 0 0 1-.284-5.682l3.439-.171a2.842 2.842 0 0 1 2.982 2.698 2.843 2.843 0 0 1-2.698 2.983ZM109.037 177.844s-.373.376-1.483-2.691c-1.225-1.478-3.482-4.906-1.318-2.814l2.517-.177a2.845 2.845 0 0 1 .284 5.682Z" opacity=".2"/><path fill="#D2B687" d="M102.983 364.77c-1.177-2.73-2.754-5.369-3.088-8.323-.283-2.496.352-4.998.442-7.509.061-2.242-.247-9.745-2.303-11.165-1.987-1.371-7.922 2.948-9.873 3.929-1.12.564-2.437 1.529-2.111 2.741.225.834 1.145 1.265 1.625 1.984 1.1 1.647-.445 3.697-1.162 5.544-.794 2.048-.516 4.335-.227 6.512l1.786 13.453c.16 1.205.328 2.435.87 3.522 1.444 2.894 3.152 5.683 5.303 8.097.435.489.915.987 1.544 1.165.63.179 1.435-.103 1.598-.736.108-.423-.088-.858-.283-1.248a75.761 75.761 0 0 0-3.348-6.018c-.635-1.029-1.303-2.06-1.651-3.218a6.426 6.426 0 0 1 .11-4.01c.652 1.367.923 2.883 1.48 4.29.448 1.13 1.076 2.178 1.7 3.22l4.602 7.684c.535.892 1.07 1.786 1.675 2.634.353.494.742.983 1.268 1.288.525.304 1.217.389 1.731.066.771-.485 1.146-1.729.638-2.486-3.002-4.47-6.736-10.408-8.9-15.994-.07-.177-.12-.406.196-.421a74.877 74.877 0 0 0 9.788 15.441c.751.914 1.668 1.883 2.85 1.916.426.012.919-.167 1.039-.576.057-.195.017-.404-.028-.603-1.556-6.832-8.206-11.587-10.634-17.937-.154-.403-.212-.891.023-1.252-.023 1.252.474 2.089.899 3.256 1.423 3.898 4.813 7.346 8.033 9.964.479.389.992.768 1.592.911.6.142 1.309-.008 1.666-.511.222-.313.279-.714.292-1.098a6.03 6.03 0 0 0-1.694-4.372c-.802-.82-1.82-1.39-2.737-2.08-2.557-1.926-4.212-4.898-4.711-8.06Z"/><path fill="#F2EADB" d="m99.834 318.4-2.314-17.689c-1.47-9.696-4.003-44.278-.368-52.737-2.572-4.123-5.508 25.411-9.363 22.454-4.806-3.687-10.953-5.031-16.88-6.278-4.669 8.6-2.642 19.16-.208 28.638a484.065 484.065 0 0 0 16.982 53.188c.108-1.289 15.985-7.422 16.213-6.283-.765-7.101-2.687-14.267-4.062-21.293Z"/><path stroke="#AD997E" stroke-miterlimit="10" stroke-width=".458" d="m98.875 337.818-3.966-12.787M96.58 338.856l-4.629-16.221M89.5 344.435c-1.542-5.407-4.293-11.256-5.836-16.663M94.465 339.405a662.909 662.909 0 0 1-5.497-16.902c.073.22.145.441.216.662M92.001 341.274a621.185 621.185 0 0 1-6.009-18.445"/><path fill="#F3EBDD" d="M106.58 197.41c-6.743 2.97-11.673 5.601-18.124 9.378-3.389 1.984-6.868 4.217-8.992 7.993-1.673 2.974-2.342 6.623-2.954 10.182-3.26 18.935-11.23 48.078-7.852 57.299.541 1.477.685 4.035 1.755 3.149 4.85-.031 10.682-2.863 14.203-6.822 3.52-3.96 6.176-8.915 8.795-13.818.402-.753.811-1.526.974-2.409 2.255-12.251 10.73-32.491 11.159-43.049.126-3.115 4.6-14.604 1.036-21.903Z"/></g></g><path fill="#DDC59C" d="M102.327 26.775 207.898.527l11.39 45.814-105.57 26.247z"/><defs><clipPath id="b"><path fill="#fff" d="M0 41.112 330.519 18l26.691 381.705-330.519 23.112z"/></clipPath><clipPath id="c"><path fill="#fff" d="m43.276 116.889 242.609-16.965 16.187 231.48-242.609 16.965z"/></clipPath><filter id="a" width="361.396" height="408.818" x="0" y="18" color-interpolation-filters="sRGB" filterUnits="userSpaceOnUse"><feFlood flood-opacity="0" result="BackgroundImageFix"/><feColorMatrix in="SourceAlpha" result="hardAlpha" values="0 0 0 0 0 0 0 0 0 0 0 0 0 0 0 0 0 0 127 0"/><feOffset dx="4" dy="4"/><feComposite in2="hardAlpha" operator="out"/><feColorMatrix values="0 0 0 0 0.9375 0 0 0 0 0.885577 0 0 0 0 0.796875 0 0 0 1 0"/><feBlend in2="BackgroundImageFix" result="effect1_dropShadow_2485_9704"/><feBlend in="SourceGraphic" in2="effect1_dropShadow_2485_9704" result="shape"/></filter></defs></svg>