<?xml version="1.0" encoding="UTF-8"?> <!-- Generator: Adobe Illustrator 24.0.3, SVG Export Plug-In . SVG Version: 6.00 Build 0) --> <svg xmlns="http://www.w3.org/2000/svg" xmlns:xlink="http://www.w3.org/1999/xlink" version="1.1" id="Layer_1" x="0px" y="0px" viewBox="0 0 250.567 131.507" xml:space="preserve"> <g> <g> <path fill="#0A0922" d="M57.598,39.039c-0.974,16.492-1.948,32.983-2.922,49.475c0.317-0.086,0.634-0.172,0.952-0.258 c-2.952-6.671-6.15-13.747-12.06-18.342c-6.033-4.69-13.78-5.485-21.157-5.843c-4.052-0.197-8.139-0.243-12.161-0.822 c-1.89-0.272-3.84-0.761-5.161-2.239c-1.053-1.179-1.513-2.752-1.571-4.307c-0.284-7.63,6.722-12.957,12.863-15.997 c7.702-3.813,16.414-5.996,24.81-7.635c8.096-1.58,16.542-2.712,24.808-2.268c6.728,0.361,13.968,1.946,19.021,6.704 c5.896,5.552,7.025,14.255,4.78,21.764c-2.346,7.847-7.903,14.346-13.795,19.828c-5.988,5.571-12.812,10.233-20.168,13.805 c-1.92,0.933-3.876,1.785-5.863,2.567c-0.605,0.238-0.341,1.226,0.272,0.985c7.809-3.075,15.126-7.279,21.691-12.51 c6.559-5.226,12.884-11.525,16.703-19.082c3.531-6.987,4.657-15.564,1.065-22.77c-3.193-6.405-9.7-9.949-16.474-11.392 c-7.723-1.645-15.778-1.031-23.543-0.032c-9.273,1.194-18.491,3.288-27.302,6.433C15.499,39.562,7.36,43.332,3.979,50.275 c-1.286,2.641-1.988,5.873-1.116,8.752c1.031,3.401,4.015,4.779,7.325,5.236c8.178,1.128,16.65,0.215,24.665,2.478 c4.058,1.146,7.7,3.218,10.623,6.273c2.871,3.001,4.971,6.647,6.788,10.356c0.872,1.78,1.681,3.59,2.483,5.403 c0.222,0.501,0.925,0.198,0.952-0.258c0.974-16.492,1.948-32.983,2.922-49.475C58.659,38.383,57.637,38.385,57.598,39.039 L57.598,39.039z"></path> </g> </g> <g> <g> <path fill="#0A0922" d="M63.064,68.122c11.419,1.334,22.871-2.457,32.77-7.924c8.727-4.82,16.824-11.725,20.719-21.122 c1.964-4.737,2.861-9.978,2.232-15.087c-0.552-4.484-2.183-9.092-5.79-12.012c-2.831-2.292-7.173-3.583-9.984-0.517 c-2.798,3.052-1.377,7.767,0.693,10.796c2.796,4.092,7.586,6.897,12.248,8.321c5.096,1.557,10.619,1.551,15.68-0.137 c-0.209-0.209-0.419-0.419-0.628-0.628c-2.627,8.734-2.867,17.891-2.664,26.943c0.103,4.593,0.31,9.184,0.359,13.778 c0.046,4.271,0.081,8.648-0.984,12.815c-0.993,3.884-3.074,7.407-6.561,9.517c-3.014,1.823-6.689,2.535-10.17,2.025 c-7.462-1.094-12.569-8.084-12.575-15.435c-0.007-8.728,7.67-15.779,16.161-16.257c0.654-0.037,0.658-1.059,0-1.021 c-7.503,0.423-14.631,5.656-16.628,13.028c-1.9,7.017,1.223,15.224,7.584,18.882c6.249,3.593,15.063,2.204,19.71-3.378 c2.674-3.212,3.775-7.337,4.212-11.418c0.517-4.828,0.288-9.747,0.145-14.59c-0.342-11.576-0.983-23.383,2.396-34.617 c0.108-0.361-0.259-0.751-0.628-0.628c-8.359,2.787-18.058,0.789-24.553-5.208c-2.689-2.483-5.486-6.899-3.935-10.69 c1.911-4.674,7.429-2.783,10.189-0.169c3.255,3.082,4.581,7.825,4.851,12.185c0.293,4.736-0.684,9.531-2.613,13.854 c-3.827,8.577-11.25,14.94-19.275,19.495c-9.907,5.623-21.455,9.524-32.96,8.179C62.412,67.024,62.418,68.046,63.064,68.122 L63.064,68.122z"></path> </g> </g> <g> <g> <path fill="#0A0922" d="M144.242,68.21c-4.151-4.845-12.04-5.388-17.13-1.712c-2.463,1.779-4.134,4.478-3.954,7.588 c0.179,3.095,2.368,5.319,5.57,4.492c2.367-0.612,4.7-1.924,6.758-3.207c2.207-1.376,4.241-3.004,6.096-4.826 c-0.285-0.075-0.569-0.15-0.854-0.225c0.911,6.727,1.823,13.454,2.734,20.18c0.486,3.59,2.838,12.471-2.329,13.975 c0.192,0.078,0.385,0.156,0.577,0.235c-5.438-12.801,3.927-25.253,12.134-34.219c-0.285-0.075-0.569-0.15-0.854-0.225 c0.896,3.191,3.764,5.64,7.107,5.845c3.479,0.213,6.666-2.145,7.82-5.357c-0.311,0.041-0.622,0.081-0.933,0.122 c3.775,5.791,11.996,5.379,17.408,2.36c6.98-3.893,11.169-11.283,13.33-18.746c1.506-5.2,2.178-10.592,2.85-15.95 c0.071-0.566-0.921-0.705-1.003-0.136c-1.691,11.757-3.258,26.11,6.641,34.902c0.166-0.285,0.331-0.569,0.497-0.854 c-2.06-0.582-4.12-1.165-6.181-1.747c-0.634-0.179-0.904,0.806-0.272,0.985c2.06,0.582,4.12,1.165,6.181,1.747 c0.474,0.134,0.886-0.508,0.497-0.854c-9.604-8.53-8.018-22.511-6.379-33.908c-0.334-0.045-0.669-0.091-1.003-0.136 c-1.029,8.198-2.097,16.729-6.251,24.03c-3.341,5.872-9.038,11.403-16.13,11.805c-3.555,0.202-7.279-0.91-9.303-4.015 c-0.25-0.383-0.784-0.294-0.933,0.122c-1.002,2.79-3.833,4.805-6.835,4.607c-2.887-0.19-5.352-2.35-6.122-5.095 c-0.1-0.357-0.59-0.514-0.854-0.225c-4.54,4.96-9.013,10.202-11.663,16.454c-2.549,6.014-3.226,12.892-0.631,19.003 c0.086,0.202,0.38,0.292,0.577,0.235c5.074-1.477,3.968-8.404,3.438-12.314c-1.043-7.699-2.087-15.399-3.13-23.098 c-0.054-0.398-0.608-0.466-0.854-0.225c-2.658,2.611-5.699,4.787-9.054,6.413c-1.63,0.79-3.981,2.123-5.797,1.245 c-1.21-0.585-1.714-1.996-1.82-3.252c-0.505-5.954,6.039-9.294,11.18-9.089c3.123,0.124,6.105,1.404,8.152,3.793 C143.948,69.433,144.668,68.707,144.242,68.21L144.242,68.21z"></path> </g> </g> <g> <g> <path fill="#0A0922" d="M133.638,57.321c29.749,0.45,59.506,0.349,89.251-0.312c8.309-0.185,16.616-0.414,24.922-0.684 c0.656-0.021,0.659-1.043,0-1.021c-29.736,0.969-59.49,1.388-89.242,1.246c-8.311-0.04-16.621-0.124-24.931-0.249 C132.981,56.289,132.981,57.311,133.638,57.321L133.638,57.321z"></path> </g> </g> <g> <g> <path fill="#0A0922" d="M82.913,89.228c-0.487,0.816-0.079,1.785,0.624,2.317c0.677,0.513,1.673,0.501,2.254-0.158 c0.509-0.576,0.643-1.451,0.357-2.163c-0.157-0.392-0.411-0.734-0.781-0.95c-0.408-0.238-0.877-0.288-1.336-0.213 c-0.459,0.075-0.899,0.323-1.229,0.647c-0.377,0.369-0.596,0.843-0.647,1.365c-0.026,0.267,0.254,0.522,0.511,0.511 c0.299-0.013,0.483-0.225,0.511-0.511c0.009-0.092-0.025,0.104,0.002-0.011c0.009-0.037,0.016-0.075,0.026-0.111 c0.009-0.031,0.018-0.063,0.029-0.093c-0.001,0.004,0.024-0.06,0.023-0.061c0.006,0.007-0.05,0.104-0.013,0.032 c0.035-0.068,0.069-0.135,0.111-0.199c0.009-0.014,0.018-0.027,0.027-0.041c0.003-0.004,0.006-0.009,0.009-0.013 c0.026-0.035,0.026-0.035-0.001-0.001c0.005,0.009-0.037,0.044,0.001,0c0.018-0.021,0.035-0.042,0.054-0.062 c0.048-0.053,0.099-0.103,0.152-0.15c0.016-0.015,0.034-0.028,0.05-0.043c0.025-0.021,0.045-0.015,0-0.001 c-0.047,0.015-0.024,0.017,0.001,0c0.023-0.015,0.045-0.031,0.068-0.046c0.06-0.039,0.122-0.075,0.185-0.107 c0.015-0.008,0.132-0.068,0.058-0.029c-0.069,0.037,0.052-0.018,0.076-0.026c0.072-0.024,0.145-0.041,0.219-0.057 c0.117-0.025-0.081,0.003,0.007-0.003c0.043-0.003,0.085-0.007,0.128-0.008c0.032-0.001,0.064,0,0.096,0.001 c0.025,0.001,0.144,0.014,0.059,0.003c-0.085-0.011,0.034,0.008,0.058,0.013c0.042,0.01,0.083,0.021,0.124,0.035 c0.015,0.005,0.03,0.012,0.046,0.016c0.052,0.013-0.047-0.015-0.047-0.021c0,0.004,0.091,0.045,0.101,0.05 c0.029,0.016,0.058,0.034,0.086,0.052c0.013,0.009,0.033,0.028,0.047,0.033c-0.016-0.006-0.087-0.074-0.037-0.027 c0.048,0.045,0.094,0.091,0.139,0.139c0.06,0.064-0.06-0.088-0.011-0.015c0.021,0.031,0.042,0.061,0.062,0.094 c0.034,0.056,0.056,0.12,0.091,0.175c0.002,0.003-0.04-0.107-0.025-0.056c0.006,0.018,0.013,0.036,0.019,0.053 c0.011,0.031,0.021,0.063,0.03,0.095c0.017,0.063,0.02,0.135,0.042,0.196c-0.002-0.006-0.014-0.135-0.007-0.05 c0.001,0.014,0.003,0.029,0.004,0.043c0.003,0.038,0.005,0.076,0.006,0.115c0.001,0.062-0.001,0.124-0.007,0.186 c-0.002,0.018-0.006,0.039-0.006,0.057c0,0.003,0.023-0.117,0.008-0.065c-0.01,0.036-0.014,0.075-0.022,0.111 c-0.015,0.064-0.035,0.126-0.057,0.188c-0.032,0.093,0.023-0.046,0.009-0.019c-0.018,0.032-0.032,0.066-0.05,0.099 c-0.016,0.028-0.032,0.056-0.05,0.082c-0.013,0.019-0.075,0.109-0.024,0.037c0.051-0.073-0.017,0.016-0.031,0.031 c-0.025,0.027-0.052,0.052-0.079,0.076c-0.01,0.009-0.022,0.017-0.032,0.027c-0.036,0.035,0.049-0.038,0.048-0.038 c-0.025,0.007-0.058,0.04-0.082,0.054c-0.029,0.017-0.058,0.031-0.088,0.047c-0.014,0.007-0.063,0.03,0.007-0.002 c0.079-0.036-0.006,0.001-0.025,0.007c-0.034,0.011-0.069,0.019-0.103,0.027c-0.012,0.003-0.034,0.002-0.045,0.008 c0.002-0.001,0.113-0.007,0.061-0.009c-0.067-0.003-0.158-0.011-0.223-0.003c0.011-0.001,0.129,0.025,0.048,0.005 c-0.014-0.004-0.029-0.006-0.044-0.009c-0.034-0.008-0.068-0.017-0.101-0.028c-0.025-0.008-0.059-0.029-0.085-0.031 c0.075,0.004,0.086,0.04,0.039,0.015c-0.018-0.01-0.036-0.018-0.054-0.027c-0.063-0.033-0.142-0.115-0.207-0.132 c0.011,0.003,0.093,0.079,0.031,0.022c-0.015-0.014-0.031-0.027-0.047-0.041c-0.031-0.028-0.06-0.057-0.088-0.087 c-0.02-0.021-0.057-0.086-0.081-0.093c0.001,0,0.061,0.086,0.033,0.042c-0.014-0.021-0.03-0.042-0.044-0.063 c-0.036-0.055-0.07-0.171-0.118-0.212c0.001,0.001,0.036,0.102,0.022,0.053c-0.006-0.024-0.018-0.047-0.025-0.07 c-0.012-0.037-0.023-0.076-0.031-0.114c-0.005-0.022-0.025-0.138-0.011-0.048c0.015,0.092,0.001-0.037,0.001-0.063 c0-0.022,0.013-0.155-0.001-0.062c-0.014,0.093,0.009-0.038,0.016-0.061c0.007-0.026,0.051-0.143,0.018-0.066 c-0.034,0.079,0.031-0.053,0.044-0.076c0.137-0.23,0.059-0.571-0.183-0.699C83.365,88.915,83.059,88.983,82.913,89.228 L82.913,89.228z"></path> </g> </g> </svg> 