<?xml version="1.0" encoding="UTF-8"?> <!-- Generator: Adobe Illustrator 24.0.3, SVG Export Plug-In . SVG Version: 6.00 Build 0) --> <svg xmlns="http://www.w3.org/2000/svg" xmlns:xlink="http://www.w3.org/1999/xlink" version="1.1" id="Layer_1" x="0px" y="0px" viewBox="0 0 155.871 131.507" xml:space="preserve"> <g> <g> <path fill="#0A0922" d="M3.315,71.429c2.759-14.56,10.591-27.899,21.96-37.403c-0.285-0.075-0.569-0.15-0.854-0.225 c1.429,4.705,1.232,9.676,1.412,14.538c0.174,4.696,0.496,9.389,1.134,14.047c0.618,4.512,1.348,9.344,3.05,13.597 c1.077,2.691,4.143,5.391,6.979,3.136c0.514-0.409-0.213-1.127-0.722-0.722c-1.921,1.527-4.155-0.384-5.012-2.108 c-0.857-1.725-1.267-3.733-1.716-5.594c-1.004-4.165-1.65-8.408-2.068-12.67c-0.407-4.162-0.601-8.342-0.712-12.522 c-0.107-4.03-0.179-8.083-1.36-11.972c-0.118-0.39-0.56-0.471-0.854-0.225C13.066,42.907,5.118,56.447,2.33,71.158 C2.209,71.8,3.193,72.075,3.315,71.429L3.315,71.429z"></path> </g> </g> <g> <g> <path fill="#0A0922" d="M2.701,72.502c10.028-9.83,23.425-16.054,37.401-17.43c1.935-0.19,3.879-0.289,5.824-0.293 c1.899-0.004,4.786-0.355,6.256,1.075c0.471,0.459,1.194-0.263,0.722-0.722c-1.138-1.107-2.645-1.242-4.162-1.313 c-1.876-0.088-3.756-0.081-5.632,0.01c-3.661,0.177-7.31,0.686-10.883,1.499c-7.234,1.646-14.191,4.57-20.425,8.591 c-3.533,2.279-6.822,4.918-9.824,7.861C1.509,72.24,2.231,72.962,2.701,72.502L2.701,72.502z"></path> </g> </g> <g> <g> <path fill="#0A0922" d="M36.635,73.322c0.657,0,0.658-1.021,0-1.021C35.978,72.301,35.977,73.322,36.635,73.322L36.635,73.322z"></path> </g> </g> <g> <g> <path fill="#0A0922" d="M46.983,26.701c0.262,17.41,0.047,34.824-0.644,52.222c-0.023,0.577,0.86,0.692,1.003,0.136 c2.889-11.208,6.058-23.107,14.503-31.53c-0.267-0.206-0.535-0.413-0.802-0.619c-4.145,5.671-8.514,11.172-13.096,16.496 c-0.427,0.496,0.293,1.222,0.722,0.722c4.639-5.39,9.06-10.962,13.256-16.702c0.348-0.477-0.401-1.019-0.802-0.619 c-8.574,8.551-11.832,20.599-14.766,31.981c0.334,0.045,0.669,0.091,1.003,0.136c0.692-17.398,0.907-34.813,0.644-52.222 C47.995,26.044,46.974,26.042,46.983,26.701L46.983,26.701z"></path> </g> </g> <g> <g> <path fill="#0A0922" d="M47.235,63.743c2.701,2.535,5.51,4.95,8.434,7.225c1.252,0.974,2.522,1.925,3.812,2.849 c1.279,0.917,2.631,1.963,4.238,2.184c2.898,0.4,4.759-2.356,6.293-4.355c1.978-2.578,3.81-5.266,5.487-8.049 c6.755-11.214,10.994-23.919,12.344-36.939c0.335-3.231,0.494-6.483,0.457-9.731c-0.032-2.804-0.246-5.697-1.318-8.319 c-2.318-5.669-8.13-6.846-13.665-6.922c-3.044-0.042-6.339-0.158-9.05,1.449c-2.267,1.344-3.878,3.575-4.828,6 c-1.205,3.074-1.238,6.472-0.885,9.712c0.382,3.513,1.094,7.01,1.851,10.46c3.334,15.2,9.095,29.837,16.961,43.26 c0.206,0.352,0.667,0.306,0.882,0c2.727-3.877,5.454-7.755,8.182-11.632c-0.267,0.034-0.535,0.069-0.802,0.103 c1.681,2.025-0.449,6.726,3.413,7.133c3.686,0.388,4.673-3.755,4.976-6.539c-0.334,0.045-0.669,0.091-1.003,0.136 c0.314,1.666,0.784,3.285,1.446,4.847c0.568,1.341,1.243,3.11,2.404,4.062c2.338,1.918,4.923-1.045,6.545-2.482 c5.113-4.529,11.412-7.573,18.103-8.892c0.476-0.094,0.499-0.91,0-0.985c-1.973-0.298-4.404-0.195-5.702,1.573 c-0.989,1.346-1.001,3.416,0.381,4.488c0.177,0.138,0.411,0.211,0.619,0.08c2.084-1.309,3.783-3.045,5.041-5.16 c0.337-0.566-0.546-1.081-0.882-0.516c-1.171,1.969-2.734,3.575-4.674,4.794c0.206,0.027,0.413,0.053,0.619,0.08 c-1.058-0.821-0.999-2.418-0.112-3.372c1.103-1.187,2.959-1.205,4.439-0.981c0-0.328,0-0.657,0-0.985 c-5.607,1.105-10.953,3.406-15.579,6.769c-1.084,0.788-2.13,1.628-3.128,2.521c-1.048,0.938-2.256,2.477-3.751,2.623 c-1.757,0.172-2.675-2.392-3.263-3.72c-0.71-1.606-1.196-3.292-1.52-5.015c-0.115-0.611-0.946-0.391-1.003,0.136 c-0.162,1.49-0.331,3.16-1.306,4.37c-0.914,1.135-2.959,1.774-3.896,0.303c-0.608-0.955-0.401-2.321-0.493-3.396 c-0.084-0.982-0.314-1.826-0.95-2.592c-0.227-0.273-0.63-0.141-0.802,0.103c-2.727,3.877-5.454,7.755-8.182,11.632 c0.294,0,0.588,0,0.882,0c-6.466-11.034-11.499-22.877-14.918-35.202c-1.706-6.148-3.311-12.57-3.845-18.942 c-0.486-5.792,1.136-13.311,7.72-14.847c2.881-0.672,6.267-0.486,9.202-0.202c2.818,0.272,5.749,1.049,7.759,3.167 c3.91,4.12,3.273,11.196,2.99,16.409c-0.661,12.178-3.933,24.22-9.458,35.089c-1.504,2.959-3.173,5.834-5.002,8.604 c-0.895,1.356-1.828,2.686-2.798,3.989c-0.999,1.342-2.003,2.838-3.29,3.928c-1.818,1.54-3.722,0.873-5.511-0.333 c-1.613-1.087-3.169-2.272-4.704-3.465c-2.924-2.274-5.733-4.69-8.434-7.225C47.478,62.571,46.754,63.292,47.235,63.743 L47.235,63.743z"></path> </g> </g> <g> <g> <path fill="#0A0922" d="M120.981,59.461c1.77,14.456,2.509,29.033,2.173,43.595c-0.083,3.599-0.23,7.196-0.443,10.789 c-0.194,3.283-0.118,7.029-1.976,9.893c-3.288,5.066-10.877,5.549-16.283,5.177c-11.119-0.765-27.505-8.728-24.13-22.388 c1.608-6.511,6.904-11.091,12.422-14.421c5.555-3.353,11.572-5.917,17.765-7.831c13.836-4.277,28.445-5.332,42.856-5.161 c0.657,0.008,0.658-1.014,0-1.021c-13.786-0.163-27.747,0.797-41.061,4.585c-6.396,1.82-12.62,4.307-18.416,7.579 c-5.565,3.142-11.04,7.222-13.624,13.272c-2.443,5.722-1.459,11.787,2.546,16.514c3.989,4.709,9.966,7.628,15.889,9.027 c5.853,1.382,12.908,1.659,18.456-1.023c2.484-1.201,4.455-3.134,5.421-5.747c1.198-3.242,1.089-7.013,1.267-10.414 c0.919-17.488,0.289-35.043-1.839-52.424C121.923,58.817,120.901,58.809,120.981,59.461L120.981,59.461z"></path> </g> </g> </svg> 