<svg xmlns="http://www.w3.org/2000/svg" width="269" height="237" fill="none"><g filter="url(#a)"><path fill="#fff" d="m21.951 66.534 109.872-39.817 54.384 150.07-109.872 39.816z"/></g><path fill="#E37645" d="M21.951 66.534 32.67 62.65l54.384 150.068-10.72 3.885z"/><path fill="#000" d="m84.945 141.341-3.033 1.1.207.573 1.214-.44 1.152 3.179.606-.22-1.152-3.178 1.214-.44-.208-.574Zm1.116-.525-.563.204 1.399 3.859.563-.204-.516-1.423c-.16-.44.057-.788.419-.919.375-.136.685.024.841.456l.518 1.428.563-.204-.585-1.613c-.218-.6-.801-.865-1.412-.643-.26.094-.548.286-.648.656l-.579-1.597Zm4.268-.161c-.756.273-1.08 1.009-.789 1.813.295.815 1.034 1.154 1.803.875.388-.141.708-.363.925-.744l-.424-.299c-.15.246-.387.447-.644.54-.365.132-.759.057-1-.377l1.897-.688a2.653 2.653 0 0 0-.066-.212c-.293-.801-.984-1.169-1.702-.908Zm.17.502c.356-.129.674.019.88.396l-1.332.483c-.076-.397.053-.734.452-.879Zm6.787-.692-2.077.753-1.152-3.179-.606.22 1.36 3.752 2.682-.973-.207-.573Zm2.336-3.102-.56.203.113.31c-.26-.163-.58-.217-.944-.085-.718.26-1.079 1.031-.794 1.816.284.785 1.055 1.145 1.773.885.364-.132.576-.375.67-.667l.112.308.56-.203-.93-2.567Zm-1.133.932c.464-.168.903.073 1.073.542.17.469-.013.935-.476 1.103-.483.175-.91-.092-1.073-.542-.163-.45-.006-.929.476-1.103Zm4.129-1.785c-.328-.075-.736-.039-1.138.107-.654.237-.948.698-.763 1.207.15.412.548.565 1.144.437l.28-.062c.321-.068.496-.022.548.123.07.193-.087.386-.47.525-.418.152-.706.119-.942.044l-.108.515c.476.143.956.027 1.221-.069.74-.268 1.043-.769.864-1.262-.159-.44-.578-.558-1.167-.435l-.28.055c-.248.051-.454.068-.519-.111-.066-.183.069-.371.374-.482.319-.115.683-.108.873-.067l.083-.525Zm2.451-1.121-.983.356-.282-.777-.562.204.281.777-.512.185.185.51.512-.186.409 1.128c.247.684.701.874 1.283.663.321-.116.539-.326.695-.54l-.384-.367c-.118.152-.28.299-.454.362-.226.081-.456.013-.582-.332l-.405-1.118.984-.356-.185-.509Zm7.028-3.887-.621.225.211 3.377-2.031-2.718-.689.25.179 3.388-1.998-2.729-.635.231 2.503 3.337.751-.272-.164-3.255 1.959 2.604.751-.272-.216-4.166Zm1.613.755-.563.204.931 2.567.563-.204-.931-2.567Zm-.749-1.18a.413.413 0 0 0-.248.538c.081.222.311.33.533.249a.412.412 0 0 0 .255-.535.416.416 0 0 0-.54-.252Zm1.774-.652-.563.203 1.399 3.859.562-.204-1.398-3.858Zm1.493-.542-.563.204 1.399 3.859.562-.204-1.398-3.859Zm-28.7 19.308-.56.203.113.31c-.26-.163-.579-.217-.943-.085-.718.26-1.079 1.031-.794 1.816.284.785 1.055 1.145 1.773.885.364-.132.576-.375.67-.667l.112.308.56-.203-.93-2.567Zm-1.132.932c.464-.168.903.073 1.073.542.17.469-.013.935-.477 1.103-.482.175-.91-.092-1.072-.542-.163-.45-.006-.929.476-1.103Zm3.386-1.825c-.262.095-.553.289-.65.666l-.113-.313-.558.202.93 2.567.564-.204-.516-1.423c-.16-.44.057-.788.419-.919.375-.136.685.025.841.456l.518 1.429.563-.204-.585-1.614c-.218-.6-.802-.864-1.413-.643Zm3.047-1.104c-.718.26-1.078 1.031-.794 1.816.285.785 1.055 1.145 1.773.885.365-.132.577-.375.67-.667l.113.308.56-.203-1.399-3.859-.56.203.58 1.602c-.259-.163-.578-.217-.943-.085Zm.259.504c.463-.168.902.073 1.072.542.17.469-.013.935-.476 1.103-.482.175-.91-.092-1.073-.542-.163-.45-.006-.929.477-1.103Zm5.751-3.946-3.033 1.099.208.574 1.214-.44 1.151 3.178.606-.22-1.152-3.178 1.214-.44-.208-.573Zm1.688.652c-.756.274-1.08 1.01-.789 1.814.295.815 1.034 1.154 1.803.875.388-.141.708-.363.924-.744l-.423-.299a1.305 1.305 0 0 1-.644.54c-.365.132-.759.057-1.001-.377l1.897-.688c-.018-.066-.038-.14-.065-.213-.293-.8-.984-1.168-1.702-.908Zm.17.503c.356-.129.674.019.88.396l-1.332.483c-.077-.397.053-.735.452-.879Zm3.877-1.66c-.328-.075-.736-.039-1.138.106-.654.237-.948.698-.763 1.208.149.412.547.565 1.144.437l.28-.062c.321-.068.496-.022.548.122.07.193-.087.387-.471.526-.418.151-.705.119-.942.044l-.107.515c.476.143.956.027 1.221-.07.739-.268 1.043-.769.864-1.262-.159-.439-.578-.557-1.167-.435l-.28.056c-.248.051-.454.068-.519-.112-.066-.182.068-.37.374-.481.319-.116.682-.108.873-.068l.083-.524Zm2.451-1.122-.983.357-.282-.777-.563.203.282.778-.512.185.185.509.511-.185.409 1.128c.248.683.702.874 1.283.663.322-.117.54-.326.696-.54l-.385-.367c-.117.152-.279.298-.454.361-.225.082-.456.014-.581-.332l-.405-1.117.984-.357-.185-.509Zm3.203-1.16-.56.203.113.31c-.26-.163-.579-.217-.944-.085-.718.26-1.079 1.03-.794 1.816.284.785 1.055 1.145 1.773.885.364-.132.576-.376.671-.667l.111.308.56-.203-.93-2.567Zm-1.133.931c.464-.168.903.074 1.073.543.17.468-.013.935-.476 1.103-.483.175-.91-.092-1.073-.542-.163-.45-.006-.929.476-1.104Zm5.212-2.485c-.319.115-.683.35-.772.798-.28-.22-.662-.279-1.053-.137-.263.095-.554.289-.65.666l-.114-.313-.557.202.93 2.567.563-.204-.516-1.423c-.159-.44.057-.788.419-.919.375-.136.685.025.841.456l.518 1.428.563-.203-.516-1.423c-.159-.44.057-.788.419-.919.375-.136.685.024.841.456l.518 1.428.563-.204-.585-1.613c-.217-.6-.801-.865-1.412-.643Zm3.043-1.103c-.756.274-1.08 1.01-.789 1.814.295.814 1.034 1.153 1.803.874.388-.14.708-.362.924-.744l-.423-.298a1.308 1.308 0 0 1-.644.539c-.365.133-.759.057-1.001-.377l1.897-.687c-.018-.066-.038-.141-.065-.213-.293-.8-.984-1.168-1.702-.908Zm.17.502c.356-.129.674.02.88.397l-1.332.482c-.077-.396.053-.734.452-.879Zm3.134-1.7c-.262.095-.553.289-.649.666l-.114-.313-.557.202.93 2.567.563-.204-.516-1.423c-.159-.439.057-.788.419-.919.375-.136.685.025.841.456l.518 1.429.563-.204-.585-1.613c-.218-.601-.802-.865-1.413-.644Zm3.697-1.263-.984.356-.281-.777-.563.204.281.777-.511.185.184.51.512-.186.409 1.128c.247.684.701.874 1.283.663.321-.116.54-.326.696-.54l-.385-.367c-.118.152-.28.299-.454.362-.225.081-.456.013-.581-.332l-.405-1.118.983-.356-.184-.509Z"/><path stroke="#E37645" stroke-width=".475" d="m79.592 133.565 20.992-7.607"/><path fill="#221C54" d="M130.831 59.41c.004.01.011.03.004.044.009.121.036.26.084.39.291.805 1.253 1.105 1.904.87.837-.304 1.168-1.163.891-1.928l-.048-.13a.365.365 0 0 0-.011-.031.313.313 0 0 0-.046-.097l-.011-.03a.542.542 0 0 0-.065-.113 1.544 1.544 0 0 0-.333-.403 1.19 1.19 0 0 0-.172-.12.105.105 0 0 0-.141.029l-.186.26c-.037.06-.026.123.034.159.211.162.384.384.468.615.128.353.079.734-.273.987l-.007.014c-.027.021-.065.046-.103.071l-.047-.13-.649-1.791c-.022-.06-.078-.086-.129-.067-.042.015-.087.02-.128.035-.685.237-1.064.772-1.036 1.366Zm.867.619c-.004-.01-.004-.01-.014-.007-.014-.006-.021-.026-.035-.032-.004-.01-.014-.007-.018-.017-.003-.01-.021-.026-.025-.036-.003-.01-.007-.02-.017-.017-.004-.01-.022-.026-.025-.036l-.007-.02c-.008-.02-.022-.027-.029-.047l-.007-.02c-.029-.047-.043-.087-.065-.147l-.008-.02a.297.297 0 0 1-.022-.095l-.011-.03a.288.288 0 0 1-.012-.098c-.004-.01-.007-.02-.001-.034 0-.034.003-.058.002-.091-.004-.01.003-.024-.001-.034.003-.024.013-.062.016-.086l.02-.041.02-.042c.014-.027.037-.059.051-.086.078-.108.194-.207.338-.293l.014.04.481 1.328.019.05c-.252.08-.485.05-.664-.09ZM124.028 40.638c.004.01.011.03.005.044.009.121.035.26.083.39.291.805 1.253 1.105 1.904.87.837-.304 1.168-1.163.891-1.928a6.834 6.834 0 0 1-.058-.161c-.015-.04-.026-.07-.047-.097l-.011-.03c-.015-.04-.04-.077-.064-.113-.09-.15-.2-.292-.333-.403-.004-.01-.004-.01-.014-.007-.05-.039-.099-.078-.158-.113a.106.106 0 0 0-.142.029l-.186.26c-.037.06-.025.123.034.159.211.163.385.384.469.615.127.352.079.734-.274.987l-.007.014c-.027.021-.065.046-.102.071l-.048-.13-.649-1.791c-.021-.06-.077-.086-.129-.067-.041.015-.086.02-.128.035-.685.237-1.064.772-1.036 1.366Zm.867.619c-.003-.01-.003-.01-.014-.007-.014-.006-.021-.026-.035-.032-.003-.01-.014-.007-.017-.017-.004-.01-.022-.026-.025-.036-.004-.01-.008-.02-.018-.017-.004-.01-.021-.026-.025-.036l-.007-.02c-.007-.02-.021-.027-.029-.047l-.007-.02c-.029-.047-.043-.087-.065-.147l-.007-.02c-.011-.03-.022-.06-.023-.095l-.011-.03c-.011-.03-.011-.064-.012-.098-.004-.01-.007-.02-.001-.034 0-.034.003-.057.002-.091-.003-.01.003-.024 0-.034.003-.024.012-.062.015-.086l.021-.041.02-.042c.013-.027.037-.059.05-.086.078-.108.194-.207.338-.293l.014.04.482 1.328.018.05a.726.726 0 0 1-.664-.09ZM128.928 54.125l.131.362c.022.06.088.082.14.063l2.479-.898a.109.109 0 0 0 .067-.139l-.131-.362a.109.109 0 0 0-.14-.063l-2.479.899a.108.108 0 0 0-.067.138ZM127.252 53.149l.131.362a.11.11 0 0 0 .14.063l3.647-1.321a.109.109 0 0 0 .067-.138l-.132-.362c-.021-.06-.088-.082-.139-.063l-3.637 1.317c-.062.023-.099.082-.077.142ZM124.938 43.05l.132.363c.021.06.088.082.139.063l1.385-.502c.516-.187.814.024.942.376.131.362.033.705-.483.892l-1.384.501a.109.109 0 0 0-.067.139l.131.362c.022.06.088.081.14.063l1.436-.52c.857-.311.993-1.032.771-1.646-.223-.613-.789-1.08-1.646-.769l-1.436.52a.128.128 0 0 0-.06.158ZM127.593 50.636c.292.805 1.12 1.188 1.926.896.806-.292 1.2-1.107.905-1.922-.292-.804-1.12-1.187-1.926-.895-.806.292-1.197 1.116-.905 1.921Zm2.273-.824a.899.899 0 0 1-.555 1.146.898.898 0 0 1-1.16-.524.898.898 0 0 1 .555-1.146.885.885 0 0 1 1.16.524ZM127.831 54.715a.372.372 0 0 0 .49.22.37.37 0 0 0 .233-.482.37.37 0 0 0-.489-.221.385.385 0 0 0-.234.483ZM126.032 46.102l.142.393c.015.04.07.065.112.05l.175-.063a4.25 4.25 0 0 0 .062-.023 1.393 1.393 0 0 0-.107.221 4.807 4.807 0 0 1-.029.113c-.006.014-.003.024-.009.038l-.01.071c-.006.014.001.034-.006.048-.006.014.001.034-.002.058a.612.612 0 0 1 .002.136l.008.02c.011.03.008.054.018.084l.008.02a1.289 1.289 0 0 0 .607.838c.34.196.799.302 1.295.123.868-.315 1.14-1.176.925-1.77a1.319 1.319 0 0 0-.342-.524c-.021-.027-.049-.04-.077-.052a1.038 1.038 0 0 0-.273-.14c.041-.015.1-.047.203-.085.496-.18.912 0 1.105.533.102.282.114.573.067.863-.009.072.034.125.107.133l.357.018c.048.005.093-.034.109-.085.02-.075.025-.157.027-.249l-.004-.01a1.958 1.958 0 0 0-.059-.582l-.003-.01c-.015-.04-.019-.084-.034-.124l-.007-.02-.047-.131c-.288-.795-.905-1.14-1.65-.973-.076.016-.148.042-.221.069l-2.386.864-.01.004a.117.117 0 0 0-.053.144Zm2.66.47a.899.899 0 0 1-.555 1.146.898.898 0 0 1-1.16-.524.898.898 0 0 1 .554-1.146.899.899 0 0 1 1.161.525ZM130.657 54.704c-.764.277-1.143.972-.989 1.656.018.05.026.104.044.154l.018.05.026.071c.007.02.015.04.032.057.008.02.015.04.032.056.008.02.011.03.029.047l.064.08c.003.01.017.016.021.026.018.016.039.042.057.059.003.01.017.016.021.026.017.017.039.043.067.056 0 0 .014.006.017.016.028.013.05.04.077.052.074.041.144.073.224.1l-.238.087c-.041.015-.068.07-.053.11l.142.393c.018.05.074.075.119.07l.021-.007 3.533-1.28.062-.023a.109.109 0 0 0 .067-.138l-.132-.362c-.021-.06-.088-.082-.139-.063l-.062.022-1.271.46c.051-.086.097-.182.13-.285 0 0 .007-.014.003-.024-.003-.01.007-.014.003-.024.003-.024.013-.062.016-.086-.004-.01.007-.013.003-.023-.001-.034.002-.058.002-.092-.004-.01.003-.024-.004-.044.003-.024-.008-.054-.005-.078-.004-.01-.001-.034-.004-.044-.011-.03-.012-.064-.019-.084l-.015-.04-.033-.091-.007-.02c-.236-.78-1.032-1.14-1.859-.84Zm1.356 1.033a.898.898 0 0 1-.554 1.146.897.897 0 0 1-1.16-.524.898.898 0 0 1 .554-1.146.897.897 0 0 1 1.16.524Z"/><g filter="url(#b)"><path fill="#fff" d="m48.555 44.406 113.657-27.19 37.137 155.239-113.657 27.19z"/></g><path fill="#221C54" d="m48.555 44.406 11.088-2.653 37.137 155.24-11.088 2.652z"/><path fill="#000" d="m102.725 125.832-3.138.751.141.593 1.256-.3.787 3.288.626-.15-.786-3.288 1.256-.3-.142-.594Zm1.168-.396-.582.139.955 3.992.582-.14-.352-1.472c-.109-.454.145-.776.519-.865.389-.093.678.101.785.548l.354 1.477.582-.139-.4-1.669c-.148-.621-.699-.949-1.331-.798-.268.064-.576.223-.717.579l-.395-1.652Zm4.259.32c-.782.187-1.187.882-.988 1.714.201.842.897 1.262 1.692 1.072.402-.096.745-.281 1.003-.636l-.387-.344c-.177.227-.435.4-.701.464-.377.09-.76-.029-.952-.488l1.963-.469c-.011-.068-.023-.144-.041-.219-.201-.828-.846-1.272-1.589-1.094Zm.112.518c.369-.088.668.096.83.493l-1.378.33c-.031-.403.135-.724.548-.823Zm6.821.077-2.148.514-.787-3.288-.626.15.928 3.881 2.775-.664-.142-.593Zm2.671-2.819-.579.138.077.322c-.239-.192-.551-.282-.928-.191-.743.177-1.188.902-.994 1.714.195.813.919 1.258 1.662 1.08.377-.09.615-.308.742-.588l.076.319.58-.139-.636-2.655Zm-1.23.798c.479-.115.889.174 1.005.66.116.485-.118.928-.598 1.042-.499.12-.893-.193-1.005-.659-.111-.466.099-.923.598-1.043Zm4.303-1.308c-.317-.111-.727-.122-1.142-.022-.677.161-1.021.587-.895 1.113.102.427.481.624 1.088.564l.285-.031c.327-.031.495.034.531.184.048.2-.13.374-.527.469-.432.104-.714.039-.941-.062l-.165.5c.458.195.947.134 1.221.068.765-.183 1.123-.647 1.001-1.157-.108-.454-.511-.619-1.11-.564l-.285.025c-.252.022-.459.016-.503-.17-.045-.189.11-.361.426-.436.33-.079.69-.031.875.031l.141-.512Zm2.562-.838-1.017.243-.192-.804-.582.139.192.804-.53.127.126.527.53-.127.279 1.167c.169.707.599.947 1.2.803a1.47 1.47 0 0 0 .752-.458l-.34-.408c-.135.138-.312.265-.492.308-.233.056-.455-.038-.54-.395l-.277-1.156 1.017-.244-.126-.526Zm7.421-3.071-.643.154-.17 3.379-1.712-2.929-.713.171-.203 3.386-1.679-2.936-.657.157 2.112 3.598.777-.186.203-3.252 1.654 2.808.776-.186.255-4.164Zm1.518.932-.582.14.635 2.655.582-.139-.635-2.656Zm-.612-1.257a.412.412 0 0 0-.306.507c.055.23.271.363.501.308a.413.413 0 0 0 .314-.503.418.418 0 0 0-.509-.312Zm1.837-.448-.583.139.955 3.992.582-.139-.954-3.992Zm1.544-.37-.582.14.955 3.991.582-.139-.955-3.992Zm-30.691 15.953-.579.138.076.322c-.239-.192-.55-.282-.927-.192-.743.178-1.188.903-.994 1.715.194.812.919 1.257 1.662 1.08.377-.09.615-.309.742-.588l.076.319.579-.139-.635-2.655Zm-1.23.798c.479-.115.888.174 1.004.659.116.485-.118.928-.597 1.043-.499.119-.894-.194-1.005-.659-.111-.466.099-.924.598-1.043Zm3.57-1.432c-.272.065-.583.225-.721.589l-.078-.324-.576.138.635 2.655.582-.139-.352-1.472c-.109-.455.146-.776.52-.866.388-.093.678.102.784.548l.354 1.478.582-.139-.399-1.669c-.149-.621-.699-.95-1.331-.799Zm3.152-.754c-.743.178-1.188.903-.994 1.715.194.813.919 1.258 1.662 1.08.377-.09.615-.309.742-.588l.076.319.579-.139-.955-3.992-.579.139.397 1.658c-.24-.192-.551-.282-.928-.192Zm.2.53c.479-.115.888.174 1.004.659.116.486-.118.928-.597 1.043-.499.119-.894-.194-1.005-.659-.111-.466.099-.924.598-1.043Zm6.159-3.273-3.138.751.142.593 1.256-.3.786 3.287.627-.15-.787-3.287 1.256-.301-.142-.593Zm1.603.839c-.781.187-1.187.881-.988 1.713.202.843.897 1.263 1.693 1.072.402-.096.745-.28 1.003-.635l-.388-.344c-.177.227-.434.4-.7.463-.377.091-.761-.029-.952-.487l1.962-.47a2.478 2.478 0 0 0-.04-.218c-.201-.829-.847-1.272-1.59-1.094Zm.113.518c.368-.088.667.095.83.493l-1.378.33c-.032-.403.135-.724.548-.823Zm4.039-1.213c-.317-.111-.727-.122-1.143-.022-.676.162-1.02.587-.894 1.113.102.427.48.624 1.087.564l.286-.03c.327-.032.495.034.531.183.047.2-.131.374-.527.469-.433.104-.715.039-.941-.062l-.165.5c.457.195.947.134 1.221.068.765-.183 1.123-.647 1.001-1.157-.109-.454-.511-.619-1.111-.563l-.284.024c-.253.022-.459.016-.504-.17-.045-.189.11-.36.426-.436.33-.079.691-.03.875.031l.142-.512Zm2.562-.838-1.017.243-.193-.804-.582.14.192.803-.529.127.126.527.529-.127.28 1.167c.169.707.598.947 1.2.803a1.47 1.47 0 0 0 .752-.458l-.341-.408c-.134.138-.312.265-.492.308-.233.056-.454-.038-.54-.395l-.276-1.156 1.017-.244-.126-.526Zm3.313-.793-.579.139.077.321c-.24-.192-.551-.281-.928-.191-.743.178-1.188.903-.994 1.715.195.812.919 1.257 1.662 1.079.377-.09.615-.308.742-.587l.076.318.58-.138-.636-2.656Zm-1.23.799c.479-.115.889.174 1.005.659.116.485-.118.928-.598 1.043-.499.119-.893-.194-1.005-.66-.111-.465.099-.923.598-1.042Zm5.458-1.883c-.33.078-.718.271-.857.706-.253-.25-.626-.352-1.031-.255-.272.065-.582.224-.721.589l-.077-.325-.577.138.635 2.656.583-.139-.353-1.472c-.108-.455.146-.776.52-.866.388-.093.678.102.785.548l.353 1.477.582-.139-.352-1.472c-.109-.454.146-.776.52-.866.388-.092.678.102.785.548l.353 1.478.582-.139-.399-1.669c-.149-.621-.699-.95-1.331-.798Zm3.148-.754c-.782.187-1.187.882-.988 1.714.202.843.897 1.262 1.692 1.072.402-.096.745-.281 1.003-.635l-.387-.344a1.3 1.3 0 0 1-.701.463c-.377.09-.76-.029-.952-.487l1.963-.47a2.516 2.516 0 0 0-.041-.219c-.201-.828-.846-1.271-1.589-1.094Zm.112.519c.369-.089.668.095.83.493l-1.377.329c-.032-.402.134-.723.547-.822Zm3.306-1.336c-.271.065-.582.224-.72.588l-.078-.324-.577.138.636 2.656.582-.14-.352-1.472c-.109-.454.145-.776.519-.866.388-.092.678.102.785.548l.353 1.478.583-.139-.4-1.669c-.148-.621-.699-.95-1.331-.798Zm3.815-.84-1.017.244-.192-.804-.582.139.192.804-.53.127.126.526.53-.126.279 1.167c.169.707.599.947 1.2.803.333-.08.573-.263.752-.459l-.34-.407c-.135.137-.312.265-.492.308-.233.055-.455-.038-.54-.396l-.277-1.156 1.017-.243-.126-.527Z"/><path stroke="#E37645" stroke-width=".475" d="m98.28 117.502 21.714-5.194"/><path fill="#221C54" d="M157.103 47.742c.003.01.008.03 0 .044-.005.122.006.262.038.398.2.832 1.122 1.239 1.795 1.078.865-.207 1.291-1.024 1.102-1.815l-.032-.136-.008-.03c-.01-.042-.017-.074-.035-.102l-.008-.032a.51.51 0 0 0-.051-.12 1.546 1.546 0 0 0-.286-.437 1.213 1.213 0 0 0-.157-.139.106.106 0 0 0-.144.013l-.214.238c-.044.055-.039.12.016.161.191.186.339.425.396.665.087.364-.004.738-.383.95l-.008.012c-.03.019-.07.04-.11.06a14.28 14.28 0 0 1-.032-.135l-.444-1.853c-.014-.062-.067-.094-.121-.08-.042.01-.088.01-.13.02-.708.158-1.145.647-1.184 1.24Zm.792.712c-.002-.01-.002-.01-.013-.008-.013-.007-.018-.028-.031-.036-.003-.01-.013-.008-.016-.018-.002-.01-.018-.029-.021-.04-.002-.01-.005-.02-.015-.018-.003-.01-.018-.028-.021-.039l-.005-.02c-.005-.021-.018-.03-.023-.05l-.005-.02a.75.75 0 0 1-.048-.154l-.005-.021c-.007-.031-.015-.063-.012-.096l-.007-.031c-.008-.032-.004-.066-.001-.1-.003-.01-.005-.02.003-.033.003-.034.009-.057.012-.091-.002-.01.006-.023.003-.034.006-.023.02-.06.026-.083l.024-.039.025-.039c.016-.026.043-.054.06-.08.089-.098.216-.184.368-.253l.01.041.329 1.374.013.052c-.259.051-.487-.004-.65-.164ZM152.457 28.323c.002.01.007.03-.001.044-.004.122.007.262.039.398.199.832 1.121 1.239 1.794 1.078.866-.207 1.292-1.024 1.103-1.815l-.033-.136-.007-.03a.327.327 0 0 0-.036-.102l-.007-.032c-.01-.041-.031-.08-.052-.12a1.544 1.544 0 0 0-.285-.437c-.003-.01-.003-.01-.013-.008-.045-.044-.089-.089-.144-.13a.106.106 0 0 0-.144.012l-.215.238c-.043.055-.039.12.016.161.192.186.339.425.397.665.087.364-.005.738-.383.95l-.008.013a1.82 1.82 0 0 1-.111.059 4.284 4.284 0 0 0-.032-.135l-.443-1.853c-.015-.062-.068-.094-.121-.08-.043.01-.088.01-.131.02-.708.158-1.144.647-1.183 1.24Zm.792.712c-.003-.01-.003-.01-.013-.007-.014-.008-.019-.03-.032-.037-.002-.01-.013-.008-.015-.018-.003-.01-.019-.029-.021-.04-.003-.01-.005-.02-.016-.017-.002-.01-.018-.03-.02-.04l-.005-.02c-.005-.021-.018-.03-.023-.05l-.005-.02a.645.645 0 0 1-.048-.154l-.005-.021a.282.282 0 0 1-.012-.096l-.008-.032a.326.326 0 0 1-.001-.098c-.002-.01-.005-.021.004-.034.003-.034.008-.057.012-.09-.003-.011.005-.024.003-.035.006-.023.02-.06.025-.083l.025-.039.024-.039c.017-.026.044-.054.06-.08.09-.098.216-.184.369-.253l.01.041.329 1.374.012.052a.725.725 0 0 1-.649-.164ZM155.807 42.276l.09.374a.109.109 0 0 0 .132.079l2.564-.614a.108.108 0 0 0 .082-.13l-.089-.374a.11.11 0 0 0-.132-.078l-2.565.613a.109.109 0 0 0-.082.13ZM154.253 41.118l.089.375a.11.11 0 0 0 .132.078l3.772-.902a.108.108 0 0 0 .082-.13l-.089-.375a.11.11 0 0 0-.132-.078l-3.762.9c-.064.015-.107.07-.092.132ZM153.089 30.823l.089.375a.11.11 0 0 0 .132.078l1.432-.342c.534-.128.807.115.894.479.09.375-.046.704-.58.832l-1.432.343a.108.108 0 0 0-.082.13l.089.374a.11.11 0 0 0 .132.078l1.485-.355c.887-.212 1.104-.913.952-1.548-.152-.635-.662-1.162-1.549-.95l-1.485.356a.128.128 0 0 0-.077.15ZM154.874 38.66c.199.832.979 1.305 1.813 1.106.833-.2 1.317-.964 1.115-1.807-.199-.833-.979-1.306-1.812-1.107-.834.2-1.315.975-1.116 1.807Zm2.351-.563a.898.898 0 0 1-.68 1.076.899.899 0 0 1-1.094-.652.899.899 0 0 1 .68-1.076.885.885 0 0 1 1.094.652ZM154.651 42.739c.05.208.248.326.461.275a.37.37 0 0 0 .287-.454.37.37 0 0 0-.461-.275.385.385 0 0 0-.287.454ZM153.833 33.979l.097.406c.01.041.063.073.106.062l.182-.043.064-.015a1.253 1.253 0 0 0-.131.207l-.042.109c-.008.013-.006.023-.014.036l-.017.07c-.008.014-.003.034-.012.047-.008.013-.003.034-.009.057a.573.573 0 0 1-.012.136l.005.02c.007.032.001.055.009.086a.27.27 0 0 0 .005.02 1.294 1.294 0 0 0 .509.901c.316.234.76.392 1.273.269.898-.215 1.265-1.04 1.118-1.654a1.316 1.316 0 0 0-.281-.56.192.192 0 0 0-.07-.06 1.04 1.04 0 0 0-.256-.17c.043-.01.105-.036.211-.061.513-.123.906.102 1.038.654.07.29.049.582-.03.865-.017.07.019.127.091.143l.353.059c.047.01.096-.023.118-.073.028-.072.042-.153.055-.244l-.003-.01c.035-.184.03-.392.007-.585l-.003-.01c-.009-.042-.009-.086-.019-.128l-.005-.02-.032-.136c-.197-.822-.77-1.235-1.53-1.152a1.683 1.683 0 0 0-.227.043l-2.468.59-.011.003a.117.117 0 0 0-.069.138Zm2.59.767a.898.898 0 0 1-.68 1.075.898.898 0 0 1-1.094-.651.899.899 0 0 1 .681-1.076.898.898 0 0 1 1.093.651ZM157.46 43.046c-.79.19-1.246.837-1.169 1.534.012.052.014.107.026.159l.013.052.017.073c.005.02.01.041.026.06.005.02.01.041.026.06.005.02.007.03.023.049l.054.086c.003.01.016.018.018.029.016.018.034.047.05.065.002.01.016.018.018.029.016.018.034.046.06.062 0 0 .013.008.016.018.026.016.044.045.071.06.068.05.134.09.21.126l-.245.059c-.043.01-.076.062-.066.103l.097.406c.013.052.065.084.111.084l.021-.005 3.655-.874.064-.016a.11.11 0 0 0 .082-.13l-.09-.374a.109.109 0 0 0-.132-.079l-.064.016-1.314.314c.06-.08.117-.17.161-.27 0 0 .008-.012.006-.023-.003-.01.008-.013.006-.023.005-.023.019-.06.025-.083-.002-.01.008-.013.006-.024.003-.033.009-.057.012-.09-.003-.01.006-.024.001-.045.005-.023-.002-.054.004-.078-.003-.01.003-.033 0-.044-.007-.031-.004-.065-.009-.086a.63.63 0 0 0-.01-.041l-.022-.094-.005-.02c-.147-.802-.898-1.25-1.753-1.045Zm1.232 1.18a.899.899 0 0 1-.681 1.076.898.898 0 0 1-1.093-.652.897.897 0 0 1 .68-1.076.898.898 0 0 1 1.094.652Z"/><g filter="url(#c)"><path fill="#fff" d="m82.738 28.617 116.763 4.855-6.632 159.482-116.763-4.856z"/></g><path fill="#C8C2E1" d="m82.738 28.617 11.391.474-6.632 159.48-11.39-.473z"/><path fill="#000" d="m112.477 125.532-3.224-.134-.025.609 1.29.054-.14 3.378.643.026.141-3.377 1.29.054.025-.61Zm1.232-.063-.598-.025-.17 4.101.598.025.063-1.512c.019-.467.351-.707.736-.691.399.016.624.283.605.741l-.063 1.518.598.025.071-1.715c.027-.638-.413-1.104-1.062-1.131-.276-.011-.616.057-.848.362l.07-1.698Zm4.01 1.471c-.803-.034-1.383.524-1.418 1.379-.036.865.518 1.459 1.336 1.493.413.017.793-.067 1.138-.338l-.279-.437a1.3 1.3 0 0 1-.801.255c-.387-.016-.723-.235-.782-.728l2.016.083c.008-.068.017-.144.021-.221.032-.852-.468-1.455-1.231-1.486Zm-.033.529c.378.016.616.274.664.701l-1.416-.059c.08-.396.327-.66.752-.642Zm6.541 1.935-2.207-.092.14-3.377-.643-.027-.166 3.987 2.851.119.025-.61Zm3.339-1.984-.595-.024-.014.33c-.178-.25-.453-.421-.84-.437-.764-.032-1.39.544-1.424 1.378-.035.835.541 1.461 1.304 1.493.388.016.676-.129.874-.364l-.014.328.596.025.113-2.729Zm-1.402.433c.493.02.808.41.787.908-.021.499-.367.861-.859.84-.513-.021-.807-.43-.787-.908.02-.478.347-.861.859-.84Zm4.497-.084c-.274-.194-.666-.316-1.093-.334-.695-.029-1.141.287-1.164.828-.018.438.292.731.892.838l.284.049c.322.059.466.168.46.322-.009.205-.228.324-.635.307-.444-.018-.698-.157-.888-.316l-.295.435c.386.313.874.388 1.156.399.786.033 1.257-.315 1.279-.839.019-.468-.324-.736-.915-.846l-.28-.054c-.249-.048-.447-.11-.439-.301.008-.194.205-.317.529-.303.339.014.673.159.834.268l.275-.453Zm2.694-.108-1.045-.043.034-.826-.598-.025-.034.826-.544-.023-.023.541.544.023-.049 1.199c-.031.726.317 1.074.935 1.1.342.014.623-.097.849-.236l-.217-.485c-.167.096-.372.17-.557.162-.239-.01-.427-.16-.412-.528l.049-1.187 1.046.043.022-.541Zm7.977-.929-.66-.027-1.086 3.204-.848-3.285-.732-.03-1.12 3.202-.814-3.283-.675-.028 1.051 4.038.797.033 1.083-3.073.825 3.152.798.033 1.381-3.936Zm1.206 1.311-.598-.025-.114 2.728.598.025.114-2.728Zm-.245-1.377a.414.414 0 0 0-.434.405.41.41 0 0 0 .399.433.414.414 0 0 0 .439-.399.418.418 0 0 0-.404-.439Zm1.889.07-.599-.025-.17 4.101.598.025.171-4.101Zm1.586.066-.598-.025-.17 4.101.598.025.17-4.101Zm-33.879 6.973-.595-.025-.014.33c-.178-.25-.453-.421-.841-.437-.763-.032-1.389.544-1.423 1.379-.035.834.541 1.46 1.304 1.492.387.016.676-.129.874-.363l-.014.327.595.025.114-2.728Zm-1.402.432c.493.021.808.41.787.909-.021.498-.367.86-.859.84-.513-.022-.807-.43-.787-.909.02-.478.347-.861.859-.84Zm3.826-.403c-.279-.012-.622.057-.854.37l.013-.334-.592-.024-.113 2.728.598.025.063-1.512c.019-.467.351-.707.736-.691.399.016.624.282.605.741l-.063 1.518.598.025.071-1.715c.027-.638-.413-1.104-1.062-1.131Zm3.238.135c-.764-.032-1.389.544-1.424 1.378-.035.835.541 1.461 1.304 1.492.388.017.676-.128.874-.363l-.013.328.595.025.17-4.101-.595-.025-.071 1.703c-.178-.25-.453-.421-.84-.437Zm.048.564c.492.02.807.41.786.908-.02.499-.366.861-.859.84-.513-.021-.807-.43-.787-.908.02-.479.347-.862.86-.84Zm6.818-1.468-3.223-.134-.026.609 1.29.054-.14 3.377.643.027.141-3.378 1.29.054.025-.609Zm1.314 1.244c-.803-.033-1.383.524-1.418 1.379-.036.866.518 1.459 1.336 1.493.413.017.793-.067 1.138-.338l-.279-.436c-.232.17-.527.266-.801.254-.387-.016-.723-.235-.782-.728l2.016.084c.009-.068.017-.145.021-.222.032-.852-.468-1.454-1.231-1.486Zm-.033.529c.378.016.616.274.664.701l-1.416-.059c.08-.396.327-.66.752-.642Zm4.216-.064c-.274-.194-.666-.316-1.093-.334-.695-.029-1.141.287-1.164.828-.018.438.292.731.892.838l.284.049c.322.059.466.168.46.322-.009.205-.228.324-.635.307-.444-.018-.698-.157-.888-.316l-.295.435c.386.313.874.388 1.156.399.786.033 1.257-.315 1.279-.839.019-.468-.323-.736-.915-.846l-.28-.054c-.249-.048-.446-.11-.439-.301.009-.194.205-.317.529-.303.339.014.673.159.834.268l.275-.453Zm2.694-.108-1.045-.043.034-.826-.598-.025-.034.826-.544-.023-.022.541.543.023-.049 1.199c-.031.726.317 1.074.935 1.1.342.014.623-.097.849-.236l-.217-.485c-.166.096-.372.17-.557.162-.239-.01-.427-.16-.412-.528l.05-1.187 1.045.043.022-.541Zm3.404.142-.595-.025-.014.33c-.178-.25-.453-.421-.84-.437-.764-.032-1.39.544-1.424 1.379-.035.834.541 1.46 1.304 1.492.387.016.676-.129.874-.363l-.014.327.596.025.113-2.728Zm-1.402.432c.493.021.808.41.787.909-.021.498-.367.86-.859.84-.513-.022-.807-.43-.787-.909.02-.478.347-.861.859-.84Zm5.765-.322c-.339-.014-.764.065-1.017.445-.175-.309-.506-.508-.922-.526-.279-.011-.622.057-.854.37l.014-.333-.593-.025-.113 2.728.598.025.063-1.512c.019-.467.351-.707.736-.691.399.016.624.282.605.741l-.063 1.518.598.025.063-1.512c.019-.468.352-.708.736-.692.399.017.625.283.606.742l-.063 1.518.598.024.071-1.714c.026-.638-.414-1.104-1.063-1.131Zm3.234.134c-.803-.033-1.382.525-1.418 1.379-.036.866.519 1.46 1.336 1.494.413.017.793-.067 1.138-.338l-.279-.437c-.232.17-.527.266-.8.255-.388-.016-.724-.236-.783-.729l2.016.084a2.43 2.43 0 0 0 .021-.222c.032-.851-.467-1.454-1.231-1.486Zm-.033.53c.379.015.616.273.664.7l-1.415-.058c.079-.397.327-.66.751-.642Zm3.545-.384c-.279-.011-.621.057-.854.37l.014-.333-.592-.025-.114 2.728.598.025.063-1.512c.019-.467.352-.707.736-.691.399.016.625.283.606.741l-.064 1.518.599.025.071-1.715c.026-.637-.414-1.104-1.063-1.131Zm3.899.234-1.045-.044.035-.826-.599-.024-.034.826-.544-.023-.022.541.544.023-.05 1.199c-.03.726.317 1.074.935 1.1.342.014.623-.097.849-.236l-.217-.485c-.166.095-.372.17-.557.162-.239-.01-.427-.161-.412-.528l.05-1.188 1.045.044.022-.541Z"/><path stroke="#E37645" stroke-width=".475" d="m110.473 116.305 22.308.928"/><path fill="#221C54" d="M186.059 66.192c0 .01-.001.032-.013.042a1.504 1.504 0 0 0-.071.393c-.036.855.74 1.498 1.432 1.527.889.037 1.522-.633 1.556-1.445l.006-.14.001-.032a.306.306 0 0 0-.007-.107l.002-.032a.577.577 0 0 0-.017-.13 1.575 1.575 0 0 0-.155-.498c0-.011-.072-.121-.114-.176a.106.106 0 0 0-.142-.028l-.271.171c-.056.04-.07.104-.028.16.133.23.21.5.2.747-.016.374-.206.709-.628.81l-.011.01c-.034.009-.078.017-.122.026l.005-.139.08-1.903c.002-.064-.04-.108-.095-.11-.044-.002-.087-.015-.131-.017-.724-.04-1.278.311-1.477.87Zm.567.901c.001-.01.001-.01-.01-.01-.011-.012-.01-.033-.02-.044 0-.011-.011-.012-.01-.022 0-.011-.01-.033-.01-.044.001-.01.001-.021-.01-.021.001-.011-.009-.033-.009-.044l.001-.021c.001-.021-.01-.033-.009-.054l.001-.021a.705.705 0 0 1-.004-.161l.001-.022c.001-.032.002-.064.015-.095l.001-.032c.001-.032.014-.064.026-.096 0-.01.001-.021.012-.031.013-.032.024-.053.037-.084 0-.011.012-.021.012-.032.012-.021.035-.052.047-.073a.94.94 0 0 0 .034-.03l.035-.032c.023-.02.056-.04.079-.06.113-.07.258-.118.424-.143l-.002.042-.058 1.412a1.562 1.562 0 0 1-.003.053c-.263-.022-.467-.137-.58-.335ZM186.889 46.242c0 .011-.001.032-.013.043a1.546 1.546 0 0 0-.071.393c-.036.855.741 1.498 1.432 1.527.889.037 1.522-.633 1.556-1.446l.006-.139.001-.032a.306.306 0 0 0-.007-.107l.002-.032c.002-.043-.008-.086-.017-.13a1.55 1.55 0 0 0-.155-.498c0-.011 0-.011-.011-.012a1.266 1.266 0 0 0-.103-.165.105.105 0 0 0-.141-.027l-.272.17c-.056.041-.07.105-.028.16.133.23.21.502.2.748-.016.374-.206.709-.628.809l-.011.01c-.034.01-.078.018-.122.027l.005-.139.08-1.903c.002-.064-.04-.109-.095-.11-.044-.003-.087-.015-.131-.017-.724-.04-1.278.311-1.477.87Zm.567.902c.001-.01.001-.01-.01-.011-.011-.011-.01-.033-.02-.044 0-.01-.011-.01-.01-.022 0-.01-.01-.032-.01-.043.001-.01.001-.021-.01-.022.001-.01-.009-.032-.009-.043l.001-.021c.001-.022-.01-.033-.009-.054l.001-.022c-.009-.053-.007-.096-.004-.16l.001-.022a.265.265 0 0 1 .015-.096l.001-.032c.001-.032.014-.063.026-.095.001-.01.001-.021.012-.032.013-.031.025-.052.037-.084 0-.01.012-.02.012-.031.012-.021.035-.052.047-.073l.034-.031.035-.03c.023-.021.056-.041.079-.062.113-.07.258-.117.424-.143l-.002.043-.058 1.411a1.562 1.562 0 0 1-.003.054.726.726 0 0 1-.58-.335ZM186.304 60.58l-.016.384c-.003.065.05.11.105.112l2.635.11a.108.108 0 0 0 .114-.103l.016-.385a.108.108 0 0 0-.105-.111l-2.635-.11c-.055-.002-.112.038-.114.103ZM185.124 59.041l-.016.385c-.003.064.05.11.105.112l3.876.16a.109.109 0 0 0 .114-.101l.016-.385a.11.11 0 0 0-.106-.112l-3.864-.16c-.066-.003-.122.037-.125.101ZM186.814 48.82l-.016.385a.11.11 0 0 0 .106.111l1.471.061c.549.023.745.331.729.705-.016.385-.236.665-.785.642l-1.471-.06a.11.11 0 0 0-.115.102l-.016.384a.11.11 0 0 0 .106.112l1.526.063c.911.038 1.31-.577 1.337-1.23.028-.651-.319-1.298-1.231-1.335l-1.526-.064a.129.129 0 0 0-.115.124ZM186.392 56.846c-.035.855.586 1.523 1.442 1.559.856.035 1.53-.568 1.566-1.434.036-.856-.585-1.524-1.441-1.56-.857-.035-1.531.58-1.567 1.434Zm2.416.1a.9.9 0 0 1-.949.85.898.898 0 0 1-.874-.926.898.898 0 0 1 .948-.85c.506.011.895.423.875.926ZM185.066 60.71a.37.37 0 0 0 .369.39.37.37 0 0 0 .4-.358.37.37 0 0 0-.369-.39.385.385 0 0 0-.4.358ZM186.669 52.059l-.017.417c-.002.043.04.087.084.09l.187.007.066.003c-.068.05-.125.102-.183.163l-.07.094c-.011.01-.012.02-.023.031l-.036.063c-.011.01-.012.031-.024.042-.011.01-.012.031-.024.052a.543.543 0 0 1-.049.127l-.001.021c-.001.032-.013.053-.014.085l-.001.021c-.014.064-.017.139-.02.203-.011.278.087.56.264.804.24.31.624.583 1.151.604.923.039 1.501-.655 1.527-1.286.01-.235-.036-.44-.117-.615-.01-.032-.031-.055-.052-.077a1.025 1.025 0 0 0-.199-.233c.044.002.11-.006.22-.002.527.022.843.346.82.913-.013.299-.112.573-.265.824-.036.063-.017.128.048.163l.323.152c.043.023.099.004.134-.037.047-.062.083-.136.119-.22l.001-.01c.083-.169.136-.37.166-.561v-.011c.002-.043.015-.085.017-.128v-.021l.006-.14c.035-.844-.403-1.398-1.157-1.525-.076-.014-.153-.017-.23-.02l-2.536-.106h-.011a.118.118 0 0 0-.104.113Zm2.283 1.444a.898.898 0 0 1-.948.85.899.899 0 0 1-.875-.925.898.898 0 0 1 .948-.85.899.899 0 0 1 .875.925ZM187.684 61.772c-.812-.034-1.427.465-1.544 1.157-.002.053-.015.106-.017.16l-.002.053-.004.075c0 .021-.001.043.009.065a.132.132 0 0 0 .008.064.094.094 0 0 0 .009.054l.029.098c-.001.01.01.022.009.032.01.022.02.055.03.076 0 .011.01.022.01.033.01.022.02.054.041.077 0 0 .01.01.01.021.021.023.03.055.052.078.052.066.104.122.168.178l-.252-.01c-.044-.002-.09.039-.092.081l-.017.417c-.002.054.04.098.083.11l.022.002 3.755.156.066.003a.109.109 0 0 0 .114-.103l.016-.385a.11.11 0 0 0-.106-.111l-.065-.003-1.351-.056c.08-.06.16-.133.229-.215 0 0 .012-.01.012-.021.001-.011.011-.01.012-.021.012-.021.035-.052.047-.073 0-.01.011-.01.012-.021.012-.032.024-.053.036-.084.001-.011.012-.021.013-.043.012-.02.013-.053.025-.074.001-.01.012-.031.013-.042.001-.032.014-.063.014-.085a3.093 3.093 0 0 0 .006-.139l.001-.021c.078-.811-.523-1.446-1.401-1.483Zm.863 1.471a.898.898 0 0 1-.948.85.899.899 0 0 1-.875-.926.898.898 0 0 1 .948-.85.899.899 0 0 1 .875.926Z"/><g filter="url(#d)"><path fill="#fff" d="M145.496 22.916 247.482 79.98l-77.94 139.297-101.985-57.063z"/></g><path fill="#DDC59C" d="m145.496 22.916 9.95 5.567-77.94 139.297-9.949-5.567z"/><path fill="#221C54" d="m126.663 123.954-1.928-1.079 1.651-2.95-.563-.315-1.948 3.483 2.49 1.393.298-.532Zm3.875-.262-.52-.291-.162.288c-.046-.303-.214-.58-.552-.769-.667-.373-1.485-.142-1.893.587-.408.729-.177 1.547.49 1.92.338.189.661.19.944.071l-.161.286.52.291 1.334-2.383Zm-1.446-.247c.43.24.535.73.291 1.165-.243.436-.715.603-1.146.362-.447-.251-.525-.748-.291-1.166.234-.418.698-.612 1.146-.361Zm4.05 1.955c-.157-.297-.452-.582-.825-.791-.607-.339-1.148-.26-1.412.213-.214.383-.07.784.417 1.151l.231.171c.261.199.341.361.265.495-.1.179-.349.187-.705-.012-.388-.217-.551-.456-.649-.684l-.46.256c.203.453.605.74.851.878.687.384 1.264.286 1.52-.172.228-.408.044-.802-.434-1.167l-.226-.176c-.2-.154-.348-.299-.255-.466.095-.169.325-.19.609-.031.296.165.528.445.622.616l.451-.281Zm2.452 1.121-.913-.511.404-.721-.523-.293-.403.722-.475-.266-.265.473.475.265-.586 1.048c-.354.634-.201 1.102.338 1.404.299.167.6.195.864.173l.026-.531c-.192.01-.409-.017-.571-.107-.209-.117-.308-.336-.129-.657l.581-1.037.913.511.264-.473Zm7.537 2.773-.577-.323-2.416 2.369.727-3.314-.639-.357-2.446 2.351.757-3.296-.59-.33-.886 4.077.696.389 2.355-2.252-.688 3.185.696.39 3.011-2.889Zm.484 1.715-.523-.293-1.333 2.383.522.293 1.334-2.383Zm.403-1.339a.413.413 0 0 0-.57.164.41.41 0 0 0 .16.567.414.414 0 0 0 .572-.157.418.418 0 0 0-.162-.574Zm1.653.915-.522-.292-2.004 3.582.522.292 2.004-3.582Zm1.386.775-.522-.292-2.005 3.582.523.292 2.004-3.582Zm3.872 3.741-.52-.291-.162.289c-.046-.304-.214-.581-.552-.77-.667-.373-1.485-.142-1.893.587-.408.729-.177 1.547.49 1.92.338.19.661.191.944.071l-.161.286.52.291 1.334-2.383Zm-1.446-.247c.43.24.535.73.291 1.166-.243.435-.715.602-1.146.361-.447-.251-.525-.748-.291-1.166.234-.418.698-.612 1.146-.361Zm3.595 1.368c-.244-.137-.58-.23-.929-.056l.163-.291-.518-.29-1.333 2.383.522.293.739-1.321c.229-.408.634-.472.969-.284.349.194.43.534.206.934l-.742 1.326.522.292.838-1.497c.312-.557.13-1.172-.437-1.489Zm2.828 1.582c-.667-.373-1.485-.142-1.893.587-.408.729-.176 1.548.49 1.921.338.189.661.19.944.07l-.16.286.52.291 2.004-3.582-.52-.291-.832 1.488c-.046-.303-.215-.581-.553-.77Zm-.212.525c.43.241.535.731.292 1.166-.244.435-.716.602-1.146.361-.448-.25-.526-.748-.292-1.166.234-.417.698-.612 1.146-.361Zm-30.851-11.246-2.816-1.575-.297.532 1.126.63-1.65 2.951.562.314 1.65-2.95 1.127.63.298-.532Zm.61 1.704c-.701-.393-1.47-.157-1.888.589-.423.757-.196 1.537.518 1.936.36.202.738.298 1.168.213l-.052-.516a1.3 1.3 0 0 1-.829-.134c-.338-.189-.539-.537-.37-1.004l1.762.986c.038-.057.081-.122.118-.189.414-.745.24-1.508-.427-1.881Zm-.268.457c.33.185.426.522.276.925l-1.237-.692c.25-.317.59-.441.961-.233Zm3.791 1.847c-.157-.297-.452-.583-.825-.792-.607-.339-1.148-.26-1.412.213-.214.383-.07.784.417 1.151l.231.172c.261.198.34.36.265.494-.1.179-.349.187-.705-.012-.388-.217-.552-.456-.649-.684l-.46.256c.203.453.605.74.851.878.686.384 1.264.286 1.52-.172.228-.408.044-.802-.434-1.167l-.226-.175c-.201-.155-.348-.3-.255-.467.095-.169.325-.19.609-.031.296.165.528.445.622.616l.451-.28Zm2.452 1.12-.913-.511.404-.721-.523-.292-.403.721-.475-.266-.265.473.475.266-.586 1.047c-.355.634-.202 1.102.338 1.404.299.167.6.195.864.173l.026-.531c-.192.01-.409-.017-.571-.107-.209-.117-.308-.336-.129-.657l.581-1.037.912.511.265-.473Zm2.973 1.664-.52-.291-.161.288c-.046-.303-.215-.58-.553-.769-.667-.373-1.485-.142-1.893.587-.408.728-.176 1.547.49 1.92.338.189.661.19.944.071l-.16.286.52.29 1.333-2.382Zm-1.446-.248c.43.241.535.731.292 1.166-.244.436-.716.602-1.146.362-.448-.251-.526-.748-.292-1.166.234-.418.698-.612 1.146-.362Zm5.289 2.316c-.296-.165-.711-.287-1.109-.062-.016-.355-.222-.682-.585-.886-.244-.136-.58-.229-.929-.056l.163-.291-.517-.289-1.334 2.383.523.292.739-1.321c.228-.408.633-.472.969-.284.348.195.429.534.205.935l-.742 1.326.523.292.739-1.321c.228-.408.633-.472.969-.284.348.195.429.534.205.935l-.742 1.325.523.293.837-1.498c.312-.557.13-1.171-.437-1.489Zm2.825 1.581c-.702-.393-1.471-.157-1.888.59-.423.756-.197 1.536.517 1.935.361.202.738.299 1.168.213l-.051-.516c-.284.047-.591 0-.83-.134-.338-.189-.539-.537-.369-1.004l1.761.986c.038-.057.081-.121.119-.189.413-.745.24-1.508-.427-1.881Zm-.269.457c.331.185.426.522.276.925l-1.236-.692c.249-.317.589-.441.96-.233Zm3.336 1.259c-.244-.136-.58-.23-.929-.056l.163-.291-.517-.29-1.334 2.383.523.293.739-1.321c.228-.408.633-.472.969-.284.348.195.429.534.205.934l-.742 1.326.523.293.838-1.498c.311-.557.129-1.172-.438-1.489Zm3.374 1.969-.913-.511.404-.721-.523-.292-.403.721-.476-.266-.264.473.475.266-.586 1.047c-.355.634-.202 1.102.338 1.404.299.167.6.195.864.173l.026-.531c-.192.01-.409-.016-.571-.107-.209-.117-.308-.336-.129-.657l.58-1.037.913.511.265-.473Z"/><path stroke="#E37645" stroke-width=".475" d="m130.641 113.678 19.485 10.902"/><path fill="#221C54" d="M221.64 101.443c-.005.009-.016.028-.031.032a1.5 1.5 0 0 0-.241.318c-.418.747-.016 1.671.588 2.009.777.435 1.644.123 2.041-.587l.068-.121.016-.028a.306.306 0 0 0 .042-.099.254.254 0 0 0 .016-.028c.021-.037.032-.08.044-.123.054-.165.09-.341.087-.515.005-.009-.01-.14-.022-.208a.107.107 0 0 0-.115-.089l-.318.03c-.069.011-.11.061-.098.13.015.265-.039.542-.159.757-.183.326-.504.539-.926.438l-.014.004a1.986 1.986 0 0 1-.121-.031l.067-.121.93-1.662c.032-.056.014-.115-.034-.142-.038-.022-.071-.052-.109-.074-.628-.363-1.281-.299-1.711.11Zm.099 1.061c.005-.01.005-.01-.005-.015-.004-.015.007-.034.002-.048.005-.01-.004-.015.001-.024.005-.01.006-.034.011-.043.006-.009.011-.019.001-.024.005-.009.006-.033.012-.043l.01-.018c.01-.019.006-.034.017-.052l.01-.019a.734.734 0 0 1 .069-.146l.01-.018a.311.311 0 0 1 .057-.079l.015-.028a.289.289 0 0 1 .067-.073c.005-.01.01-.019.025-.023.025-.023.045-.036.071-.059.005-.009.02-.013.025-.022.02-.013.055-.031.075-.044l.044-.012.045-.012c.029-.008.068-.01.098-.018.133-.012.283.011.443.063l-.021.038-.69 1.232-.026.047c-.225-.138-.355-.333-.366-.56ZM231.39 84.018c-.005.01-.016.028-.031.032a1.51 1.51 0 0 0-.241.319c-.418.747-.016 1.67.588 2.009.777.434 1.644.122 2.041-.587l.068-.122.016-.028a.315.315 0 0 0 .042-.099.378.378 0 0 0 .016-.028c.021-.037.032-.08.044-.122.054-.166.09-.342.087-.516.005-.01.005-.01-.005-.014a1.33 1.33 0 0 0-.017-.194.107.107 0 0 0-.115-.089l-.318.03c-.069.01-.11.062-.098.13.015.266-.039.542-.159.757-.183.327-.504.54-.926.438l-.014.004a1.675 1.675 0 0 1-.121-.03l.067-.122.93-1.662c.032-.056.014-.115-.034-.142-.038-.021-.071-.052-.109-.074-.628-.363-1.281-.3-1.711.11Zm.099 1.06c.005-.009.005-.009-.005-.014-.004-.015.007-.033.002-.048.005-.01-.004-.015.001-.024.005-.01.006-.033.011-.043.006-.01.011-.019.001-.024.005-.01.006-.033.012-.043l.01-.018c.01-.019.006-.034.017-.052l.01-.019a.728.728 0 0 1 .069-.145l.01-.02a.302.302 0 0 1 .057-.078l.015-.028a.3.3 0 0 1 .067-.073c.005-.01.01-.019.025-.023.025-.022.045-.036.071-.058.005-.01.02-.014.025-.023.02-.013.055-.03.075-.044l.044-.012.045-.012c.029-.008.068-.01.098-.018.133-.012.283.011.443.064l-.021.037-.69 1.233-.026.046c-.225-.138-.35-.343-.366-.56ZM224.393 96.546l-.188.336a.108.108 0 0 0 .043.147l2.302 1.287a.109.109 0 0 0 .148-.04l.188-.335a.11.11 0 0 0-.044-.148l-2.301-1.287c-.048-.027-.117-.016-.148.04ZM224.035 94.641l-.188.336a.11.11 0 0 0 .044.147l3.385 1.894a.109.109 0 0 0 .148-.04l.188-.336a.11.11 0 0 0-.044-.147l-3.375-1.888c-.058-.032-.126-.022-.158.034ZM230.16 86.284l-.188.337a.11.11 0 0 0 .044.147l1.284.719c.48.268.516.631.333.958-.188.336-.511.487-.991.218l-1.285-.719a.109.109 0 0 0-.148.04l-.188.336a.11.11 0 0 0 .044.147l1.332.746c.796.445 1.431.077 1.749-.493.319-.57.301-1.303-.495-1.748l-1.332-.746a.128.128 0 0 0-.159.058ZM226.159 93.255c-.418.747-.166 1.624.582 2.042.748.419 1.622.184 2.046-.572.418-.747.165-1.624-.583-2.043-.748-.418-1.627-.174-2.045.573Zm2.11 1.18a.899.899 0 0 1-1.23.33.898.898 0 0 1-.362-1.22.898.898 0 0 1 1.23-.33.885.885 0 0 1 .362 1.22ZM223.23 96.104a.37.37 0 0 0 .152.514.371.371 0 0 0 .519-.139.371.371 0 0 0-.153-.514.384.384 0 0 0-.518.139ZM228.567 89.109l-.204.364c-.021.037-.003.096.035.118l.163.09.058.033a1.298 1.298 0 0 0-.237.064l-.105.051c-.015.004-.02.014-.035.018l-.06.04c-.015.004-.025.022-.04.026s-.025.023-.045.036c-.031.032-.061.064-.101.09l-.011.02c-.015.028-.035.04-.051.069a.335.335 0 0 1-.011.019 1.29 1.29 0 0 0-.236 1.008c.074.384.294.802.754 1.059.806.45 1.635.093 1.943-.458.115-.205.167-.41.174-.602a.19.19 0 0 0-.012-.092 1.048 1.048 0 0 0-.072-.298c.038.022.101.044.197.098.46.258.596.69.319 1.184a1.704 1.704 0 0 1-.609.616c-.06.04-.072.107-.03.167l.22.282c.027.04.086.048.136.027.069-.034.135-.084.205-.142l.005-.01c.151-.111.289-.267.402-.425l.005-.009c.021-.037.052-.07.072-.107l.011-.018.068-.122c.413-.738.271-1.43-.343-1.884-.062-.047-.13-.084-.197-.122l-2.215-1.24-.009-.005a.117.117 0 0 0-.144.055Zm1.384 2.32a.897.897 0 0 1-1.229.329.898.898 0 0 1-.363-1.22.899.899 0 0 1 1.23-.33c.441.246.602.79.362 1.22ZM225.086 98.233c-.709-.397-1.483-.23-1.899.335-.027.046-.062.088-.088.134l-.026.047-.037.066c-.01.018-.021.037-.022.06-.01.02-.021.038-.022.062-.01.019-.015.028-.016.052l-.018.1c-.006.01-.001.025-.006.034-.001.024-.007.057-.008.081-.005.01-.001.024-.006.034-.001.024-.007.057.001.087 0 0 .005.014 0 .024.008.029.002.062.011.092.017.083.038.156.07.235l-.221-.123c-.038-.022-.097-.006-.118.031l-.204.365c-.026.046-.009.105.024.136l.02.011 3.279 1.834.057.033a.11.11 0 0 0 .149-.04l.188-.336a.11.11 0 0 0-.044-.147l-.057-.032-1.18-.66a1.52 1.52 0 0 0 .302-.089s.014-.004.02-.013c.005-.01.014-.004.02-.014.02-.013.055-.03.075-.044.005-.009.014-.004.02-.013.025-.023.045-.036.07-.059.005-.009.02-.013.031-.032.02-.013.035-.041.055-.054.006-.01.026-.023.031-.032.016-.028.041-.051.051-.07l.021-.037.047-.084.011-.019c.435-.688.186-1.526-.581-1.955Zm.106 1.702a.9.9 0 0 1-1.23.33.899.899 0 0 1-.362-1.22.897.897 0 0 1 1.229-.33c.442.246.603.79.363 1.22Z"/><defs><filter id="a" width="173.756" height="199.386" x="16.25" y="22.917" color-interpolation-filters="sRGB" filterUnits="userSpaceOnUse"><feFlood flood-opacity="0" result="BackgroundImageFix"/><feColorMatrix in="SourceAlpha" result="hardAlpha" values="0 0 0 0 0 0 0 0 0 0 0 0 0 0 0 0 0 0 127 0"/><feOffset dx="-.95" dy=".95"/><feGaussianBlur stdDeviation="2.375"/><feComposite in2="hardAlpha" operator="out"/><feColorMatrix values="0 0 0 0 0 0 0 0 0 0 0 0 0 0 0 0 0 0 0.25 0"/><feBlend in2="BackgroundImageFix" result="effect1_dropShadow_2257_11412"/><feBlend in="SourceGraphic" in2="effect1_dropShadow_2257_11412" result="shape"/></filter><filter id="b" width="160.295" height="191.929" x="42.854" y="13.416" color-interpolation-filters="sRGB" filterUnits="userSpaceOnUse"><feFlood flood-opacity="0" result="BackgroundImageFix"/><feColorMatrix in="SourceAlpha" result="hardAlpha" values="0 0 0 0 0 0 0 0 0 0 0 0 0 0 0 0 0 0 127 0"/><feOffset dx="-.95" dy=".95"/><feGaussianBlur stdDeviation="2.375"/><feComposite in2="hardAlpha" operator="out"/><feColorMatrix values="0 0 0 0 0 0 0 0 0 0 0 0 0 0 0 0 0 0 0.25 0"/><feBlend in2="BackgroundImageFix" result="effect1_dropShadow_2257_11412"/><feBlend in="SourceGraphic" in2="effect1_dropShadow_2257_11412" result="shape"/></filter><filter id="c" width="132.896" height="173.837" x="70.406" y="24.817" color-interpolation-filters="sRGB" filterUnits="userSpaceOnUse"><feFlood flood-opacity="0" result="BackgroundImageFix"/><feColorMatrix in="SourceAlpha" result="hardAlpha" values="0 0 0 0 0 0 0 0 0 0 0 0 0 0 0 0 0 0 127 0"/><feOffset dx="-.95" dy=".95"/><feGaussianBlur stdDeviation="2.375"/><feComposite in2="hardAlpha" operator="out"/><feColorMatrix values="0 0 0 0 0 0 0 0 0 0 0 0 0 0 0 0 0 0 0.25 0"/><feBlend in2="BackgroundImageFix" result="effect1_dropShadow_2257_11412"/><feBlend in="SourceGraphic" in2="effect1_dropShadow_2257_11412" result="shape"/></filter><filter id="d" width="189.426" height="205.86" x="61.856" y="19.116" color-interpolation-filters="sRGB" filterUnits="userSpaceOnUse"><feFlood flood-opacity="0" result="BackgroundImageFix"/><feColorMatrix in="SourceAlpha" result="hardAlpha" values="0 0 0 0 0 0 0 0 0 0 0 0 0 0 0 0 0 0 127 0"/><feOffset dx="-.95" dy=".95"/><feGaussianBlur stdDeviation="2.375"/><feComposite in2="hardAlpha" operator="out"/><feColorMatrix values="0 0 0 0 0 0 0 0 0 0 0 0 0 0 0 0 0 0 0.25 0"/><feBlend in2="BackgroundImageFix" result="effect1_dropShadow_2257_11412"/><feBlend in="SourceGraphic" in2="effect1_dropShadow_2257_11412" result="shape"/></filter></defs></svg>